<svg id="Nivel_3" data-name="Nivel 3" xmlns="http://www.w3.org/2000/svg" xmlns:xlink="http://www.w3.org/1999/xlink" viewBox="0 0 985.56 1403.85"><defs><style>.cls-1,.cls-2,.cls-3{fill:none;}.cls-2,.cls-3,.cls-4{stroke:#201813;stroke-miterlimit:10;}.cls-2,.cls-4{stroke-width:2px;}.cls-4{fill:url(#Lines_oblicuas);}</style><pattern id="Lines_oblicuas" data-name="Lines oblicuas" width="75.58" height="81.07" patternTransform="translate(-662.88 -83.14) scale(0.98 0.98)" patternUnits="userSpaceOnUse" viewBox="0 0 75.58 81.07"><rect class="cls-1" width="75.58" height="81.07"/><polygon class="cls-1" points="2.78 0 0 2.98 0 17.11 15.96 0 2.78 0"/><polygon class="cls-1" points="21.43 0 0 22.98 0 37.11 34.61 0 21.43 0"/><polygon class="cls-1" points="58.73 0 0 62.98 0 78.11 72.85 0 58.73 0"/><polygon class="cls-1" points="40.08 0 0 42.98 0 57.11 53.26 0 40.08 0"/><polygon class="cls-1" points="75.58 42.93 40.02 81.07 53.2 81.07 75.58 57.07 75.58 42.93"/><polygon class="cls-1" points="75.58 22.93 21.36 81.07 34.55 81.07 75.58 37.07 75.58 22.93"/><polygon class="cls-1" points="72.85 81.07 75.58 78.14 75.58 62.93 58.67 81.07 72.85 81.07"/><polygon class="cls-1" points="75.58 2.93 2.71 81.07 15.89 81.07 75.58 17.07 75.58 2.93"/><polygon points="75.58 0 72.85 0 0 78.11 0 81.07 2.71 81.07 75.58 2.93 75.58 0"/><polygon points="53.26 0 0 57.11 0 62.98 58.73 0 53.26 0"/><polygon points="34.61 0 0 37.11 0 42.98 40.08 0 34.61 0"/><polygon points="15.96 0 0 17.11 0 22.98 21.43 0 15.96 0"/><polygon points="0 0 0 2.98 2.78 0 0 0"/><polygon points="75.58 37.07 34.55 81.07 40.02 81.07 75.58 42.93 75.58 37.07"/><polygon points="75.58 17.07 15.89 81.07 21.36 81.07 75.58 22.93 75.58 17.07"/><polygon points="75.58 62.93 75.58 57.07 53.2 81.07 58.67 81.07 75.58 62.93"/><polygon points="75.58 81.07 75.58 78.14 72.85 81.07 75.58 81.07"/></pattern></defs><title>ETSE3n</title><polyline class="cls-2" points="960.46 1189.95 960.46 1238.02 936.36 1238.02 936.36 1167.63 984.56 1167.63 984.56 1234.46"/><line class="cls-2" x1="960.46" y1="1233.6" x2="936.36" y2="1233.6"/><line class="cls-2" x1="960.46" y1="1229.68" x2="936.36" y2="1229.68"/><line class="cls-2" x1="960.46" y1="1225.75" x2="936.36" y2="1225.75"/><line class="cls-2" x1="960.46" y1="1221.83" x2="936.36" y2="1221.83"/><line class="cls-2" x1="960.46" y1="1217.91" x2="936.36" y2="1217.91"/><line class="cls-2" x1="960.46" y1="1213.98" x2="936.36" y2="1213.98"/><line class="cls-2" x1="960.46" y1="1210.06" x2="936.36" y2="1210.06"/><line class="cls-2" x1="960.46" y1="1206.13" x2="936.36" y2="1206.13"/><line class="cls-2" x1="960.46" y1="1202.21" x2="936.36" y2="1202.21"/><line class="cls-2" x1="960.46" y1="1198.29" x2="936.36" y2="1198.29"/><line class="cls-2" x1="960.46" y1="1194.36" x2="936.36" y2="1194.36"/><line class="cls-2" x1="960.46" y1="1190.93" x2="984.56" y2="1190.93"/><line class="cls-2" x1="960.46" y1="1194.85" x2="984.56" y2="1194.85"/><line class="cls-2" x1="960.46" y1="1198.78" x2="984.56" y2="1198.78"/><line class="cls-2" x1="960.46" y1="1202.7" x2="984.56" y2="1202.7"/><line class="cls-2" x1="960.46" y1="1206.62" x2="984.56" y2="1206.62"/><line class="cls-2" x1="960.46" y1="1210.55" x2="984.56" y2="1210.55"/><line class="cls-2" x1="960.46" y1="1214.47" x2="984.56" y2="1214.47"/><line class="cls-2" x1="960.46" y1="1218.4" x2="984.56" y2="1218.4"/><line class="cls-2" x1="960.46" y1="1222.32" x2="984.56" y2="1222.32"/><line class="cls-2" x1="960.46" y1="1226.24" x2="984.56" y2="1226.24"/><line class="cls-2" x1="960.46" y1="1230.17" x2="984.56" y2="1230.17"/><line class="cls-2" x1="960.46" y1="1234.09" x2="984.56" y2="1234.09"/><line class="cls-2" x1="949.18" y1="1238.02" x2="949.18" y2="1181"/><line class="cls-2" x1="973.41" y1="1181.98" x2="949.18" y2="1181.98"/><line class="cls-2" x1="973.41" y1="1233.11" x2="973.41" y2="1181"/><line class="cls-2" x1="949.18" y1="1206.62" x2="960.46" y2="1210.06"/><line class="cls-2" x1="936.36" y1="1210.06" x2="949.18" y2="1206.62"/><line class="cls-2" x1="960.46" y1="1230.17" x2="973.41" y2="1233.6"/><line class="cls-2" x1="984.56" y1="1230.17" x2="973.41" y2="1233.6"/><rect class="cls-2" x="805.55" y="1167.41" width="130.81" height="91.23"/><rect class="cls-2" x="762.27" y="1167.41" width="43.28" height="91.23"/><rect class="cls-2" x="676.7" y="1167.41" width="85.57" height="91.23"/><rect class="cls-2" x="633.43" y="1167.41" width="43.28" height="91.23"/><rect class="cls-2" x="503.6" y="1167.41" width="129.83" height="91.23"/><rect class="cls-2" x="460.32" y="1167.41" width="43.28" height="91.23"/><rect class="cls-2" x="372.78" y="1167.41" width="87.54" height="91.23"/><rect class="cls-2" x="200.66" y="1167.41" width="129.83" height="91.23"/><rect class="cls-2" x="200.66" y="1292.98" width="43.28" height="91.23"/><rect class="cls-2" x="243.94" y="1292.98" width="43.28" height="91.23"/><rect class="cls-2" x="287.22" y="1292.98" width="85.57" height="91.23"/><rect class="cls-2" x="372.78" y="1292.98" width="43.28" height="91.23"/><rect class="cls-2" x="416.06" y="1292.98" width="44.26" height="91.23"/><rect class="cls-2" x="460.32" y="1292.98" width="43.28" height="91.23"/><rect class="cls-2" x="503.6" y="1292.98" width="43.28" height="91.23"/><rect class="cls-2" x="546.87" y="1292.98" width="43.28" height="91.23"/><rect class="cls-2" x="633.43" y="1292.98" width="43.28" height="91.23"/><rect class="cls-2" x="676.7" y="1292.98" width="42.29" height="91.23"/><rect class="cls-2" x="719" y="1292.98" width="43.28" height="91.23"/><rect class="cls-2" x="762.27" y="1292.98" width="43.28" height="91.23"/><rect class="cls-2" x="805.55" y="1292.98" width="43.28" height="91.23"/><rect class="cls-2" x="848.83" y="1292.98" width="43.28" height="91.23"/><rect class="cls-2" x="892.1" y="1292.98" width="44.26" height="91.23"/><rect class="cls-2" x="936.36" y="1292.98" width="48.19" height="91.23"/><line class="cls-2" x1="984.56" y1="1234.12" x2="984.56" y2="1292.98"/><rect class="cls-2" x="59.03" y="1167.41" width="41.31" height="91.23"/><rect class="cls-2" x="100.34" y="1167.41" width="48.19" height="91.23"/><polyline class="cls-2" points="31.49 1246.87 1 1246.87 1 1167.41 59.03 1167.41 59.03 1246.87"/><line class="cls-2" x1="16.74" y1="1246.87" x2="16.74" y2="1181.15"/><line class="cls-2" x1="45.26" y1="1240.01" x2="45.26" y2="1181.15"/><line class="cls-2" x1="16.74" y1="1182.13" x2="45.26" y2="1182.13"/><line class="cls-2" x1="31.49" y1="1192.92" x2="31.49" y2="1247.85"/><line class="cls-3" x1="59.03" y1="1192.92" x2="30.51" y2="1192.92"/><line class="cls-3" x1="59.03" y1="1196.84" x2="31.49" y2="1196.84"/><line class="cls-3" x1="59.03" y1="1200.77" x2="31.49" y2="1200.77"/><line class="cls-3" x1="59.03" y1="1204.69" x2="31.49" y2="1204.69"/><line class="cls-3" x1="59.03" y1="1208.61" x2="31.49" y2="1208.61"/><line class="cls-3" x1="59.03" y1="1212.54" x2="31.49" y2="1212.54"/><line class="cls-3" x1="59.03" y1="1216.46" x2="31.49" y2="1216.46"/><line class="cls-3" x1="59.03" y1="1220.39" x2="31.49" y2="1220.39"/><line class="cls-3" x1="59.03" y1="1224.31" x2="31.49" y2="1224.31"/><line class="cls-3" x1="59.03" y1="1228.23" x2="31.49" y2="1228.23"/><line class="cls-3" x1="59.03" y1="1232.16" x2="31.49" y2="1232.16"/><line class="cls-3" x1="59.03" y1="1236.08" x2="31.49" y2="1236.08"/><line class="cls-3" x1="59.03" y1="1240.01" x2="31.49" y2="1240.01"/><line class="cls-3" x1="1" y1="1242.95" x2="30.51" y2="1242.95"/><line class="cls-3" x1="1" y1="1239.02" x2="30.51" y2="1239.02"/><line class="cls-3" x1="1" y1="1235.1" x2="30.51" y2="1235.1"/><line class="cls-3" x1="1" y1="1231.18" x2="30.51" y2="1231.18"/><line class="cls-3" x1="1" y1="1227.25" x2="30.51" y2="1227.25"/><line class="cls-3" x1="1" y1="1223.33" x2="30.51" y2="1223.33"/><line class="cls-3" x1="1" y1="1219.4" x2="30.51" y2="1219.4"/><line class="cls-3" x1="1" y1="1215.48" x2="30.51" y2="1215.48"/><line class="cls-3" x1="1" y1="1211.56" x2="30.51" y2="1211.56"/><line class="cls-3" x1="1" y1="1207.63" x2="30.51" y2="1207.63"/><line class="cls-3" x1="1" y1="1203.71" x2="30.51" y2="1203.71"/><line class="cls-3" x1="1" y1="1199.78" x2="30.51" y2="1199.78"/><line class="cls-3" x1="1" y1="1195.86" x2="30.51" y2="1195.86"/><line class="cls-2" x1="1" y1="1246.87" x2="1" y2="1292.98"/><polygon class="cls-4" points="26.08 1292.98 26.08 1296.9 26.08 1296.9 30.51 1296.9 30.51 1326.33 4.93 1326.33 4.93 1296.9 9.36 1296.9 9.36 1292.98 1 1292.98 1 1402.85 148.53 1402.85 148.53 1292.98 26.08 1292.98"/><line class="cls-2" x1="148.53" y1="1167.41" x2="148.53" y2="1015.36"/><line class="cls-2" x1="200.66" y1="1167.41" x2="200.66" y2="1152.7"/><line class="cls-2" x1="149.52" y1="1402.85" x2="200.66" y2="1402.85"/><line class="cls-2" x1="200.66" y1="1384.21" x2="200.66" y2="1403.83"/><rect class="cls-2" x="590.15" y="1292.98" width="43.28" height="91.23"/><rect class="cls-2" x="330.49" y="1167.41" width="42.29" height="91.23"/><polyline class="cls-2" points="960.46 802.45 960.46 850.52 936.36 850.52 936.36 780.13 984.56 780.13 984.56 846.97"/><line class="cls-2" x1="960.46" y1="846.11" x2="936.36" y2="846.11"/><line class="cls-2" x1="960.46" y1="842.18" x2="936.36" y2="842.18"/><line class="cls-2" x1="960.46" y1="838.26" x2="936.36" y2="838.26"/><line class="cls-2" x1="960.46" y1="834.33" x2="936.36" y2="834.33"/><line class="cls-2" x1="960.46" y1="830.41" x2="936.36" y2="830.41"/><line class="cls-2" x1="960.46" y1="826.49" x2="936.36" y2="826.49"/><line class="cls-2" x1="960.46" y1="822.56" x2="936.36" y2="822.56"/><line class="cls-2" x1="960.46" y1="818.64" x2="936.36" y2="818.64"/><line class="cls-2" x1="960.46" y1="814.71" x2="936.36" y2="814.71"/><line class="cls-2" x1="960.46" y1="810.79" x2="936.36" y2="810.79"/><line class="cls-2" x1="960.46" y1="806.87" x2="936.36" y2="806.87"/><line class="cls-2" x1="960.46" y1="803.43" x2="984.56" y2="803.43"/><line class="cls-2" x1="960.46" y1="807.36" x2="984.56" y2="807.36"/><line class="cls-2" x1="960.46" y1="811.28" x2="984.56" y2="811.28"/><line class="cls-2" x1="960.46" y1="815.2" x2="984.56" y2="815.2"/><line class="cls-2" x1="960.46" y1="819.13" x2="984.56" y2="819.13"/><line class="cls-2" x1="960.46" y1="823.05" x2="984.56" y2="823.05"/><line class="cls-2" x1="960.46" y1="826.98" x2="984.56" y2="826.98"/><line class="cls-2" x1="960.46" y1="830.9" x2="984.56" y2="830.9"/><line class="cls-2" x1="960.46" y1="834.82" x2="984.56" y2="834.82"/><line class="cls-2" x1="960.46" y1="838.75" x2="984.56" y2="838.75"/><line class="cls-2" x1="960.46" y1="842.67" x2="984.56" y2="842.67"/><line class="cls-2" x1="960.46" y1="846.6" x2="984.56" y2="846.6"/><line class="cls-2" x1="949.18" y1="850.52" x2="949.18" y2="793.5"/><line class="cls-2" x1="973.41" y1="794.48" x2="949.18" y2="794.48"/><line class="cls-2" x1="973.41" y1="845.62" x2="973.41" y2="793.5"/><line class="cls-2" x1="949.18" y1="819.13" x2="960.46" y2="822.56"/><line class="cls-2" x1="936.36" y1="822.56" x2="949.18" y2="819.13"/><line class="cls-2" x1="960.46" y1="842.67" x2="973.41" y2="846.11"/><line class="cls-2" x1="984.56" y1="842.67" x2="973.41" y2="846.11"/><rect class="cls-2" x="762.27" y="779.92" width="174.09" height="91.23"/><rect class="cls-2" x="676.7" y="779.92" width="85.57" height="91.23"/><rect class="cls-2" x="633.43" y="779.92" width="43.28" height="91.23"/><rect class="cls-2" x="546.87" y="779.92" width="86.55" height="91.23"/><rect class="cls-2" x="503.6" y="779.92" width="43.28" height="91.23"/><rect class="cls-2" x="460.32" y="779.92" width="43.28" height="91.23"/><rect class="cls-2" x="330.49" y="779.92" width="129.83" height="91.23"/><rect class="cls-2" x="200.66" y="779.92" width="129.83" height="91.23"/><rect class="cls-2" x="200.66" y="905.48" width="43.28" height="91.23"/><rect class="cls-2" x="243.94" y="905.48" width="43.28" height="91.23"/><rect class="cls-2" x="287.22" y="905.48" width="43.28" height="91.23"/><rect class="cls-2" x="330.49" y="905.48" width="42.29" height="91.23"/><rect class="cls-2" x="372.78" y="905.48" width="43.28" height="91.23"/><rect class="cls-2" x="416.06" y="905.48" width="44.26" height="91.23"/><rect class="cls-2" x="460.32" y="905.48" width="43.28" height="91.23"/><rect class="cls-2" x="503.6" y="905.48" width="43.28" height="91.23"/><rect class="cls-2" x="546.87" y="905.48" width="86.55" height="91.23"/><rect class="cls-2" x="633.43" y="905.48" width="43.28" height="91.23"/><rect class="cls-2" x="676.7" y="905.48" width="42.29" height="91.23"/><rect class="cls-2" x="719" y="905.48" width="43.28" height="91.23"/><rect class="cls-2" x="762.27" y="905.48" width="43.28" height="91.23"/><rect class="cls-2" x="805.55" y="905.48" width="43.28" height="91.23"/><rect class="cls-2" x="848.83" y="905.48" width="43.28" height="91.23"/><rect class="cls-2" x="892.1" y="905.48" width="44.26" height="91.23"/><rect class="cls-2" x="936.36" y="905.48" width="48.19" height="91.23"/><line class="cls-2" x1="984.56" y1="846.62" x2="984.56" y2="905.48"/><rect class="cls-2" x="59.03" y="779.92" width="41.31" height="91.23"/><rect class="cls-2" x="100.34" y="779.92" width="48.19" height="91.23"/><polyline class="cls-2" points="31.49 859.38 1 859.38 1 779.92 59.03 779.92 59.03 859.38"/><line class="cls-2" x1="16.74" y1="859.38" x2="16.74" y2="793.65"/><line class="cls-2" x1="45.26" y1="852.51" x2="45.26" y2="793.65"/><line class="cls-2" x1="16.74" y1="794.63" x2="45.26" y2="794.63"/><line class="cls-2" x1="31.49" y1="805.42" x2="31.49" y2="860.36"/><line class="cls-3" x1="59.03" y1="805.42" x2="30.51" y2="805.42"/><line class="cls-3" x1="59.03" y1="809.35" x2="31.49" y2="809.35"/><line class="cls-3" x1="59.03" y1="813.27" x2="31.49" y2="813.27"/><line class="cls-3" x1="59.03" y1="817.19" x2="31.49" y2="817.19"/><line class="cls-3" x1="59.03" y1="821.12" x2="31.49" y2="821.12"/><line class="cls-3" x1="59.03" y1="825.04" x2="31.49" y2="825.04"/><line class="cls-3" x1="59.03" y1="828.97" x2="31.49" y2="828.97"/><line class="cls-3" x1="59.03" y1="832.89" x2="31.49" y2="832.89"/><line class="cls-3" x1="59.03" y1="836.81" x2="31.49" y2="836.81"/><line class="cls-3" x1="59.03" y1="840.74" x2="31.49" y2="840.74"/><line class="cls-3" x1="59.03" y1="844.66" x2="31.49" y2="844.66"/><line class="cls-3" x1="59.03" y1="848.59" x2="31.49" y2="848.59"/><line class="cls-3" x1="59.03" y1="852.51" x2="31.49" y2="852.51"/><line class="cls-3" x1="1" y1="855.45" x2="30.51" y2="855.45"/><line class="cls-3" x1="1" y1="851.53" x2="30.51" y2="851.53"/><line class="cls-3" x1="1" y1="847.61" x2="30.51" y2="847.61"/><line class="cls-3" x1="1" y1="843.68" x2="30.51" y2="843.68"/><line class="cls-3" x1="1" y1="839.76" x2="30.51" y2="839.76"/><line class="cls-3" x1="1" y1="835.83" x2="30.51" y2="835.83"/><line class="cls-3" x1="1" y1="831.91" x2="30.51" y2="831.91"/><line class="cls-3" x1="1" y1="827.98" x2="30.51" y2="827.98"/><line class="cls-3" x1="1" y1="824.06" x2="30.51" y2="824.06"/><line class="cls-3" x1="1" y1="820.14" x2="30.51" y2="820.14"/><line class="cls-3" x1="1" y1="816.21" x2="30.51" y2="816.21"/><line class="cls-3" x1="1" y1="812.29" x2="30.51" y2="812.29"/><line class="cls-3" x1="1" y1="808.36" x2="30.51" y2="808.36"/><line class="cls-2" x1="1" y1="859.38" x2="1" y2="905.48"/><polygon class="cls-4" points="26.08 905.48 26.08 909.41 26.08 909.41 30.51 909.41 30.51 938.84 4.93 938.84 4.93 909.41 9.36 909.41 9.36 905.48 1 905.48 1 1015.36 148.53 1015.36 148.53 905.48 26.08 905.48"/><line class="cls-2" x1="148.53" y1="779.92" x2="148.53" y2="625.9"/><line class="cls-2" x1="200.66" y1="779.92" x2="200.66" y2="765.2"/><line class="cls-2" x1="200.66" y1="996.72" x2="200.66" y2="1016.34"/><polyline class="cls-2" points="960.46 412.99 960.46 461.06 936.36 461.06 936.36 390.68 984.56 390.68 984.56 457.51"/><line class="cls-2" x1="960.46" y1="456.65" x2="936.36" y2="456.65"/><line class="cls-2" x1="960.46" y1="452.72" x2="936.36" y2="452.72"/><line class="cls-2" x1="960.46" y1="448.8" x2="936.36" y2="448.8"/><line class="cls-2" x1="960.46" y1="444.88" x2="936.36" y2="444.88"/><line class="cls-2" x1="960.46" y1="440.95" x2="936.36" y2="440.95"/><line class="cls-2" x1="960.46" y1="437.03" x2="936.36" y2="437.03"/><line class="cls-2" x1="960.46" y1="433.1" x2="936.36" y2="433.1"/><line class="cls-2" x1="960.46" y1="429.18" x2="936.36" y2="429.18"/><line class="cls-2" x1="960.46" y1="425.26" x2="936.36" y2="425.26"/><line class="cls-2" x1="960.46" y1="421.33" x2="936.36" y2="421.33"/><line class="cls-2" x1="960.46" y1="417.41" x2="936.36" y2="417.41"/><line class="cls-2" x1="960.46" y1="413.97" x2="984.56" y2="413.97"/><line class="cls-2" x1="960.46" y1="417.9" x2="984.56" y2="417.9"/><line class="cls-2" x1="960.46" y1="421.82" x2="984.56" y2="421.82"/><line class="cls-2" x1="960.46" y1="425.75" x2="984.56" y2="425.75"/><line class="cls-2" x1="960.46" y1="429.67" x2="984.56" y2="429.67"/><line class="cls-2" x1="960.46" y1="433.59" x2="984.56" y2="433.59"/><line class="cls-2" x1="960.46" y1="437.52" x2="984.56" y2="437.52"/><line class="cls-2" x1="960.46" y1="441.44" x2="984.56" y2="441.44"/><line class="cls-2" x1="960.46" y1="445.37" x2="984.56" y2="445.37"/><line class="cls-2" x1="960.46" y1="449.29" x2="984.56" y2="449.29"/><line class="cls-2" x1="960.46" y1="453.21" x2="984.56" y2="453.21"/><line class="cls-2" x1="960.46" y1="457.14" x2="984.56" y2="457.14"/><line class="cls-2" x1="949.18" y1="461.06" x2="949.18" y2="404.04"/><line class="cls-2" x1="973.41" y1="405.02" x2="949.18" y2="405.02"/><line class="cls-2" x1="973.41" y1="456.16" x2="973.41" y2="404.04"/><line class="cls-2" x1="949.18" y1="429.67" x2="960.46" y2="433.1"/><line class="cls-2" x1="936.36" y1="433.1" x2="949.18" y2="429.67"/><line class="cls-2" x1="960.46" y1="453.21" x2="973.41" y2="456.65"/><line class="cls-2" x1="984.56" y1="453.21" x2="973.41" y2="456.65"/><rect class="cls-2" x="762.27" y="390.46" width="174.09" height="91.23"/><rect class="cls-2" x="590.15" y="390.46" width="172.12" height="91.23"/><rect class="cls-2" x="372.78" y="390.46" width="217.37" height="91.23"/><rect class="cls-2" x="200.66" y="390.46" width="129.83" height="91.23"/><rect class="cls-2" x="200.66" y="516.03" width="43.28" height="91.23"/><rect class="cls-2" x="243.94" y="516.03" width="43.28" height="91.23"/><rect class="cls-2" x="287.22" y="516.03" width="43.28" height="91.23"/><rect class="cls-2" x="330.49" y="516.03" width="42.29" height="91.23"/><rect class="cls-2" x="372.78" y="516.03" width="43.28" height="91.23"/><rect class="cls-2" x="416.06" y="516.03" width="44.26" height="91.23"/><rect class="cls-2" x="460.32" y="516.03" width="43.28" height="91.23"/><rect class="cls-2" x="503.6" y="516.03" width="43.28" height="91.23"/><rect class="cls-2" x="546.87" y="516.03" width="43.28" height="91.23"/><rect class="cls-2" x="633.43" y="516.03" width="43.28" height="91.23"/><rect class="cls-2" x="676.7" y="516.03" width="42.29" height="91.23"/><rect class="cls-2" x="719" y="516.03" width="43.28" height="91.23"/><rect class="cls-2" x="762.27" y="516.03" width="43.28" height="91.23"/><rect class="cls-2" x="805.55" y="516.03" width="43.28" height="91.23"/><rect class="cls-2" x="848.83" y="516.03" width="43.28" height="91.23"/><rect class="cls-2" x="892.1" y="516.03" width="44.26" height="91.23"/><rect class="cls-2" x="936.36" y="516.03" width="48.19" height="91.23"/><line class="cls-2" x1="984.56" y1="457.17" x2="984.56" y2="516.03"/><rect class="cls-2" x="59.03" y="390.46" width="41.31" height="91.23"/><rect class="cls-2" x="100.34" y="390.46" width="48.19" height="91.23"/><polyline class="cls-2" points="31.49 469.92 1 469.92 1 390.46 59.03 390.46 59.03 469.92"/><line class="cls-2" x1="16.74" y1="469.92" x2="16.74" y2="404.19"/><line class="cls-2" x1="45.26" y1="463.05" x2="45.26" y2="404.19"/><line class="cls-2" x1="16.74" y1="405.17" x2="45.26" y2="405.17"/><line class="cls-2" x1="31.49" y1="415.96" x2="31.49" y2="470.9"/><line class="cls-3" x1="59.03" y1="415.96" x2="30.51" y2="415.96"/><line class="cls-3" x1="59.03" y1="419.89" x2="31.49" y2="419.89"/><line class="cls-3" x1="59.03" y1="423.81" x2="31.49" y2="423.81"/><line class="cls-3" x1="59.03" y1="427.74" x2="31.49" y2="427.74"/><line class="cls-3" x1="59.03" y1="431.66" x2="31.49" y2="431.66"/><line class="cls-3" x1="59.03" y1="435.58" x2="31.49" y2="435.58"/><line class="cls-3" x1="59.03" y1="439.51" x2="31.49" y2="439.51"/><line class="cls-3" x1="59.03" y1="443.43" x2="31.49" y2="443.43"/><line class="cls-3" x1="59.03" y1="447.36" x2="31.49" y2="447.36"/><line class="cls-3" x1="59.03" y1="451.28" x2="31.49" y2="451.28"/><line class="cls-3" x1="59.03" y1="455.2" x2="31.49" y2="455.2"/><line class="cls-3" x1="59.03" y1="459.13" x2="31.49" y2="459.13"/><line class="cls-3" x1="59.03" y1="463.05" x2="31.49" y2="463.05"/><line class="cls-3" x1="1" y1="466" x2="30.51" y2="466"/><line class="cls-3" x1="1" y1="462.07" x2="30.51" y2="462.07"/><line class="cls-3" x1="1" y1="458.15" x2="30.51" y2="458.15"/><line class="cls-3" x1="1" y1="454.22" x2="30.51" y2="454.22"/><line class="cls-3" x1="1" y1="450.3" x2="30.51" y2="450.3"/><line class="cls-3" x1="1" y1="446.38" x2="30.51" y2="446.38"/><line class="cls-3" x1="1" y1="442.45" x2="30.51" y2="442.45"/><line class="cls-3" x1="1" y1="438.53" x2="30.51" y2="438.53"/><line class="cls-3" x1="1" y1="434.6" x2="30.51" y2="434.6"/><line class="cls-3" x1="1" y1="430.68" x2="30.51" y2="430.68"/><line class="cls-3" x1="1" y1="426.76" x2="30.51" y2="426.76"/><line class="cls-3" x1="1" y1="422.83" x2="30.51" y2="422.83"/><line class="cls-3" x1="1" y1="418.91" x2="30.51" y2="418.91"/><line class="cls-2" x1="1" y1="469.92" x2="1" y2="516.03"/><polygon class="cls-4" points="26.08 516.03 26.08 519.95 26.08 519.95 30.51 519.95 30.51 549.38 4.93 549.38 4.93 519.95 9.36 519.95 9.36 516.03 1 516.03 1 625.9 148.53 625.9 148.53 516.03 26.08 516.03"/><line class="cls-2" x1="148.53" y1="390.46" x2="148.53" y2="236.44"/><line class="cls-2" x1="200.66" y1="390.46" x2="200.66" y2="375.74"/><line class="cls-2" x1="200.66" y1="607.26" x2="200.66" y2="626.88"/><rect class="cls-2" x="590.15" y="516.03" width="43.28" height="91.23"/><line class="cls-2" x1="200.66" y1="1016.34" x2="200.66" y2="1152.7"/><line class="cls-2" x1="200.66" y1="626.88" x2="200.66" y2="765.2"/><rect class="cls-2" x="330.49" y="390.46" width="42.29" height="91.23"/><polyline class="cls-2" points="960.46 23.54 960.46 71.61 936.36 71.61 936.36 1.22 984.56 1.22 984.56 68.05"/><line class="cls-2" x1="960.46" y1="67.19" x2="936.36" y2="67.19"/><line class="cls-2" x1="960.46" y1="63.27" x2="936.36" y2="63.27"/><line class="cls-2" x1="960.46" y1="59.34" x2="936.36" y2="59.34"/><line class="cls-2" x1="960.46" y1="55.42" x2="936.36" y2="55.42"/><line class="cls-2" x1="960.46" y1="51.49" x2="936.36" y2="51.49"/><line class="cls-2" x1="960.46" y1="47.57" x2="936.36" y2="47.57"/><line class="cls-2" x1="960.46" y1="43.65" x2="936.36" y2="43.65"/><line class="cls-2" x1="960.46" y1="39.72" x2="936.36" y2="39.72"/><line class="cls-2" x1="960.46" y1="35.8" x2="936.36" y2="35.8"/><line class="cls-2" x1="960.46" y1="31.87" x2="936.36" y2="31.87"/><line class="cls-2" x1="960.46" y1="27.95" x2="936.36" y2="27.95"/><line class="cls-2" x1="960.46" y1="24.52" x2="984.56" y2="24.52"/><line class="cls-2" x1="960.46" y1="28.44" x2="984.56" y2="28.44"/><line class="cls-2" x1="960.46" y1="32.36" x2="984.56" y2="32.36"/><line class="cls-2" x1="960.46" y1="36.29" x2="984.56" y2="36.29"/><line class="cls-2" x1="960.46" y1="40.21" x2="984.56" y2="40.21"/><line class="cls-2" x1="960.46" y1="44.14" x2="984.56" y2="44.14"/><line class="cls-2" x1="960.46" y1="48.06" x2="984.56" y2="48.06"/><line class="cls-2" x1="960.46" y1="51.98" x2="984.56" y2="51.98"/><line class="cls-2" x1="960.46" y1="55.91" x2="984.56" y2="55.91"/><line class="cls-2" x1="960.46" y1="59.83" x2="984.56" y2="59.83"/><line class="cls-2" x1="960.46" y1="63.76" x2="984.56" y2="63.76"/><line class="cls-2" x1="960.46" y1="67.68" x2="984.56" y2="67.68"/><line class="cls-2" x1="949.18" y1="71.61" x2="949.18" y2="14.58"/><line class="cls-2" x1="973.41" y1="15.57" x2="949.18" y2="15.57"/><line class="cls-2" x1="973.41" y1="66.7" x2="973.41" y2="14.58"/><line class="cls-2" x1="949.18" y1="40.21" x2="960.46" y2="43.65"/><line class="cls-2" x1="936.36" y1="43.65" x2="949.18" y2="40.21"/><line class="cls-2" x1="960.46" y1="63.76" x2="973.41" y2="67.19"/><line class="cls-2" x1="984.56" y1="63.76" x2="973.41" y2="67.19"/><rect class="cls-2" x="892.1" y="1" width="44.26" height="91.23"/><rect class="cls-2" x="805.55" y="1" width="86.55" height="91.23"/><rect class="cls-2" x="633.43" y="1" width="172.12" height="91.23"/><rect class="cls-2" x="546.87" y="1" width="86.55" height="91.23"/><rect class="cls-2" x="503.6" y="1" width="43.28" height="91.23"/><rect class="cls-2" x="460.32" y="1" width="43.28" height="91.23"/><rect class="cls-2" x="330.49" y="1" width="42.29" height="91.23"/><rect class="cls-2" x="200.66" y="1" width="43.28" height="91.23"/><rect class="cls-2" x="200.66" y="126.57" width="43.28" height="91.23"/><rect class="cls-2" x="243.94" y="126.57" width="43.28" height="91.23"/><rect class="cls-2" x="287.22" y="126.57" width="43.28" height="91.23"/><rect class="cls-2" x="330.49" y="126.57" width="42.29" height="91.23"/><rect class="cls-2" x="372.78" y="126.57" width="43.28" height="91.23"/><rect class="cls-2" x="416.06" y="126.57" width="44.26" height="91.23"/><rect class="cls-2" x="460.32" y="126.57" width="43.28" height="91.23"/><rect class="cls-2" x="503.6" y="126.57" width="43.28" height="91.23"/><rect class="cls-2" x="546.87" y="126.57" width="43.28" height="91.23"/><rect class="cls-2" x="590.15" y="126.57" width="215.4" height="91.23"/><rect class="cls-2" x="805.55" y="126.57" width="86.55" height="91.23"/><rect class="cls-2" x="892.1" y="126.57" width="44.26" height="91.23"/><rect class="cls-2" x="936.36" y="126.57" width="48.19" height="91.23"/><line class="cls-2" x1="984.56" y1="67.71" x2="984.56" y2="126.57"/><rect class="cls-2" x="59.03" y="1" width="41.31" height="91.23"/><rect class="cls-2" x="100.34" y="1" width="48.19" height="91.23"/><polyline class="cls-2" points="31.49 80.46 1 80.46 1 1 59.03 1 59.03 80.46"/><line class="cls-2" x1="16.74" y1="80.46" x2="16.74" y2="14.73"/><line class="cls-2" x1="45.26" y1="73.59" x2="45.26" y2="14.73"/><line class="cls-2" x1="16.74" y1="15.72" x2="45.26" y2="15.72"/><line class="cls-2" x1="31.49" y1="26.51" x2="31.49" y2="81.44"/><line class="cls-3" x1="59.03" y1="26.51" x2="30.51" y2="26.51"/><line class="cls-3" x1="59.03" y1="30.43" x2="31.49" y2="30.43"/><line class="cls-3" x1="59.03" y1="34.35" x2="31.49" y2="34.35"/><line class="cls-3" x1="59.03" y1="38.28" x2="31.49" y2="38.28"/><line class="cls-3" x1="59.03" y1="42.2" x2="31.49" y2="42.2"/><line class="cls-3" x1="59.03" y1="46.13" x2="31.49" y2="46.13"/><line class="cls-3" x1="59.03" y1="50.05" x2="31.49" y2="50.05"/><line class="cls-3" x1="59.03" y1="53.97" x2="31.49" y2="53.97"/><line class="cls-3" x1="59.03" y1="57.9" x2="31.49" y2="57.9"/><line class="cls-3" x1="59.03" y1="61.82" x2="31.49" y2="61.82"/><line class="cls-3" x1="59.03" y1="65.75" x2="31.49" y2="65.75"/><line class="cls-3" x1="59.03" y1="69.67" x2="31.49" y2="69.67"/><line class="cls-3" x1="59.03" y1="73.59" x2="31.49" y2="73.59"/><line class="cls-3" x1="1" y1="76.54" x2="30.51" y2="76.54"/><line class="cls-3" x1="1" y1="72.61" x2="30.51" y2="72.61"/><line class="cls-3" x1="1" y1="68.69" x2="30.51" y2="68.69"/><line class="cls-3" x1="1" y1="64.77" x2="30.51" y2="64.77"/><line class="cls-3" x1="1" y1="60.84" x2="30.51" y2="60.84"/><line class="cls-3" x1="1" y1="56.92" x2="30.51" y2="56.92"/><line class="cls-3" x1="1" y1="52.99" x2="30.51" y2="52.99"/><line class="cls-3" x1="1" y1="49.07" x2="30.51" y2="49.07"/><line class="cls-3" x1="1" y1="45.15" x2="30.51" y2="45.15"/><line class="cls-3" x1="1" y1="41.22" x2="30.51" y2="41.22"/><line class="cls-3" x1="1" y1="37.3" x2="30.51" y2="37.3"/><line class="cls-3" x1="1" y1="33.37" x2="30.51" y2="33.37"/><line class="cls-3" x1="1" y1="29.45" x2="30.51" y2="29.45"/><line class="cls-2" x1="1" y1="80.46" x2="1" y2="126.57"/><polygon class="cls-4" points="26.08 126.57 26.08 130.49 26.08 130.49 30.51 130.49 30.51 159.92 4.93 159.92 4.93 130.49 9.36 130.49 9.36 126.57 1 126.57 1 236.44 148.53 236.44 148.53 126.57 26.08 126.57"/><line class="cls-2" x1="200.66" y1="1" x2="148.53" y2="1"/><line class="cls-2" x1="200.66" y1="217.8" x2="200.66" y2="237.42"/><line class="cls-2" x1="200.66" y1="237.42" x2="200.66" y2="375.74"/><rect class="cls-2" x="372.78" y="1" width="43.28" height="91.23"/><rect class="cls-2" x="416.06" y="1" width="44.26" height="91.23"/><rect class="cls-2" x="243.94" y="1" width="43.28" height="91.23"/><rect class="cls-2" x="287.22" y="1" width="43.28" height="91.23"/></svg>