<svg id="Nivel_1" data-name="Nivel 1" xmlns="http://www.w3.org/2000/svg" xmlns:xlink="http://www.w3.org/1999/xlink" viewBox="0 0 1886.25 1988.03"><defs><style>.cls-1,.cls-2,.cls-4,.cls-5{fill:none;}.cls-2,.cls-3,.cls-4{stroke:#070308;}.cls-2,.cls-3,.cls-4,.cls-5{stroke-miterlimit:10;}.cls-2,.cls-3,.cls-5{stroke-width:2px;}.cls-3{fill:url(#Lines_oblicuas);}.cls-5{stroke:#201813;}.cls-6{fill:#070308;}</style><pattern id="Lines_oblicuas" data-name="Lines oblicuas" width="75.58" height="81.07" patternTransform="translate(-105.13 -35.08)" patternUnits="userSpaceOnUse" viewBox="0 0 75.58 81.07"><rect class="cls-1" width="75.58" height="81.07"/><polygon class="cls-1" points="2.78 0 0 2.98 0 17.11 15.96 0 2.78 0"/><polygon class="cls-1" points="21.43 0 0 22.98 0 37.11 34.61 0 21.43 0"/><polygon class="cls-1" points="58.73 0 0 62.98 0 78.11 72.85 0 58.73 0"/><polygon class="cls-1" points="40.08 0 0 42.98 0 57.11 53.26 0 40.08 0"/><polygon class="cls-1" points="75.58 42.93 40.02 81.07 53.2 81.07 75.58 57.07 75.58 42.93"/><polygon class="cls-1" points="75.58 22.93 21.36 81.07 34.55 81.07 75.58 37.07 75.58 22.93"/><polygon class="cls-1" points="72.85 81.07 75.58 78.14 75.58 62.93 58.67 81.07 72.85 81.07"/><polygon class="cls-1" points="75.58 2.93 2.71 81.07 15.89 81.07 75.58 17.07 75.58 2.93"/><polygon points="75.58 0 72.85 0 0 78.11 0 81.07 2.71 81.07 75.58 2.93 75.58 0"/><polygon points="53.26 0 0 57.11 0 62.98 58.73 0 53.26 0"/><polygon points="34.61 0 0 37.11 0 42.98 40.08 0 34.61 0"/><polygon points="15.96 0 0 17.11 0 22.98 21.43 0 15.96 0"/><polygon points="0 0 0 2.98 2.78 0 0 0"/><polygon points="75.58 37.07 34.55 81.07 40.02 81.07 75.58 42.93 75.58 37.07"/><polygon points="75.58 17.07 15.89 81.07 21.36 81.07 75.58 22.93 75.58 17.07"/><polygon points="75.58 62.93 75.58 57.07 53.2 81.07 58.67 81.07 75.58 62.93"/><polygon points="75.58 81.07 75.58 78.14 72.85 81.07 75.58 81.07"/></pattern></defs><title>ETSE1c</title><rect class="cls-2" x="1583.62" y="1730.58" width="301.64" height="155.83"/><rect class="cls-2" x="1485.97" y="1753.81" width="97.64" height="132.6"/><rect class="cls-2" x="1410.57" y="1753.81" width="75.41" height="132.6"/><rect class="cls-2" x="1327.42" y="1777.04" width="83.14" height="109.37"/><rect class="cls-2" x="1283.92" y="1777.04" width="43.51" height="109.37"/><rect class="cls-2" x="1242.35" y="1777.04" width="41.57" height="109.37"/><rect class="cls-2" x="1157.27" y="1777.04" width="85.08" height="109.37"/><rect class="cls-2" x="1072.19" y="1777.04" width="85.08" height="109.37"/><rect class="cls-2" x="1029.65" y="1777.04" width="42.54" height="109.37"/><rect class="cls-2" x="988.08" y="1777.04" width="41.57" height="109.37"/><polygon class="cls-2" points="988.08 1886.41 814.06 1886.41 814.06 1732.52 859.5 1732.52 859.5 1748 1032.55 1748 1032.55 1777.04 988.08 1777.04 988.08 1886.41"/><line class="cls-2" x1="1032.55" y1="1748" x2="1032.55" y2="1730.58"/><line class="cls-2" x1="1410.57" y1="1732.52" x2="1032.55" y2="1730.58"/><rect class="cls-3" x="1751.84" y="1677.35" width="133.42" height="53.23"/><rect class="cls-4" x="1631.96" y="1706.38" width="119.88" height="24.2"/><line class="cls-4" x1="1636.79" y1="1706.38" x2="1636.79" y2="1730.58"/><line class="cls-4" x1="1641.63" y1="1706.38" x2="1641.63" y2="1730.58"/><line class="cls-4" x1="1646.46" y1="1706.38" x2="1646.46" y2="1730.58"/><line class="cls-4" x1="1651.29" y1="1706.38" x2="1651.29" y2="1730.58"/><line class="cls-4" x1="1656.13" y1="1706.38" x2="1656.13" y2="1730.58"/><line class="cls-4" x1="1660.96" y1="1706.38" x2="1660.96" y2="1730.58"/><line class="cls-4" x1="1665.8" y1="1706.38" x2="1665.8" y2="1730.58"/><line class="cls-4" x1="1670.63" y1="1706.38" x2="1670.63" y2="1730.58"/><line class="cls-4" x1="1675.46" y1="1706.38" x2="1675.46" y2="1730.58"/><line class="cls-4" x1="1680.3" y1="1706.38" x2="1680.3" y2="1730.58"/><line class="cls-4" x1="1685.13" y1="1706.38" x2="1685.13" y2="1730.58"/><line class="cls-4" x1="1689.96" y1="1706.38" x2="1689.96" y2="1730.58"/><line class="cls-4" x1="1694.8" y1="1706.38" x2="1694.8" y2="1730.58"/><line class="cls-4" x1="1699.63" y1="1706.38" x2="1699.63" y2="1730.58"/><line class="cls-4" x1="1704.47" y1="1706.38" x2="1704.47" y2="1730.58"/><line class="cls-4" x1="1709.3" y1="1706.38" x2="1709.3" y2="1730.58"/><line class="cls-4" x1="1714.13" y1="1706.38" x2="1714.13" y2="1730.58"/><line class="cls-4" x1="1718.97" y1="1706.38" x2="1718.97" y2="1730.58"/><line class="cls-4" x1="1723.8" y1="1706.38" x2="1723.8" y2="1730.58"/><line class="cls-4" x1="1728.64" y1="1706.38" x2="1728.64" y2="1730.58"/><line class="cls-4" x1="1733.47" y1="1706.38" x2="1733.47" y2="1730.58"/><line class="cls-4" x1="1738.3" y1="1706.38" x2="1738.3" y2="1730.58"/><line class="cls-4" x1="1743.14" y1="1706.38" x2="1743.14" y2="1730.58"/><line class="cls-4" x1="1747.97" y1="1706.38" x2="1747.97" y2="1730.58"/><line class="cls-4" x1="1657.09" y1="1703.48" x2="1524.65" y2="1703.48"/><line class="cls-4" x1="1657.09" y1="1706.38" x2="1657.09" y2="1703"/><rect class="cls-4" x="1524.65" y="1703.48" width="21.27" height="50.33"/><line class="cls-4" x1="1529.48" y1="1753.81" x2="1529.48" y2="1703.48"/><line class="cls-4" x1="1533.35" y1="1753.81" x2="1533.35" y2="1703.48"/><line class="cls-4" x1="1537.21" y1="1753.81" x2="1537.21" y2="1703.48"/><line class="cls-4" x1="1541.08" y1="1753.81" x2="1541.08" y2="1703.48"/><line class="cls-4" x1="1525.13" y1="1728.16" x2="1546.4" y2="1728.16"/><polyline class="cls-2" points="814.06 1687.99 814.06 1677.35 1885.25 1677.35 1885.25 1886.41 814.06 1886.41 814.06 1713.16"/><polyline class="cls-2" points="592.67 1730.58 592.67 1663.8 683.55 1663.8 683.55 1687.99"/><polyline class="cls-2" points="683.55 1713.16 683.55 1868.98 592.67 1868.98 592.67 1753.81"/><polyline class="cls-2" points="592.67 1753.81 592.67 1886.41 537.56 1886.41 537.56 1663.8 592.67 1663.8 592.67 1730.58"/><line class="cls-2" x1="537.56" y1="1731.55" x2="564.63" y2="1731.55"/><line class="cls-2" x1="564.63" y1="1703.48" x2="564.63" y2="1775.1"/><line class="cls-2" x1="835.33" y1="1458.61" x2="835.33" y2="1677.35"/><rect class="cls-2" x="1714.13" y="1376.34" width="171.12" height="127.76"/><rect class="cls-2" x="1541.08" y="1376.34" width="173.05" height="127.76"/><rect class="cls-2" x="1714.13" y="1204.06" width="171.12" height="126.79"/><rect class="cls-2" x="1541.08" y="1204.06" width="173.05" height="126.79"/><polyline class="cls-5" points="1478.24 1270.82 1478.24 1318.24 1453.1 1318.24 1453.1 1248.8 1503.38 1248.8 1503.38 1314.73"/><line class="cls-5" x1="1478.24" y1="1313.89" x2="1453.1" y2="1313.89"/><line class="cls-5" x1="1478.24" y1="1310.01" x2="1453.1" y2="1310.01"/><line class="cls-5" x1="1478.24" y1="1306.14" x2="1453.1" y2="1306.14"/><line class="cls-5" x1="1478.24" y1="1302.27" x2="1453.1" y2="1302.27"/><line class="cls-5" x1="1478.24" y1="1298.4" x2="1453.1" y2="1298.4"/><line class="cls-5" x1="1478.24" y1="1294.53" x2="1453.1" y2="1294.53"/><line class="cls-5" x1="1478.24" y1="1290.66" x2="1453.1" y2="1290.66"/><line class="cls-5" x1="1478.24" y1="1286.79" x2="1453.1" y2="1286.79"/><line class="cls-5" x1="1478.24" y1="1282.91" x2="1453.1" y2="1282.91"/><line class="cls-5" x1="1478.24" y1="1279.04" x2="1453.1" y2="1279.04"/><line class="cls-5" x1="1478.24" y1="1275.17" x2="1453.1" y2="1275.17"/><line class="cls-5" x1="1478.24" y1="1271.78" x2="1503.38" y2="1271.78"/><line class="cls-5" x1="1478.24" y1="1275.65" x2="1503.38" y2="1275.65"/><line class="cls-5" x1="1478.24" y1="1279.53" x2="1503.38" y2="1279.53"/><line class="cls-5" x1="1478.24" y1="1283.4" x2="1503.38" y2="1283.4"/><line class="cls-5" x1="1478.24" y1="1287.27" x2="1503.38" y2="1287.27"/><line class="cls-5" x1="1478.24" y1="1291.14" x2="1503.38" y2="1291.14"/><line class="cls-5" x1="1478.24" y1="1295.01" x2="1503.38" y2="1295.01"/><line class="cls-5" x1="1478.24" y1="1298.88" x2="1503.38" y2="1298.88"/><line class="cls-5" x1="1478.24" y1="1302.76" x2="1503.38" y2="1302.76"/><line class="cls-5" x1="1478.24" y1="1306.63" x2="1503.38" y2="1306.63"/><line class="cls-5" x1="1478.24" y1="1310.5" x2="1503.38" y2="1310.5"/><line class="cls-5" x1="1478.24" y1="1314.37" x2="1503.38" y2="1314.37"/><line class="cls-5" x1="1466.47" y1="1318.24" x2="1466.47" y2="1261.98"/><line class="cls-5" x1="1491.74" y1="1262.95" x2="1466.47" y2="1262.95"/><line class="cls-5" x1="1491.74" y1="1313.4" x2="1491.74" y2="1261.98"/><line class="cls-5" x1="1466.47" y1="1287.27" x2="1478.24" y2="1290.66"/><line class="cls-5" x1="1453.1" y1="1290.66" x2="1466.47" y2="1287.27"/><line class="cls-5" x1="1478.24" y1="1310.5" x2="1491.74" y2="1313.89"/><line class="cls-5" x1="1503.38" y1="1310.5" x2="1491.74" y2="1313.89"/><rect class="cls-5" x="1453.1" y="1376.34" width="50.27" height="63.88"/><rect class="cls-5" x="1453.1" y="1440.22" width="50.27" height="63.88"/><rect class="cls-5" x="1285.85" y="1376.34" width="167.25" height="127.76"/><rect class="cls-5" x="1116.66" y="1376.34" width="169.19" height="127.76"/><rect class="cls-5" x="1453.1" y="1204.06" width="50.27" height="44.52"/><rect class="cls-5" x="1285.85" y="1204.06" width="167.25" height="126.79"/><rect class="cls-5" x="1116.66" y="1204.06" width="169.19" height="126.79"/><polygon class="cls-3" points="1116.66 1330.85 1080.89 1330.85 1080.89 1338.59 1068.33 1338.59 1068.33 1204.06 1116.66 1204.06 1116.66 1330.85"/><line class="cls-2" x1="814.06" y1="1886.41" x2="814.06" y2="1988.03"/><line class="cls-2" x1="683.55" y1="1988.03" x2="683.55" y2="1868.98"/><line class="cls-2" x1="683.55" y1="1663.8" x2="683.55" y2="1469.26"/><rect class="cls-2" x="1" y="1230.19" width="252.33" height="240.03"/><rect class="cls-2" x="253.33" y="1230.19" width="144.05" height="187.77"/><rect class="cls-2" x="397.38" y="1230.19" width="140.18" height="187.77"/><rect class="cls-2" x="537.56" y="1368.6" width="33.84" height="49.36"/><rect class="cls-2" x="592.67" y="1368.6" width="90.88" height="32.91"/><rect class="cls-2" x="592.67" y="1230.19" width="90.88" height="120.02"/><polyline class="cls-5" points="565.12 1267.91 565.12 1315.34 537.56 1315.34 537.56 1245.89 592.67 1245.89 592.67 1311.83"/><line class="cls-5" x1="565.12" y1="1310.98" x2="537.56" y2="1310.98"/><line class="cls-5" x1="565.12" y1="1307.11" x2="537.56" y2="1307.11"/><line class="cls-5" x1="565.12" y1="1303.24" x2="537.56" y2="1303.24"/><line class="cls-5" x1="565.12" y1="1299.37" x2="537.56" y2="1299.37"/><line class="cls-5" x1="565.12" y1="1295.5" x2="537.56" y2="1295.5"/><line class="cls-5" x1="565.12" y1="1291.62" x2="537.56" y2="1291.62"/><line class="cls-5" x1="565.12" y1="1287.75" x2="537.56" y2="1287.75"/><line class="cls-5" x1="565.12" y1="1283.88" x2="537.56" y2="1283.88"/><line class="cls-5" x1="565.12" y1="1280.01" x2="537.56" y2="1280.01"/><line class="cls-5" x1="565.12" y1="1276.14" x2="537.56" y2="1276.14"/><line class="cls-5" x1="565.12" y1="1272.27" x2="537.56" y2="1272.27"/><line class="cls-5" x1="565.12" y1="1268.88" x2="592.67" y2="1268.88"/><line class="cls-5" x1="565.12" y1="1272.75" x2="592.67" y2="1272.75"/><line class="cls-5" x1="565.12" y1="1276.62" x2="592.67" y2="1276.62"/><line class="cls-5" x1="565.12" y1="1280.49" x2="592.67" y2="1280.49"/><line class="cls-5" x1="565.12" y1="1284.37" x2="592.67" y2="1284.37"/><line class="cls-5" x1="565.12" y1="1288.24" x2="592.67" y2="1288.24"/><line class="cls-5" x1="565.12" y1="1292.11" x2="592.67" y2="1292.11"/><line class="cls-5" x1="565.12" y1="1295.98" x2="592.67" y2="1295.98"/><line class="cls-5" x1="565.12" y1="1299.85" x2="592.67" y2="1299.85"/><line class="cls-5" x1="565.12" y1="1303.72" x2="592.67" y2="1303.72"/><line class="cls-5" x1="565.12" y1="1307.59" x2="592.67" y2="1307.59"/><line class="cls-5" x1="565.12" y1="1311.47" x2="592.67" y2="1311.47"/><line class="cls-5" x1="552.22" y1="1315.34" x2="552.22" y2="1259.08"/><line class="cls-5" x1="579.92" y1="1260.05" x2="552.22" y2="1260.05"/><line class="cls-5" x1="579.92" y1="1310.5" x2="579.92" y2="1259.08"/><line class="cls-5" x1="552.22" y1="1284.37" x2="565.12" y2="1287.75"/><line class="cls-5" x1="537.56" y1="1287.75" x2="552.22" y2="1284.37"/><line class="cls-5" x1="565.12" y1="1307.59" x2="579.92" y2="1310.98"/><line class="cls-5" x1="592.67" y1="1307.59" x2="579.92" y2="1310.98"/><rect class="cls-2" x="537.56" y="1230.19" width="55.11" height="15.49"/><line class="cls-2" x1="253.33" y1="1470.22" x2="683.55" y2="1470.22"/><line class="cls-2" x1="683.55" y1="1368.6" x2="683.55" y2="1350.21"/><line class="cls-2" x1="1503.38" y1="1504.1" x2="1541.08" y2="1504.1"/><line class="cls-2" x1="1885.25" y1="1376.34" x2="1885.25" y2="1330.85"/><line class="cls-2" x1="1068.33" y1="1458.61" x2="1068.33" y2="1504.1"/><line class="cls-2" x1="1115.7" y1="1504.1" x2="1067.36" y2="1504.1"/><line class="cls-2" x1="1068.33" y1="1338.59" x2="1068.33" y2="1398.6"/><line class="cls-2" x1="813.1" y1="1398.6" x2="1069.29" y2="1398.6"/><line class="cls-2" x1="813.1" y1="1458.61" x2="1069.29" y2="1458.61"/><rect class="cls-2" x="1" y="846.92" width="181.75" height="240.03"/><rect class="cls-2" x="182.75" y="846.92" width="143.08" height="187.77"/><rect class="cls-2" x="325.84" y="846.92" width="142.12" height="187.77"/><rect class="cls-2" x="537.56" y="985.32" width="33.84" height="49.36"/><rect class="cls-2" x="592.67" y="985.32" width="90.88" height="32.91"/><rect class="cls-2" x="592.67" y="846.92" width="90.88" height="120.02"/><polyline class="cls-5" points="565.12 884.64 565.12 932.06 537.56 932.06 537.56 862.62 592.67 862.62 592.67 928.55"/><line class="cls-5" x1="565.12" y1="927.71" x2="537.56" y2="927.71"/><line class="cls-5" x1="565.12" y1="923.83" x2="537.56" y2="923.83"/><line class="cls-5" x1="565.12" y1="919.96" x2="537.56" y2="919.96"/><line class="cls-5" x1="565.12" y1="916.09" x2="537.56" y2="916.09"/><line class="cls-5" x1="565.12" y1="912.22" x2="537.56" y2="912.22"/><line class="cls-5" x1="565.12" y1="908.35" x2="537.56" y2="908.35"/><line class="cls-5" x1="565.12" y1="904.48" x2="537.56" y2="904.48"/><line class="cls-5" x1="565.12" y1="900.61" x2="537.56" y2="900.61"/><line class="cls-5" x1="565.12" y1="896.73" x2="537.56" y2="896.73"/><line class="cls-5" x1="565.12" y1="892.86" x2="537.56" y2="892.86"/><line class="cls-5" x1="565.12" y1="888.99" x2="537.56" y2="888.99"/><line class="cls-5" x1="565.12" y1="885.6" x2="592.67" y2="885.6"/><line class="cls-5" x1="565.12" y1="889.48" x2="592.67" y2="889.48"/><line class="cls-5" x1="565.12" y1="893.35" x2="592.67" y2="893.35"/><line class="cls-5" x1="565.12" y1="897.22" x2="592.67" y2="897.22"/><line class="cls-5" x1="565.12" y1="901.09" x2="592.67" y2="901.09"/><line class="cls-5" x1="565.12" y1="904.96" x2="592.67" y2="904.96"/><line class="cls-5" x1="565.12" y1="908.83" x2="592.67" y2="908.83"/><line class="cls-5" x1="565.12" y1="912.7" x2="592.67" y2="912.7"/><line class="cls-5" x1="565.12" y1="916.58" x2="592.67" y2="916.58"/><line class="cls-5" x1="565.12" y1="920.45" x2="592.67" y2="920.45"/><line class="cls-5" x1="565.12" y1="924.32" x2="592.67" y2="924.32"/><line class="cls-5" x1="565.12" y1="928.19" x2="592.67" y2="928.19"/><line class="cls-5" x1="552.22" y1="932.06" x2="552.22" y2="875.8"/><line class="cls-5" x1="579.92" y1="876.77" x2="552.22" y2="876.77"/><line class="cls-5" x1="579.92" y1="927.22" x2="579.92" y2="875.8"/><line class="cls-5" x1="552.22" y1="901.09" x2="565.12" y2="904.48"/><line class="cls-5" x1="537.56" y1="904.48" x2="552.22" y2="901.09"/><line class="cls-5" x1="565.12" y1="924.32" x2="579.92" y2="927.71"/><line class="cls-5" x1="592.67" y1="924.32" x2="579.92" y2="927.71"/><rect class="cls-2" x="537.56" y="846.92" width="55.11" height="15.49"/><line class="cls-2" x1="182.75" y1="1086.95" x2="683.55" y2="1086.95"/><line class="cls-2" x1="683.55" y1="1229.22" x2="683.55" y2="1085.98"/><line class="cls-2" x1="683.55" y1="985.32" x2="683.55" y2="966.93"/><rect class="cls-2" x="467.95" y="846.92" width="69.61" height="187.77"/><polyline class="cls-2" points="1885.25 991.13 1885.25 1118.89 1714.13 1118.89 1714.13 991.13"/><polyline class="cls-2" points="1541.08 991.13 1541.08 1118.89 1714.13 1118.89 1714.13 991.13"/><rect class="cls-2" x="1714.13" y="818.85" width="171.12" height="126.79"/><rect class="cls-2" x="1541.08" y="818.85" width="173.05" height="126.79"/><polyline class="cls-5" points="1478.24 885.6 1478.24 933.03 1453.1 933.03 1453.1 863.59 1503.38 863.59 1503.38 929.52"/><line class="cls-5" x1="1478.24" y1="928.67" x2="1453.1" y2="928.67"/><line class="cls-5" x1="1478.24" y1="924.8" x2="1453.1" y2="924.8"/><line class="cls-5" x1="1478.24" y1="920.93" x2="1453.1" y2="920.93"/><line class="cls-5" x1="1478.24" y1="917.06" x2="1453.1" y2="917.06"/><line class="cls-5" x1="1478.24" y1="913.19" x2="1453.1" y2="913.19"/><line class="cls-5" x1="1478.24" y1="909.32" x2="1453.1" y2="909.32"/><line class="cls-5" x1="1478.24" y1="905.45" x2="1453.1" y2="905.45"/><line class="cls-5" x1="1478.24" y1="901.57" x2="1453.1" y2="901.57"/><line class="cls-5" x1="1478.24" y1="897.7" x2="1453.1" y2="897.7"/><line class="cls-5" x1="1478.24" y1="893.83" x2="1453.1" y2="893.83"/><line class="cls-5" x1="1478.24" y1="889.96" x2="1453.1" y2="889.96"/><line class="cls-5" x1="1478.24" y1="886.57" x2="1503.38" y2="886.57"/><line class="cls-5" x1="1478.24" y1="890.44" x2="1503.38" y2="890.44"/><line class="cls-5" x1="1478.24" y1="894.31" x2="1503.38" y2="894.31"/><line class="cls-5" x1="1478.24" y1="898.19" x2="1503.38" y2="898.19"/><line class="cls-5" x1="1478.24" y1="902.06" x2="1503.38" y2="902.06"/><line class="cls-5" x1="1478.24" y1="905.93" x2="1503.38" y2="905.93"/><line class="cls-5" x1="1478.24" y1="909.8" x2="1503.38" y2="909.8"/><line class="cls-5" x1="1478.24" y1="913.67" x2="1503.38" y2="913.67"/><line class="cls-5" x1="1478.24" y1="917.54" x2="1503.38" y2="917.54"/><line class="cls-5" x1="1478.24" y1="921.42" x2="1503.38" y2="921.42"/><line class="cls-5" x1="1478.24" y1="925.29" x2="1503.38" y2="925.29"/><line class="cls-5" x1="1478.24" y1="929.16" x2="1503.38" y2="929.16"/><line class="cls-5" x1="1466.47" y1="933.03" x2="1466.47" y2="876.77"/><line class="cls-5" x1="1491.74" y1="877.74" x2="1466.47" y2="877.74"/><line class="cls-5" x1="1491.74" y1="928.19" x2="1491.74" y2="876.77"/><line class="cls-5" x1="1466.47" y1="902.06" x2="1478.24" y2="905.45"/><line class="cls-5" x1="1453.1" y1="905.45" x2="1466.47" y2="902.06"/><line class="cls-5" x1="1478.24" y1="925.29" x2="1491.74" y2="928.67"/><line class="cls-5" x1="1503.38" y1="925.29" x2="1491.74" y2="928.67"/><polyline class="cls-5" points="1503.38 991.13 1503.38 1055.01 1453.1 1055.01 1453.1 991.13"/><rect class="cls-5" x="1453.1" y="1055.01" width="50.27" height="63.88"/><polyline class="cls-5" points="1453.1 991.13 1453.1 1118.89 1285.85 1118.89 1285.85 991.13"/><polyline class="cls-5" points="1285.85 991.13 1285.85 1118.89 1116.66 1118.89 1116.66 991.13"/><rect class="cls-5" x="1453.1" y="818.85" width="50.27" height="44.52"/><rect class="cls-5" x="1285.85" y="818.85" width="167.25" height="126.79"/><rect class="cls-5" x="1116.66" y="818.85" width="169.19" height="126.79"/><polygon class="cls-3" points="1116.66 945.64 1080.89 945.64 1080.89 953.38 1068.33 953.38 1068.33 818.85 1116.66 818.85 1116.66 945.64"/><line class="cls-2" x1="1885.25" y1="991.13" x2="1885.25" y2="945.64"/><line class="cls-2" x1="1068.33" y1="1073.4" x2="1068.33" y2="1118.89"/><line class="cls-2" x1="1115.7" y1="1118.89" x2="1067.36" y2="1118.89"/><line class="cls-2" x1="1068.33" y1="953.38" x2="1068.33" y2="1013.39"/><line class="cls-2" x1="813.1" y1="1013.39" x2="1069.29" y2="1013.39"/><line class="cls-2" x1="813.1" y1="1073.4" x2="1069.29" y2="1073.4"/><line class="cls-2" x1="1540.11" y1="991.13" x2="1884.29" y2="991.13"/><line class="cls-2" x1="1115.7" y1="991.13" x2="1286.82" y2="991.13"/><line class="cls-2" x1="1286.82" y1="991.13" x2="1504.34" y2="991.13"/><line class="cls-2" x1="1503.38" y1="1118.89" x2="1503.38" y2="1204.06"/><line class="cls-2" x1="1541.08" y1="1118.89" x2="1541.08" y2="1204.06"/><rect class="cls-2" x="961.01" y="1073.4" width="60.91" height="23.23"/><line class="cls-2" x1="965.85" y1="1073.4" x2="965.85" y2="1096.63"/><line class="cls-2" x1="969.71" y1="1073.4" x2="969.71" y2="1096.63"/><line class="cls-2" x1="973.58" y1="1073.4" x2="973.58" y2="1096.63"/><line class="cls-2" x1="977.45" y1="1073.4" x2="977.45" y2="1096.63"/><line class="cls-2" x1="981.31" y1="1073.4" x2="981.31" y2="1096.63"/><line class="cls-2" x1="985.18" y1="1073.4" x2="985.18" y2="1096.63"/><line class="cls-2" x1="989.05" y1="1073.4" x2="989.05" y2="1096.63"/><line class="cls-2" x1="992.92" y1="1073.4" x2="992.92" y2="1096.63"/><line class="cls-2" x1="996.78" y1="1073.4" x2="996.78" y2="1096.63"/><line class="cls-2" x1="1000.65" y1="1073.4" x2="1000.65" y2="1096.63"/><line class="cls-2" x1="1004.52" y1="1073.4" x2="1004.52" y2="1096.63"/><line class="cls-2" x1="1008.38" y1="1073.4" x2="1008.38" y2="1096.63"/><line class="cls-2" x1="1012.25" y1="1073.4" x2="1012.25" y2="1096.63"/><line class="cls-2" x1="1017.09" y1="1073.4" x2="1017.09" y2="1096.63"/><path class="cls-2" d="M1003.3,1123.21" transform="translate(-42.29 -72.08)"/><path class="cls-2" d="M1003.3,1470.68" transform="translate(-42.29 -72.08)"/><rect class="cls-2" x="1" y="464.61" width="113.11" height="240.03"/><rect class="cls-2" x="253.33" y="464.61" width="144.05" height="187.77"/><rect class="cls-2" x="397.38" y="464.61" width="140.18" height="187.77"/><rect class="cls-2" x="537.56" y="603.01" width="33.84" height="49.36"/><rect class="cls-2" x="592.67" y="603.01" width="90.88" height="32.91"/><rect class="cls-2" x="592.67" y="464.61" width="90.88" height="120.02"/><polyline class="cls-5" points="565.12 502.33 565.12 549.75 537.56 549.75 537.56 480.31 592.67 480.31 592.67 546.25"/><line class="cls-5" x1="565.12" y1="545.4" x2="537.56" y2="545.4"/><line class="cls-5" x1="565.12" y1="541.53" x2="537.56" y2="541.53"/><line class="cls-5" x1="565.12" y1="537.66" x2="537.56" y2="537.66"/><line class="cls-5" x1="565.12" y1="533.78" x2="537.56" y2="533.78"/><line class="cls-5" x1="565.12" y1="529.91" x2="537.56" y2="529.91"/><line class="cls-5" x1="565.12" y1="526.04" x2="537.56" y2="526.04"/><line class="cls-5" x1="565.12" y1="522.17" x2="537.56" y2="522.17"/><line class="cls-5" x1="565.12" y1="518.3" x2="537.56" y2="518.3"/><line class="cls-5" x1="565.12" y1="514.43" x2="537.56" y2="514.43"/><line class="cls-5" x1="565.12" y1="510.56" x2="537.56" y2="510.56"/><line class="cls-5" x1="565.12" y1="506.68" x2="537.56" y2="506.68"/><line class="cls-5" x1="565.12" y1="503.3" x2="592.67" y2="503.3"/><line class="cls-5" x1="565.12" y1="507.17" x2="592.67" y2="507.17"/><line class="cls-5" x1="565.12" y1="511.04" x2="592.67" y2="511.04"/><line class="cls-5" x1="565.12" y1="514.91" x2="592.67" y2="514.91"/><line class="cls-5" x1="565.12" y1="518.78" x2="592.67" y2="518.78"/><line class="cls-5" x1="565.12" y1="522.65" x2="592.67" y2="522.65"/><line class="cls-5" x1="565.12" y1="526.53" x2="592.67" y2="526.53"/><line class="cls-5" x1="565.12" y1="530.4" x2="592.67" y2="530.4"/><line class="cls-5" x1="565.12" y1="534.27" x2="592.67" y2="534.27"/><line class="cls-5" x1="565.12" y1="538.14" x2="592.67" y2="538.14"/><line class="cls-5" x1="565.12" y1="542.01" x2="592.67" y2="542.01"/><line class="cls-5" x1="565.12" y1="545.88" x2="592.67" y2="545.88"/><line class="cls-5" x1="552.22" y1="549.75" x2="552.22" y2="493.5"/><line class="cls-5" x1="579.92" y1="494.46" x2="552.22" y2="494.46"/><line class="cls-5" x1="579.92" y1="544.91" x2="579.92" y2="493.5"/><line class="cls-5" x1="552.22" y1="518.78" x2="565.12" y2="522.17"/><line class="cls-5" x1="537.56" y1="522.17" x2="552.22" y2="518.78"/><line class="cls-5" x1="565.12" y1="542.01" x2="579.92" y2="545.4"/><line class="cls-5" x1="592.67" y1="542.01" x2="579.92" y2="545.4"/><rect class="cls-2" x="537.56" y="464.61" width="55.11" height="15.49"/><line class="cls-2" x1="114.11" y1="704.64" x2="683.55" y2="704.64"/><line class="cls-2" x1="683.55" y1="846.92" x2="683.55" y2="703.67"/><line class="cls-2" x1="683.55" y1="603.01" x2="683.55" y2="584.62"/><rect class="cls-2" x="114.11" y="464.61" width="139.22" height="187.77"/><polyline class="cls-2" points="1885.25 607.85 1885.25 735.61 1714.13 735.61 1714.13 607.85"/><polyline class="cls-2" points="1541.08 607.85 1541.08 735.61 1714.13 735.61 1714.13 607.85"/><rect class="cls-2" x="1754.74" y="435.57" width="130.52" height="126.79"/><rect class="cls-2" x="1541.08" y="435.57" width="128.58" height="126.79"/><polyline class="cls-5" points="1478.24 502.33 1478.24 549.75 1453.1 549.75 1453.1 480.31 1503.38 480.31 1503.38 546.25"/><line class="cls-5" x1="1478.24" y1="545.4" x2="1453.1" y2="545.4"/><line class="cls-5" x1="1478.24" y1="541.53" x2="1453.1" y2="541.53"/><line class="cls-5" x1="1478.24" y1="537.66" x2="1453.1" y2="537.66"/><line class="cls-5" x1="1478.24" y1="533.78" x2="1453.1" y2="533.78"/><line class="cls-5" x1="1478.24" y1="529.91" x2="1453.1" y2="529.91"/><line class="cls-5" x1="1478.24" y1="526.04" x2="1453.1" y2="526.04"/><line class="cls-5" x1="1478.24" y1="522.17" x2="1453.1" y2="522.17"/><line class="cls-5" x1="1478.24" y1="518.3" x2="1453.1" y2="518.3"/><line class="cls-5" x1="1478.24" y1="514.43" x2="1453.1" y2="514.43"/><line class="cls-5" x1="1478.24" y1="510.56" x2="1453.1" y2="510.56"/><line class="cls-5" x1="1478.24" y1="506.68" x2="1453.1" y2="506.68"/><line class="cls-5" x1="1478.24" y1="503.3" x2="1503.38" y2="503.3"/><line class="cls-5" x1="1478.24" y1="507.17" x2="1503.38" y2="507.17"/><line class="cls-5" x1="1478.24" y1="511.04" x2="1503.38" y2="511.04"/><line class="cls-5" x1="1478.24" y1="514.91" x2="1503.38" y2="514.91"/><line class="cls-5" x1="1478.24" y1="518.78" x2="1503.38" y2="518.78"/><line class="cls-5" x1="1478.24" y1="522.65" x2="1503.38" y2="522.65"/><line class="cls-5" x1="1478.24" y1="526.53" x2="1503.38" y2="526.53"/><line class="cls-5" x1="1478.24" y1="530.4" x2="1503.38" y2="530.4"/><line class="cls-5" x1="1478.24" y1="534.27" x2="1503.38" y2="534.27"/><line class="cls-5" x1="1478.24" y1="538.14" x2="1503.38" y2="538.14"/><line class="cls-5" x1="1478.24" y1="542.01" x2="1503.38" y2="542.01"/><line class="cls-5" x1="1478.24" y1="545.88" x2="1503.38" y2="545.88"/><line class="cls-5" x1="1466.47" y1="549.75" x2="1466.47" y2="493.5"/><line class="cls-5" x1="1491.74" y1="494.46" x2="1466.47" y2="494.46"/><line class="cls-5" x1="1491.74" y1="544.91" x2="1491.74" y2="493.5"/><line class="cls-5" x1="1466.47" y1="518.78" x2="1478.24" y2="522.17"/><line class="cls-5" x1="1453.1" y1="522.17" x2="1466.47" y2="518.78"/><line class="cls-5" x1="1478.24" y1="542.01" x2="1491.74" y2="545.4"/><line class="cls-5" x1="1503.38" y1="542.01" x2="1491.74" y2="545.4"/><polyline class="cls-5" points="1503.38 607.85 1503.38 671.73 1453.1 671.73 1453.1 607.85"/><rect class="cls-5" x="1453.1" y="671.73" width="50.27" height="63.88"/><polyline class="cls-5" points="1453.1 607.85 1453.1 735.61 1285.85 735.61 1285.85 607.85"/><polyline class="cls-5" points="1285.85 607.85 1285.85 735.61 1116.66 735.61 1116.66 607.85"/><rect class="cls-5" x="1453.1" y="435.57" width="50.27" height="44.52"/><rect class="cls-5" x="1285.85" y="435.57" width="167.25" height="126.79"/><rect class="cls-5" x="1116.66" y="435.57" width="169.19" height="126.79"/><polygon class="cls-3" points="1116.66 562.36 1080.89 562.36 1080.89 570.11 1068.33 570.11 1068.33 435.57 1116.66 435.57 1116.66 562.36"/><line class="cls-2" x1="1885.25" y1="607.85" x2="1885.25" y2="562.36"/><line class="cls-2" x1="1068.33" y1="690.12" x2="1068.33" y2="735.61"/><line class="cls-2" x1="1115.7" y1="735.61" x2="1067.36" y2="735.61"/><line class="cls-2" x1="1068.33" y1="570.11" x2="1068.33" y2="630.11"/><line class="cls-2" x1="813.1" y1="630.11" x2="1069.29" y2="630.11"/><line class="cls-2" x1="813.1" y1="690.12" x2="1069.29" y2="690.12"/><line class="cls-2" x1="1116.66" y1="607.85" x2="1503.38" y2="607.85"/><line class="cls-2" x1="1541.08" y1="607.85" x2="1885.25" y2="607.85"/><line class="cls-2" x1="1541.08" y1="735.61" x2="1541.08" y2="818.85"/><line class="cls-2" x1="1503.38" y1="735.61" x2="1503.38" y2="818.85"/><rect class="cls-2" x="961.01" y="690.12" width="60.91" height="23.23"/><line class="cls-2" x1="965.85" y1="690.12" x2="965.85" y2="713.35"/><line class="cls-2" x1="969.71" y1="690.12" x2="969.71" y2="713.35"/><line class="cls-2" x1="973.58" y1="690.12" x2="973.58" y2="713.35"/><line class="cls-2" x1="977.45" y1="690.12" x2="977.45" y2="713.35"/><line class="cls-2" x1="981.31" y1="690.12" x2="981.31" y2="713.35"/><line class="cls-2" x1="985.18" y1="690.12" x2="985.18" y2="713.35"/><line class="cls-2" x1="989.05" y1="690.12" x2="989.05" y2="713.35"/><line class="cls-2" x1="992.92" y1="690.12" x2="992.92" y2="713.35"/><line class="cls-2" x1="996.78" y1="690.12" x2="996.78" y2="713.35"/><line class="cls-2" x1="1000.65" y1="690.12" x2="1000.65" y2="713.35"/><line class="cls-2" x1="1004.52" y1="690.12" x2="1004.52" y2="713.35"/><line class="cls-2" x1="1008.38" y1="690.12" x2="1008.38" y2="713.35"/><line class="cls-2" x1="1012.25" y1="690.12" x2="1012.25" y2="713.35"/><line class="cls-2" x1="1017.09" y1="690.12" x2="1017.09" y2="713.35"/><rect class="cls-2" x="1669.66" y="435.57" width="85.08" height="126.79"/><rect class="cls-2" x="1" y="82.3" width="113.11" height="240.03"/><rect class="cls-2" x="253.33" y="82.3" width="144.05" height="187.77"/><rect class="cls-2" x="397.38" y="82.3" width="140.18" height="187.77"/><rect class="cls-2" x="537.56" y="220.71" width="33.84" height="49.36"/><rect class="cls-2" x="592.67" y="220.71" width="90.88" height="32.91"/><rect class="cls-2" x="592.67" y="82.3" width="90.88" height="120.02"/><polyline class="cls-5" points="565.12 120.02 565.12 167.45 537.56 167.45 537.56 98 592.67 98 592.67 163.94"/><line class="cls-5" x1="565.12" y1="163.09" x2="537.56" y2="163.09"/><line class="cls-5" x1="565.12" y1="159.22" x2="537.56" y2="159.22"/><line class="cls-5" x1="565.12" y1="155.35" x2="537.56" y2="155.35"/><line class="cls-5" x1="565.12" y1="151.48" x2="537.56" y2="151.48"/><line class="cls-5" x1="565.12" y1="147.61" x2="537.56" y2="147.61"/><line class="cls-5" x1="565.12" y1="143.73" x2="537.56" y2="143.73"/><line class="cls-5" x1="565.12" y1="139.86" x2="537.56" y2="139.86"/><line class="cls-5" x1="565.12" y1="135.99" x2="537.56" y2="135.99"/><line class="cls-5" x1="565.12" y1="132.12" x2="537.56" y2="132.12"/><line class="cls-5" x1="565.12" y1="128.25" x2="537.56" y2="128.25"/><line class="cls-5" x1="565.12" y1="124.38" x2="537.56" y2="124.38"/><line class="cls-5" x1="565.12" y1="120.99" x2="592.67" y2="120.99"/><line class="cls-5" x1="565.12" y1="124.86" x2="592.67" y2="124.86"/><line class="cls-5" x1="565.12" y1="128.73" x2="592.67" y2="128.73"/><line class="cls-5" x1="565.12" y1="132.6" x2="592.67" y2="132.6"/><line class="cls-5" x1="565.12" y1="136.47" x2="592.67" y2="136.47"/><line class="cls-5" x1="565.12" y1="140.35" x2="592.67" y2="140.35"/><line class="cls-5" x1="565.12" y1="144.22" x2="592.67" y2="144.22"/><line class="cls-5" x1="565.12" y1="148.09" x2="592.67" y2="148.09"/><line class="cls-5" x1="565.12" y1="151.96" x2="592.67" y2="151.96"/><line class="cls-5" x1="565.12" y1="155.83" x2="592.67" y2="155.83"/><line class="cls-5" x1="565.12" y1="159.7" x2="592.67" y2="159.7"/><line class="cls-5" x1="565.12" y1="163.57" x2="592.67" y2="163.57"/><line class="cls-5" x1="552.22" y1="167.45" x2="552.22" y2="111.19"/><line class="cls-5" x1="579.92" y1="112.16" x2="552.22" y2="112.16"/><line class="cls-5" x1="579.92" y1="162.61" x2="579.92" y2="111.19"/><line class="cls-5" x1="552.22" y1="136.47" x2="565.12" y2="139.86"/><line class="cls-5" x1="537.56" y1="139.86" x2="552.22" y2="136.47"/><line class="cls-5" x1="565.12" y1="159.7" x2="579.92" y2="163.09"/><line class="cls-5" x1="592.67" y1="159.7" x2="579.92" y2="163.09"/><rect class="cls-2" x="537.56" y="82.3" width="55.11" height="15.49"/><line class="cls-2" x1="114.11" y1="322.33" x2="683.55" y2="322.33"/><line class="cls-2" x1="683.55" y1="464.61" x2="683.55" y2="321.36"/><line class="cls-2" x1="683.55" y1="220.71" x2="683.55" y2="202.32"/><rect class="cls-2" x="114.11" y="82.3" width="139.22" height="187.77"/><polyline class="cls-2" points="856.6 1168.73 856.6 1161.47 886.57 1161.47 886.57 1194.38 856.6 1194.38 856.6 1186.52"/><line class="cls-2" x1="791.83" y1="1161.47" x2="856.6" y2="1161.47"/><line class="cls-2" x1="791.83" y1="1194.38" x2="856.6" y2="1194.38"/><polyline class="cls-2" points="1885.25 222.64 1885.25 350.4 1754.74 350.4 1754.74 222.64"/><polyline class="cls-2" points="1541.08 222.64 1541.08 350.4 1754.74 350.4 1754.74 222.64"/><rect class="cls-2" x="1714.13" y="50.36" width="171.12" height="126.79"/><rect class="cls-2" x="1541.08" y="50.36" width="173.05" height="126.79"/><polyline class="cls-5" points="1478.24 117.12 1478.24 164.54 1453.1 164.54 1453.1 95.1 1503.38 95.1 1503.38 161.03"/><line class="cls-5" x1="1478.24" y1="160.19" x2="1453.1" y2="160.19"/><line class="cls-5" x1="1478.24" y1="156.32" x2="1453.1" y2="156.32"/><line class="cls-5" x1="1478.24" y1="152.44" x2="1453.1" y2="152.44"/><line class="cls-5" x1="1478.24" y1="148.57" x2="1453.1" y2="148.57"/><line class="cls-5" x1="1478.24" y1="144.7" x2="1453.1" y2="144.7"/><line class="cls-5" x1="1478.24" y1="140.83" x2="1453.1" y2="140.83"/><line class="cls-5" x1="1478.24" y1="136.96" x2="1453.1" y2="136.96"/><line class="cls-5" x1="1478.24" y1="133.09" x2="1453.1" y2="133.09"/><line class="cls-5" x1="1478.24" y1="129.22" x2="1453.1" y2="129.22"/><line class="cls-5" x1="1478.24" y1="125.34" x2="1453.1" y2="125.34"/><line class="cls-5" x1="1478.24" y1="121.47" x2="1453.1" y2="121.47"/><line class="cls-5" x1="1478.24" y1="118.09" x2="1503.38" y2="118.09"/><line class="cls-5" x1="1478.24" y1="121.96" x2="1503.38" y2="121.96"/><line class="cls-5" x1="1478.24" y1="125.83" x2="1503.38" y2="125.83"/><line class="cls-5" x1="1478.24" y1="129.7" x2="1503.38" y2="129.7"/><line class="cls-5" x1="1478.24" y1="133.57" x2="1503.38" y2="133.57"/><line class="cls-5" x1="1478.24" y1="137.44" x2="1503.38" y2="137.44"/><line class="cls-5" x1="1478.24" y1="141.31" x2="1503.38" y2="141.31"/><line class="cls-5" x1="1478.24" y1="145.19" x2="1503.38" y2="145.19"/><line class="cls-5" x1="1478.24" y1="149.06" x2="1503.38" y2="149.06"/><line class="cls-5" x1="1478.24" y1="152.93" x2="1503.38" y2="152.93"/><line class="cls-5" x1="1478.24" y1="156.8" x2="1503.38" y2="156.8"/><line class="cls-5" x1="1478.24" y1="160.67" x2="1503.38" y2="160.67"/><line class="cls-5" x1="1466.47" y1="164.54" x2="1466.47" y2="108.29"/><line class="cls-5" x1="1491.74" y1="109.25" x2="1466.47" y2="109.25"/><line class="cls-5" x1="1491.74" y1="159.7" x2="1491.74" y2="108.29"/><line class="cls-5" x1="1466.47" y1="133.57" x2="1478.24" y2="136.96"/><line class="cls-5" x1="1453.1" y1="136.96" x2="1466.47" y2="133.57"/><line class="cls-5" x1="1478.24" y1="156.8" x2="1491.74" y2="160.19"/><line class="cls-5" x1="1503.38" y1="156.8" x2="1491.74" y2="160.19"/><polyline class="cls-5" points="1503.38 222.64 1503.38 286.52 1453.1 286.52 1453.1 222.64"/><rect class="cls-5" x="1453.1" y="286.52" width="50.27" height="63.88"/><polyline class="cls-5" points="1453.1 222.64 1453.1 350.4 1285.85 350.4 1285.85 222.64"/><polyline class="cls-5" points="1285.85 222.64 1285.85 350.4 1116.66 350.4 1116.66 222.64"/><rect class="cls-5" x="1453.1" y="50.36" width="50.27" height="44.52"/><rect class="cls-5" x="1285.85" y="50.36" width="167.25" height="126.79"/><rect class="cls-5" x="1116.66" y="50.36" width="169.19" height="126.79"/><polygon class="cls-3" points="1116.66 177.15 1080.89 177.15 1080.89 184.9 1068.33 184.9 1068.33 50.36 1116.66 50.36 1116.66 177.15"/><line class="cls-2" x1="1885.25" y1="222.64" x2="1885.25" y2="177.15"/><line class="cls-2" x1="1068.33" y1="304.91" x2="1068.33" y2="350.4"/><line class="cls-2" x1="1115.7" y1="350.4" x2="1067.36" y2="350.4"/><line class="cls-2" x1="1068.33" y1="184.89" x2="1068.33" y2="244.9"/><line class="cls-2" x1="813.1" y1="244.9" x2="1069.29" y2="244.9"/><line class="cls-2" x1="813.1" y1="304.91" x2="1069.29" y2="304.91"/><line class="cls-2" x1="1116.66" y1="222.64" x2="1503.38" y2="222.64"/><line class="cls-2" x1="1541.08" y1="222.64" x2="1885.25" y2="222.64"/><line class="cls-2" x1="1503.38" y1="50.36" x2="1541.08" y2="50.36"/><line class="cls-2" x1="1541.08" y1="350.4" x2="1541.08" y2="435.57"/><line class="cls-2" x1="1503.38" y1="350.4" x2="1503.38" y2="435.57"/><line class="cls-2" x1="683.55" y1="82.3" x2="683.55" y2="0.03"/><line class="cls-2" x1="836.3" y1="1" x2="683.55" y2="1"/><line class="cls-2" x1="836.3" y1="244.9" x2="836.3" y2="0.03"/><line class="cls-2" x1="836.3" y1="630.11" x2="836.3" y2="304.91"/><line class="cls-2" x1="836.3" y1="690.12" x2="836.3" y2="1013.39"/><line class="cls-2" x1="836.3" y1="1073.4" x2="836.3" y2="1161.47"/><line class="cls-2" x1="836.3" y1="1398.6" x2="836.3" y2="1194.38"/><rect class="cls-2" x="961.01" y="1398.6" width="60.91" height="23.23"/><line class="cls-2" x1="965.85" y1="1398.6" x2="965.85" y2="1421.83"/><line class="cls-2" x1="969.71" y1="1398.6" x2="969.71" y2="1421.83"/><line class="cls-2" x1="973.58" y1="1398.6" x2="973.58" y2="1421.83"/><line class="cls-2" x1="977.45" y1="1398.6" x2="977.45" y2="1421.83"/><line class="cls-2" x1="981.31" y1="1398.6" x2="981.31" y2="1421.83"/><line class="cls-2" x1="985.18" y1="1398.6" x2="985.18" y2="1421.83"/><line class="cls-2" x1="989.05" y1="1398.6" x2="989.05" y2="1421.83"/><line class="cls-2" x1="992.92" y1="1398.6" x2="992.92" y2="1421.83"/><line class="cls-2" x1="996.78" y1="1398.6" x2="996.78" y2="1421.83"/><line class="cls-2" x1="1000.65" y1="1398.6" x2="1000.65" y2="1421.83"/><line class="cls-2" x1="1004.52" y1="1398.6" x2="1004.52" y2="1421.83"/><line class="cls-2" x1="1008.38" y1="1398.6" x2="1008.38" y2="1421.83"/><line class="cls-2" x1="1012.25" y1="1398.6" x2="1012.25" y2="1421.83"/><line class="cls-2" x1="1017.09" y1="1398.6" x2="1017.09" y2="1421.83"/><rect class="cls-2" x="961.01" y="304.91" width="60.91" height="23.23"/><line class="cls-2" x1="965.85" y1="304.91" x2="965.85" y2="328.14"/><line class="cls-2" x1="969.71" y1="304.91" x2="969.71" y2="328.14"/><line class="cls-2" x1="973.58" y1="304.91" x2="973.58" y2="328.14"/><line class="cls-2" x1="977.45" y1="304.91" x2="977.45" y2="328.14"/><line class="cls-2" x1="981.31" y1="304.91" x2="981.31" y2="328.14"/><line class="cls-2" x1="985.18" y1="304.91" x2="985.18" y2="328.14"/><line class="cls-2" x1="989.05" y1="304.91" x2="989.05" y2="328.14"/><line class="cls-2" x1="992.92" y1="304.91" x2="992.92" y2="328.14"/><line class="cls-2" x1="996.78" y1="304.91" x2="996.78" y2="328.14"/><line class="cls-2" x1="1000.65" y1="304.91" x2="1000.65" y2="328.14"/><line class="cls-2" x1="1004.52" y1="304.91" x2="1004.52" y2="328.14"/><line class="cls-2" x1="1008.38" y1="304.91" x2="1008.38" y2="328.14"/><line class="cls-2" x1="1012.25" y1="304.91" x2="1012.25" y2="328.14"/><line class="cls-2" x1="1017.09" y1="304.91" x2="1017.09" y2="328.14"/><line class="cls-2" x1="1754.74" y1="177.15" x2="1754.74" y2="65.85"/><rect class="cls-2" x="1768.27" y="91.01" width="116.98" height="73.56"/><rect class="cls-2" x="1868.82" y="91.01" width="13.53" height="58.07"/><line class="cls-2" x1="1876.19" y1="91.01" x2="1876.19" y2="149.08"/><line class="cls-2" x1="1868.82" y1="94.88" x2="1882.35" y2="94.88"/><line class="cls-2" x1="1868.82" y1="98.75" x2="1882.35" y2="98.75"/><line class="cls-2" x1="1868.82" y1="102.63" x2="1882.35" y2="102.63"/><line class="cls-2" x1="1868.82" y1="106.5" x2="1882.35" y2="106.5"/><line class="cls-2" x1="1868.82" y1="110.37" x2="1882.35" y2="110.37"/><line class="cls-2" x1="1868.82" y1="114.24" x2="1882.35" y2="114.24"/><line class="cls-2" x1="1868.82" y1="118.11" x2="1882.35" y2="118.11"/><line class="cls-2" x1="1868.82" y1="121.98" x2="1882.35" y2="121.98"/><line class="cls-2" x1="1868.82" y1="125.85" x2="1882.35" y2="125.85"/><line class="cls-2" x1="1868.82" y1="129.73" x2="1882.35" y2="129.73"/><line class="cls-2" x1="1868.82" y1="133.6" x2="1882.35" y2="133.6"/><line class="cls-2" x1="1868.82" y1="137.47" x2="1882.35" y2="137.47"/><line class="cls-2" x1="1868.82" y1="141.34" x2="1882.35" y2="141.34"/><line class="cls-2" x1="1868.82" y1="145.21" x2="1882.35" y2="145.21"/><line class="cls-4" x1="1868.82" y1="94.88" x2="1876.07" y2="90.53"/><line class="cls-4" x1="1882.35" y1="94.88" x2="1876.07" y2="90.53"/><rect class="cls-3" x="1769.24" y="477.19" width="116.01" height="72.59"/><rect class="cls-3" x="1769.24" y="477.19" width="116.01" height="72.59"/><g id="Codigo"><path class="cls-6" d="M1407.74,1889.78c0,2.57-1,4-2.62,4-1.47,0-2.47-1.38-2.49-3.88s1.09-3.92,2.62-3.92S1407.74,1887.38,1407.74,1889.78Zm-4.09.12c0,2,.6,3.08,1.53,3.08s1.54-1.22,1.54-3.15-.48-3.08-1.53-3.08C1404.3,1886.75,1403.65,1887.84,1403.65,1889.9Z" transform="translate(-42.29 -72.08)"/><path class="cls-6" d="M1408.77,1893a.69.69,0,0,1,.7-.73.73.73,0,1,1-.7.73Z" transform="translate(-42.29 -72.08)"/><path class="cls-6" d="M1413.3,1887h0l-1.31.71-.2-.78,1.65-.88h.87v7.55h-1Z" transform="translate(-42.29 -72.08)"/><path class="cls-6" d="M1417.12,1893a.69.69,0,0,1,.7-.73.73.73,0,1,1-.7.73Z" transform="translate(-42.29 -72.08)"/><path class="cls-6" d="M1419.35,1891.72a2.16,2.16,0,0,1,1.5-2v0a1.87,1.87,0,0,1-1.19-1.7,2.11,2.11,0,0,1,2.33-2,2,2,0,0,1,2.19,1.86,1.92,1.92,0,0,1-1.24,1.76v0a2.09,2.09,0,0,1,1.52,2,2.32,2.32,0,0,1-2.56,2.2C1420.3,1893.76,1419.35,1892.82,1419.35,1891.72Zm4.06,0c0-.92-.64-1.36-1.66-1.65a1.64,1.64,0,0,0-1.36,1.56,1.4,1.4,0,0,0,1.51,1.44A1.36,1.36,0,0,0,1423.41,1891.67Zm-2.81-3.77c0,.75.57,1.16,1.44,1.39a1.49,1.49,0,0,0,1.15-1.37,1.17,1.17,0,0,0-1.28-1.23A1.2,1.2,0,0,0,1420.6,1887.9Z" transform="translate(-42.29 -72.08)"/><path class="cls-6" d="M1487,1889.78c0,2.57-1,4-2.62,4-1.47,0-2.47-1.38-2.49-3.88s1.09-3.92,2.62-3.92S1487,1887.38,1487,1889.78Zm-4.09.12c0,2,.6,3.08,1.53,3.08s1.54-1.22,1.54-3.15-.47-3.08-1.53-3.08C1483.58,1886.75,1482.93,1887.84,1482.93,1889.9Z" transform="translate(-42.29 -72.08)"/><path class="cls-6" d="M1488,1893a.69.69,0,0,1,.7-.73.73.73,0,0,1,0,1.46A.68.68,0,0,1,1488,1893Z" transform="translate(-42.29 -72.08)"/><path class="cls-6" d="M1492.58,1887h0l-1.31.71-.2-.78,1.65-.88h.87v7.55h-1Z" transform="translate(-42.29 -72.08)"/><path class="cls-6" d="M1496.4,1893a.69.69,0,0,1,.7-.73.73.73,0,1,1-.7.73Z" transform="translate(-42.29 -72.08)"/><path class="cls-6" d="M1499.31,1892.92a4.21,4.21,0,0,0,.82,0,2.84,2.84,0,0,0,1.58-.73,3.31,3.31,0,0,0,1-2h0a2.21,2.21,0,0,1-1.77.81,2.18,2.18,0,0,1-2.23-2.31,2.59,2.59,0,0,1,2.57-2.68c1.54,0,2.49,1.25,2.49,3.18a4.77,4.77,0,0,1-1.3,3.54,3.76,3.76,0,0,1-2.19,1,4.71,4.71,0,0,1-.94.06Zm.37-4.34a1.45,1.45,0,0,0,1.45,1.6,1.69,1.69,0,0,0,1.48-.79.67.67,0,0,0,.09-.37c0-1.29-.47-2.28-1.54-2.28C1500.29,1886.74,1499.68,1887.51,1499.68,1888.57Z" transform="translate(-42.29 -72.08)"/><path class="cls-6" d="M1300.43,1890.75c0,2.57-1,4-2.62,4-1.47,0-2.47-1.38-2.49-3.88s1.09-3.92,2.62-3.92S1300.43,1888.35,1300.43,1890.75Zm-4.09.12c0,2,.6,3.08,1.53,3.08s1.54-1.22,1.54-3.15-.48-3.08-1.53-3.08C1297,1887.72,1296.34,1888.82,1296.34,1890.87Z" transform="translate(-42.29 -72.08)"/><path class="cls-6" d="M1301.45,1894a.69.69,0,0,1,.7-.73.73.73,0,1,1-.7.73Z" transform="translate(-42.29 -72.08)"/><path class="cls-6" d="M1306,1888h0l-1.31.71-.2-.78,1.65-.88h.87v7.55h-1Z" transform="translate(-42.29 -72.08)"/><path class="cls-6" d="M1309.81,1894a.69.69,0,0,1,.7-.73.73.73,0,1,1-.7.73Z" transform="translate(-42.29 -72.08)"/><path class="cls-6" d="M1316.43,1887.78a3.65,3.65,0,0,0-.77,0,3.06,3.06,0,0,0-2.62,2.68h0a2.3,2.3,0,0,1,4.09,1.57,2.52,2.52,0,0,1-2.5,2.66c-1.61,0-2.67-1.25-2.67-3.22a4.75,4.75,0,0,1,1.28-3.4,4.1,4.1,0,0,1,2.41-1.11,4.85,4.85,0,0,1,.74-.06Zm-.29,4.35a1.53,1.53,0,0,0-1.55-1.73,1.68,1.68,0,0,0-1.46.93.87.87,0,0,0-.12.45c0,1.24.59,2.16,1.66,2.16C1315.55,1893.95,1316.14,1893.22,1316.14,1892.14Z" transform="translate(-42.29 -72.08)"/><path class="cls-6" d="M1342,1890.75c0,2.57-1,4-2.62,4-1.47,0-2.47-1.38-2.49-3.88s1.09-3.92,2.62-3.92S1342,1888.35,1342,1890.75Zm-4.09.12c0,2,.6,3.08,1.53,3.08s1.54-1.22,1.54-3.15-.48-3.08-1.53-3.08C1338.56,1887.72,1337.91,1888.81,1337.91,1890.87Z" transform="translate(-42.29 -72.08)"/><path class="cls-6" d="M1343,1894a.69.69,0,0,1,.7-.73.73.73,0,1,1-.7.73Z" transform="translate(-42.29 -72.08)"/><path class="cls-6" d="M1347.56,1888h0l-1.31.71-.2-.78,1.65-.88h.87v7.55h-1Z" transform="translate(-42.29 -72.08)"/><path class="cls-6" d="M1351.38,1894a.69.69,0,0,1,.7-.73.73.73,0,1,1-.7.73Z" transform="translate(-42.29 -72.08)"/><path class="cls-6" d="M1358.59,1887.06v.67l-3.28,6.87h-1.06l3.27-6.68v0h-3.69v-.85Z" transform="translate(-42.29 -72.08)"/><path class="cls-6" d="M1087.74,1889.78c0,2.57-1,4-2.62,4-1.47,0-2.47-1.38-2.49-3.88s1.09-3.92,2.62-3.92S1087.74,1887.38,1087.74,1889.78Zm-4.09.12c0,2,.6,3.08,1.53,3.08s1.54-1.22,1.54-3.15-.48-3.08-1.53-3.08C1084.29,1886.75,1083.64,1887.85,1083.64,1889.9Z" transform="translate(-42.29 -72.08)"/><path class="cls-6" d="M1088.76,1893a.69.69,0,0,1,.7-.73.73.73,0,1,1-.7.73Z" transform="translate(-42.29 -72.08)"/><path class="cls-6" d="M1093.3,1887h0l-1.31.71-.2-.78,1.65-.88h.87v7.55h-1Z" transform="translate(-42.29 -72.08)"/><path class="cls-6" d="M1097.11,1893a.69.69,0,0,1,.7-.73.73.73,0,1,1-.7.73Z" transform="translate(-42.29 -72.08)"/><path class="cls-6" d="M1099.68,1892.47a3.41,3.41,0,0,0,1.67.48c1.31,0,1.72-.84,1.7-1.46,0-1.06-1-1.51-1.95-1.51h-.57v-.77h.57c.74,0,1.68-.38,1.68-1.28,0-.6-.38-1.14-1.32-1.14a2.76,2.76,0,0,0-1.51.5l-.27-.74a3.58,3.58,0,0,1,2-.58c1.48,0,2.16.88,2.16,1.8a1.87,1.87,0,0,1-1.39,1.78v0a2,2,0,0,1,1.68,1.94c0,1.21-.94,2.26-2.75,2.26a3.83,3.83,0,0,1-2-.51Z" transform="translate(-42.29 -72.08)"/><path class="cls-6" d="M1046.17,1889.79c0,2.57-1,4-2.62,4-1.47,0-2.47-1.38-2.49-3.88s1.09-3.92,2.62-3.92S1046.17,1887.38,1046.17,1889.79Zm-4.09.12c0,2,.6,3.08,1.53,3.08s1.54-1.22,1.54-3.15-.48-3.08-1.53-3.08C1042.72,1886.75,1042.07,1887.85,1042.07,1889.9Z" transform="translate(-42.29 -72.08)"/><path class="cls-6" d="M1047.19,1893a.69.69,0,0,1,.7-.73.73.73,0,1,1-.7.73Z" transform="translate(-42.29 -72.08)"/><path class="cls-6" d="M1051.72,1887h0l-1.31.71-.2-.78,1.65-.88h.87v7.55h-1Z" transform="translate(-42.29 -72.08)"/><path class="cls-6" d="M1055.54,1893a.69.69,0,0,1,.7-.73.73.73,0,1,1-.7.73Z" transform="translate(-42.29 -72.08)"/><path class="cls-6" d="M1057.86,1893.64V1893l.8-.78c1.92-1.83,2.79-2.81,2.81-3.95a1.35,1.35,0,0,0-1.5-1.47,2.57,2.57,0,0,0-1.6.64l-.32-.72a3.3,3.3,0,0,1,2.13-.77,2.12,2.12,0,0,1,2.31,2.2c0,1.39-1,2.52-2.6,4.05l-.6.56v0h3.39v.85Z" transform="translate(-42.29 -72.08)"/><path class="cls-6" d="M936.92,1888.81c0,2.57-1,4-2.62,4-1.47,0-2.47-1.38-2.49-3.88s1.09-3.92,2.62-3.92S936.92,1886.41,936.92,1888.81Zm-4.09.12c0,2,.6,3.08,1.53,3.08s1.54-1.22,1.54-3.15-.48-3.08-1.53-3.08C933.48,1885.78,932.83,1886.88,932.83,1888.93Z" transform="translate(-42.29 -72.08)"/><path class="cls-6" d="M937.95,1892.07a.69.69,0,0,1,.7-.73.73.73,0,1,1-.7.73Z" transform="translate(-42.29 -72.08)"/><path class="cls-6" d="M942.48,1886.07h0l-1.31.71-.2-.78,1.65-.88h.87v7.55h-1Z" transform="translate(-42.29 -72.08)"/><path class="cls-6" d="M946.3,1892.07a.69.69,0,0,1,.7-.73.73.73,0,1,1-.7.73Z" transform="translate(-42.29 -72.08)"/><path class="cls-6" d="M950.83,1886.07h0l-1.31.71-.2-.78,1.65-.88h.87v7.55h-1Z" transform="translate(-42.29 -72.08)"/><path class="cls-6" d="M1237.59,1890.75c0,2.57-1,4-2.62,4-1.47,0-2.47-1.38-2.49-3.88s1.09-3.92,2.62-3.92S1237.59,1888.35,1237.59,1890.75Zm-4.09.12c0,2,.6,3.08,1.53,3.08s1.54-1.22,1.54-3.15-.48-3.08-1.53-3.08C1234.15,1887.72,1233.5,1888.81,1233.5,1890.87Z" transform="translate(-42.29 -72.08)"/><path class="cls-6" d="M1238.61,1894a.69.69,0,0,1,.7-.73.73.73,0,1,1-.7.73Z" transform="translate(-42.29 -72.08)"/><path class="cls-6" d="M1243.15,1888h0l-1.31.71-.2-.78,1.65-.88h.87v7.55h-1Z" transform="translate(-42.29 -72.08)"/><path class="cls-6" d="M1247,1894a.69.69,0,0,1,.7-.73.73.73,0,1,1-.7.73Z" transform="translate(-42.29 -72.08)"/><path class="cls-6" d="M1253.79,1887.92h-2.88l-.29,1.94a4,4,0,0,1,.61,0,3.19,3.19,0,0,1,1.62.41,2.15,2.15,0,0,1,1.08,1.94,2.62,2.62,0,0,1-2.81,2.58,3.68,3.68,0,0,1-1.88-.46l.25-.78a3.37,3.37,0,0,0,1.61.42,1.66,1.66,0,0,0,1.79-1.64c0-1-.66-1.67-2.17-1.67a7.74,7.74,0,0,0-1,.08l.49-3.62h3.61Z" transform="translate(-42.29 -72.08)"/><path class="cls-6" d="M1151.55,1890.75c0,2.57-1,4-2.62,4-1.47,0-2.47-1.38-2.49-3.88s1.09-3.92,2.62-3.92S1151.55,1888.35,1151.55,1890.75Zm-4.09.12c0,2,.6,3.08,1.53,3.08s1.54-1.22,1.54-3.15-.48-3.08-1.53-3.08C1148.1,1887.72,1147.45,1888.81,1147.45,1890.87Z" transform="translate(-42.29 -72.08)"/><path class="cls-6" d="M1152.57,1894a.69.69,0,0,1,.7-.73.73.73,0,1,1-.7.73Z" transform="translate(-42.29 -72.08)"/><path class="cls-6" d="M1157.11,1888h0l-1.31.71-.2-.78,1.65-.88h.87v7.55h-1Z" transform="translate(-42.29 -72.08)"/><path class="cls-6" d="M1160.92,1894a.69.69,0,0,1,.7-.73.73.73,0,1,1-.7.73Z" transform="translate(-42.29 -72.08)"/><path class="cls-6" d="M1166.4,1894.61v-2.06h-3.5v-.67l3.36-4.82h1.1v4.69h1.06v.8h-1.06v2.06Zm0-2.86v-2.52q0-.59,0-1.18h0c-.23.44-.42.77-.63,1.11l-1.84,2.57v0Z" transform="translate(-42.29 -72.08)"/><path class="cls-6" d="M1771,188.92v-1.71h-2.92v-.56l2.8-4h.92v3.91h.88v.67h-.88v1.71Zm0-2.38v-2.1q0-.49,0-1h0c-.19.37-.35.64-.52.93l-1.54,2.14v0Z" transform="translate(-42.29 -72.08)"/><path class="cls-6" d="M1773.37,188.42a.57.57,0,0,1,.58-.61.61.61,0,1,1-.58.61Z" transform="translate(-42.29 -72.08)"/><path class="cls-6" d="M1777.15,183.43h0L1776,184l-.17-.65,1.37-.74h.73v6.29h-.82Z" transform="translate(-42.29 -72.08)"/><path class="cls-6" d="M1780.33,188.42a.57.57,0,0,1,.58-.61.61.61,0,1,1-.58.61Z" transform="translate(-42.29 -72.08)"/><path class="cls-6" d="M1786.35,182.64v.56l-2.74,5.73h-.88l2.73-5.56v0h-3.08v-.71Z" transform="translate(-42.29 -72.08)"/><path class="cls-6" d="M366.91,251.17v-2.06h-3.5v-.67l3.36-4.82h1.1v4.69h1.06v.8h-1.06v2.06Zm0-2.86v-2.52q0-.59,0-1.18h0c-.23.44-.42.77-.63,1.11l-1.84,2.57v0Z" transform="translate(-42.29 -72.08)"/><path class="cls-6" d="M369.79,250.56a.69.69,0,0,1,.7-.73.73.73,0,0,1,0,1.46A.68.68,0,0,1,369.79,250.56Z" transform="translate(-42.29 -72.08)"/><path class="cls-6" d="M372.11,251.17v-.63l.8-.78c1.93-1.83,2.79-2.81,2.81-3.95a1.35,1.35,0,0,0-1.5-1.47,2.56,2.56,0,0,0-1.6.64l-.32-.72a3.3,3.3,0,0,1,2.13-.77,2.12,2.12,0,0,1,2.31,2.19c0,1.39-1,2.52-2.6,4.05l-.6.56v0h3.39v.85Z" transform="translate(-42.29 -72.08)"/><path class="cls-6" d="M511.93,251.17v-2.06h-3.5v-.67l3.36-4.82h1.1v4.69h1.06v.8h-1.06v2.06Zm0-2.86v-2.52q0-.59,0-1.18h0c-.23.44-.42.77-.63,1.11l-1.84,2.57v0Z" transform="translate(-42.29 -72.08)"/><path class="cls-6" d="M514.81,250.56a.69.69,0,0,1,.7-.73.73.73,0,0,1,0,1.46A.68.68,0,0,1,514.81,250.56Z" transform="translate(-42.29 -72.08)"/><path class="cls-6" d="M519.34,244.57h0l-1.31.71-.2-.78,1.65-.88h.87v7.55h-1Z" transform="translate(-42.29 -72.08)"/><path class="cls-6" d="M219,251.17v-2.06h-3.5v-.67l3.36-4.82H220v4.69H221v.8H220v2.06Zm0-2.86v-2.52q0-.59,0-1.18h0c-.23.44-.42.77-.63,1.11l-1.84,2.57v0Z" transform="translate(-42.29 -72.08)"/><path class="cls-6" d="M221.87,250.56a.69.69,0,0,1,.7-.73.73.73,0,0,1,0,1.46A.68.68,0,0,1,221.87,250.56Z" transform="translate(-42.29 -72.08)"/><path class="cls-6" d="M224.43,250a3.4,3.4,0,0,0,1.67.48c1.31,0,1.72-.84,1.7-1.46,0-1.06-1-1.51-1.95-1.51h-.57v-.77h.57c.74,0,1.68-.38,1.68-1.28,0-.6-.38-1.14-1.32-1.14a2.76,2.76,0,0,0-1.51.5l-.27-.74a3.58,3.58,0,0,1,2-.58c1.48,0,2.16.88,2.16,1.8a1.87,1.87,0,0,1-1.39,1.78v0a2,2,0,0,1,1.68,1.94c0,1.21-.94,2.26-2.75,2.26a3.82,3.82,0,0,1-2-.51Z" transform="translate(-42.29 -72.08)"/><path class="cls-6" d="M99.11,251.17v-2.06h-3.5v-.67L99,243.62h1.1v4.69h1.06v.8h-1.06v2.06Zm0-2.86v-2.52q0-.59,0-1.18h0c-.23.44-.42.77-.63,1.11l-1.84,2.57v0Z" transform="translate(-42.29 -72.08)"/><path class="cls-6" d="M102,250.56a.69.69,0,0,1,.7-.73.73.73,0,0,1,0,1.46A.68.68,0,0,1,102,250.56Z" transform="translate(-42.29 -72.08)"/><path class="cls-6" d="M107.46,251.17v-2.06H104v-.67l3.36-4.82h1.1v4.69h1.06v.8h-1.06v2.06Zm0-2.86v-2.52q0-.59,0-1.18h0c-.23.44-.42.77-.63,1.11L105,248.29v0Z" transform="translate(-42.29 -72.08)"/><path class="cls-6" d="M364,633.27a3.41,3.41,0,0,0,1.67.48c1.31,0,1.72-.84,1.71-1.46,0-1.06-1-1.51-1.95-1.51h-.57V630h.57c.74,0,1.68-.38,1.68-1.28,0-.6-.38-1.14-1.32-1.14a2.77,2.77,0,0,0-1.51.5l-.27-.74a3.58,3.58,0,0,1,2-.58c1.48,0,2.16.88,2.16,1.8a1.87,1.87,0,0,1-1.39,1.78v0a2,2,0,0,1,1.68,1.94c0,1.21-.94,2.26-2.75,2.26a3.82,3.82,0,0,1-2-.51Z" transform="translate(-42.29 -72.08)"/><path class="cls-6" d="M369.79,633.84a.69.69,0,0,1,.7-.73.73.73,0,0,1,0,1.46A.68.68,0,0,1,369.79,633.84Z" transform="translate(-42.29 -72.08)"/><path class="cls-6" d="M372.11,634.44v-.63l.8-.78c1.93-1.83,2.79-2.81,2.81-3.95a1.35,1.35,0,0,0-1.5-1.47,2.56,2.56,0,0,0-1.6.64l-.32-.72a3.3,3.3,0,0,1,2.13-.77,2.12,2.12,0,0,1,2.31,2.19c0,1.39-1,2.52-2.6,4.05l-.6.56v0h3.39v.85Z" transform="translate(-42.29 -72.08)"/><path class="cls-6" d="M509,634.24a3.4,3.4,0,0,0,1.67.48c1.31,0,1.72-.84,1.7-1.46,0-1.06-1-1.51-1.95-1.51h-.57V631h.57c.74,0,1.68-.38,1.68-1.28,0-.6-.38-1.14-1.32-1.14a2.76,2.76,0,0,0-1.51.5l-.27-.74a3.58,3.58,0,0,1,2-.58c1.48,0,2.16.88,2.16,1.8a1.87,1.87,0,0,1-1.39,1.78v0a2,2,0,0,1,1.68,1.94c0,1.21-.94,2.26-2.75,2.26a3.82,3.82,0,0,1-2-.51Z" transform="translate(-42.29 -72.08)"/><path class="cls-6" d="M514.81,634.81a.69.69,0,0,1,.7-.73.73.73,0,1,1-.7.73Z" transform="translate(-42.29 -72.08)"/><path class="cls-6" d="M519.34,628.81h0l-1.31.71-.2-.78,1.65-.88h.87v7.55h-1Z" transform="translate(-42.29 -72.08)"/><path class="cls-6" d="M216.08,634.24a3.4,3.4,0,0,0,1.67.48c1.31,0,1.72-.84,1.7-1.46,0-1.06-1-1.51-1.95-1.51h-.57V631h.57c.74,0,1.68-.38,1.68-1.28,0-.6-.38-1.14-1.32-1.14a2.76,2.76,0,0,0-1.51.5l-.27-.74a3.58,3.58,0,0,1,2-.58c1.48,0,2.16.88,2.16,1.8a1.87,1.87,0,0,1-1.39,1.78v0a2,2,0,0,1,1.68,1.94c0,1.21-.94,2.26-2.75,2.26a3.82,3.82,0,0,1-2-.51Z" transform="translate(-42.29 -72.08)"/><path class="cls-6" d="M221.87,634.81a.69.69,0,0,1,.7-.73.73.73,0,1,1-.7.73Z" transform="translate(-42.29 -72.08)"/><path class="cls-6" d="M224.43,634.24a3.4,3.4,0,0,0,1.67.48c1.31,0,1.72-.84,1.7-1.46,0-1.06-1-1.51-1.95-1.51h-.57V631h.57c.74,0,1.68-.38,1.68-1.28,0-.6-.38-1.14-1.32-1.14a2.76,2.76,0,0,0-1.51.5l-.27-.74a3.58,3.58,0,0,1,2-.58c1.48,0,2.16.88,2.16,1.8a1.87,1.87,0,0,1-1.39,1.78v0a2,2,0,0,1,1.68,1.94c0,1.21-.94,2.26-2.75,2.26a3.82,3.82,0,0,1-2-.51Z" transform="translate(-42.29 -72.08)"/><path class="cls-6" d="M96.2,633.27a3.4,3.4,0,0,0,1.67.48c1.31,0,1.72-.84,1.7-1.46,0-1.06-1-1.51-1.95-1.51h-.57V630h.57c.74,0,1.68-.38,1.68-1.28,0-.6-.38-1.14-1.32-1.14a2.76,2.76,0,0,0-1.51.5l-.27-.74a3.58,3.58,0,0,1,2-.58c1.48,0,2.16.88,2.16,1.8a1.87,1.87,0,0,1-1.39,1.78v0a2,2,0,0,1,1.68,1.94c0,1.21-.94,2.26-2.75,2.26a3.82,3.82,0,0,1-2-.51Z" transform="translate(-42.29 -72.08)"/><path class="cls-6" d="M102,633.84a.69.69,0,0,1,.7-.73.73.73,0,0,1,0,1.46A.68.68,0,0,1,102,633.84Z" transform="translate(-42.29 -72.08)"/><path class="cls-6" d="M107.46,634.44v-2.06H104v-.67l3.36-4.82h1.1v4.69h1.06v.8h-1.06v2.06Zm0-2.86v-2.52q0-.59,0-1.18h0c-.23.44-.42.77-.63,1.11L105,631.56v0Z" transform="translate(-42.29 -72.08)"/><path class="cls-6" d="M538.74,1016.75v-.63l.8-.78c1.93-1.83,2.79-2.81,2.81-3.95a1.35,1.35,0,0,0-1.5-1.47,2.56,2.56,0,0,0-1.6.64l-.32-.72a3.3,3.3,0,0,1,2.13-.77,2.12,2.12,0,0,1,2.31,2.19c0,1.39-1,2.52-2.6,4.05l-.6.56v0h3.39v.85Z" transform="translate(-42.29 -72.08)"/><path class="cls-6" d="M544.78,1016.14a.69.69,0,0,1,.7-.73.73.73,0,1,1-.7.73Z" transform="translate(-42.29 -72.08)"/><path class="cls-6" d="M549.31,1010.15h0l-1.31.71-.2-.78,1.65-.88h.87v7.55h-1Z" transform="translate(-42.29 -72.08)"/><path class="cls-6" d="M432.4,1016.75v-.63l.8-.78c1.92-1.83,2.79-2.81,2.81-3.95a1.35,1.35,0,0,0-1.5-1.47,2.56,2.56,0,0,0-1.6.64l-.32-.72a3.3,3.3,0,0,1,2.13-.77,2.12,2.12,0,0,1,2.31,2.19c0,1.39-1,2.52-2.6,4.05l-.6.56v0h3.39v.85Z" transform="translate(-42.29 -72.08)"/><path class="cls-6" d="M438.43,1016.14a.69.69,0,0,1,.7-.73.73.73,0,1,1-.7.73Z" transform="translate(-42.29 -72.08)"/><path class="cls-6" d="M440.75,1016.75v-.63l.8-.78c1.92-1.83,2.79-2.81,2.81-3.95a1.35,1.35,0,0,0-1.5-1.47,2.56,2.56,0,0,0-1.6.64l-.32-.72a3.3,3.3,0,0,1,2.13-.77,2.12,2.12,0,0,1,2.31,2.19c0,1.39-1,2.52-2.6,4.05l-.6.56v0h3.39v.85Z" transform="translate(-42.29 -72.08)"/><path class="cls-6" d="M290.28,1016.75v-.63l.8-.78c1.92-1.83,2.79-2.81,2.81-3.95a1.35,1.35,0,0,0-1.5-1.47,2.56,2.56,0,0,0-1.6.64l-.32-.72a3.3,3.3,0,0,1,2.13-.77,2.12,2.12,0,0,1,2.31,2.19c0,1.39-1,2.52-2.6,4.05l-.6.56v0h3.39v.85Z" transform="translate(-42.29 -72.08)"/><path class="cls-6" d="M296.31,1016.14a.69.69,0,0,1,.7-.73.73.73,0,1,1-.7.73Z" transform="translate(-42.29 -72.08)"/><path class="cls-6" d="M298.88,1015.58a3.4,3.4,0,0,0,1.67.48c1.31,0,1.72-.84,1.7-1.46,0-1.06-1-1.51-1.95-1.51h-.57v-.77h.57c.74,0,1.68-.38,1.68-1.28,0-.6-.38-1.14-1.32-1.14a2.76,2.76,0,0,0-1.51.5l-.27-.74a3.58,3.58,0,0,1,2-.58c1.48,0,2.16.88,2.16,1.8a1.87,1.87,0,0,1-1.39,1.78v0a2,2,0,0,1,1.68,1.94c0,1.21-.94,2.26-2.75,2.26a3.82,3.82,0,0,1-2-.51Z" transform="translate(-42.29 -72.08)"/><path class="cls-6" d="M134.63,1017.72v-.63l.8-.78c1.92-1.83,2.79-2.81,2.81-3.95a1.35,1.35,0,0,0-1.5-1.47,2.56,2.56,0,0,0-1.6.64l-.32-.72a3.3,3.3,0,0,1,2.13-.77,2.12,2.12,0,0,1,2.31,2.19c0,1.39-1,2.52-2.6,4.05l-.6.56v0h3.39v.85Z" transform="translate(-42.29 -72.08)"/><path class="cls-6" d="M140.66,1017.11a.69.69,0,0,1,.7-.73.73.73,0,0,1,0,1.46A.68.68,0,0,1,140.66,1017.11Z" transform="translate(-42.29 -72.08)"/><path class="cls-6" d="M146.14,1017.72v-2.06h-3.5V1015l3.36-4.82h1.1v4.69h1.06v.8H147.1v2.06Zm0-2.86v-2.52q0-.59,0-1.18h0c-.23.44-.42.77-.63,1.11l-1.84,2.57v0Z" transform="translate(-42.29 -72.08)"/><path class="cls-6" d="M509.05,1394.4h0l-1.31.71-.2-.78,1.65-.88H510V1401h-1Z" transform="translate(-42.29 -72.08)"/><path class="cls-6" d="M512.87,1400.39a.69.69,0,0,1,.7-.73.73.73,0,1,1-.7.73Z" transform="translate(-42.29 -72.08)"/><path class="cls-6" d="M517.41,1394.4h0l-1.31.71-.2-.78,1.65-.88h.87V1401h-1Z" transform="translate(-42.29 -72.08)"/><path class="cls-6" d="M366,1394.4h0l-1.31.71-.2-.78,1.65-.88H367V1401h-1Z" transform="translate(-42.29 -72.08)"/><path class="cls-6" d="M369.79,1400.39a.69.69,0,0,1,.7-.73.73.73,0,1,1-.7.73Z" transform="translate(-42.29 -72.08)"/><path class="cls-6" d="M372.11,1401v-.63l.8-.78c1.93-1.83,2.79-2.81,2.81-3.95a1.35,1.35,0,0,0-1.5-1.47,2.57,2.57,0,0,0-1.6.64l-.32-.72a3.3,3.3,0,0,1,2.13-.77,2.12,2.12,0,0,1,2.31,2.2c0,1.39-1,2.52-2.6,4.05l-.6.56v0h3.39v.85Z" transform="translate(-42.29 -72.08)"/><path class="cls-6" d="M1856.41,355.7v-2.06h-3.5V353l3.36-4.82h1.1v4.69h1.06v.8h-1.06v2.06Zm0-2.86v-2.52q0-.59,0-1.18h0c-.23.44-.42.77-.63,1.11l-1.84,2.57v0Z" transform="translate(-42.29 -72.08)"/><path class="cls-6" d="M1859.29,355.09a.69.69,0,0,1,.7-.73.73.73,0,0,1,0,1.46A.68.68,0,0,1,1859.29,355.09Z" transform="translate(-42.29 -72.08)"/><path class="cls-6" d="M1863.82,349.1h0l-1.31.71-.2-.78,1.65-.88h.87v7.55h-1Z" transform="translate(-42.29 -72.08)"/><path class="cls-6" d="M1867.64,355.09a.69.69,0,0,1,.7-.73.73.73,0,1,1-.7.73Z" transform="translate(-42.29 -72.08)"/><path class="cls-6" d="M1869.87,353.78a2.16,2.16,0,0,1,1.5-2v0a1.87,1.87,0,0,1-1.19-1.7,2.11,2.11,0,0,1,2.33-2,2,2,0,0,1,2.19,1.86,1.92,1.92,0,0,1-1.24,1.76v0a2.09,2.09,0,0,1,1.52,2,2.32,2.32,0,0,1-2.56,2.19C1870.82,355.82,1869.87,354.88,1869.87,353.78Zm4.06,0c0-.92-.64-1.36-1.66-1.65a1.64,1.64,0,0,0-1.36,1.56,1.4,1.4,0,0,0,1.51,1.44A1.37,1.37,0,0,0,1873.93,353.73Zm-2.81-3.77c0,.75.57,1.16,1.44,1.39a1.49,1.49,0,0,0,1.15-1.37,1.17,1.17,0,0,0-1.28-1.23A1.2,1.2,0,0,0,1871.12,350Z" transform="translate(-42.29 -72.08)"/><path class="cls-6" d="M1690.12,355.7v-2.06h-3.5V353l3.36-4.82h1.1v4.69h1.06v.8h-1.06v2.06Zm0-2.86v-2.52q0-.59,0-1.18h0c-.23.44-.42.77-.63,1.11l-1.84,2.57v0Z" transform="translate(-42.29 -72.08)"/><path class="cls-6" d="M1693,355.09a.69.69,0,0,1,.7-.73.73.73,0,1,1-.7.73Z" transform="translate(-42.29 -72.08)"/><path class="cls-6" d="M1697.54,349.1h0l-1.31.71-.2-.78,1.65-.88h.87v7.55h-1Z" transform="translate(-42.29 -72.08)"/><path class="cls-6" d="M1701.35,355.09a.69.69,0,0,1,.7-.73.73.73,0,0,1,0,1.46A.68.68,0,0,1,1701.35,355.09Z" transform="translate(-42.29 -72.08)"/><path class="cls-6" d="M1708,348.87a3.68,3.68,0,0,0-.77,0,3.07,3.07,0,0,0-2.62,2.68h0a2.3,2.3,0,0,1,4.09,1.57,2.52,2.52,0,0,1-2.5,2.66c-1.61,0-2.67-1.25-2.67-3.22a4.75,4.75,0,0,1,1.28-3.4,4.1,4.1,0,0,1,2.41-1.11,4.9,4.9,0,0,1,.74-.06Zm-.29,4.35a1.53,1.53,0,0,0-1.55-1.73,1.68,1.68,0,0,0-1.46.93.86.86,0,0,0-.12.45c0,1.24.59,2.16,1.66,2.16C1707.1,355,1707.69,354.3,1707.69,353.22Z" transform="translate(-42.29 -72.08)"/><path class="cls-6" d="M1410.72,356.66v-2.06h-3.5v-.67l3.36-4.82h1.1v4.69h1.06v.8h-1.06v2.06Zm0-2.86v-2.52q0-.59,0-1.18h0c-.23.44-.42.77-.63,1.11l-1.84,2.57v0Z" transform="translate(-42.29 -72.08)"/><path class="cls-6" d="M1413.6,356.06a.69.69,0,0,1,.7-.73.73.73,0,1,1-.7.73Z" transform="translate(-42.29 -72.08)"/><path class="cls-6" d="M1418.14,350.07h0l-1.31.71-.2-.78,1.65-.88h.87v7.55h-1Z" transform="translate(-42.29 -72.08)"/><path class="cls-6" d="M1422,356.06a.69.69,0,0,1,.7-.73.73.73,0,1,1-.7.73Z" transform="translate(-42.29 -72.08)"/><path class="cls-6" d="M1427.43,356.66v-2.06h-3.5v-.67l3.36-4.82h1.1v4.69h1.06v.8h-1.06v2.06Zm0-2.86v-2.52q0-.59,0-1.18h0c-.23.44-.42.77-.63,1.11l-1.84,2.57v0Z" transform="translate(-42.29 -72.08)"/><path class="cls-6" d="M1237.67,356.66v-2.06h-3.5v-.67l3.36-4.82h1.1v4.69h1.06v.8h-1.06v2.06Zm0-2.86v-2.52q0-.59,0-1.18h0c-.23.44-.42.77-.63,1.11l-1.84,2.57v0Z" transform="translate(-42.29 -72.08)"/><path class="cls-6" d="M1240.55,356.06a.69.69,0,0,1,.7-.73.73.73,0,1,1-.7.73Z" transform="translate(-42.29 -72.08)"/><path class="cls-6" d="M1245.08,350.07h0l-1.31.71-.2-.78,1.65-.88h.87v7.55h-1Z" transform="translate(-42.29 -72.08)"/><path class="cls-6" d="M1248.9,356.06a.69.69,0,0,1,.7-.73.73.73,0,1,1-.7.73Z" transform="translate(-42.29 -72.08)"/><path class="cls-6" d="M1251.22,356.66V356l.8-.78c1.92-1.83,2.79-2.81,2.81-3.95a1.35,1.35,0,0,0-1.5-1.47,2.56,2.56,0,0,0-1.6.64l-.32-.72a3.3,3.3,0,0,1,2.13-.77,2.12,2.12,0,0,1,2.31,2.19c0,1.39-1,2.52-2.6,4.05l-.6.56v0H1256v.85Z" transform="translate(-42.29 -72.08)"/><path class="cls-6" d="M1235.74,189.22v-2.06h-3.5v-.67l3.36-4.82h1.1v4.69h1.06v.8h-1.06v2.06Zm0-2.86v-2.52q0-.59,0-1.18h0c-.23.44-.42.77-.63,1.11l-1.84,2.57v0Z" transform="translate(-42.29 -72.08)"/><path class="cls-6" d="M1238.61,188.62a.69.69,0,0,1,.7-.73.73.73,0,0,1,0,1.46A.68.68,0,0,1,1238.61,188.62Z" transform="translate(-42.29 -72.08)"/><path class="cls-6" d="M1243.15,182.63h0l-1.31.71-.2-.78,1.65-.88h.87v7.55h-1Z" transform="translate(-42.29 -72.08)"/><path class="cls-6" d="M1247,188.62a.69.69,0,0,1,.7-.73.73.73,0,0,1,0,1.46A.68.68,0,0,1,1247,188.62Z" transform="translate(-42.29 -72.08)"/><path class="cls-6" d="M1251.5,182.63h0l-1.31.71-.2-.78,1.65-.88h.87v7.55h-1Z" transform="translate(-42.29 -72.08)"/><path class="cls-6" d="M1407.82,189.22v-2.06h-3.5v-.67l3.36-4.82h1.1v4.69h1.06v.8h-1.06v2.06Zm0-2.86v-2.52q0-.59,0-1.18h0c-.23.44-.42.77-.63,1.11l-1.84,2.57v0Z" transform="translate(-42.29 -72.08)"/><path class="cls-6" d="M1410.7,188.62a.69.69,0,0,1,.7-.73.73.73,0,0,1,0,1.46A.68.68,0,0,1,1410.7,188.62Z" transform="translate(-42.29 -72.08)"/><path class="cls-6" d="M1415.24,182.63h0l-1.31.71-.2-.78,1.65-.88h.87v7.55h-1Z" transform="translate(-42.29 -72.08)"/><path class="cls-6" d="M1419.05,188.62a.69.69,0,0,1,.7-.73.73.73,0,0,1,0,1.46A.68.68,0,0,1,1419.05,188.62Z" transform="translate(-42.29 -72.08)"/><path class="cls-6" d="M1421.62,188a3.4,3.4,0,0,0,1.67.48c1.31,0,1.72-.84,1.7-1.46,0-1.06-1-1.51-1.95-1.51h-.57v-.77h.57c.74,0,1.68-.38,1.68-1.28,0-.6-.38-1.14-1.32-1.14a2.76,2.76,0,0,0-1.51.5l-.27-.74a3.58,3.58,0,0,1,2-.58c1.48,0,2.16.88,2.16,1.8a1.87,1.87,0,0,1-1.39,1.78v0a2,2,0,0,1,1.68,1.94c0,1.21-.94,2.26-2.75,2.26a3.82,3.82,0,0,1-2-.51Z" transform="translate(-42.29 -72.08)"/><path class="cls-6" d="M1669.82,184.38v-2.06h-3.5v-.67l3.36-4.82h1.1v4.69h1.06v.8h-1.06v2.06Zm0-2.86V179q0-.59,0-1.18h0c-.23.44-.42.77-.63,1.11l-1.84,2.57v0Z" transform="translate(-42.29 -72.08)"/><path class="cls-6" d="M1672.7,183.78a.69.69,0,0,1,.7-.73.73.73,0,1,1-.7.73Z" transform="translate(-42.29 -72.08)"/><path class="cls-6" d="M1677.23,177.79h0l-1.31.71-.2-.78,1.65-.88h.87v7.55h-1Z" transform="translate(-42.29 -72.08)"/><path class="cls-6" d="M1681.05,183.78a.69.69,0,0,1,.7-.73.73.73,0,0,1,0,1.46A.68.68,0,0,1,1681.05,183.78Z" transform="translate(-42.29 -72.08)"/><path class="cls-6" d="M1687.87,177.69H1685l-.29,1.94a4.06,4.06,0,0,1,.61,0,3.18,3.18,0,0,1,1.62.41,2.15,2.15,0,0,1,1.08,1.94,2.62,2.62,0,0,1-2.81,2.58,3.68,3.68,0,0,1-1.88-.46l.25-.78a3.38,3.38,0,0,0,1.61.42A1.66,1.66,0,0,0,1687,182c0-1-.66-1.67-2.17-1.67a7.81,7.81,0,0,0-1,.08l.49-3.62h3.61Z" transform="translate(-42.29 -72.08)"/><path class="cls-6" d="M1239.59,570.36a3.4,3.4,0,0,0,1.67.48c1.31,0,1.72-.84,1.7-1.46,0-1.06-1-1.51-1.95-1.51h-.57v-.77h.57c.74,0,1.68-.38,1.68-1.28,0-.6-.38-1.14-1.32-1.14a2.76,2.76,0,0,0-1.51.5l-.27-.74a3.58,3.58,0,0,1,2-.58c1.48,0,2.16.88,2.16,1.8a1.87,1.87,0,0,1-1.39,1.78v0a2,2,0,0,1,1.68,1.94c0,1.21-.94,2.26-2.75,2.26a3.82,3.82,0,0,1-2-.51Z" transform="translate(-42.29 -72.08)"/><path class="cls-6" d="M1245.38,570.93a.69.69,0,0,1,.7-.73.73.73,0,1,1-.7.73Z" transform="translate(-42.29 -72.08)"/><path class="cls-6" d="M1249.92,564.93h0l-1.31.71-.2-.78L1250,564h.87v7.55h-1Z" transform="translate(-42.29 -72.08)"/><path class="cls-6" d="M1253.73,570.93a.69.69,0,0,1,.7-.73.73.73,0,1,1-.7.73Z" transform="translate(-42.29 -72.08)"/><path class="cls-6" d="M1258.27,564.93h0l-1.31.71-.2-.78,1.65-.88h.87v7.55h-1Z" transform="translate(-42.29 -72.08)"/><path class="cls-6" d="M1234.8,1503.12h0l-1.31.71-.2-.78,1.65-.88h.87v7.55h-1Z" transform="translate(-42.29 -72.08)"/><path class="cls-6" d="M1238.61,1509.11a.69.69,0,0,1,.7-.73.73.73,0,1,1-.7.73Z" transform="translate(-42.29 -72.08)"/><path class="cls-6" d="M1243.15,1503.12h0l-1.31.71-.2-.78,1.65-.88h.87v7.55h-1Z" transform="translate(-42.29 -72.08)"/><path class="cls-6" d="M1247,1509.11a.69.69,0,0,1,.7-.73.73.73,0,1,1-.7.73Z" transform="translate(-42.29 -72.08)"/><path class="cls-6" d="M1249.29,1509.72v-.63l.8-.78c1.92-1.83,2.79-2.81,2.81-3.95a1.35,1.35,0,0,0-1.5-1.47,2.57,2.57,0,0,0-1.6.64l-.32-.72a3.3,3.3,0,0,1,2.13-.77,2.12,2.12,0,0,1,2.31,2.2c0,1.39-1,2.52-2.6,4.05l-.6.56v0h3.39v.85Z" transform="translate(-42.29 -72.08)"/><path class="cls-6" d="M1407.85,1503.12h0l-1.31.71-.2-.78,1.65-.88h.87v7.55h-1Z" transform="translate(-42.29 -72.08)"/><path class="cls-6" d="M1411.67,1509.11a.69.69,0,0,1,.7-.73.73.73,0,1,1-.7.73Z" transform="translate(-42.29 -72.08)"/><path class="cls-6" d="M1416.2,1503.12h0l-1.31.71-.2-.78,1.65-.88h.87v7.55h-1Z" transform="translate(-42.29 -72.08)"/><path class="cls-6" d="M1420,1509.11a.69.69,0,0,1,.7-.73.73.73,0,1,1-.7.73Z" transform="translate(-42.29 -72.08)"/><path class="cls-6" d="M1425.5,1509.72v-2.06H1422V1507l3.36-4.82h1.1v4.69h1.06v.8h-1.06v2.06Zm0-2.86v-2.52q0-.59,0-1.18h0c-.23.44-.42.77-.63,1.11l-1.84,2.57v0Z" transform="translate(-42.29 -72.08)"/><path class="cls-6" d="M1410.75,1333.74h0l-1.31.71-.2-.78,1.65-.88h.87v7.55h-1Z" transform="translate(-42.29 -72.08)"/><path class="cls-6" d="M1414.57,1339.73a.69.69,0,0,1,.7-.73.73.73,0,1,1-.7.73Z" transform="translate(-42.29 -72.08)"/><path class="cls-6" d="M1419.1,1333.74h0l-1.31.71-.2-.78,1.65-.88h.87v7.55h-1Z" transform="translate(-42.29 -72.08)"/><path class="cls-6" d="M1422.92,1339.73a.69.69,0,0,1,.7-.73.73.73,0,1,1-.7.73Z" transform="translate(-42.29 -72.08)"/><path class="cls-6" d="M1425.49,1339.17a3.4,3.4,0,0,0,1.67.48c1.31,0,1.72-.84,1.7-1.46,0-1.06-1-1.51-1.95-1.51h-.57v-.77h.57c.74,0,1.68-.38,1.68-1.28,0-.6-.38-1.14-1.32-1.14a2.76,2.76,0,0,0-1.51.5l-.27-.74a3.58,3.58,0,0,1,2-.58c1.48,0,2.16.88,2.16,1.8a1.87,1.87,0,0,1-1.39,1.78v0a2,2,0,0,1,1.68,1.94c0,1.21-.94,2.26-2.75,2.26a3.82,3.82,0,0,1-2-.51Z" transform="translate(-42.29 -72.08)"/><path class="cls-6" d="M1239.63,1333.74h0l-1.31.71-.2-.78,1.65-.88h.87v7.55h-1Z" transform="translate(-42.29 -72.08)"/><path class="cls-6" d="M1243.45,1339.73a.69.69,0,0,1,.7-.73.73.73,0,1,1-.7.73Z" transform="translate(-42.29 -72.08)"/><path class="cls-6" d="M1248,1333.74h0l-1.31.71-.2-.78,1.65-.88h.87v7.55h-1Z" transform="translate(-42.29 -72.08)"/><path class="cls-6" d="M1251.8,1339.73a.69.69,0,0,1,.7-.73.73.73,0,1,1-.7.73Z" transform="translate(-42.29 -72.08)"/><path class="cls-6" d="M1256.34,1333.74h0l-1.31.71-.2-.78,1.65-.88h.87v7.55h-1Z" transform="translate(-42.29 -72.08)"/><path class="cls-6" d="M1672.75,1510.54h0l-1.31.71-.2-.78,1.65-.88h.87v7.55h-1Z" transform="translate(-42.29 -72.08)"/><path class="cls-6" d="M1676.57,1516.53a.69.69,0,0,1,.7-.73.73.73,0,1,1-.7.73Z" transform="translate(-42.29 -72.08)"/><path class="cls-6" d="M1681.1,1510.54h0l-1.31.71-.2-.78,1.65-.88h.87v7.55h-1Z" transform="translate(-42.29 -72.08)"/><path class="cls-6" d="M1684.92,1516.53a.69.69,0,0,1,.7-.73.73.73,0,0,1,0,1.46A.68.68,0,0,1,1684.92,1516.53Z" transform="translate(-42.29 -72.08)"/><path class="cls-6" d="M1691.54,1510.31a3.65,3.65,0,0,0-.77,0,3.07,3.07,0,0,0-2.62,2.68h0a2.3,2.3,0,0,1,4.09,1.57,2.52,2.52,0,0,1-2.5,2.66c-1.61,0-2.67-1.25-2.67-3.22a4.75,4.75,0,0,1,1.28-3.4,4.1,4.1,0,0,1,2.41-1.11,4.85,4.85,0,0,1,.74-.06Zm-.29,4.35a1.53,1.53,0,0,0-1.55-1.73,1.68,1.68,0,0,0-1.46.93.86.86,0,0,0-.12.45c0,1.24.59,2.16,1.66,2.16C1690.66,1516.48,1691.25,1515.74,1691.25,1514.66Z" transform="translate(-42.29 -72.08)"/><path class="cls-6" d="M1833.23,1510.54h0l-1.31.71-.2-.78,1.65-.88h.87v7.55h-1Z" transform="translate(-42.29 -72.08)"/><path class="cls-6" d="M1837.05,1516.53a.69.69,0,0,1,.7-.73.73.73,0,1,1-.7.73Z" transform="translate(-42.29 -72.08)"/><path class="cls-6" d="M1841.59,1510.54h0l-1.31.71-.2-.78,1.65-.88h.87v7.55h-1Z" transform="translate(-42.29 -72.08)"/><path class="cls-6" d="M1845.4,1516.53a.69.69,0,0,1,.7-.73.73.73,0,0,1,0,1.46A.68.68,0,0,1,1845.4,1516.53Z" transform="translate(-42.29 -72.08)"/><path class="cls-6" d="M1847.63,1515.22a2.16,2.16,0,0,1,1.5-2v0a1.87,1.87,0,0,1-1.19-1.7,2.11,2.11,0,0,1,2.33-2,2,2,0,0,1,2.19,1.86,1.92,1.92,0,0,1-1.24,1.76v0a2.09,2.09,0,0,1,1.52,2,2.32,2.32,0,0,1-2.56,2.2C1848.58,1517.27,1847.63,1516.33,1847.63,1515.22Zm4.06,0c0-.92-.64-1.36-1.66-1.65a1.64,1.64,0,0,0-1.36,1.56,1.39,1.39,0,0,0,1.51,1.44A1.37,1.37,0,0,0,1851.69,1515.17Zm-2.81-3.77c0,.75.57,1.16,1.44,1.39a1.49,1.49,0,0,0,1.15-1.37,1.17,1.17,0,0,0-1.28-1.23A1.2,1.2,0,0,0,1848.89,1511.4Z" transform="translate(-42.29 -72.08)"/><path class="cls-6" d="M1670.81,1340.2h0l-1.31.71-.2-.78,1.65-.88h.87v7.55h-1Z" transform="translate(-42.29 -72.08)"/><path class="cls-6" d="M1674.63,1346.19a.69.69,0,0,1,.7-.73.73.73,0,1,1-.7.73Z" transform="translate(-42.29 -72.08)"/><path class="cls-6" d="M1679.17,1340.2h0l-1.31.71-.2-.78,1.65-.88h.87v7.55h-1Z" transform="translate(-42.29 -72.08)"/><path class="cls-6" d="M1683,1346.19a.69.69,0,0,1,.7-.73.73.73,0,0,1,0,1.46A.68.68,0,0,1,1683,1346.19Z" transform="translate(-42.29 -72.08)"/><path class="cls-6" d="M1689.81,1340.1h-2.88l-.29,1.94a4.06,4.06,0,0,1,.61,0,3.18,3.18,0,0,1,1.62.41,2.15,2.15,0,0,1,1.08,1.94,2.62,2.62,0,0,1-2.81,2.58,3.68,3.68,0,0,1-1.88-.46l.25-.78a3.37,3.37,0,0,0,1.61.42,1.66,1.66,0,0,0,1.79-1.64c0-1-.66-1.67-2.17-1.67a7.81,7.81,0,0,0-1,.08l.49-3.62h3.61Z" transform="translate(-42.29 -72.08)"/><path class="cls-6" d="M1834.2,1340.2h0l-1.31.71-.2-.78,1.65-.88h.87v7.55h-1Z" transform="translate(-42.29 -72.08)"/><path class="cls-6" d="M1838,1346.19a.69.69,0,0,1,.7-.73.73.73,0,0,1,0,1.46A.68.68,0,0,1,1838,1346.19Z" transform="translate(-42.29 -72.08)"/><path class="cls-6" d="M1842.55,1340.2h0l-1.31.71-.2-.78,1.65-.88h.87v7.55h-1Z" transform="translate(-42.29 -72.08)"/><path class="cls-6" d="M1846.37,1346.19a.69.69,0,0,1,.7-.73.73.73,0,1,1-.7.73Z" transform="translate(-42.29 -72.08)"/><path class="cls-6" d="M1853.59,1339.24v.67l-3.28,6.87h-1.06l3.27-6.68v0h-3.69v-.85Z" transform="translate(-42.29 -72.08)"/><path class="cls-6" d="M1662.8,1124.18v-.63l.8-.78c1.92-1.83,2.79-2.81,2.81-3.95a1.35,1.35,0,0,0-1.5-1.47,2.56,2.56,0,0,0-1.6.64l-.33-.72a3.31,3.31,0,0,1,2.13-.77,2.12,2.12,0,0,1,2.31,2.19c0,1.39-1,2.52-2.6,4.05l-.6.56v0h3.39v.85Z" transform="translate(-42.29 -72.08)"/><path class="cls-6" d="M1668.83,1123.58a.69.69,0,0,1,.7-.73.73.73,0,1,1-.7.73Z" transform="translate(-42.29 -72.08)"/><path class="cls-6" d="M1673.37,1117.59h0l-1.31.71-.2-.78,1.65-.88h.87v7.55h-1Z" transform="translate(-42.29 -72.08)"/><path class="cls-6" d="M1677.18,1123.58a.69.69,0,0,1,.7-.73.73.73,0,0,1,0,1.46A.68.68,0,0,1,1677.18,1123.58Z" transform="translate(-42.29 -72.08)"/><path class="cls-6" d="M1683.81,1117.35a3.68,3.68,0,0,0-.77,0,3.07,3.07,0,0,0-2.62,2.68h0a2.3,2.3,0,0,1,4.09,1.57,2.52,2.52,0,0,1-2.5,2.66c-1.61,0-2.67-1.25-2.67-3.22a4.75,4.75,0,0,1,1.28-3.4,4.1,4.1,0,0,1,2.41-1.11,4.9,4.9,0,0,1,.74-.06Zm-.29,4.35A1.53,1.53,0,0,0,1682,1120a1.68,1.68,0,0,0-1.46.93.86.86,0,0,0-.12.45c0,1.24.59,2.16,1.66,2.16C1682.93,1123.52,1683.52,1122.79,1683.52,1121.71Z" transform="translate(-42.29 -72.08)"/><path class="cls-6" d="M1659.9,952.87v-.63l.8-.78c1.92-1.83,2.79-2.81,2.81-3.95A1.35,1.35,0,0,0,1662,946a2.56,2.56,0,0,0-1.6.64l-.33-.72a3.31,3.31,0,0,1,2.13-.77,2.12,2.12,0,0,1,2.31,2.19c0,1.39-1,2.52-2.6,4.05l-.6.56v0h3.39v.85Z" transform="translate(-42.29 -72.08)"/><path class="cls-6" d="M1665.93,952.27a.69.69,0,0,1,.7-.73.73.73,0,1,1-.7.73Z" transform="translate(-42.29 -72.08)"/><path class="cls-6" d="M1670.47,946.27h0l-1.31.71-.2-.78,1.65-.88h.87v7.55h-1Z" transform="translate(-42.29 -72.08)"/><path class="cls-6" d="M1674.28,952.27a.69.69,0,0,1,.7-.73.73.73,0,0,1,0,1.46A.68.68,0,0,1,1674.28,952.27Z" transform="translate(-42.29 -72.08)"/><path class="cls-6" d="M1681.1,946.18h-2.88l-.29,1.94a4.06,4.06,0,0,1,.61,0,3.18,3.18,0,0,1,1.62.41,2.15,2.15,0,0,1,1.08,1.94,2.62,2.62,0,0,1-2.81,2.58,3.68,3.68,0,0,1-1.88-.46l.25-.78a3.37,3.37,0,0,0,1.61.42,1.66,1.66,0,0,0,1.79-1.64c0-1-.66-1.67-2.17-1.67a7.81,7.81,0,0,0-1,.08l.49-3.62h3.61Z" transform="translate(-42.29 -72.08)"/><path class="cls-6" d="M1835.85,1124.18v-.63l.8-.78c1.92-1.83,2.79-2.81,2.81-3.95a1.35,1.35,0,0,0-1.5-1.47,2.56,2.56,0,0,0-1.6.64l-.33-.72a3.31,3.31,0,0,1,2.13-.77,2.12,2.12,0,0,1,2.31,2.19c0,1.39-1,2.52-2.6,4.05l-.6.56v0h3.39v.85Z" transform="translate(-42.29 -72.08)"/><path class="cls-6" d="M1841.89,1123.58a.69.69,0,0,1,.7-.73.73.73,0,0,1,0,1.46A.68.68,0,0,1,1841.89,1123.58Z" transform="translate(-42.29 -72.08)"/><path class="cls-6" d="M1846.42,1117.59h0l-1.31.71-.2-.78,1.65-.88h.87v7.55h-1Z" transform="translate(-42.29 -72.08)"/><path class="cls-6" d="M1850.24,1123.58a.69.69,0,0,1,.7-.73.73.73,0,1,1-.7.73Z" transform="translate(-42.29 -72.08)"/><path class="cls-6" d="M1852.47,1122.27a2.16,2.16,0,0,1,1.5-2v0a1.87,1.87,0,0,1-1.19-1.7,2.11,2.11,0,0,1,2.33-2,2,2,0,0,1,2.19,1.86,1.92,1.92,0,0,1-1.24,1.76v0a2.09,2.09,0,0,1,1.52,2,2.32,2.32,0,0,1-2.56,2.19C1853.42,1124.31,1852.47,1123.37,1852.47,1122.27Zm4.06,0c0-.92-.64-1.36-1.66-1.65a1.64,1.64,0,0,0-1.36,1.56,1.4,1.4,0,0,0,1.51,1.44A1.37,1.37,0,0,0,1856.52,1122.22Zm-2.81-3.77c0,.75.57,1.16,1.44,1.39a1.49,1.49,0,0,0,1.15-1.37,1.17,1.17,0,0,0-1.28-1.23A1.2,1.2,0,0,0,1853.72,1118.45Z" transform="translate(-42.29 -72.08)"/><path class="cls-6" d="M1827.15,959.64V959l.8-.78c1.92-1.83,2.79-2.81,2.81-3.95a1.35,1.35,0,0,0-1.5-1.47,2.56,2.56,0,0,0-1.6.64l-.33-.72a3.31,3.31,0,0,1,2.13-.77,2.12,2.12,0,0,1,2.31,2.19c0,1.39-1,2.52-2.6,4.05l-.6.56v0H1832v.85Z" transform="translate(-42.29 -72.08)"/><path class="cls-6" d="M1833.18,959a.69.69,0,0,1,.7-.73.73.73,0,0,1,0,1.46A.68.68,0,0,1,1833.18,959Z" transform="translate(-42.29 -72.08)"/><path class="cls-6" d="M1837.72,953h0l-1.31.71-.2-.78,1.65-.88h.87v7.55h-1Z" transform="translate(-42.29 -72.08)"/><path class="cls-6" d="M1841.54,959a.69.69,0,0,1,.7-.73.73.73,0,1,1-.7.73Z" transform="translate(-42.29 -72.08)"/><path class="cls-6" d="M1848.75,952.1v.67l-3.28,6.87h-1.06l3.27-6.68v0H1844v-.85Z" transform="translate(-42.29 -72.08)"/><path class="cls-6" d="M1407.57,1124.18v-.63l.8-.78c1.92-1.83,2.79-2.81,2.81-3.95a1.35,1.35,0,0,0-1.5-1.47,2.56,2.56,0,0,0-1.6.64l-.32-.72a3.3,3.3,0,0,1,2.13-.77,2.12,2.12,0,0,1,2.31,2.19c0,1.39-1,2.52-2.6,4.05l-.6.56v0h3.39v.85Z" transform="translate(-42.29 -72.08)"/><path class="cls-6" d="M1413.6,1123.58a.69.69,0,0,1,.7-.73.73.73,0,0,1,0,1.46A.68.68,0,0,1,1413.6,1123.58Z" transform="translate(-42.29 -72.08)"/><path class="cls-6" d="M1418.14,1117.59h0l-1.31.71-.2-.78,1.65-.88h.87v7.55h-1Z" transform="translate(-42.29 -72.08)"/><path class="cls-6" d="M1422,1123.58a.69.69,0,0,1,.7-.73.73.73,0,0,1,0,1.46A.68.68,0,0,1,1422,1123.58Z" transform="translate(-42.29 -72.08)"/><path class="cls-6" d="M1427.43,1124.18v-2.06h-3.5v-.67l3.36-4.82h1.1v4.69h1.06v.8h-1.06v2.06Zm0-2.86v-2.52q0-.59,0-1.18h0c-.23.44-.42.77-.63,1.11l-1.84,2.57v0Z" transform="translate(-42.29 -72.08)"/><path class="cls-6" d="M1406.6,958.68V958l.8-.78c1.93-1.83,2.79-2.81,2.81-3.95a1.35,1.35,0,0,0-1.5-1.47,2.56,2.56,0,0,0-1.6.64l-.32-.72a3.3,3.3,0,0,1,2.13-.77,2.12,2.12,0,0,1,2.31,2.19c0,1.39-1,2.52-2.6,4.05l-.6.56v0h3.39v.85Z" transform="translate(-42.29 -72.08)"/><path class="cls-6" d="M1412.64,958.07a.69.69,0,0,1,.7-.73.73.73,0,1,1-.7.73Z" transform="translate(-42.29 -72.08)"/><path class="cls-6" d="M1417.17,952.08h0l-1.31.71-.2-.78,1.65-.88h.87v7.55h-1Z" transform="translate(-42.29 -72.08)"/><path class="cls-6" d="M1421,958.07a.69.69,0,0,1,.7-.73.73.73,0,1,1-.7.73Z" transform="translate(-42.29 -72.08)"/><path class="cls-6" d="M1423.55,957.5a3.4,3.4,0,0,0,1.67.48c1.31,0,1.72-.84,1.7-1.46,0-1.06-1-1.51-1.95-1.51h-.57v-.77h.57c.74,0,1.68-.38,1.68-1.28,0-.6-.38-1.14-1.32-1.14a2.76,2.76,0,0,0-1.51.5l-.27-.74a3.58,3.58,0,0,1,2-.58c1.48,0,2.16.88,2.16,1.8a1.87,1.87,0,0,1-1.39,1.78v0a2,2,0,0,1,1.68,1.94c0,1.21-.94,2.26-2.75,2.26a3.82,3.82,0,0,1-2-.51Z" transform="translate(-42.29 -72.08)"/><path class="cls-6" d="M1237.42,958.68V958l.8-.78c1.93-1.83,2.79-2.81,2.81-3.95a1.35,1.35,0,0,0-1.5-1.47,2.56,2.56,0,0,0-1.6.64l-.32-.72a3.3,3.3,0,0,1,2.13-.77,2.12,2.12,0,0,1,2.31,2.19c0,1.39-1,2.52-2.6,4.05l-.6.56v0h3.39v.85Z" transform="translate(-42.29 -72.08)"/><path class="cls-6" d="M1243.45,958.07a.69.69,0,0,1,.7-.73.73.73,0,1,1-.7.73Z" transform="translate(-42.29 -72.08)"/><path class="cls-6" d="M1248,952.08h0l-1.31.71-.2-.78,1.65-.88h.87v7.55h-1Z" transform="translate(-42.29 -72.08)"/><path class="cls-6" d="M1251.8,958.07a.69.69,0,0,1,.7-.73.73.73,0,1,1-.7.73Z" transform="translate(-42.29 -72.08)"/><path class="cls-6" d="M1256.34,952.08h0l-1.31.71-.2-.78,1.65-.88h.87v7.55h-1Z" transform="translate(-42.29 -72.08)"/><path class="cls-6" d="M1226.78,1124.18v-.63l.8-.78c1.93-1.83,2.79-2.81,2.81-3.95a1.35,1.35,0,0,0-1.5-1.47,2.56,2.56,0,0,0-1.6.64l-.32-.72a3.3,3.3,0,0,1,2.13-.77,2.12,2.12,0,0,1,2.31,2.19c0,1.39-1,2.52-2.6,4.05l-.6.56v0h3.39v.85Z" transform="translate(-42.29 -72.08)"/><path class="cls-6" d="M1232.81,1123.58a.69.69,0,0,1,.7-.73.73.73,0,0,1,0,1.46A.68.68,0,0,1,1232.81,1123.58Z" transform="translate(-42.29 -72.08)"/><path class="cls-6" d="M1237.35,1117.59h0l-1.31.71-.2-.78,1.65-.88h.87v7.55h-1Z" transform="translate(-42.29 -72.08)"/><path class="cls-6" d="M1241.17,1123.58a.69.69,0,0,1,.7-.73.73.73,0,0,1,0,1.46A.68.68,0,0,1,1241.17,1123.58Z" transform="translate(-42.29 -72.08)"/><path class="cls-6" d="M1243.49,1124.18v-.63l.8-.78c1.92-1.83,2.79-2.81,2.81-3.95a1.35,1.35,0,0,0-1.5-1.47,2.56,2.56,0,0,0-1.6.64l-.32-.72a3.3,3.3,0,0,1,2.13-.77,2.12,2.12,0,0,1,2.31,2.19c0,1.39-1,2.52-2.6,4.05l-.6.56v0h3.39v.85Z" transform="translate(-42.29 -72.08)"/><path class="cls-6" d="M1233.79,730.06a3.4,3.4,0,0,0,1.67.48c1.31,0,1.72-.84,1.7-1.46,0-1.06-1-1.51-1.95-1.51h-.57v-.77h.57c.74,0,1.68-.38,1.68-1.28,0-.6-.38-1.14-1.32-1.14a2.76,2.76,0,0,0-1.51.5l-.27-.74a3.58,3.58,0,0,1,2-.58c1.48,0,2.16.88,2.16,1.8a1.87,1.87,0,0,1-1.39,1.78v0a2,2,0,0,1,1.68,1.94c0,1.21-.94,2.26-2.75,2.26a3.82,3.82,0,0,1-2-.51Z" transform="translate(-42.29 -72.08)"/><path class="cls-6" d="M1239.58,730.62a.69.69,0,0,1,.7-.73.73.73,0,1,1-.7.73Z" transform="translate(-42.29 -72.08)"/><path class="cls-6" d="M1244.12,724.63h0l-1.31.71-.2-.78,1.65-.88h.87v7.55h-1Z" transform="translate(-42.29 -72.08)"/><path class="cls-6" d="M1247.93,730.62a.69.69,0,0,1,.7-.73.73.73,0,1,1-.7.73Z" transform="translate(-42.29 -72.08)"/><path class="cls-6" d="M1250.25,731.23v-.63l.8-.78c1.92-1.83,2.79-2.81,2.81-3.95a1.35,1.35,0,0,0-1.5-1.47,2.56,2.56,0,0,0-1.6.64l-.32-.72a3.3,3.3,0,0,1,2.13-.77,2.12,2.12,0,0,1,2.31,2.19c0,1.39-1,2.52-2.6,4.05l-.6.56v0h3.39v.85Z" transform="translate(-42.29 -72.08)"/><path class="cls-6" d="M1402,730.06a3.41,3.41,0,0,0,1.67.48c1.31,0,1.72-.84,1.71-1.46,0-1.06-1-1.51-1.95-1.51h-.57v-.77h.57c.74,0,1.68-.38,1.68-1.28,0-.6-.38-1.14-1.32-1.14a2.77,2.77,0,0,0-1.51.5l-.27-.74a3.58,3.58,0,0,1,2-.58c1.48,0,2.16.88,2.16,1.8a1.87,1.87,0,0,1-1.39,1.78v0a2,2,0,0,1,1.68,1.94c0,1.21-.94,2.26-2.75,2.26a3.82,3.82,0,0,1-2-.51Z" transform="translate(-42.29 -72.08)"/><path class="cls-6" d="M1407.8,730.62a.69.69,0,0,1,.7-.73.73.73,0,1,1-.7.73Z" transform="translate(-42.29 -72.08)"/><path class="cls-6" d="M1412.34,724.63h0l-1.31.71-.2-.78,1.65-.88h.87v7.55h-1Z" transform="translate(-42.29 -72.08)"/><path class="cls-6" d="M1416.15,730.62a.69.69,0,0,1,.7-.73.73.73,0,1,1-.7.73Z" transform="translate(-42.29 -72.08)"/><path class="cls-6" d="M1421.63,731.23v-2.06h-3.5v-.67l3.36-4.82h1.1v4.69h1.06v.8h-1.06v2.06Zm0-2.86v-2.52q0-.59,0-1.18h0c-.23.44-.42.77-.63,1.11l-1.84,2.57v0Z" transform="translate(-42.29 -72.08)"/><path class="cls-6" d="M1663,730.06a3.4,3.4,0,0,0,1.67.48c1.31,0,1.72-.84,1.7-1.46,0-1.06-1-1.51-1.95-1.51h-.57v-.77h.57c.74,0,1.68-.38,1.68-1.28,0-.6-.38-1.14-1.32-1.14a2.76,2.76,0,0,0-1.51.5l-.27-.74a3.57,3.57,0,0,1,2-.58c1.48,0,2.16.88,2.16,1.8a1.87,1.87,0,0,1-1.39,1.78v0a2,2,0,0,1,1.68,1.94c0,1.21-.94,2.26-2.75,2.26a3.82,3.82,0,0,1-2-.51Z" transform="translate(-42.29 -72.08)"/><path class="cls-6" d="M1668.83,730.62a.69.69,0,0,1,.7-.73.73.73,0,1,1-.7.73Z" transform="translate(-42.29 -72.08)"/><path class="cls-6" d="M1673.37,724.63h0l-1.31.71-.2-.78,1.65-.88h.87v7.55h-1Z" transform="translate(-42.29 -72.08)"/><path class="cls-6" d="M1677.18,730.62a.69.69,0,0,1,.7-.73.73.73,0,0,1,0,1.46A.68.68,0,0,1,1677.18,730.62Z" transform="translate(-42.29 -72.08)"/><path class="cls-6" d="M1683.81,724.4a3.68,3.68,0,0,0-.77,0,3.07,3.07,0,0,0-2.62,2.68h0a2.3,2.3,0,0,1,4.09,1.57,2.52,2.52,0,0,1-2.5,2.66c-1.61,0-2.67-1.25-2.67-3.22a4.75,4.75,0,0,1,1.28-3.4,4.1,4.1,0,0,1,2.41-1.11,4.9,4.9,0,0,1,.74-.06Zm-.29,4.35A1.53,1.53,0,0,0,1682,727a1.68,1.68,0,0,0-1.46.93.86.86,0,0,0-.12.45c0,1.24.59,2.16,1.66,2.16C1682.93,730.57,1683.52,729.83,1683.52,728.76Z" transform="translate(-42.29 -72.08)"/><path class="cls-6" d="M1839,730.06a3.4,3.4,0,0,0,1.67.48c1.31,0,1.72-.84,1.7-1.46,0-1.06-1-1.51-1.95-1.51h-.57v-.77h.57c.74,0,1.68-.38,1.68-1.28,0-.6-.38-1.14-1.32-1.14a2.76,2.76,0,0,0-1.51.5l-.27-.74a3.57,3.57,0,0,1,2-.58c1.48,0,2.16.88,2.16,1.8a1.87,1.87,0,0,1-1.39,1.78v0a2,2,0,0,1,1.68,1.94c0,1.21-.94,2.26-2.75,2.26a3.82,3.82,0,0,1-2-.51Z" transform="translate(-42.29 -72.08)"/><path class="cls-6" d="M1844.79,730.62a.69.69,0,0,1,.7-.73.73.73,0,0,1,0,1.46A.68.68,0,0,1,1844.79,730.62Z" transform="translate(-42.29 -72.08)"/><path class="cls-6" d="M1849.32,724.63h0l-1.31.71-.2-.78,1.65-.88h.87v7.55h-1Z" transform="translate(-42.29 -72.08)"/><path class="cls-6" d="M1853.14,730.62a.69.69,0,0,1,.7-.73.73.73,0,1,1-.7.73Z" transform="translate(-42.29 -72.08)"/><path class="cls-6" d="M1855.37,729.31a2.16,2.16,0,0,1,1.5-2v0a1.87,1.87,0,0,1-1.19-1.7,2.11,2.11,0,0,1,2.33-2,2,2,0,0,1,2.19,1.86,1.92,1.92,0,0,1-1.24,1.76v0a2.09,2.09,0,0,1,1.52,2,2.32,2.32,0,0,1-2.56,2.19C1856.32,731.36,1855.37,730.42,1855.37,729.31Zm4.06,0c0-.92-.64-1.36-1.66-1.65a1.64,1.64,0,0,0-1.36,1.56,1.4,1.4,0,0,0,1.51,1.44A1.37,1.37,0,0,0,1859.43,729.27Zm-2.81-3.77c0,.75.57,1.16,1.44,1.39a1.49,1.49,0,0,0,1.15-1.37,1.17,1.17,0,0,0-1.28-1.23A1.2,1.2,0,0,0,1856.62,725.49Z" transform="translate(-42.29 -72.08)"/><path class="cls-6" d="M1748.12,562.61a3.4,3.4,0,0,0,1.67.48c1.31,0,1.72-.84,1.7-1.46,0-1.06-1-1.51-1.95-1.51H1749v-.77h.57c.74,0,1.68-.38,1.68-1.28,0-.6-.38-1.14-1.32-1.14a2.76,2.76,0,0,0-1.51.5l-.27-.74a3.57,3.57,0,0,1,2-.58c1.48,0,2.16.88,2.16,1.8a1.87,1.87,0,0,1-1.39,1.78v0a2,2,0,0,1,1.68,1.94c0,1.21-.94,2.26-2.75,2.26a3.82,3.82,0,0,1-2-.51Z" transform="translate(-42.29 -72.08)"/><path class="cls-6" d="M1753.91,563.18a.69.69,0,0,1,.7-.73.73.73,0,1,1-.7.73Z" transform="translate(-42.29 -72.08)"/><path class="cls-6" d="M1758.44,557.19h0l-1.31.71-.2-.78,1.65-.88h.87v7.55h-1Z" transform="translate(-42.29 -72.08)"/><path class="cls-6" d="M1762.26,563.18a.69.69,0,0,1,.7-.73.73.73,0,0,1,0,1.46A.68.68,0,0,1,1762.26,563.18Z" transform="translate(-42.29 -72.08)"/><path class="cls-6" d="M1769.47,556.24v.67l-3.28,6.87h-1.06l3.27-6.68v0h-3.69v-.85Z" transform="translate(-42.29 -72.08)"/><path class="cls-6" d="M1643.71,562.61a3.4,3.4,0,0,0,1.67.48c1.31,0,1.72-.84,1.7-1.46,0-1.06-1-1.51-1.95-1.51h-.57v-.77h.57c.74,0,1.68-.38,1.68-1.28,0-.6-.38-1.14-1.32-1.14a2.76,2.76,0,0,0-1.51.5l-.27-.74a3.57,3.57,0,0,1,2-.58c1.48,0,2.16.88,2.16,1.8a1.87,1.87,0,0,1-1.39,1.78v0a2,2,0,0,1,1.68,1.94c0,1.21-.94,2.26-2.75,2.26a3.82,3.82,0,0,1-2-.51Z" transform="translate(-42.29 -72.08)"/><path class="cls-6" d="M1649.5,563.18a.69.69,0,0,1,.7-.73.73.73,0,1,1-.7.73Z" transform="translate(-42.29 -72.08)"/><path class="cls-6" d="M1654,557.19h0l-1.31.71-.2-.78,1.65-.88h.87v7.55h-1Z" transform="translate(-42.29 -72.08)"/><path class="cls-6" d="M1657.85,563.18a.69.69,0,0,1,.7-.73.73.73,0,0,1,0,1.46A.68.68,0,0,1,1657.85,563.18Z" transform="translate(-42.29 -72.08)"/><path class="cls-6" d="M1664.67,557.1h-2.88l-.29,1.94a4.06,4.06,0,0,1,.61,0,3.18,3.18,0,0,1,1.62.41,2.15,2.15,0,0,1,1.08,1.94,2.62,2.62,0,0,1-2.81,2.58,3.68,3.68,0,0,1-1.88-.46l.25-.78a3.37,3.37,0,0,0,1.61.42,1.66,1.66,0,0,0,1.79-1.64c0-1-.66-1.67-2.17-1.67a7.81,7.81,0,0,0-1,.08l.49-3.62h3.61Z" transform="translate(-42.29 -72.08)"/><path class="cls-6" d="M1408.78,563.58a3.41,3.41,0,0,0,1.67.48c1.31,0,1.72-.84,1.71-1.46,0-1.06-1-1.51-1.95-1.51h-.57v-.77h.57c.74,0,1.68-.38,1.68-1.28,0-.6-.38-1.14-1.32-1.14a2.77,2.77,0,0,0-1.51.5l-.27-.74a3.58,3.58,0,0,1,2-.58c1.48,0,2.16.88,2.16,1.8a1.87,1.87,0,0,1-1.39,1.78v0a2,2,0,0,1,1.68,1.94c0,1.21-.94,2.26-2.75,2.26a3.82,3.82,0,0,1-2-.51Z" transform="translate(-42.29 -72.08)"/><path class="cls-6" d="M1414.57,564.15a.69.69,0,0,1,.7-.73.73.73,0,1,1-.7.73Z" transform="translate(-42.29 -72.08)"/><path class="cls-6" d="M1419.1,558.16h0l-1.31.71-.2-.78,1.65-.88h.87v7.55h-1Z" transform="translate(-42.29 -72.08)"/><path class="cls-6" d="M1422.92,564.15a.69.69,0,0,1,.7-.73.73.73,0,1,1-.7.73Z" transform="translate(-42.29 -72.08)"/><path class="cls-6" d="M1425.49,563.58a3.4,3.4,0,0,0,1.67.48c1.31,0,1.72-.84,1.7-1.46,0-1.06-1-1.51-1.95-1.51h-.57v-.77h.57c.74,0,1.68-.38,1.68-1.28,0-.6-.38-1.14-1.32-1.14a2.76,2.76,0,0,0-1.51.5l-.27-.74a3.58,3.58,0,0,1,2-.58c1.48,0,2.16.88,2.16,1.8a1.87,1.87,0,0,1-1.39,1.78v0a2,2,0,0,1,1.68,1.94c0,1.21-.94,2.26-2.75,2.26a3.82,3.82,0,0,1-2-.51Z" transform="translate(-42.29 -72.08)"/><path class="cls-6" d="M153.36,1412.81h-3v2.82h3.39v.85h-4.4v-7.83h4.22v.85h-3.21V1412h3Z" transform="translate(-42.29 -72.08)"/><path class="cls-6" d="M154.88,1415.25a3.58,3.58,0,0,0,1.81.51c1,0,1.64-.55,1.64-1.34s-.42-1.15-1.47-1.56c-1.28-.45-2.06-1.11-2.06-2.22a2.25,2.25,0,0,1,2.53-2.12,3.55,3.55,0,0,1,1.73.38l-.28.83a3.1,3.1,0,0,0-1.48-.37c-1.07,0-1.47.64-1.47,1.17,0,.73.48,1.09,1.55,1.51,1.32.51,2,1.15,2,2.3s-.89,2.25-2.74,2.25a4,4,0,0,1-2-.5Z" transform="translate(-42.29 -72.08)"/><path class="cls-6" d="M162,1414l-.81,2.46h-1l2.66-7.83H164l2.67,7.83h-1.08l-.83-2.46Zm2.56-.79-.77-2.25c-.17-.51-.29-1-.41-1.43h0c-.12.46-.24.94-.39,1.42l-.77,2.26Z" transform="translate(-42.29 -72.08)"/><path class="cls-6" d="M1748.19,1888.42a3,3,0,0,0,1.51.43c.86,0,1.36-.46,1.36-1.11s-.35-1-1.23-1.3c-1.06-.38-1.72-.93-1.72-1.85a1.88,1.88,0,0,1,2.11-1.77,3,3,0,0,1,1.44.32l-.23.69a2.61,2.61,0,0,0-1.24-.31c-.89,0-1.23.53-1.23,1,0,.61.4.91,1.3,1.26,1.1.43,1.66,1,1.66,1.92s-.75,1.88-2.28,1.88a3.37,3.37,0,0,1-1.66-.42Z" transform="translate(-42.29 -72.08)"/><path class="cls-6" d="M1755.66,1889.44l-.07-.59h0a1.74,1.74,0,0,1-1.43.7,1.33,1.33,0,0,1-1.43-1.34c0-1.13,1-1.75,2.81-1.74v-.1a1,1,0,0,0-1.06-1.08,2.33,2.33,0,0,0-1.22.35l-.19-.56a2.91,2.91,0,0,1,1.54-.42c1.43,0,1.78,1,1.78,1.92v1.75a6.53,6.53,0,0,0,.08,1.12Zm-.13-2.39c-.93,0-2,.15-2,1.05a.75.75,0,0,0,.8.81,1.17,1.17,0,0,0,1.13-.78.92.92,0,0,0,0-.27Z" transform="translate(-42.29 -72.08)"/><path class="cls-6" d="M1757.73,1882.58h.85v6.87h-.85Z" transform="translate(-42.29 -72.08)"/><path class="cls-6" d="M1764.25,1887.06a2.29,2.29,0,0,1-2.33,2.49,2.23,2.23,0,0,1-2.25-2.41,2.29,2.29,0,0,1,2.32-2.49A2.22,2.22,0,0,1,1764.25,1887.06Zm-3.71,0c0,1,.59,1.8,1.42,1.8s1.42-.76,1.42-1.82c0-.79-.4-1.8-1.4-1.8S1760.53,1886.22,1760.53,1887.11Zm2.7-4.37-1.18,1.38h-.61l.85-1.38Z" transform="translate(-42.29 -72.08)"/><path class="cls-6" d="M1765.32,1886c0-.48,0-.88,0-1.27h.75l0,.77h0a1.72,1.72,0,0,1,1.55-.88c.65,0,1.65.39,1.65,2v2.8h-.85v-2.7c0-.75-.28-1.38-1.08-1.38a1.21,1.21,0,0,0-1.14.87,1.24,1.24,0,0,0-.06.4v2.82h-.85Z" transform="translate(-42.29 -72.08)"/><path class="cls-6" d="M1776.78,1882.58v5.66c0,.42,0,.89,0,1.21h-.76l0-.81h0a1.73,1.73,0,0,1-1.6.92,2.14,2.14,0,0,1-2-2.38,2.24,2.24,0,0,1,2.1-2.52,1.57,1.57,0,0,1,1.41.72h0v-2.79Zm-.85,4.09a1.54,1.54,0,0,0,0-.36,1.25,1.25,0,0,0-1.23-1c-.88,0-1.4.77-1.4,1.81s.46,1.73,1.38,1.73a1.28,1.28,0,0,0,1.25-1,1.5,1.5,0,0,0,0-.37Z" transform="translate(-42.29 -72.08)"/><path class="cls-6" d="M1778.66,1887.26a1.5,1.5,0,0,0,1.61,1.63,3.09,3.09,0,0,0,1.3-.24l.15.61a3.79,3.79,0,0,1-1.56.29,2.17,2.17,0,0,1-2.3-2.36,2.27,2.27,0,0,1,2.2-2.53,2,2,0,0,1,1.93,2.21,3.22,3.22,0,0,1,0,.4Zm2.5-.61a1.21,1.21,0,0,0-1.18-1.38,1.41,1.41,0,0,0-1.31,1.38Z" transform="translate(-42.29 -72.08)"/><path class="cls-6" d="M1790.07,1889.15a6.1,6.1,0,0,1-2,.36,3.06,3.06,0,0,1-3.35-3.29,3.27,3.27,0,0,1,3.53-3.37,4,4,0,0,1,1.63.3l-.2.69a3.39,3.39,0,0,0-1.44-.28,2.44,2.44,0,0,0-2.62,2.62,2.39,2.39,0,0,0,2.52,2.63,2.75,2.75,0,0,0,1.12-.17v-1.94h-1.33V1886h2.15Z" transform="translate(-42.29 -72.08)"/><path class="cls-6" d="M1791.32,1886.22c0-.55,0-1,0-1.46h.74l0,.92h0a1.41,1.41,0,0,1,1.3-1,.92.92,0,0,1,.24,0v.8a1.33,1.33,0,0,0-.29,0,1.19,1.19,0,0,0-1.14,1.09,2.38,2.38,0,0,0,0,.4v2.5h-.84Z" transform="translate(-42.29 -72.08)"/><path class="cls-6" d="M1797,1889.44l-.07-.59h0a1.75,1.75,0,0,1-1.43.7,1.33,1.33,0,0,1-1.43-1.34c0-1.13,1-1.75,2.81-1.74v-.1a1,1,0,0,0-1.06-1.08,2.33,2.33,0,0,0-1.22.35l-.19-.56a2.91,2.91,0,0,1,1.54-.42c1.43,0,1.78,1,1.78,1.92v1.75a6.53,6.53,0,0,0,.08,1.12Zm-.13-2.39c-.93,0-2,.15-2,1.05a.75.75,0,0,0,.8.81,1.17,1.17,0,0,0,1.13-.78.92.92,0,0,0,0-.27Z" transform="translate(-42.29 -72.08)"/><path class="cls-6" d="M1803.14,1882.58v5.66c0,.42,0,.89,0,1.21h-.76l0-.81h0a1.73,1.73,0,0,1-1.6.92,2.14,2.14,0,0,1-2-2.38,2.24,2.24,0,0,1,2.1-2.52,1.57,1.57,0,0,1,1.41.72h0v-2.79Zm-.85,4.09a1.54,1.54,0,0,0,0-.36,1.25,1.25,0,0,0-1.23-1c-.88,0-1.4.77-1.4,1.81s.46,1.73,1.38,1.73a1.28,1.28,0,0,0,1.25-1,1.5,1.5,0,0,0,0-.37Z" transform="translate(-42.29 -72.08)"/><path class="cls-6" d="M1808.79,1887.06a2.29,2.29,0,0,1-2.33,2.49,2.23,2.23,0,0,1-2.25-2.41,2.29,2.29,0,0,1,2.32-2.49A2.22,2.22,0,0,1,1808.79,1887.06Zm-3.71,0c0,1,.59,1.8,1.42,1.8s1.42-.76,1.42-1.82c0-.79-.4-1.8-1.4-1.8S1805.07,1886.22,1805.07,1887.11Z" transform="translate(-42.29 -72.08)"/><path class="cls-6" d="M1809.74,1888.57a2.23,2.23,0,0,0,1.12.34c.62,0,.91-.31.91-.7s-.24-.63-.87-.86c-.84-.3-1.24-.76-1.24-1.33a1.44,1.44,0,0,1,1.62-1.37,2.33,2.33,0,0,1,1.15.29l-.21.62a1.82,1.82,0,0,0-1-.27c-.5,0-.78.29-.78.64s.28.56.89.79c.81.31,1.23.72,1.23,1.41s-.64,1.4-1.75,1.4a2.68,2.68,0,0,1-1.32-.32Z" transform="translate(-42.29 -72.08)"/><path class="cls-6" d="M1746.72,1896.79a11.28,11.28,0,0,1,.91-2.3l.54-.06a13.59,13.59,0,0,0-.57,2.26Zm1.44,0a11.32,11.32,0,0,1,.9-2.3l.54-.06a13.59,13.59,0,0,0-.57,2.26Z" transform="translate(-42.29 -72.08)"/><path class="cls-6" d="M1751.09,1894.54h.84v4.36c0,1.73-.85,2.26-2,2.26a2.7,2.7,0,0,1-.9-.16l.13-.69a2,2,0,0,0,.71.13c.75,0,1.2-.34,1.2-1.62Z" transform="translate(-42.29 -72.08)"/><path class="cls-6" d="M1757.54,1898.68a2.29,2.29,0,0,1-2.33,2.49,2.23,2.23,0,0,1-2.25-2.41,2.29,2.29,0,0,1,2.32-2.49A2.22,2.22,0,0,1,1757.54,1898.68Zm-3.71,0c0,1,.59,1.8,1.42,1.8s1.42-.76,1.42-1.82c0-.79-.4-1.8-1.4-1.8S1753.83,1897.84,1753.83,1898.73Z" transform="translate(-42.29 -72.08)"/><path class="cls-6" d="M1761.21,1901.06l-.07-.59h0a1.74,1.74,0,0,1-1.43.7,1.33,1.33,0,0,1-1.43-1.34c0-1.13,1-1.75,2.81-1.74v-.1a1,1,0,0,0-1.06-1.08,2.33,2.33,0,0,0-1.22.35l-.19-.56a2.91,2.91,0,0,1,1.54-.42c1.43,0,1.78,1,1.78,1.92v1.75a6.53,6.53,0,0,0,.08,1.12Zm-.13-2.39c-.93,0-2,.15-2,1.05a.75.75,0,0,0,.8.81,1.17,1.17,0,0,0,1.13-.78.91.91,0,0,0,0-.27Z" transform="translate(-42.29 -72.08)"/><path class="cls-6" d="M1763.27,1897.64c0-.48,0-.88,0-1.27h.75l0,.77h0a1.72,1.72,0,0,1,1.55-.88c.65,0,1.65.39,1.65,2v2.8h-.85v-2.7c0-.75-.28-1.38-1.08-1.38a1.21,1.21,0,0,0-1.14.87,1.24,1.24,0,0,0-.06.4v2.82h-.85Z" transform="translate(-42.29 -72.08)"/><path class="cls-6" d="M1770.72,1894.61a9.8,9.8,0,0,1,1.62-.12,2.69,2.69,0,0,1,1.83.54,1.76,1.76,0,0,1,.57,1.36,1.92,1.92,0,0,1-.5,1.39,2.7,2.7,0,0,1-2,.72,2.87,2.87,0,0,1-.68-.06v2.61h-.84Zm.84,3.14a2.8,2.8,0,0,0,.7.07c1,0,1.63-.49,1.63-1.39s-.61-1.28-1.54-1.28a3.5,3.5,0,0,0-.79.07Z" transform="translate(-42.29 -72.08)"/><path class="cls-6" d="M1776.06,1898.87a1.5,1.5,0,0,0,1.61,1.63,3.09,3.09,0,0,0,1.3-.24l.15.61a3.79,3.79,0,0,1-1.56.29,2.17,2.17,0,0,1-2.3-2.36,2.27,2.27,0,0,1,2.2-2.53,2,2,0,0,1,1.93,2.21,3.22,3.22,0,0,1,0,.4Zm2.5-.61a1.21,1.21,0,0,0-1.18-1.38,1.41,1.41,0,0,0-1.31,1.38Z" transform="translate(-42.29 -72.08)"/><path class="cls-6" d="M1780.43,1894.19h.85v6.87h-.85Z" transform="translate(-42.29 -72.08)"/><path class="cls-6" d="M1783.19,1898.87a1.5,1.5,0,0,0,1.61,1.63,3.09,3.09,0,0,0,1.3-.24l.15.61a3.79,3.79,0,0,1-1.56.29,2.17,2.17,0,0,1-2.3-2.36,2.27,2.27,0,0,1,2.2-2.53,2,2,0,0,1,1.93,2.21,3.22,3.22,0,0,1,0,.4Zm2.5-.61a1.21,1.21,0,0,0-1.18-1.38,1.41,1.41,0,0,0-1.31,1.38Z" transform="translate(-42.29 -72.08)"/><path class="cls-6" d="M1790.89,1900.88a3.14,3.14,0,0,1-1.34.27,2.23,2.23,0,0,1-2.33-2.39,2.38,2.38,0,0,1,2.52-2.49,2.85,2.85,0,0,1,1.18.24l-.19.66a2,2,0,0,0-1-.22,1.77,1.77,0,0,0,0,3.52,2.41,2.41,0,0,0,1-.23Z" transform="translate(-42.29 -72.08)"/><path class="cls-6" d="M1791.89,1894.19h.85v2.92h0a1.58,1.58,0,0,1,.61-.6,1.74,1.74,0,0,1,.87-.24c.63,0,1.64.39,1.64,2v2.79H1795v-2.69c0-.75-.28-1.39-1.08-1.39a1.22,1.22,0,0,0-1.14.85,1,1,0,0,0-.06.41v2.83h-.85Z" transform="translate(-42.29 -72.08)"/><path class="cls-6" d="M1799.85,1901.06l-.07-.59h0a1.75,1.75,0,0,1-1.43.7,1.33,1.33,0,0,1-1.43-1.34c0-1.13,1-1.75,2.81-1.74v-.1a1,1,0,0,0-1.06-1.08,2.33,2.33,0,0,0-1.22.35l-.19-.56a2.91,2.91,0,0,1,1.54-.42c1.43,0,1.78,1,1.78,1.92v1.75a6.53,6.53,0,0,0,.08,1.12Zm-.13-2.39c-.93,0-2,.15-2,1.05a.75.75,0,0,0,.8.81,1.17,1.17,0,0,0,1.13-.78.91.91,0,0,0,0-.27Z" transform="translate(-42.29 -72.08)"/><path class="cls-6" d="M1801.91,1897.64c0-.48,0-.88,0-1.27h.75l0,.77h0a1.72,1.72,0,0,1,1.55-.88c.65,0,1.65.39,1.65,2v2.8H1805v-2.7c0-.75-.28-1.38-1.08-1.38a1.21,1.21,0,0,0-1.14.87,1.24,1.24,0,0,0-.06.4v2.82h-.85Z" transform="translate(-42.29 -72.08)"/><path class="cls-6" d="M1811.52,1898.68a2.29,2.29,0,0,1-2.33,2.49,2.23,2.23,0,0,1-2.25-2.41,2.29,2.29,0,0,1,2.32-2.49A2.22,2.22,0,0,1,1811.52,1898.68Zm-3.71,0c0,1,.59,1.8,1.42,1.8s1.42-.76,1.42-1.82c0-.79-.4-1.8-1.4-1.8S1807.8,1897.84,1807.8,1898.73Z" transform="translate(-42.29 -72.08)"/><path class="cls-6" d="M1813.33,1894.43a11.84,11.84,0,0,1-.9,2.29l-.54.07a14.7,14.7,0,0,0,.57-2.27Zm1.43,0a11.84,11.84,0,0,1-.9,2.29l-.54.07a13.66,13.66,0,0,0,.57-2.27Z" transform="translate(-42.29 -72.08)"/></g></svg>