<svg id="Nivel_0" data-name="Nivel 0" xmlns="http://www.w3.org/2000/svg" xmlns:xlink="http://www.w3.org/1999/xlink" viewBox="0 0 1641.05 1837"><defs><style>.cls-1,.cls-2,.cls-3,.cls-5{fill:none;}.cls-2,.cls-3,.cls-4{stroke:#211915;}.cls-2,.cls-3,.cls-4,.cls-5{stroke-miterlimit:10;}.cls-2,.cls-4,.cls-5{stroke-width:2px;}.cls-4{fill:url(#Lines_oblicuas);}.cls-5{stroke:#000;}</style><pattern id="Lines_oblicuas" data-name="Lines oblicuas" x="-607.29" y="-121.11" width="75.58" height="81.07" patternUnits="userSpaceOnUse" viewBox="0 0 75.58 81.07"><rect class="cls-1" width="75.58" height="81.07"/><polygon class="cls-1" points="2.78 0 0 2.98 0 17.11 15.96 0 2.78 0"/><polygon class="cls-1" points="21.43 0 0 22.98 0 37.11 34.61 0 21.43 0"/><polygon class="cls-1" points="58.73 0 0 62.98 0 78.11 72.85 0 58.73 0"/><polygon class="cls-1" points="40.08 0 0 42.98 0 57.11 53.26 0 40.08 0"/><polygon class="cls-1" points="75.58 42.93 40.02 81.07 53.2 81.07 75.58 57.07 75.58 42.93"/><polygon class="cls-1" points="75.58 22.93 21.36 81.07 34.55 81.07 75.58 37.07 75.58 22.93"/><polygon class="cls-1" points="72.85 81.07 75.58 78.14 75.58 62.93 58.67 81.07 72.85 81.07"/><polygon class="cls-1" points="75.58 2.93 2.71 81.07 15.89 81.07 75.58 17.07 75.58 2.93"/><polygon points="75.58 0 72.85 0 0 78.11 0 81.07 2.71 81.07 75.58 2.93 75.58 0"/><polygon points="53.26 0 0 57.11 0 62.98 58.73 0 53.26 0"/><polygon points="34.61 0 0 37.11 0 42.98 40.08 0 34.61 0"/><polygon points="15.96 0 0 17.11 0 22.98 21.43 0 15.96 0"/><polygon points="0 0 0 2.98 2.78 0 0 0"/><polygon points="75.58 37.07 34.55 81.07 40.02 81.07 75.58 42.93 75.58 37.07"/><polygon points="75.58 17.07 15.89 81.07 21.36 81.07 75.58 22.93 75.58 17.07"/><polygon points="75.58 62.93 75.58 57.07 53.2 81.07 58.67 81.07 75.58 62.93"/><polygon points="75.58 81.07 75.58 78.14 72.85 81.07 75.58 81.07"/></pattern></defs><title>ETSE0n</title><g id="Bloque_0" data-name="Bloque 0"><polyline class="cls-2" points="442 1662 442 1651 1319.5 1651 1319.5 1836 442 1836 442 1696"/><polyline class="cls-2" points="399 1696 276.5 1696 276.5 1836 442 1836 442 1696 419 1696"/><polyline class="cls-2" points="55.5 1696 55.5 1836 276.5 1836 276.5 1696 87 1696"/><polyline class="cls-2" points="1216 1694.5 1319.5 1694.5 1319.5 1836 1194.5 1836 1194.5 1694.5"/><polyline class="cls-2" points="1153 1694.5 1153 1757.5 1194.5 1757.5 1194.5 1694.5 1166 1694.5"/><polyline class="cls-2" points="1112 1694.5 1112 1757.5 1153 1757.5 1153 1694.5 1125 1694.5"/><polyline class="cls-2" points="1070 1694.5 1070 1757.5 1112 1757.5 1112 1694.5 1083.5 1694.5"/><polyline class="cls-2" points="1057 1694.5 1028 1694.5 1028 1757.5 1070 1757.5 1070 1694.5"/><polyline class="cls-2" points="1166 1819.5 1194.5 1819.5 1194.5 1757.5 1153 1757.5 1153 1819.5"/><polyline class="cls-2" points="1125 1819.5 1153 1819.5 1153 1757.5 1112 1757.5 1112 1819.5"/><polyline class="cls-2" points="1083.5 1819.5 1112 1819.5 1112 1757.5 1070 1757.5 1070 1819.5"/><polyline class="cls-2" points="1070 1819.5 1070 1757.5 1028 1757.5 1028 1819.5 1057 1819.5"/><polyline class="cls-2" points="1028 1819.5 1028 1715.5 982.5 1715.5 982.5 1819.5 1012.5 1819.5"/><polyline class="cls-2" points="959.5 1819.5 982.5 1819.5 982.5 1715.5 944.5 1715.5 944.5 1819.5"/><rect class="cls-2" x="944.5" y="1694.5" width="83.5" height="21"/><polygon class="cls-2" points="55.5 1668 29.75 1668 29.75 1711.75 1 1711.75 1 1636 55.5 1636 55.5 1668"/><polyline class="cls-2" points="9 1742.75 1 1742.75 1 1711.75 29.75 1711.75 29.75 1742.75 22.25 1742.75"/><polyline class="cls-2" points="28.25 1813.25 28.25 1764.25 55.5 1764.25 55.5 1836 1 1836 1 1767.88"/><line class="cls-2" x1="28.25" y1="1768.75" x2="55.5" y2="1768.75"/><line class="cls-2" x1="28.25" y1="1772.75" x2="55.5" y2="1772.75"/><line class="cls-2" x1="28.25" y1="1776.75" x2="55.5" y2="1776.75"/><line class="cls-2" x1="28.25" y1="1780.75" x2="55.5" y2="1780.75"/><line class="cls-2" x1="28.25" y1="1784.75" x2="55.5" y2="1784.75"/><line class="cls-2" x1="28.25" y1="1788.75" x2="55.5" y2="1788.75"/><line class="cls-2" x1="28.25" y1="1792.75" x2="55.5" y2="1792.75"/><line class="cls-2" x1="28.25" y1="1796.75" x2="55.5" y2="1796.75"/><line class="cls-2" x1="28.25" y1="1800.75" x2="55.5" y2="1800.75"/><line class="cls-2" x1="28.25" y1="1804.75" x2="55.5" y2="1804.75"/><line class="cls-2" x1="28.25" y1="1808.75" x2="55.5" y2="1808.75"/><line class="cls-2" x1="28.25" y1="1812.25" x2="1" y2="1812.25"/><line class="cls-2" x1="28.25" y1="1808.25" x2="1" y2="1808.25"/><line class="cls-2" x1="28.25" y1="1804.25" x2="1" y2="1804.25"/><line class="cls-2" x1="28.25" y1="1800.25" x2="1" y2="1800.25"/><line class="cls-2" x1="28.25" y1="1796.25" x2="1" y2="1796.25"/><line class="cls-2" x1="28.25" y1="1792.25" x2="1" y2="1792.25"/><line class="cls-2" x1="28.25" y1="1788.25" x2="1" y2="1788.25"/><line class="cls-2" x1="28.25" y1="1784.25" x2="1" y2="1784.25"/><line class="cls-2" x1="28.25" y1="1780.25" x2="1" y2="1780.25"/><line class="cls-2" x1="28.25" y1="1776.25" x2="1" y2="1776.25"/><line class="cls-2" x1="28.25" y1="1772.25" x2="1" y2="1772.25"/><line class="cls-2" x1="28.25" y1="1768.25" x2="1" y2="1768.25"/><line class="cls-2" x1="41.01" y1="1764.25" x2="41.01" y2="1822.38"/><line class="cls-2" x1="13.61" y1="1821.38" x2="41.01" y2="1821.38"/><line class="cls-2" x1="13.61" y1="1769.25" x2="13.61" y2="1822.38"/><line class="cls-3" x1="41.01" y1="1796.25" x2="28.25" y2="1792.75"/><line class="cls-3" x1="55.5" y1="1792.75" x2="41.01" y2="1796.25"/><line class="cls-3" x1="28.25" y1="1772.25" x2="13.61" y2="1768.75"/><line class="cls-3" x1="1" y1="1772.25" x2="13.61" y2="1768.75"/><line class="cls-2" x1="1" y1="1768.25" x2="1" y2="1742.75"/><line class="cls-2" x1="109" y1="1636" x2="134" y2="1636"/><line class="cls-2" x1="55.5" y1="1636" x2="98.17" y2="1636"/><line class="cls-2" x1="342.25" y1="1651" x2="134" y2="1651"/><line class="cls-2" x1="442" y1="1651" x2="359.25" y2="1651"/><line class="cls-2" x1="134" y1="1635" x2="134" y2="1652"/><line class="cls-2" x1="276.5" y1="1651" x2="276.5" y2="1678.5"/><rect class="cls-2" x="134" y="1593.67" width="142.5" height="57.33"/><rect class="cls-2" x="134" y="1446.33" width="142.5" height="147.33"/><rect class="cls-2" x="134" y="1368.67" width="142.5" height="77.67"/><rect class="cls-2" x="134" y="1300.33" width="142.5" height="68.33"/><rect class="cls-2" x="134" y="1222.33" width="142.5" height="78"/><line class="cls-2" x1="276.5" y1="1052.03" x2="276.5" y2="1143.67"/><line class="cls-2" x1="276.5" y1="861.67" x2="276.5" y2="1037.41"/><line class="cls-2" x1="276.5" y1="674.75" x2="276.5" y2="847"/><line class="cls-2" x1="276.5" y1="484.06" x2="276.5" y2="660.54"/><line class="cls-2" x1="276.5" y1="298.29" x2="276.5" y2="469.71"/><polyline class="cls-2" points="134 658.67 115 658.67 115 317 134 317 134 96 276.5 96 276.5 284.27"/><line class="cls-2" x1="134" y1="1097.56" x2="134" y2="674.5"/><polyline class="cls-2" points="262.5 1143.67 134 1143.67 134 1110.38"/><polyline class="cls-2" points="276.5 1143.67 276.5 1222.33 134 1222.33 134 1143.67 262.5 1143.67"/><line class="cls-2" x1="256.75" y1="1183" x2="134" y2="1183"/><line class="cls-2" x1="256.75" y1="1159.25" x2="256.75" y2="1207.25"/><polyline class="cls-2" points="314.17 1153 314.17 1143.67 342 1143.67 342 1173.5 314.17 1173.5 314.17 1162.83"/><line class="cls-2" x1="115" y1="658.67" x2="115" y2="1614.33"/><line class="cls-2" x1="1" y1="1614.33" x2="115.49" y2="1614.33"/><line class="cls-2" x1="1" y1="1636" x2="1" y2="1613.84"/><polyline class="cls-2" points="157.5 260.63 157.5 250.75 200.63 250.75 200.63 280.88 157.5 280.88 157.5 271.38"/><polyline class="cls-2" points="205.88 280.88 200.63 280.88 200.63 250.75 216.38 250.75 216.38 280.88 210.38 280.88"/><polyline class="cls-2" points="259.75 260.63 259.75 250.75 216.38 250.75 216.38 280.88 259.75 280.88 259.75 271.38"/><line class="cls-2" x1="275.5" y1="96" x2="478.33" y2="96"/><line class="cls-2" x1="477.33" y1="147.67" x2="477.33" y2="96.5"/><line class="cls-2" x1="503" y1="146.67" x2="478.33" y2="146.67"/><line class="cls-2" x1="502" y1="12.67" x2="502" y2="146.16"/><line class="cls-2" x1="479" y1="13.67" x2="501.5" y2="13.67"/><line class="cls-2" x1="480" x2="480" y2="13.16"/><line class="cls-2" x1="1640.05" y1="1" x2="480" y2="1"/><line class="cls-2" x1="1319.5" y1="1651" x2="1319.5" y2="1634.5"/><line class="cls-2" x1="479" y1="1634.5" x2="1320.49" y2="1634.5"/><line class="cls-2" x1="1640.05" y1="1807" x2="1640.05" y2="1"/><line class="cls-2" x1="1319.5" y1="1836" x2="1621" y2="1836"/><rect class="cls-2" x="1429.67" y="1634.5" width="191.33" height="201.5"/><line class="cls-2" x1="479" y1="1522.75" x2="479" y2="1635.5"/><line class="cls-2" x1="461.75" y1="1522.75" x2="577.75" y2="1522.75"/><line class="cls-2" x1="461.75" y1="1505.25" x2="577.75" y2="1505.25"/><line class="cls-2" x1="479" y1="1505.25" x2="479" y2="1401.17"/><line class="cls-2" x1="499.67" y1="754.52" x2="499.67" y2="899.67"/><line class="cls-2" x1="478.67" y1="898.67" x2="499.67" y2="898.67"/><line class="cls-2" x1="478.67" y1="648.83" x2="478.67" y2="899.67"/></g><g id="Bloque_1" data-name="Bloque 1"><polyline class="cls-2" points="900.58 1308.83 900.58 1204.83 734.58 1204.83 734.58 1308.83 882.83 1308.83"/><polyline class="cls-2" points="568.58 1308.83 568.58 1204.83 734.58 1204.83 734.58 1308.83 591 1308.83"/><polyline class="cls-2" points="947.58 1379.58 947.58 1403.83 900.58 1403.83 900.58 1350.83 947.58 1350.83 947.58 1368.08"/><polyline class="cls-2" points="947.58 1436.96 947.58 1456.83 900.58 1456.83 900.58 1403.83 947.58 1403.83 947.58 1425.71"/><polyline class="cls-2" points="900.58 1354.17 900.58 1456.83 735.17 1456.83 735.17 1354.17 874.9 1354.17"/><polyline class="cls-2" points="734.75 1354.17 734.75 1456.83 694.25 1456.83 694.25 1354.17 714.5 1354.17"/><polyline class="cls-2" points="694.25 1354.17 694.25 1456.83 651.58 1456.83 651.58 1354.17 674 1354.17"/><polyline class="cls-2" points="651.58 1354.17 651.58 1456.83 610.58 1456.83 610.58 1354.17 632.67 1354.17"/><polyline class="cls-2" points="610.58 1354.17 610.58 1456.83 569.21 1456.83 569.21 1477.83 527.42 1477.83 527.42 1445.42 533.25 1445.4 533.25 1354.17 590.67 1354.17"/><polyline class="cls-2" points="987 1313.67 987 1204.83 1154.5 1204.83 1154.5 1313.67 1005.38 1313.67"/><polyline class="cls-2" points="1005.58 1354.17 1154.5 1354.17 1154.5 1456.83 987 1456.83 987 1354.17"/><path class="cls-1" d="M1907,1475.28" transform="translate(-607.29 -121.11)"/><path class="cls-2" d="M1802.29,1577.55" transform="translate(-607.29 -121.11)"/><line class="cls-1" x1="1195" y1="1456.83" x2="1195" y2="1447.17"/><rect class="cls-4" x="947.58" y="1204.83" width="39.42" height="108.83"/><polyline class="cls-2" points="924.08 1249.83 924.08 1298.83 900.58 1298.83 900.58 1227.08 947.58 1227.08 947.58 1295.21"/><line class="cls-2" x1="924.08" y1="1294.33" x2="900.58" y2="1294.33"/><line class="cls-2" x1="924.08" y1="1290.33" x2="900.58" y2="1290.33"/><line class="cls-2" x1="924.08" y1="1286.33" x2="900.58" y2="1286.33"/><line class="cls-2" x1="924.08" y1="1282.33" x2="900.58" y2="1282.33"/><line class="cls-2" x1="924.08" y1="1278.33" x2="900.58" y2="1278.33"/><line class="cls-2" x1="924.08" y1="1274.33" x2="900.58" y2="1274.33"/><line class="cls-2" x1="924.08" y1="1270.33" x2="900.58" y2="1270.33"/><line class="cls-2" x1="924.08" y1="1266.33" x2="900.58" y2="1266.33"/><line class="cls-2" x1="924.08" y1="1262.33" x2="900.58" y2="1262.33"/><line class="cls-2" x1="924.08" y1="1258.33" x2="900.58" y2="1258.33"/><line class="cls-2" x1="924.08" y1="1254.33" x2="900.58" y2="1254.33"/><line class="cls-2" x1="924.08" y1="1250.83" x2="947.58" y2="1250.83"/><line class="cls-2" x1="924.08" y1="1254.83" x2="947.58" y2="1254.83"/><line class="cls-2" x1="924.08" y1="1258.83" x2="947.58" y2="1258.83"/><line class="cls-2" x1="924.08" y1="1262.83" x2="947.58" y2="1262.83"/><line class="cls-2" x1="924.08" y1="1266.83" x2="947.58" y2="1266.83"/><line class="cls-2" x1="924.08" y1="1270.83" x2="947.58" y2="1270.83"/><line class="cls-2" x1="924.08" y1="1274.83" x2="947.58" y2="1274.83"/><line class="cls-2" x1="924.08" y1="1278.83" x2="947.58" y2="1278.83"/><line class="cls-2" x1="924.08" y1="1282.83" x2="947.58" y2="1282.83"/><line class="cls-2" x1="924.08" y1="1286.83" x2="947.58" y2="1286.83"/><line class="cls-2" x1="924.08" y1="1290.83" x2="947.58" y2="1290.83"/><line class="cls-2" x1="924.08" y1="1294.83" x2="947.58" y2="1294.83"/><line class="cls-2" x1="913.08" y1="1298.83" x2="913.08" y2="1240.71"/><line class="cls-2" x1="936.71" y1="1241.71" x2="913.08" y2="1241.71"/><line class="cls-2" x1="936.71" y1="1293.83" x2="936.71" y2="1240.71"/><line class="cls-3" x1="913.08" y1="1266.83" x2="924.08" y2="1270.33"/><line class="cls-3" x1="900.58" y1="1270.33" x2="913.08" y2="1266.83"/><line class="cls-3" x1="924.08" y1="1290.83" x2="936.71" y2="1294.33"/><line class="cls-3" x1="947.58" y1="1290.83" x2="936.71" y2="1294.33"/><polygon class="cls-4" points="568.58 1307.83 533.46 1307.83 533.46 1315.21 519.58 1315.21 519.58 1184 568.58 1184 568.58 1307.83"/><polyline class="cls-2" points="1319.08 1354.17 1319.08 1456.83 1154.5 1456.83 1154.5 1354.17 1299.67 1354.17"/><polyline class="cls-2" points="1319.08 1313.67 1319.08 1204.83 1154.5 1204.83 1154.5 1313.67 1299.67 1313.67"/><line class="cls-2" x1="1319.08" y1="1354.17" x2="1319.08" y2="1313.67"/><line class="cls-2" x1="947.58" y1="1456.83" x2="987" y2="1456.83"/><polyline class="cls-2" points="476.25 1377.67 427.25 1377.67 427.25 1354.17 499 1354.17 499 1401.17 430.88 1401.17"/><line class="cls-2" x1="431.75" y1="1377.67" x2="431.75" y2="1354.17"/><line class="cls-2" x1="435.75" y1="1377.67" x2="435.75" y2="1354.17"/><line class="cls-2" x1="439.75" y1="1377.67" x2="439.75" y2="1354.17"/><line class="cls-2" x1="443.75" y1="1377.67" x2="443.75" y2="1354.17"/><line class="cls-2" x1="447.75" y1="1377.67" x2="447.75" y2="1354.17"/><line class="cls-2" x1="451.75" y1="1377.67" x2="451.75" y2="1354.17"/><line class="cls-2" x1="455.75" y1="1377.67" x2="455.75" y2="1354.17"/><line class="cls-2" x1="459.75" y1="1377.67" x2="459.75" y2="1354.17"/><line class="cls-2" x1="463.75" y1="1377.67" x2="463.75" y2="1354.17"/><line class="cls-2" x1="467.75" y1="1377.67" x2="467.75" y2="1354.17"/><line class="cls-2" x1="471.75" y1="1377.67" x2="471.75" y2="1354.17"/><line class="cls-2" x1="475.25" y1="1377.67" x2="475.25" y2="1401.17"/><line class="cls-2" x1="471.25" y1="1377.67" x2="471.25" y2="1401.17"/><line class="cls-2" x1="467.25" y1="1377.67" x2="467.25" y2="1401.17"/><line class="cls-2" x1="463.25" y1="1377.67" x2="463.25" y2="1401.17"/><line class="cls-2" x1="459.25" y1="1377.67" x2="459.25" y2="1401.17"/><line class="cls-2" x1="455.25" y1="1377.67" x2="455.25" y2="1401.17"/><line class="cls-2" x1="451.25" y1="1377.67" x2="451.25" y2="1401.17"/><line class="cls-2" x1="447.25" y1="1377.67" x2="447.25" y2="1401.17"/><line class="cls-2" x1="443.25" y1="1377.67" x2="443.25" y2="1401.17"/><line class="cls-2" x1="439.25" y1="1377.67" x2="439.25" y2="1401.17"/><line class="cls-2" x1="435.25" y1="1377.67" x2="435.25" y2="1401.17"/><line class="cls-2" x1="431.25" y1="1377.67" x2="431.25" y2="1401.17"/><line class="cls-2" x1="427.25" y1="1366.67" x2="485.38" y2="1366.67"/><line class="cls-2" x1="484.38" y1="1390.29" x2="484.38" y2="1366.67"/><line class="cls-2" x1="432.25" y1="1390.29" x2="485.38" y2="1390.29"/><line class="cls-3" x1="459.25" y1="1366.67" x2="455.75" y2="1377.67"/><line class="cls-3" x1="455.75" y1="1354.17" x2="459.25" y2="1366.67"/><line class="cls-3" x1="435.25" y1="1377.67" x2="431.75" y2="1390.29"/><line class="cls-3" x1="435.25" y1="1401.17" x2="431.75" y2="1390.29"/><line class="cls-2" x1="519.75" y1="1354.17" x2="499" y2="1354.17"/><polygon class="cls-4" points="533.25 1445.4 527.42 1445.4 527.42 1477.83 569.21 1477.83 569.21 1456.83 1319.08 1456.83 1319.08 1204.83 568.58 1204.83 568.58 1184 1325.67 1184 1325.67 1479.88 519.75 1479.88 519.75 1346.33 533.25 1346.33 533.25 1445.4"/><line class="cls-2" x1="484.38" y1="1505.25" x2="484.38" y2="1479.88"/><line class="cls-2" x1="519.75" y1="1479.88" x2="483.38" y2="1479.88"/></g><g id="Bloque_2" data-name="Bloque 2"><polyline class="cls-2" points="901 932.5 901 828.5 735 828.5 735 932.5 883.25 932.5"/><polyline class="cls-2" points="569 932.5 569 828.5 735 828.5 735 932.5 591.42 932.5"/><polyline class="cls-2" points="948 1003.25 948 1027.5 901 1027.5 901 974.5 948 974.5 948 991.75"/><polyline class="cls-2" points="948 1060.63 948 1080.5 901 1080.5 901 1027.5 948 1027.5 948 1049.38"/><polyline class="cls-2" points="901 977.83 901 1080.5 735.58 1080.5 735.58 977.83 875.32 977.83"/><polyline class="cls-2" points="735.17 977.83 735.17 1080.5 694.67 1080.5 694.67 977.83 714.92 977.83"/><polyline class="cls-2" points="694.67 977.83 694.67 1080.5 652 1080.5 652 977.83 674.42 977.83"/><polyline class="cls-2" points="652 977.83 652 1080.5 611 1080.5 611 977.83 633.08 977.83"/><polyline class="cls-2" points="611 977.83 611 1080.5 569.63 1080.5 569.63 1101.5 527.83 1101.5 527.83 1069.08 533.67 1069.06 533.67 977.83 591.08 977.83"/><polyline class="cls-2" points="987.42 937.33 987.42 828.5 1154.92 828.5 1154.92 937.33 1005.79 937.33"/><polyline class="cls-2" points="1006 977.83 1154.92 977.83 1154.92 1080.5 987.42 1080.5 987.42 977.83"/><path class="cls-1" d="M1907.37,1098.94" transform="translate(-607.29 -121.11)"/><path class="cls-2" d="M1802.71,1201.21" transform="translate(-607.29 -121.11)"/><line class="cls-1" x1="1195.42" y1="1080.5" x2="1195.42" y2="1070.83"/><rect class="cls-4" x="948" y="828.5" width="39.42" height="108.83"/><polyline class="cls-2" points="924.5 873.5 924.5 922.5 901 922.5 901 850.75 948 850.75 948 918.88"/><line class="cls-2" x1="924.5" y1="918" x2="901" y2="918"/><line class="cls-2" x1="924.5" y1="914" x2="901" y2="914"/><line class="cls-2" x1="924.5" y1="910" x2="901" y2="910"/><line class="cls-2" x1="924.5" y1="906" x2="901" y2="906"/><line class="cls-2" x1="924.5" y1="902" x2="901" y2="902"/><line class="cls-2" x1="924.5" y1="898" x2="901" y2="898"/><line class="cls-2" x1="924.5" y1="894" x2="901" y2="894"/><line class="cls-2" x1="924.5" y1="890" x2="901" y2="890"/><line class="cls-2" x1="924.5" y1="886" x2="901" y2="886"/><line class="cls-2" x1="924.5" y1="882" x2="901" y2="882"/><line class="cls-2" x1="924.5" y1="878" x2="901" y2="878"/><line class="cls-2" x1="924.5" y1="874.5" x2="948" y2="874.5"/><line class="cls-2" x1="924.5" y1="878.5" x2="948" y2="878.5"/><line class="cls-2" x1="924.5" y1="882.5" x2="948" y2="882.5"/><line class="cls-2" x1="924.5" y1="886.5" x2="948" y2="886.5"/><line class="cls-2" x1="924.5" y1="890.5" x2="948" y2="890.5"/><line class="cls-2" x1="924.5" y1="894.5" x2="948" y2="894.5"/><line class="cls-2" x1="924.5" y1="898.5" x2="948" y2="898.5"/><line class="cls-2" x1="924.5" y1="902.5" x2="948" y2="902.5"/><line class="cls-2" x1="924.5" y1="906.5" x2="948" y2="906.5"/><line class="cls-2" x1="924.5" y1="910.5" x2="948" y2="910.5"/><line class="cls-2" x1="924.5" y1="914.5" x2="948" y2="914.5"/><line class="cls-2" x1="924.5" y1="918.5" x2="948" y2="918.5"/><line class="cls-2" x1="913.5" y1="922.5" x2="913.5" y2="864.38"/><line class="cls-2" x1="937.13" y1="865.38" x2="913.5" y2="865.38"/><line class="cls-2" x1="937.13" y1="917.5" x2="937.13" y2="864.38"/><line class="cls-3" x1="913.5" y1="890.5" x2="924.5" y2="894"/><line class="cls-3" x1="901" y1="894" x2="913.5" y2="890.5"/><line class="cls-3" x1="924.5" y1="914.5" x2="937.13" y2="918"/><line class="cls-3" x1="948" y1="914.5" x2="937.13" y2="918"/><polygon class="cls-4" points="569 931.5 533.88 931.5 533.88 938.88 520 938.88 520 807.67 569 807.67 569 931.5"/><polyline class="cls-2" points="1319.5 977.83 1319.5 1080.5 1154.92 1080.5 1154.92 977.83 1300.08 977.83"/><polyline class="cls-2" points="1319.5 937.33 1319.5 828.5 1154.92 828.5 1154.92 937.33 1300.08 937.33"/><line class="cls-2" x1="1319.5" y1="977.83" x2="1319.5" y2="937.33"/><line class="cls-2" x1="948" y1="1080.5" x2="987.42" y2="1080.5"/><polygon class="cls-4" points="533.67 1069.06 527.83 1069.06 527.83 1101.5 569.63 1101.5 569.63 1080.5 1319.5 1080.5 1319.5 828.5 569 828.5 569 807.67 1326.08 807.67 1326.08 1103.54 520.17 1103.54 520.17 970 533.67 970 533.67 1069.06"/><line class="cls-2" x1="479" y1="1275.25" x2="499" y2="1275.25"/><line class="cls-2" x1="519.58" y1="1184" x2="519.58" y2="1132"/><line class="cls-2" x1="555.5" y1="1132" x2="518.58" y2="1132"/><line class="cls-2" x1="499" y1="1132" x2="499" y2="1276.25"/><line class="cls-2" x1="479" y1="1276.25" x2="479" y2="1024.83"/><line class="cls-2" x1="500" y1="1132" x2="483.5" y2="1132"/><line class="cls-2" x1="520.17" y1="1103.54" x2="483.5" y2="1103.54"/><line class="cls-2" x1="483.5" y1="1133" x2="483.5" y2="1102.54"/><polyline class="cls-2" points="476.98 1001.33 427.98 1001.33 427.98 977.83 499.73 977.83 499.73 1024.83 431.6 1024.83"/><line class="cls-2" x1="432.48" y1="1001.33" x2="432.48" y2="977.83"/><line class="cls-2" x1="436.48" y1="1001.33" x2="436.48" y2="977.83"/><line class="cls-2" x1="440.48" y1="1001.33" x2="440.48" y2="977.83"/><line class="cls-2" x1="444.48" y1="1001.33" x2="444.48" y2="977.83"/><line class="cls-2" x1="448.48" y1="1001.33" x2="448.48" y2="977.83"/><line class="cls-2" x1="452.48" y1="1001.33" x2="452.48" y2="977.83"/><line class="cls-2" x1="456.48" y1="1001.33" x2="456.48" y2="977.83"/><line class="cls-2" x1="460.48" y1="1001.33" x2="460.48" y2="977.83"/><line class="cls-2" x1="464.48" y1="1001.33" x2="464.48" y2="977.83"/><line class="cls-2" x1="468.48" y1="1001.33" x2="468.48" y2="977.83"/><line class="cls-2" x1="472.48" y1="1001.33" x2="472.48" y2="977.83"/><line class="cls-2" x1="475.98" y1="1001.33" x2="475.98" y2="1024.83"/><line class="cls-2" x1="471.98" y1="1001.33" x2="471.98" y2="1024.83"/><line class="cls-2" x1="467.98" y1="1001.33" x2="467.98" y2="1024.83"/><line class="cls-2" x1="463.98" y1="1001.33" x2="463.98" y2="1024.83"/><line class="cls-2" x1="459.98" y1="1001.33" x2="459.98" y2="1024.83"/><line class="cls-2" x1="455.98" y1="1001.33" x2="455.98" y2="1024.83"/><line class="cls-2" x1="451.98" y1="1001.33" x2="451.98" y2="1024.83"/><line class="cls-2" x1="447.98" y1="1001.33" x2="447.98" y2="1024.83"/><line class="cls-2" x1="443.98" y1="1001.33" x2="443.98" y2="1024.83"/><line class="cls-2" x1="439.98" y1="1001.33" x2="439.98" y2="1024.83"/><line class="cls-2" x1="435.98" y1="1001.33" x2="435.98" y2="1024.83"/><line class="cls-2" x1="431.98" y1="1001.33" x2="431.98" y2="1024.83"/><line class="cls-2" x1="427.98" y1="990.33" x2="486.1" y2="990.33"/><line class="cls-2" x1="485.1" y1="1013.96" x2="485.1" y2="990.33"/><line class="cls-2" x1="432.98" y1="1013.96" x2="486.1" y2="1013.96"/><line class="cls-3" x1="459.98" y1="990.33" x2="456.48" y2="1001.33"/><line class="cls-3" x1="456.48" y1="977.83" x2="459.98" y2="990.33"/><line class="cls-3" x1="435.98" y1="1001.33" x2="432.48" y2="1013.96"/><line class="cls-3" x1="435.98" y1="1024.83" x2="432.48" y2="1013.96"/><line class="cls-2" x1="520.17" y1="977.83" x2="499.73" y2="977.83"/></g><g id="Bloque_3" data-name="Bloque 3"><polyline class="cls-2" points="900.58 555.5 900.58 451.5 734.58 451.5 734.58 555.5 882.83 555.5"/><polyline class="cls-2" points="568.58 555.5 568.58 451.5 734.58 451.5 734.58 555.5 591 555.5"/><polyline class="cls-2" points="947.58 626.25 947.58 650.5 900.58 650.5 900.58 597.5 947.58 597.5 947.58 614.75"/><polyline class="cls-2" points="947.58 683.63 947.58 703.5 900.58 703.5 900.58 650.5 947.58 650.5 947.58 672.38"/><polyline class="cls-2" points="900.58 600.83 900.58 703.5 735.17 703.5 735.17 600.83 874.9 600.83"/><polyline class="cls-2" points="734.75 600.83 734.75 703.5 694.25 703.5 694.25 600.83 715.75 600.83"/><polyline class="cls-2" points="694.25 600.83 694.25 703.5 651.58 703.5 651.58 600.83 674 600.83"/><polyline class="cls-2" points="651.58 600.83 651.58 703.5 610.58 703.5 610.58 600.83 632.67 600.83"/><polyline class="cls-2" points="610.58 600.83 610.58 703.5 569.21 703.5 569.21 724.5 527.42 724.5 527.42 692.08 533.25 692.06 533.25 600.83 590.67 600.83"/><polyline class="cls-2" points="987 560.33 987 451.5 1154.5 451.5 1154.5 560.33 1005.38 560.33"/><polyline class="cls-2" points="1194.5 560.33 1322 560.33 1322 451.5 1154.5 451.5 1154.5 560.33"/><polyline class="cls-2" points="1005.58 600.83 1154.5 600.83 1154.5 703.5 987 703.5 987 600.83"/><line class="cls-1" x1="1322" y1="600.83" x2="1299.67" y2="600.83"/><path class="cls-2" d="M1802.29,824.21" transform="translate(-607.29 -121.11)"/><polyline class="cls-2" points="1299.67 600.83 1247.92 600.83 1247.87 645.83 1212.53 645.72 1247.87 645.83 1281.67 645.75 1247.87 645.83 1247.92 600.83 1194.88 600.83 1195 693.83 1194.88 600.83 1154.5 600.83 1154.5 703.5 1322 703.5 1322 600.83"/><path class="cls-2" d="M1802.29,814.94" transform="translate(-607.29 -121.11)"/><line class="cls-1" x1="1195" y1="703.5" x2="1195" y2="693.83"/><polyline class="cls-5" points="1206.75 494.5 1206.75 470.5 1322 470.5 1322 546.75 1206.75 546.75 1206.75 522.75"/><rect class="cls-4" x="947.58" y="451.5" width="39.42" height="108.83"/><line class="cls-2" x1="1322" y1="560.33" x2="1322" y2="600.83"/><polyline class="cls-2" points="924.08 496.75 924.08 545.75 900.58 545.75 900.58 474 947.58 474 947.58 542.13"/><line class="cls-2" x1="924.08" y1="541.25" x2="900.58" y2="541.25"/><line class="cls-2" x1="924.08" y1="537.25" x2="900.58" y2="537.25"/><line class="cls-2" x1="924.08" y1="533.25" x2="900.58" y2="533.25"/><line class="cls-2" x1="924.08" y1="529.25" x2="900.58" y2="529.25"/><line class="cls-2" x1="924.08" y1="525.25" x2="900.58" y2="525.25"/><line class="cls-2" x1="924.08" y1="521.25" x2="900.58" y2="521.25"/><line class="cls-2" x1="924.08" y1="517.25" x2="900.58" y2="517.25"/><line class="cls-2" x1="924.08" y1="513.25" x2="900.58" y2="513.25"/><line class="cls-2" x1="924.08" y1="509.25" x2="900.58" y2="509.25"/><line class="cls-2" x1="924.08" y1="505.25" x2="900.58" y2="505.25"/><line class="cls-2" x1="924.08" y1="501.25" x2="900.58" y2="501.25"/><line class="cls-2" x1="924.08" y1="497.75" x2="947.58" y2="497.75"/><line class="cls-2" x1="924.08" y1="501.75" x2="947.58" y2="501.75"/><line class="cls-2" x1="924.08" y1="505.75" x2="947.58" y2="505.75"/><line class="cls-2" x1="924.08" y1="509.75" x2="947.58" y2="509.75"/><line class="cls-2" x1="924.08" y1="513.75" x2="947.58" y2="513.75"/><line class="cls-2" x1="924.08" y1="517.75" x2="947.58" y2="517.75"/><line class="cls-2" x1="924.08" y1="521.75" x2="947.58" y2="521.75"/><line class="cls-2" x1="924.08" y1="525.75" x2="947.58" y2="525.75"/><line class="cls-2" x1="924.08" y1="529.75" x2="947.58" y2="529.75"/><line class="cls-2" x1="924.08" y1="533.75" x2="947.58" y2="533.75"/><line class="cls-2" x1="924.08" y1="537.75" x2="947.58" y2="537.75"/><line class="cls-2" x1="924.08" y1="541.75" x2="947.58" y2="541.75"/><line class="cls-2" x1="913.08" y1="545.75" x2="913.08" y2="487.63"/><line class="cls-2" x1="936.71" y1="488.63" x2="913.08" y2="488.63"/><line class="cls-2" x1="936.71" y1="540.75" x2="936.71" y2="487.63"/><line class="cls-3" x1="913.08" y1="513.75" x2="924.08" y2="517.25"/><line class="cls-3" x1="900.58" y1="517.25" x2="913.08" y2="513.75"/><line class="cls-3" x1="924.08" y1="537.75" x2="936.71" y2="541.25"/><line class="cls-3" x1="947.58" y1="537.75" x2="936.71" y2="541.25"/><polygon class="cls-4" points="568.58 555.67 533.46 555.67 533.46 563.04 519.58 563.04 519.58 430.67 568.58 430.67 568.58 555.67"/><line class="cls-2" x1="947.58" y1="703.5" x2="987" y2="703.5"/><polygon class="cls-4" points="533.25 692.06 527.42 692.06 527.42 724.5 569.21 724.5 569.21 703.5 1319.08 703.5 1319.08 451.5 568.58 451.5 568.58 430.67 1325.67 430.67 1325.67 726.54 519.75 726.54 519.75 593 533.25 593 533.25 692.06"/><line class="cls-2" x1="520" y1="807.67" x2="519.75" y2="754.5"/><line class="cls-2" x1="519.75" y1="726.54" x2="483.67" y2="726.54"/><line class="cls-2" x1="483.67" y1="755.5" x2="483.67" y2="725.54"/><line class="cls-2" x1="499.67" y1="755.5" x2="482.67" y2="755.5"/><line class="cls-2" x1="554.83" y1="755.5" x2="519.75" y2="755.5"/><polyline class="cls-2" points="477 624.33 428 624.33 428 600.83 499.75 600.83 499.75 647.83 431.63 647.83"/><line class="cls-2" x1="432.5" y1="624.33" x2="432.5" y2="600.83"/><line class="cls-2" x1="436.5" y1="624.33" x2="436.5" y2="600.83"/><line class="cls-2" x1="440.5" y1="624.33" x2="440.5" y2="600.83"/><line class="cls-2" x1="444.5" y1="624.33" x2="444.5" y2="600.83"/><line class="cls-2" x1="448.5" y1="624.33" x2="448.5" y2="600.83"/><line class="cls-2" x1="452.5" y1="624.33" x2="452.5" y2="600.83"/><line class="cls-2" x1="456.5" y1="624.33" x2="456.5" y2="600.83"/><line class="cls-2" x1="460.5" y1="624.33" x2="460.5" y2="600.83"/><line class="cls-2" x1="464.5" y1="624.33" x2="464.5" y2="600.83"/><line class="cls-2" x1="468.5" y1="624.33" x2="468.5" y2="600.83"/><line class="cls-2" x1="472.5" y1="624.33" x2="472.5" y2="600.83"/><line class="cls-2" x1="476" y1="624.33" x2="476" y2="647.83"/><line class="cls-2" x1="472" y1="624.33" x2="472" y2="647.83"/><line class="cls-2" x1="468" y1="624.33" x2="468" y2="647.83"/><line class="cls-2" x1="464" y1="624.33" x2="464" y2="647.83"/><line class="cls-2" x1="460" y1="624.33" x2="460" y2="647.83"/><line class="cls-2" x1="456" y1="624.33" x2="456" y2="647.83"/><line class="cls-2" x1="452" y1="624.33" x2="452" y2="647.83"/><line class="cls-2" x1="448" y1="624.33" x2="448" y2="647.83"/><line class="cls-2" x1="444" y1="624.33" x2="444" y2="647.83"/><line class="cls-2" x1="440" y1="624.33" x2="440" y2="647.83"/><line class="cls-2" x1="436" y1="624.33" x2="436" y2="647.83"/><line class="cls-2" x1="432" y1="624.33" x2="432" y2="647.83"/><line class="cls-2" x1="428" y1="613.33" x2="486.13" y2="613.33"/><line class="cls-2" x1="485.13" y1="636.96" x2="485.13" y2="613.33"/><line class="cls-2" x1="433" y1="636.96" x2="486.13" y2="636.96"/><line class="cls-3" x1="460" y1="613.33" x2="456.5" y2="624.33"/><line class="cls-3" x1="456.5" y1="600.83" x2="460" y2="613.33"/><line class="cls-3" x1="436" y1="624.33" x2="432.5" y2="636.96"/><line class="cls-3" x1="436" y1="647.83" x2="432.5" y2="636.96"/><line class="cls-2" x1="499.75" y1="600.83" x2="519.75" y2="600.83"/></g><g id="Bloque_4" data-name="Bloque 4"><polyline class="cls-2" points="987 185.63 987 75 1322 75 1322 327 987 327 987 219.65"/><polyline class="cls-2" points="901 179 901 75 735 75 735 179 881.75 179"/><polyline class="cls-2" points="569 179 569 75 735 75 735 179 590.17 179"/><polyline class="cls-2" points="948 250.25 948 274 901 274 901 221 948 221 948 238"/><polyline class="cls-2" points="948 307.5 948 327 901 327 901 274 948 274 948 295.25"/><polyline class="cls-2" points="901 224.33 901 327 775.67 327 775.67 224.33 881.75 224.33"/><polyline class="cls-2" points="735 224.33 775.67 224.33 775.67 327 694.67 327 694.67 224.33 716.5 224.33"/><polyline class="cls-2" points="694.67 224.33 694.67 327 652 327 652 224.33 676 224.33"/><polyline class="cls-2" points="652 224.33 652 327 611 327 611 224.33 634.25 224.33"/><polyline class="cls-2" points="611 224.33 611 327 569.63 327 569.63 348 527.83 348 527.83 315.58 533.67 315.56 533.67 224.33 592.25 224.33"/><rect class="cls-4" x="948" y="75" width="39.42" height="109.75"/><polyline class="cls-2" points="924.5 120 924.5 169 901 169 901 97.25 948 97.25 948 165.38"/><line class="cls-2" x1="924.5" y1="164.5" x2="901" y2="164.5"/><line class="cls-2" x1="924.5" y1="160.5" x2="901" y2="160.5"/><line class="cls-2" x1="924.5" y1="156.5" x2="901" y2="156.5"/><line class="cls-2" x1="924.5" y1="152.5" x2="901" y2="152.5"/><line class="cls-2" x1="924.5" y1="148.5" x2="901" y2="148.5"/><line class="cls-2" x1="924.5" y1="144.5" x2="901" y2="144.5"/><line class="cls-2" x1="924.5" y1="140.5" x2="901" y2="140.5"/><line class="cls-2" x1="924.5" y1="136.5" x2="901" y2="136.5"/><line class="cls-2" x1="924.5" y1="132.5" x2="901" y2="132.5"/><line class="cls-2" x1="924.5" y1="128.5" x2="901" y2="128.5"/><line class="cls-2" x1="924.5" y1="124.5" x2="901" y2="124.5"/><line class="cls-2" x1="924.5" y1="121" x2="948" y2="121"/><line class="cls-2" x1="924.5" y1="125" x2="948" y2="125"/><line class="cls-2" x1="924.5" y1="129" x2="948" y2="129"/><line class="cls-2" x1="924.5" y1="133" x2="948" y2="133"/><line class="cls-2" x1="924.5" y1="137" x2="948" y2="137"/><line class="cls-2" x1="924.5" y1="141" x2="948" y2="141"/><line class="cls-2" x1="924.5" y1="145" x2="948" y2="145"/><line class="cls-2" x1="924.5" y1="149" x2="948" y2="149"/><line class="cls-2" x1="924.5" y1="153" x2="948" y2="153"/><line class="cls-2" x1="924.5" y1="157" x2="948" y2="157"/><line class="cls-2" x1="924.5" y1="161" x2="948" y2="161"/><line class="cls-2" x1="924.5" y1="165" x2="948" y2="165"/><line class="cls-2" x1="913.5" y1="169" x2="913.5" y2="110.88"/><line class="cls-2" x1="937.13" y1="111.88" x2="913.5" y2="111.88"/><line class="cls-2" x1="937.13" y1="164" x2="937.13" y2="110.88"/><line class="cls-3" x1="913.5" y1="137" x2="924.5" y2="140.5"/><line class="cls-3" x1="901" y1="140.5" x2="913.5" y2="137"/><line class="cls-3" x1="924.5" y1="161" x2="937.13" y2="164.5"/><line class="cls-3" x1="948" y1="161" x2="937.13" y2="164.5"/><polygon class="cls-4" points="569 179 533.88 179 533.88 186.38 520 186.38 520 54.23 569 54.23 569 179"/><line class="cls-2" x1="948" y1="327" x2="987" y2="327"/><rect class="cls-2" x="1298.62" y="102.63" width="19" height="47.38"/><line class="cls-2" x1="1298.62" y1="146.25" x2="1317.62" y2="146.25"/><line class="cls-2" x1="1298.62" y1="142.25" x2="1317.62" y2="142.25"/><line class="cls-2" x1="1298.62" y1="138.25" x2="1317.62" y2="138.25"/><line class="cls-2" x1="1298.62" y1="134.25" x2="1317.62" y2="134.25"/><line class="cls-2" x1="1298.62" y1="130.25" x2="1317.62" y2="130.25"/><line class="cls-2" x1="1298.62" y1="126.25" x2="1317.62" y2="126.25"/><line class="cls-2" x1="1298.62" y1="122.25" x2="1317.62" y2="122.25"/><line class="cls-2" x1="1298.62" y1="118.25" x2="1317.62" y2="118.25"/><line class="cls-2" x1="1298.62" y1="114.25" x2="1317.62" y2="114.25"/><line class="cls-2" x1="1298.62" y1="110.25" x2="1317.62" y2="110.25"/><line class="cls-2" x1="1298.62" y1="106.25" x2="1317.62" y2="106.25"/><line class="cls-2" x1="1308.12" y1="150" x2="1308.12" y2="102.63"/><line class="cls-3" x1="1298.62" y1="122.25" x2="1308.12" y2="118.25"/><line class="cls-3" x1="1317.62" y1="122.25" x2="1308.12" y2="118.25"/><polygon class="cls-4" points="533.67 315.63 527.83 315.63 527.83 348.06 569.63 348.06 569.63 327.06 1319.5 327.06 1319.5 75.06 569 75.06 569 54.23 1326.08 54.23 1326.08 350.1 520.17 350.1 520.17 216.56 533.67 216.56 533.67 315.63"/><polyline class="cls-2" points="477.25 247.83 428.25 247.83 428.25 224.33 500 224.33 500 271.33 431.88 271.33"/><line class="cls-2" x1="432.75" y1="247.83" x2="432.75" y2="224.33"/><line class="cls-2" x1="436.75" y1="247.83" x2="436.75" y2="224.33"/><line class="cls-2" x1="440.75" y1="247.83" x2="440.75" y2="224.33"/><line class="cls-2" x1="444.75" y1="247.83" x2="444.75" y2="224.33"/><line class="cls-2" x1="448.75" y1="247.83" x2="448.75" y2="224.33"/><line class="cls-2" x1="452.75" y1="247.83" x2="452.75" y2="224.33"/><line class="cls-2" x1="456.75" y1="247.83" x2="456.75" y2="224.33"/><line class="cls-2" x1="460.75" y1="247.83" x2="460.75" y2="224.33"/><line class="cls-2" x1="464.75" y1="247.83" x2="464.75" y2="224.33"/><line class="cls-2" x1="468.75" y1="247.83" x2="468.75" y2="224.33"/><line class="cls-2" x1="472.75" y1="247.83" x2="472.75" y2="224.33"/><line class="cls-2" x1="476.25" y1="247.83" x2="476.25" y2="271.33"/><line class="cls-2" x1="472.25" y1="247.83" x2="472.25" y2="271.33"/><line class="cls-2" x1="468.25" y1="247.83" x2="468.25" y2="271.33"/><line class="cls-2" x1="464.25" y1="247.83" x2="464.25" y2="271.33"/><line class="cls-2" x1="460.25" y1="247.83" x2="460.25" y2="271.33"/><line class="cls-2" x1="456.25" y1="247.83" x2="456.25" y2="271.33"/><line class="cls-2" x1="452.25" y1="247.83" x2="452.25" y2="271.33"/><line class="cls-2" x1="448.25" y1="247.83" x2="448.25" y2="271.33"/><line class="cls-2" x1="444.25" y1="247.83" x2="444.25" y2="271.33"/><line class="cls-2" x1="440.25" y1="247.83" x2="440.25" y2="271.33"/><line class="cls-2" x1="436.25" y1="247.83" x2="436.25" y2="271.33"/><line class="cls-2" x1="432.25" y1="247.83" x2="432.25" y2="271.33"/><line class="cls-2" x1="428.25" y1="236.83" x2="486.38" y2="236.83"/><line class="cls-2" x1="485.38" y1="260.46" x2="485.38" y2="236.83"/><line class="cls-2" x1="433.25" y1="260.46" x2="486.38" y2="260.46"/><line class="cls-3" x1="460.25" y1="236.83" x2="456.75" y2="247.83"/><line class="cls-3" x1="456.75" y1="224.33" x2="460.25" y2="236.83"/><line class="cls-3" x1="436.25" y1="247.83" x2="432.75" y2="260.46"/><line class="cls-3" x1="436.25" y1="271.33" x2="432.75" y2="260.46"/><line class="cls-2" x1="500" y1="224.33" x2="520.17" y2="224.33"/><line class="cls-2" x1="519.58" y1="430.67" x2="519.58" y2="378.88"/><line class="cls-2" x1="553.38" y1="378.88" x2="518.58" y2="378.88"/><line class="cls-2" x1="500.63" y1="378.88" x2="483.63" y2="378.88"/><line class="cls-2" x1="500.63" y1="522.5" x2="500.63" y2="378.88"/><line class="cls-2" x1="478.67" y1="522.5" x2="500.63" y2="522.5"/><line class="cls-2" x1="478.67" y1="271.33" x2="478.67" y2="522.5"/><line class="cls-2" x1="520.17" y1="350.1" x2="483.63" y2="350.1"/><line class="cls-2" x1="483.63" y1="378.88" x2="483.63" y2="350.1"/></g></svg>