<svg id="Nivel_2" data-name="Nivel 2" xmlns="http://www.w3.org/2000/svg" xmlns:xlink="http://www.w3.org/1999/xlink" viewBox="0 0 1379.27 1764.39"><defs><style>.cls-1,.cls-2,.cls-3,.cls-4,.cls-5{fill:none;}.cls-2,.cls-3{stroke:#070308;}.cls-2,.cls-3,.cls-4,.cls-5,.cls-6{stroke-miterlimit:10;}.cls-2,.cls-4,.cls-6{stroke-width:2px;}.cls-4,.cls-5,.cls-6{stroke:#201813;}.cls-6{fill:url(#Lines_oblicuas);}</style><pattern id="Lines_oblicuas" data-name="Lines oblicuas" width="75.58" height="81.07" patternTransform="translate(-669.34 -270.36) scale(0.99 0.96)" patternUnits="userSpaceOnUse" viewBox="0 0 75.58 81.07"><rect class="cls-1" width="75.58" height="81.07"/><polygon class="cls-1" points="2.78 0 0 2.98 0 17.11 15.96 0 2.78 0"/><polygon class="cls-1" points="21.43 0 0 22.98 0 37.11 34.61 0 21.43 0"/><polygon class="cls-1" points="58.73 0 0 62.98 0 78.11 72.85 0 58.73 0"/><polygon class="cls-1" points="40.08 0 0 42.98 0 57.11 53.26 0 40.08 0"/><polygon class="cls-1" points="75.58 42.93 40.02 81.07 53.2 81.07 75.58 57.07 75.58 42.93"/><polygon class="cls-1" points="75.58 22.93 21.36 81.07 34.55 81.07 75.58 37.07 75.58 22.93"/><polygon class="cls-1" points="72.85 81.07 75.58 78.14 75.58 62.93 58.67 81.07 72.85 81.07"/><polygon class="cls-1" points="75.58 2.93 2.71 81.07 15.89 81.07 75.58 17.07 75.58 2.93"/><polygon points="75.58 0 72.85 0 0 78.11 0 81.07 2.71 81.07 75.58 2.93 75.58 0"/><polygon points="53.26 0 0 57.11 0 62.98 58.73 0 53.26 0"/><polygon points="34.61 0 0 37.11 0 42.98 40.08 0 34.61 0"/><polygon points="15.96 0 0 17.11 0 22.98 21.43 0 15.96 0"/><polygon points="0 0 0 2.98 2.78 0 0 0"/><polygon points="75.58 37.07 34.55 81.07 40.02 81.07 75.58 42.93 75.58 37.07"/><polygon points="75.58 17.07 15.89 81.07 21.36 81.07 75.58 22.93 75.58 17.07"/><polygon points="75.58 62.93 75.58 57.07 53.2 81.07 58.67 81.07 75.58 62.93"/><polygon points="75.58 81.07 75.58 78.14 72.85 81.07 75.58 81.07"/></pattern></defs><title>ETSE2n</title><polyline class="cls-2" points="188.68 1555.88 1378.27 1555.88 1378.27 1763.39 1 1763.39 1 1555.88 152.22 1555.88"/><rect class="cls-2" x="61.1" y="1648.11" width="229.55" height="115.28"/><rect class="cls-2" x="290.64" y="1648.11" width="85.71" height="115.28"/><rect class="cls-2" x="376.35" y="1648.11" width="86.7" height="115.28"/><rect class="cls-2" x="463.05" y="1648.11" width="260.09" height="115.28"/><rect class="cls-2" x="723.13" y="1648.11" width="42.36" height="115.28"/><rect class="cls-2" x="765.49" y="1648.11" width="43.35" height="115.28"/><rect class="cls-2" x="808.84" y="1648.11" width="44.33" height="115.28"/><rect class="cls-2" x="853.17" y="1648.11" width="42.36" height="115.28"/><rect class="cls-2" x="895.54" y="1648.11" width="76.84" height="115.28"/><rect class="cls-2" x="972.38" y="1648.11" width="52.21" height="115.28"/><rect class="cls-2" x="1024.59" y="1648.11" width="46.3" height="115.28"/><line class="cls-2" x1="1378.27" y1="1648.11" x2="1070.9" y2="1648.11"/><polyline class="cls-3" points="1242.32 1618.48 1242.32 1623.13 507.38 1623.13 507.38 1571.25 1242.32 1571.25 1242.32 1598.12"/><path class="cls-3" d="M1811.34,1813.59" transform="translate(-569.02 -195.11)"/><path class="cls-3" d="M1811.34,1793.23" transform="translate(-569.02 -195.11)"/><rect class="cls-3" x="1119.66" y="1598.12" width="122.65" height="20.36"/><line class="cls-3" x1="1124.59" y1="1598.12" x2="1124.59" y2="1618.48"/><line class="cls-3" x1="1129.51" y1="1598.12" x2="1129.51" y2="1618.48"/><line class="cls-3" x1="1134.44" y1="1598.12" x2="1134.44" y2="1618.48"/><line class="cls-3" x1="1139.37" y1="1598.12" x2="1139.37" y2="1618.48"/><line class="cls-3" x1="1144.29" y1="1598.12" x2="1144.29" y2="1618.48"/><line class="cls-3" x1="1149.22" y1="1598.12" x2="1149.22" y2="1618.48"/><line class="cls-3" x1="1154.14" y1="1598.12" x2="1154.14" y2="1618.48"/><line class="cls-3" x1="1159.07" y1="1598.12" x2="1159.07" y2="1618.48"/><line class="cls-3" x1="1164" y1="1598.12" x2="1164" y2="1618.48"/><line class="cls-3" x1="1168.92" y1="1598.12" x2="1168.92" y2="1618.48"/><line class="cls-3" x1="1173.85" y1="1598.12" x2="1173.85" y2="1618.48"/><line class="cls-3" x1="1178.77" y1="1598.12" x2="1178.77" y2="1618.48"/><line class="cls-3" x1="1183.7" y1="1598.12" x2="1183.7" y2="1618.48"/><line class="cls-3" x1="1188.62" y1="1598.12" x2="1188.62" y2="1618.48"/><line class="cls-3" x1="1193.55" y1="1598.12" x2="1193.55" y2="1618.48"/><line class="cls-3" x1="1198.48" y1="1598.12" x2="1198.48" y2="1618.48"/><line class="cls-3" x1="1203.4" y1="1598.12" x2="1203.4" y2="1618.48"/><line class="cls-3" x1="1208.33" y1="1598.12" x2="1208.33" y2="1618.48"/><line class="cls-3" x1="1213.25" y1="1598.12" x2="1213.25" y2="1618.48"/><line class="cls-3" x1="1218.18" y1="1598.12" x2="1218.18" y2="1618.48"/><line class="cls-3" x1="1223.11" y1="1598.12" x2="1223.11" y2="1618.48"/><line class="cls-3" x1="1228.03" y1="1598.12" x2="1228.03" y2="1618.48"/><line class="cls-3" x1="1232.96" y1="1598.12" x2="1232.96" y2="1618.48"/><line class="cls-3" x1="1237.88" y1="1598.12" x2="1237.88" y2="1618.48"/><line class="cls-3" x1="1145.28" y1="1595.68" x2="1010.31" y2="1595.68"/><line class="cls-3" x1="1145.28" y1="1598.12" x2="1145.28" y2="1595.27"/><rect class="cls-3" x="1010.31" y="1595.68" width="21.67" height="27.45"/><line class="cls-3" x1="1015.23" y1="1622.65" x2="1015.23" y2="1595.68"/><line class="cls-3" x1="1019.18" y1="1622.65" x2="1019.18" y2="1595.68"/><line class="cls-3" x1="1023.12" y1="1622.65" x2="1023.12" y2="1595.68"/><line class="cls-3" x1="1027.06" y1="1622.65" x2="1027.06" y2="1595.68"/><line class="cls-3" x1="1010.31" y1="1609.68" x2="1031.98" y2="1609.68"/><polyline class="cls-4" points="964.5 1164.37 964.5 1211.45 940.36 1211.45 940.36 1142.52 988.63 1142.52 988.63 1207.96"/><line class="cls-4" x1="964.5" y1="1207.12" x2="940.36" y2="1207.12"/><line class="cls-4" x1="964.5" y1="1203.28" x2="940.36" y2="1203.28"/><line class="cls-4" x1="964.5" y1="1199.44" x2="940.36" y2="1199.44"/><line class="cls-4" x1="964.5" y1="1195.59" x2="940.36" y2="1195.59"/><line class="cls-4" x1="964.5" y1="1191.75" x2="940.36" y2="1191.75"/><line class="cls-4" x1="964.5" y1="1187.91" x2="940.36" y2="1187.91"/><line class="cls-4" x1="964.5" y1="1184.07" x2="940.36" y2="1184.07"/><line class="cls-4" x1="964.5" y1="1180.22" x2="940.36" y2="1180.22"/><line class="cls-4" x1="964.5" y1="1176.38" x2="940.36" y2="1176.38"/><line class="cls-4" x1="964.5" y1="1172.54" x2="940.36" y2="1172.54"/><line class="cls-4" x1="964.5" y1="1168.69" x2="940.36" y2="1168.69"/><line class="cls-4" x1="964.5" y1="1165.33" x2="988.64" y2="1165.33"/><line class="cls-4" x1="964.5" y1="1169.18" x2="988.64" y2="1169.18"/><line class="cls-4" x1="964.5" y1="1173.02" x2="988.64" y2="1173.02"/><line class="cls-4" x1="964.5" y1="1176.86" x2="988.64" y2="1176.86"/><line class="cls-4" x1="964.5" y1="1180.7" x2="988.64" y2="1180.7"/><line class="cls-4" x1="964.5" y1="1184.55" x2="988.64" y2="1184.55"/><line class="cls-4" x1="964.5" y1="1188.39" x2="988.64" y2="1188.39"/><line class="cls-4" x1="964.5" y1="1192.23" x2="988.64" y2="1192.23"/><line class="cls-4" x1="964.5" y1="1196.07" x2="988.64" y2="1196.07"/><line class="cls-4" x1="964.5" y1="1199.92" x2="988.64" y2="1199.92"/><line class="cls-4" x1="964.5" y1="1203.76" x2="988.64" y2="1203.76"/><line class="cls-4" x1="964.5" y1="1207.6" x2="988.64" y2="1207.6"/><line class="cls-4" x1="953.2" y1="1211.45" x2="953.2" y2="1155.61"/><line class="cls-4" x1="977.47" y1="1156.57" x2="953.2" y2="1156.57"/><line class="cls-4" x1="977.47" y1="1206.64" x2="977.47" y2="1155.61"/><line class="cls-4" x1="953.2" y1="1180.7" x2="964.5" y2="1184.07"/><line class="cls-4" x1="940.36" y1="1184.07" x2="953.2" y2="1180.7"/><line class="cls-4" x1="964.5" y1="1203.76" x2="977.47" y2="1207.12"/><line class="cls-4" x1="988.64" y1="1203.76" x2="977.47" y2="1207.12"/><rect class="cls-4" x="809.33" y="1142.3" width="131.03" height="89.34"/><rect class="cls-4" x="765.99" y="1142.3" width="43.35" height="89.34"/><rect class="cls-4" x="680.28" y="1142.3" width="85.71" height="89.34"/><rect class="cls-4" x="636.93" y="1142.3" width="43.35" height="89.34"/><rect class="cls-4" x="550.23" y="1142.3" width="86.7" height="89.34"/><rect class="cls-4" x="506.89" y="1142.3" width="43.35" height="89.34"/><rect class="cls-4" x="463.54" y="1142.3" width="43.35" height="89.34"/><rect class="cls-4" x="333.5" y="1142.3" width="130.04" height="89.34"/><rect class="cls-4" x="203.45" y="1142.3" width="130.04" height="89.34"/><rect class="cls-4" x="203.45" y="1265.27" width="43.35" height="89.34"/><rect class="cls-4" x="246.8" y="1265.27" width="43.35" height="89.34"/><rect class="cls-4" x="290.15" y="1265.27" width="43.35" height="89.34"/><rect class="cls-4" x="333.5" y="1265.27" width="42.36" height="89.34"/><rect class="cls-4" x="375.86" y="1265.27" width="43.35" height="89.34"/><rect class="cls-4" x="419.21" y="1265.27" width="44.33" height="89.34"/><rect class="cls-4" x="463.54" y="1265.27" width="43.35" height="89.34"/><rect class="cls-4" x="506.89" y="1265.27" width="43.35" height="89.34"/><rect class="cls-4" x="550.23" y="1265.27" width="86.7" height="89.34"/><rect class="cls-4" x="636.93" y="1265.27" width="43.35" height="89.34"/><rect class="cls-4" x="680.28" y="1265.27" width="42.36" height="89.34"/><rect class="cls-4" x="722.64" y="1265.27" width="43.35" height="89.34"/><rect class="cls-4" x="765.99" y="1265.27" width="43.35" height="89.34"/><rect class="cls-4" x="809.33" y="1265.27" width="43.35" height="89.34"/><rect class="cls-4" x="852.68" y="1265.27" width="43.35" height="89.34"/><rect class="cls-4" x="896.03" y="1265.27" width="44.33" height="89.34"/><rect class="cls-4" x="940.36" y="1265.27" width="48.27" height="89.34"/><line class="cls-4" x1="988.64" y1="1207.63" x2="988.64" y2="1265.27"/><line class="cls-4" x1="189.66" y1="1354.62" x2="203.45" y2="1354.62"/><line class="cls-4" x1="189.66" y1="1556.36" x2="189.66" y2="1353.65"/><rect class="cls-4" x="61.59" y="1142.3" width="41.38" height="89.34"/><rect class="cls-4" x="102.97" y="1142.3" width="48.27" height="89.34"/><polyline class="cls-4" points="34 1220.12 3.46 1220.12 3.46 1142.3 61.59 1142.3 61.59 1220.12"/><line class="cls-4" x1="19.23" y1="1220.12" x2="19.23" y2="1155.75"/><line class="cls-4" x1="47.8" y1="1213.39" x2="47.8" y2="1155.75"/><line class="cls-4" x1="19.23" y1="1156.71" x2="47.8" y2="1156.71"/><line class="cls-4" x1="34" y1="1167.28" x2="34" y2="1221.08"/><line class="cls-5" x1="61.59" y1="1167.28" x2="33.02" y2="1167.28"/><line class="cls-5" x1="61.59" y1="1171.12" x2="34" y2="1171.12"/><line class="cls-5" x1="61.59" y1="1174.97" x2="34" y2="1174.97"/><line class="cls-5" x1="61.59" y1="1178.81" x2="34" y2="1178.81"/><line class="cls-5" x1="61.59" y1="1182.65" x2="34" y2="1182.65"/><line class="cls-5" x1="61.59" y1="1186.49" x2="34" y2="1186.49"/><line class="cls-5" x1="61.59" y1="1190.34" x2="34" y2="1190.34"/><line class="cls-5" x1="61.59" y1="1194.18" x2="34" y2="1194.18"/><line class="cls-5" x1="61.59" y1="1198.02" x2="34" y2="1198.02"/><line class="cls-5" x1="61.59" y1="1201.87" x2="34" y2="1201.87"/><line class="cls-5" x1="61.59" y1="1205.71" x2="34" y2="1205.71"/><line class="cls-5" x1="61.59" y1="1209.55" x2="34" y2="1209.55"/><line class="cls-5" x1="61.59" y1="1213.39" x2="34" y2="1213.39"/><line class="cls-5" x1="3.46" y1="1216.28" x2="33.02" y2="1216.28"/><line class="cls-5" x1="3.46" y1="1212.43" x2="33.02" y2="1212.43"/><line class="cls-5" x1="3.46" y1="1208.59" x2="33.02" y2="1208.59"/><line class="cls-5" x1="3.46" y1="1204.75" x2="33.02" y2="1204.75"/><line class="cls-5" x1="3.46" y1="1200.9" x2="33.02" y2="1200.9"/><line class="cls-5" x1="3.46" y1="1197.06" x2="33.02" y2="1197.06"/><line class="cls-5" x1="3.46" y1="1193.22" x2="33.02" y2="1193.22"/><line class="cls-5" x1="3.46" y1="1189.38" x2="33.02" y2="1189.38"/><line class="cls-5" x1="3.46" y1="1185.53" x2="33.02" y2="1185.53"/><line class="cls-5" x1="3.46" y1="1181.69" x2="33.02" y2="1181.69"/><line class="cls-5" x1="3.46" y1="1177.85" x2="33.02" y2="1177.85"/><line class="cls-5" x1="3.46" y1="1174.01" x2="33.02" y2="1174.01"/><line class="cls-5" x1="3.46" y1="1170.16" x2="33.02" y2="1170.16"/><line class="cls-4" x1="3.46" y1="1220.12" x2="3.46" y2="1265.27"/><line class="cls-4" x1="151.24" y1="1372.87" x2="151.24" y2="1555.4"/><polygon class="cls-6" points="28.59 1265.27 28.59 1269.11 28.59 1269.11 33.02 1269.11 33.02 1297.93 7.4 1297.93 7.4 1269.11 11.84 1269.11 11.84 1265.27 3.46 1265.27 3.46 1372.87 151.24 1372.87 151.24 1265.27 28.59 1265.27"/><line class="cls-4" x1="151.24" y1="1142.3" x2="151.24" y2="991.47"/><line class="cls-4" x1="189.66" y1="973.22" x2="189.66" y2="1128.85"/><line class="cls-4" x1="203.45" y1="1142.3" x2="203.45" y2="1127.89"/><line class="cls-4" x1="189.66" y1="1127.89" x2="203.45" y2="1127.89"/><line class="cls-4" x1="189.66" y1="593.75" x2="189.66" y2="746.5"/><line class="cls-4" x1="203.45" y1="760.91" x2="203.45" y2="746.5"/><line class="cls-4" x1="189.66" y1="746.5" x2="203.45" y2="746.5"/><line class="cls-4" x1="189.66" y1="213.31" x2="189.66" y2="366.06"/><line class="cls-4" x1="203.45" y1="381.43" x2="203.45" y2="366.06"/><line class="cls-4" x1="189.66" y1="366.06" x2="203.45" y2="366.06"/><polyline class="cls-5" points="28.56 1685.09 60.6 1685.09 60.6 1762.91 1.49 1762.91 1.49 1685.09"/><line class="cls-4" x1="44.57" y1="1685.09" x2="44.57" y2="1749.46"/><line class="cls-4" x1="15.52" y1="1691.82" x2="15.52" y2="1749.46"/><line class="cls-4" x1="44.57" y1="1748.5" x2="15.52" y2="1748.5"/><line class="cls-4" x1="29.54" y1="1738.89" x2="29.54" y2="1685.09"/><line class="cls-4" x1="1.49" y1="1737.93" x2="30.55" y2="1737.93"/><line class="cls-4" x1="1.49" y1="1734.09" x2="29.54" y2="1734.09"/><line class="cls-4" x1="1.49" y1="1730.25" x2="29.54" y2="1730.25"/><line class="cls-4" x1="1.49" y1="1726.4" x2="29.54" y2="1726.4"/><line class="cls-4" x1="1.49" y1="1722.56" x2="29.54" y2="1722.56"/><line class="cls-4" x1="1.49" y1="1718.72" x2="29.54" y2="1718.72"/><line class="cls-4" x1="1.49" y1="1714.87" x2="29.54" y2="1714.87"/><line class="cls-4" x1="1.49" y1="1711.03" x2="29.54" y2="1711.03"/><line class="cls-4" x1="1.49" y1="1707.19" x2="29.54" y2="1707.19"/><line class="cls-4" x1="1.49" y1="1703.35" x2="29.54" y2="1703.35"/><line class="cls-4" x1="1.49" y1="1699.5" x2="29.54" y2="1699.5"/><line class="cls-4" x1="1.49" y1="1695.66" x2="29.54" y2="1695.66"/><line class="cls-4" x1="1.49" y1="1691.82" x2="29.54" y2="1691.82"/><line class="cls-4" x1="60.6" y1="1688.94" x2="30.55" y2="1688.94"/><line class="cls-4" x1="60.6" y1="1692.78" x2="30.55" y2="1692.78"/><line class="cls-4" x1="60.6" y1="1696.62" x2="30.55" y2="1696.62"/><line class="cls-4" x1="60.6" y1="1700.46" x2="30.55" y2="1700.46"/><line class="cls-4" x1="60.6" y1="1704.31" x2="30.55" y2="1704.31"/><line class="cls-4" x1="60.6" y1="1708.15" x2="30.55" y2="1708.15"/><line class="cls-4" x1="60.6" y1="1711.99" x2="30.55" y2="1711.99"/><line class="cls-4" x1="60.6" y1="1715.84" x2="30.55" y2="1715.84"/><line class="cls-4" x1="60.6" y1="1719.68" x2="30.55" y2="1719.68"/><line class="cls-4" x1="60.6" y1="1723.52" x2="30.55" y2="1723.52"/><line class="cls-4" x1="60.6" y1="1727.36" x2="30.55" y2="1727.36"/><line class="cls-4" x1="60.6" y1="1731.21" x2="30.55" y2="1731.21"/><line class="cls-4" x1="60.6" y1="1735.05" x2="30.55" y2="1735.05"/><polyline class="cls-4" points="964.5 782.98 964.5 830.05 940.36 830.05 940.36 761.12 988.63 761.12 988.63 826.57"/><line class="cls-4" x1="964.5" y1="825.73" x2="940.36" y2="825.73"/><line class="cls-4" x1="964.5" y1="821.88" x2="940.36" y2="821.88"/><line class="cls-4" x1="964.5" y1="818.04" x2="940.36" y2="818.04"/><line class="cls-4" x1="964.5" y1="814.2" x2="940.36" y2="814.2"/><line class="cls-4" x1="964.5" y1="810.36" x2="940.36" y2="810.36"/><line class="cls-4" x1="964.5" y1="806.51" x2="940.36" y2="806.51"/><line class="cls-4" x1="964.5" y1="802.67" x2="940.36" y2="802.67"/><line class="cls-4" x1="964.5" y1="798.83" x2="940.36" y2="798.83"/><line class="cls-4" x1="964.5" y1="794.99" x2="940.36" y2="794.99"/><line class="cls-4" x1="964.5" y1="791.14" x2="940.36" y2="791.14"/><line class="cls-4" x1="964.5" y1="787.3" x2="940.36" y2="787.3"/><line class="cls-4" x1="964.5" y1="783.94" x2="988.64" y2="783.94"/><line class="cls-4" x1="964.5" y1="787.78" x2="988.64" y2="787.78"/><line class="cls-4" x1="964.5" y1="791.62" x2="988.64" y2="791.62"/><line class="cls-4" x1="964.5" y1="795.47" x2="988.64" y2="795.47"/><line class="cls-4" x1="964.5" y1="799.31" x2="988.64" y2="799.31"/><line class="cls-4" x1="964.5" y1="803.15" x2="988.64" y2="803.15"/><line class="cls-4" x1="964.5" y1="806.99" x2="988.64" y2="806.99"/><line class="cls-4" x1="964.5" y1="810.84" x2="988.64" y2="810.84"/><line class="cls-4" x1="964.5" y1="814.68" x2="988.64" y2="814.68"/><line class="cls-4" x1="964.5" y1="818.52" x2="988.64" y2="818.52"/><line class="cls-4" x1="964.5" y1="822.37" x2="988.64" y2="822.37"/><line class="cls-4" x1="964.5" y1="826.21" x2="988.64" y2="826.21"/><line class="cls-4" x1="953.2" y1="830.05" x2="953.2" y2="774.21"/><line class="cls-4" x1="977.47" y1="775.17" x2="953.2" y2="775.17"/><line class="cls-4" x1="977.47" y1="825.25" x2="977.47" y2="774.21"/><line class="cls-4" x1="953.2" y1="799.31" x2="964.5" y2="802.67"/><line class="cls-4" x1="940.36" y1="802.67" x2="953.2" y2="799.31"/><line class="cls-4" x1="964.5" y1="822.37" x2="977.47" y2="825.73"/><line class="cls-4" x1="988.64" y1="822.37" x2="977.47" y2="825.73"/><rect class="cls-4" x="809.33" y="760.91" width="131.03" height="89.34"/><rect class="cls-4" x="765.99" y="760.91" width="43.35" height="89.34"/><rect class="cls-4" x="636.93" y="760.91" width="129.06" height="89.34"/><rect class="cls-4" x="550.23" y="760.91" width="86.7" height="89.34"/><rect class="cls-4" x="463.54" y="760.91" width="86.7" height="89.34"/><rect class="cls-4" x="333.5" y="760.91" width="130.04" height="89.34"/><rect class="cls-4" x="203.45" y="760.91" width="130.04" height="89.34"/><rect class="cls-4" x="203.45" y="883.88" width="43.35" height="89.34"/><rect class="cls-4" x="246.8" y="883.88" width="43.35" height="89.34"/><rect class="cls-4" x="290.15" y="883.88" width="43.35" height="89.34"/><rect class="cls-4" x="333.5" y="883.88" width="42.36" height="89.34"/><rect class="cls-4" x="375.86" y="883.88" width="43.35" height="89.34"/><rect class="cls-4" x="419.21" y="883.88" width="44.33" height="89.34"/><rect class="cls-4" x="463.54" y="883.88" width="43.35" height="89.34"/><rect class="cls-4" x="506.89" y="883.88" width="43.35" height="89.34"/><rect class="cls-4" x="550.23" y="883.88" width="43.35" height="89.34"/><rect class="cls-4" x="636.93" y="883.88" width="43.35" height="89.34"/><rect class="cls-4" x="680.28" y="883.88" width="42.36" height="89.34"/><rect class="cls-4" x="722.64" y="883.88" width="43.35" height="89.34"/><rect class="cls-4" x="765.99" y="883.88" width="43.35" height="89.34"/><rect class="cls-4" x="809.33" y="883.88" width="43.35" height="89.34"/><rect class="cls-4" x="852.68" y="883.88" width="43.35" height="89.34"/><rect class="cls-4" x="896.03" y="883.88" width="44.33" height="89.34"/><rect class="cls-4" x="940.36" y="883.88" width="48.27" height="89.34"/><line class="cls-4" x1="988.64" y1="826.23" x2="988.64" y2="883.88"/><line class="cls-4" x1="189.66" y1="973.22" x2="203.45" y2="973.22"/><polyline class="cls-4" points="34 838.72 3.46 838.72 3.46 760.91 61.59 760.91 61.59 838.72"/><rect class="cls-4" x="61.59" y="760.91" width="41.38" height="89.34"/><rect class="cls-4" x="102.97" y="760.91" width="48.27" height="89.34"/><line class="cls-4" x1="19.23" y1="838.72" x2="19.23" y2="774.36"/><line class="cls-4" x1="47.8" y1="832" x2="47.8" y2="774.36"/><line class="cls-4" x1="19.23" y1="775.32" x2="47.8" y2="775.32"/><line class="cls-4" x1="34" y1="785.89" x2="34" y2="839.68"/><line class="cls-5" x1="61.59" y1="785.89" x2="33.02" y2="785.89"/><line class="cls-5" x1="61.59" y1="789.73" x2="34" y2="789.73"/><line class="cls-5" x1="61.59" y1="793.57" x2="34" y2="793.57"/><line class="cls-5" x1="61.59" y1="797.41" x2="34" y2="797.41"/><line class="cls-5" x1="61.59" y1="801.26" x2="34" y2="801.26"/><line class="cls-5" x1="61.59" y1="805.1" x2="34" y2="805.1"/><line class="cls-5" x1="61.59" y1="808.94" x2="34" y2="808.94"/><line class="cls-5" x1="61.59" y1="812.78" x2="34" y2="812.78"/><line class="cls-5" x1="61.59" y1="816.63" x2="34" y2="816.63"/><line class="cls-5" x1="61.59" y1="820.47" x2="34" y2="820.47"/><line class="cls-5" x1="61.59" y1="824.31" x2="34" y2="824.31"/><line class="cls-5" x1="61.59" y1="828.16" x2="34" y2="828.16"/><line class="cls-5" x1="61.59" y1="832" x2="34" y2="832"/><line class="cls-5" x1="3.46" y1="834.88" x2="33.02" y2="834.88"/><line class="cls-5" x1="3.46" y1="831.04" x2="33.02" y2="831.04"/><line class="cls-5" x1="3.46" y1="827.2" x2="33.02" y2="827.2"/><line class="cls-5" x1="3.46" y1="823.35" x2="33.02" y2="823.35"/><line class="cls-5" x1="3.46" y1="819.51" x2="33.02" y2="819.51"/><line class="cls-5" x1="3.46" y1="815.67" x2="33.02" y2="815.67"/><line class="cls-5" x1="3.46" y1="811.82" x2="33.02" y2="811.82"/><line class="cls-5" x1="3.46" y1="807.98" x2="33.02" y2="807.98"/><line class="cls-5" x1="3.46" y1="804.14" x2="33.02" y2="804.14"/><line class="cls-5" x1="3.46" y1="800.3" x2="33.02" y2="800.3"/><line class="cls-5" x1="3.46" y1="796.45" x2="33.02" y2="796.45"/><line class="cls-5" x1="3.46" y1="792.61" x2="33.02" y2="792.61"/><line class="cls-5" x1="3.46" y1="788.77" x2="33.02" y2="788.77"/><line class="cls-4" x1="3.46" y1="838.72" x2="3.46" y2="883.88"/><polygon class="cls-6" points="28.59 883.88 28.59 887.72 28.59 887.72 33.02 887.72 33.02 916.54 7.4 916.54 7.4 887.72 11.84 887.72 11.84 883.88 3.46 883.88 3.46 991.47 151.24 991.47 151.24 883.88 28.59 883.88"/><line class="cls-4" x1="151.24" y1="760.91" x2="151.24" y2="612"/><rect class="cls-4" x="593.58" y="883.88" width="43.35" height="89.34"/><polyline class="cls-4" points="964.5 403.5 964.5 450.58 940.36 450.58 940.36 381.65 988.63 381.65 988.63 447.1"/><line class="cls-4" x1="964.5" y1="446.25" x2="940.36" y2="446.25"/><line class="cls-4" x1="964.5" y1="442.41" x2="940.36" y2="442.41"/><line class="cls-4" x1="964.5" y1="438.57" x2="940.36" y2="438.57"/><line class="cls-4" x1="964.5" y1="434.73" x2="940.36" y2="434.73"/><line class="cls-4" x1="964.5" y1="430.88" x2="940.36" y2="430.88"/><line class="cls-4" x1="964.5" y1="427.04" x2="940.36" y2="427.04"/><line class="cls-4" x1="964.5" y1="423.2" x2="940.36" y2="423.2"/><line class="cls-4" x1="964.5" y1="419.35" x2="940.36" y2="419.35"/><line class="cls-4" x1="964.5" y1="415.51" x2="940.36" y2="415.51"/><line class="cls-4" x1="964.5" y1="411.67" x2="940.36" y2="411.67"/><line class="cls-4" x1="964.5" y1="407.83" x2="940.36" y2="407.83"/><line class="cls-4" x1="964.5" y1="404.46" x2="988.64" y2="404.46"/><line class="cls-4" x1="964.5" y1="408.31" x2="988.64" y2="408.31"/><line class="cls-4" x1="964.5" y1="412.15" x2="988.64" y2="412.15"/><line class="cls-4" x1="964.5" y1="415.99" x2="988.64" y2="415.99"/><line class="cls-4" x1="964.5" y1="419.84" x2="988.64" y2="419.84"/><line class="cls-4" x1="964.5" y1="423.68" x2="988.64" y2="423.68"/><line class="cls-4" x1="964.5" y1="427.52" x2="988.64" y2="427.52"/><line class="cls-4" x1="964.5" y1="431.36" x2="988.64" y2="431.36"/><line class="cls-4" x1="964.5" y1="435.21" x2="988.64" y2="435.21"/><line class="cls-4" x1="964.5" y1="439.05" x2="988.64" y2="439.05"/><line class="cls-4" x1="964.5" y1="442.89" x2="988.64" y2="442.89"/><line class="cls-4" x1="964.5" y1="446.73" x2="988.64" y2="446.73"/><line class="cls-4" x1="953.2" y1="450.58" x2="953.2" y2="394.74"/><line class="cls-4" x1="977.47" y1="395.7" x2="953.2" y2="395.7"/><line class="cls-4" x1="977.47" y1="445.77" x2="977.47" y2="394.74"/><line class="cls-4" x1="953.2" y1="419.84" x2="964.5" y2="423.2"/><line class="cls-4" x1="940.36" y1="423.2" x2="953.2" y2="419.84"/><line class="cls-4" x1="964.5" y1="442.89" x2="977.47" y2="446.25"/><line class="cls-4" x1="988.64" y1="442.89" x2="977.47" y2="446.25"/><rect class="cls-4" x="765.99" y="381.43" width="174.38" height="89.34"/><rect class="cls-4" x="636.93" y="381.43" width="129.06" height="89.34"/><rect class="cls-4" x="593.58" y="381.43" width="43.35" height="89.34"/><rect class="cls-4" x="463.54" y="381.43" width="130.04" height="89.34"/><rect class="cls-4" x="375.86" y="381.43" width="87.68" height="89.34"/><rect class="cls-4" x="203.45" y="381.43" width="43.35" height="89.34"/><rect class="cls-4" x="203.45" y="504.4" width="43.35" height="89.34"/><rect class="cls-4" x="246.8" y="504.4" width="43.35" height="89.34"/><rect class="cls-4" x="290.15" y="504.4" width="43.35" height="89.34"/><rect class="cls-4" x="333.5" y="504.4" width="42.36" height="89.34"/><rect class="cls-4" x="375.86" y="504.4" width="43.35" height="89.34"/><rect class="cls-4" x="419.21" y="504.4" width="44.33" height="89.34"/><rect class="cls-4" x="463.54" y="504.4" width="43.35" height="89.34"/><rect class="cls-4" x="506.89" y="504.4" width="43.35" height="89.34"/><rect class="cls-4" x="550.23" y="504.4" width="43.35" height="89.34"/><rect class="cls-4" x="636.93" y="504.4" width="43.35" height="89.34"/><rect class="cls-4" x="680.28" y="504.4" width="42.36" height="89.34"/><rect class="cls-4" x="722.64" y="504.4" width="43.35" height="89.34"/><rect class="cls-4" x="765.99" y="504.4" width="43.35" height="89.34"/><rect class="cls-4" x="809.33" y="504.4" width="43.35" height="89.34"/><rect class="cls-4" x="852.68" y="504.4" width="43.35" height="89.34"/><rect class="cls-4" x="896.03" y="504.4" width="44.33" height="89.34"/><rect class="cls-4" x="940.36" y="504.4" width="48.27" height="89.34"/><line class="cls-4" x1="988.64" y1="446.76" x2="988.64" y2="504.4"/><line class="cls-4" x1="189.66" y1="593.75" x2="203.45" y2="593.75"/><polyline class="cls-4" points="34 459.25 3.46 459.25 3.46 381.43 61.59 381.43 61.59 459.25"/><rect class="cls-4" x="61.59" y="381.43" width="41.38" height="89.34"/><rect class="cls-4" x="102.97" y="381.43" width="48.27" height="89.34"/><line class="cls-4" x1="19.23" y1="459.25" x2="19.23" y2="394.88"/><line class="cls-4" x1="47.8" y1="452.53" x2="47.8" y2="394.88"/><line class="cls-4" x1="19.23" y1="395.84" x2="47.8" y2="395.84"/><line class="cls-4" x1="34" y1="406.41" x2="34" y2="460.21"/><line class="cls-5" x1="61.59" y1="406.41" x2="33.02" y2="406.41"/><line class="cls-5" x1="61.59" y1="410.25" x2="34" y2="410.25"/><line class="cls-5" x1="61.59" y1="414.1" x2="34" y2="414.1"/><line class="cls-5" x1="61.59" y1="417.94" x2="34" y2="417.94"/><line class="cls-5" x1="61.59" y1="421.78" x2="34" y2="421.78"/><line class="cls-5" x1="61.59" y1="425.63" x2="34" y2="425.63"/><line class="cls-5" x1="61.59" y1="429.47" x2="34" y2="429.47"/><line class="cls-5" x1="61.59" y1="433.31" x2="34" y2="433.31"/><line class="cls-5" x1="61.59" y1="437.15" x2="34" y2="437.15"/><line class="cls-5" x1="61.59" y1="441" x2="34" y2="441"/><line class="cls-5" x1="61.59" y1="444.84" x2="34" y2="444.84"/><line class="cls-5" x1="61.59" y1="448.68" x2="34" y2="448.68"/><line class="cls-5" x1="61.59" y1="452.53" x2="34" y2="452.53"/><line class="cls-5" x1="3.46" y1="455.41" x2="33.02" y2="455.41"/><line class="cls-5" x1="3.46" y1="451.56" x2="33.02" y2="451.56"/><line class="cls-5" x1="3.46" y1="447.72" x2="33.02" y2="447.72"/><line class="cls-5" x1="3.46" y1="443.88" x2="33.02" y2="443.88"/><line class="cls-5" x1="3.46" y1="440.04" x2="33.02" y2="440.04"/><line class="cls-5" x1="3.46" y1="436.19" x2="33.02" y2="436.19"/><line class="cls-5" x1="3.46" y1="432.35" x2="33.02" y2="432.35"/><line class="cls-5" x1="3.46" y1="428.51" x2="33.02" y2="428.51"/><line class="cls-5" x1="3.46" y1="424.67" x2="33.02" y2="424.67"/><line class="cls-5" x1="3.46" y1="420.82" x2="33.02" y2="420.82"/><line class="cls-5" x1="3.46" y1="416.98" x2="33.02" y2="416.98"/><line class="cls-5" x1="3.46" y1="413.14" x2="33.02" y2="413.14"/><line class="cls-5" x1="3.46" y1="409.29" x2="33.02" y2="409.29"/><line class="cls-4" x1="3.46" y1="459.25" x2="3.46" y2="504.4"/><polygon class="cls-6" points="28.59 504.4 28.59 508.25 28.59 508.25 33.02 508.25 33.02 537.07 7.4 537.07 7.4 508.25 11.84 508.25 11.84 504.4 3.46 504.4 3.46 612 151.24 612 151.24 504.4 28.59 504.4"/><line class="cls-4" x1="151.24" y1="231.57" x2="151.24" y2="381.43"/><rect class="cls-4" x="593.58" y="504.4" width="43.35" height="89.34"/><rect class="cls-4" x="246.8" y="381.43" width="86.7" height="89.34"/><rect class="cls-4" x="333.5" y="381.43" width="42.36" height="89.34"/><line class="cls-4" x1="988.64" y1="381.43" x2="988.64" y2="213.31"/><polyline class="cls-4" points="964.5 23.07 964.5 70.14 940.36 70.14 940.36 1.21 988.63 1.21 988.63 66.66"/><line class="cls-4" x1="964.5" y1="65.82" x2="940.36" y2="65.82"/><line class="cls-4" x1="964.5" y1="61.98" x2="940.36" y2="61.98"/><line class="cls-4" x1="964.5" y1="58.13" x2="940.36" y2="58.13"/><line class="cls-4" x1="964.5" y1="54.29" x2="940.36" y2="54.29"/><line class="cls-4" x1="964.5" y1="50.45" x2="940.36" y2="50.45"/><line class="cls-4" x1="964.5" y1="46.61" x2="940.36" y2="46.61"/><line class="cls-4" x1="964.5" y1="42.76" x2="940.36" y2="42.76"/><line class="cls-4" x1="964.5" y1="38.92" x2="940.36" y2="38.92"/><line class="cls-4" x1="964.5" y1="35.08" x2="940.36" y2="35.08"/><line class="cls-4" x1="964.5" y1="31.24" x2="940.36" y2="31.24"/><line class="cls-4" x1="964.5" y1="27.39" x2="940.36" y2="27.39"/><line class="cls-4" x1="964.5" y1="24.03" x2="988.64" y2="24.03"/><line class="cls-4" x1="964.5" y1="27.87" x2="988.64" y2="27.87"/><line class="cls-4" x1="964.5" y1="31.72" x2="988.64" y2="31.72"/><line class="cls-4" x1="964.5" y1="35.56" x2="988.64" y2="35.56"/><line class="cls-4" x1="964.5" y1="39.4" x2="988.64" y2="39.4"/><line class="cls-4" x1="964.5" y1="43.24" x2="988.64" y2="43.24"/><line class="cls-4" x1="964.5" y1="47.09" x2="988.64" y2="47.09"/><line class="cls-4" x1="964.5" y1="50.93" x2="988.64" y2="50.93"/><line class="cls-4" x1="964.5" y1="54.77" x2="988.64" y2="54.77"/><line class="cls-4" x1="964.5" y1="58.61" x2="988.64" y2="58.61"/><line class="cls-4" x1="964.5" y1="62.46" x2="988.64" y2="62.46"/><line class="cls-4" x1="964.5" y1="66.3" x2="988.64" y2="66.3"/><line class="cls-4" x1="953.2" y1="70.14" x2="953.2" y2="14.3"/><line class="cls-4" x1="977.47" y1="15.26" x2="953.2" y2="15.26"/><line class="cls-4" x1="977.47" y1="65.34" x2="977.47" y2="14.3"/><line class="cls-4" x1="953.2" y1="39.4" x2="964.5" y2="42.76"/><line class="cls-4" x1="940.36" y1="42.76" x2="953.2" y2="39.4"/><line class="cls-4" x1="964.5" y1="62.46" x2="977.47" y2="65.82"/><line class="cls-4" x1="988.64" y1="62.46" x2="977.47" y2="65.82"/><rect class="cls-4" x="765.99" y="1" width="174.38" height="89.34"/><rect class="cls-4" x="636.93" y="1" width="129.06" height="89.34"/><rect class="cls-4" x="550.23" y="1" width="86.7" height="89.34"/><rect class="cls-4" x="506.89" y="1" width="43.35" height="89.34"/><rect class="cls-4" x="463.54" y="1" width="43.35" height="89.34"/><rect class="cls-4" x="333.5" y="1" width="42.36" height="89.34"/><rect class="cls-4" x="203.45" y="1" width="43.35" height="89.34"/><rect class="cls-4" x="203.45" y="123.97" width="43.35" height="89.34"/><rect class="cls-4" x="246.8" y="123.97" width="43.35" height="89.34"/><rect class="cls-4" x="290.15" y="123.97" width="43.35" height="89.34"/><rect class="cls-4" x="333.5" y="123.97" width="42.36" height="89.34"/><rect class="cls-4" x="375.86" y="123.97" width="43.35" height="89.34"/><rect class="cls-4" x="419.21" y="123.97" width="44.33" height="89.34"/><rect class="cls-4" x="463.54" y="123.97" width="43.35" height="89.34"/><rect class="cls-4" x="506.89" y="123.97" width="43.35" height="89.34"/><rect class="cls-4" x="550.23" y="123.97" width="43.35" height="89.34"/><rect class="cls-4" x="636.93" y="123.97" width="129.06" height="89.34"/><polyline class="cls-4" points="926.08 123.97 940.36 123.97 940.36 128.77"/><polyline class="cls-4" points="940.36 144.14 940.36 213.31 765.99 213.31 765.99 123.97 901.94 123.97"/><polyline class="cls-4" points="986.17 123.97 988.63 123.97 988.63 213.31 940.36 213.31 940.36 143.18"/><polyline class="cls-4" points="940.36 128.77 940.36 123.97 963.02 123.97"/><line class="cls-4" x1="988.64" y1="66.33" x2="988.64" y2="123.97"/><line class="cls-4" x1="189.66" y1="213.31" x2="203.45" y2="213.31"/><polyline class="cls-4" points="34 78.82 3.46 78.82 3.46 1 61.59 1 61.59 78.82"/><rect class="cls-4" x="61.59" y="1" width="41.38" height="89.34"/><rect class="cls-4" x="102.97" y="1" width="48.27" height="89.34"/><line class="cls-4" x1="19.23" y1="78.82" x2="19.23" y2="14.45"/><line class="cls-4" x1="47.8" y1="72.09" x2="47.8" y2="14.45"/><line class="cls-4" x1="19.23" y1="15.41" x2="47.8" y2="15.41"/><line class="cls-4" x1="34" y1="25.98" x2="34" y2="79.78"/><line class="cls-5" x1="61.59" y1="25.98" x2="33.02" y2="25.98"/><line class="cls-5" x1="61.59" y1="29.82" x2="34" y2="29.82"/><line class="cls-5" x1="61.59" y1="33.66" x2="34" y2="33.66"/><line class="cls-5" x1="61.59" y1="37.51" x2="34" y2="37.51"/><line class="cls-5" x1="61.59" y1="41.35" x2="34" y2="41.35"/><line class="cls-5" x1="61.59" y1="45.19" x2="34" y2="45.19"/><line class="cls-5" x1="61.59" y1="49.03" x2="34" y2="49.03"/><line class="cls-5" x1="61.59" y1="52.88" x2="34" y2="52.88"/><line class="cls-5" x1="61.59" y1="56.72" x2="34" y2="56.72"/><line class="cls-5" x1="61.59" y1="60.56" x2="34" y2="60.56"/><line class="cls-5" x1="61.59" y1="64.41" x2="34" y2="64.41"/><line class="cls-5" x1="61.59" y1="68.25" x2="34" y2="68.25"/><line class="cls-5" x1="61.59" y1="72.09" x2="34" y2="72.09"/><line class="cls-5" x1="3.46" y1="74.97" x2="33.02" y2="74.97"/><line class="cls-5" x1="3.46" y1="71.13" x2="33.02" y2="71.13"/><line class="cls-5" x1="3.46" y1="67.29" x2="33.02" y2="67.29"/><line class="cls-5" x1="3.46" y1="63.44" x2="33.02" y2="63.44"/><line class="cls-5" x1="3.46" y1="59.6" x2="33.02" y2="59.6"/><line class="cls-5" x1="3.46" y1="55.76" x2="33.02" y2="55.76"/><line class="cls-5" x1="3.46" y1="51.92" x2="33.02" y2="51.92"/><line class="cls-5" x1="3.46" y1="48.07" x2="33.02" y2="48.07"/><line class="cls-5" x1="3.46" y1="44.23" x2="33.02" y2="44.23"/><line class="cls-5" x1="3.46" y1="40.39" x2="33.02" y2="40.39"/><line class="cls-5" x1="3.46" y1="36.55" x2="33.02" y2="36.55"/><line class="cls-5" x1="3.46" y1="32.7" x2="33.02" y2="32.7"/><line class="cls-5" x1="3.46" y1="28.86" x2="33.02" y2="28.86"/><line class="cls-4" x1="3.46" y1="78.82" x2="3.46" y2="123.97"/><polygon class="cls-6" points="28.59 123.97 28.59 127.81 28.59 127.81 33.02 127.81 33.02 156.63 7.4 156.63 7.4 127.81 11.84 127.81 11.84 123.97 3.46 123.97 3.46 231.57 151.24 231.57 151.24 123.97 28.59 123.97"/><line class="cls-4" x1="151.24" y1="1" x2="203.45" y2="1"/><rect class="cls-4" x="246.8" y="1" width="43.35" height="89.34"/><rect class="cls-4" x="290.15" y="1" width="43.35" height="89.34"/><rect class="cls-4" x="375.86" y="1" width="44.33" height="89.34"/><rect class="cls-4" x="420.19" y="1" width="43.35" height="89.34"/><rect class="cls-4" x="593.58" y="123.97" width="43.35" height="89.34"/><polyline class="cls-4" points="923.94 66.33 934.45 66.33 934.45 10.61 899.97 10.61 899.97 66.33 901.61 66.33"/><polyline class="cls-4" points="962.03 123.97 962.03 157.59 940.36 157.59 940.36 144.14"/><polyline class="cls-4" points="940.36 129.13 940.36 123.97 962.03 123.97"/><polygon class="cls-6" points="36.96 1621.69 36.96 1667.8 33.02 1667.8 33.02 1633.22 1.49 1633.22 1.49 1555.4 61.59 1555.4 61.59 1621.69 36.96 1621.69"/></svg>