<?xml version="1.0" encoding="utf-8"?>
<!-- Generator: Adobe Illustrator 22.0.1, SVG Export Plug-In . SVG Version: 6.00 Build 0)  -->
<svg version="1.1" id="Capa_1" xmlns="http://www.w3.org/2000/svg" xmlns:xlink="http://www.w3.org/1999/xlink" x="0px" y="0px"
	 viewBox="0 0 415.8 106.2" style="enable-background:new 0 0 415.8 106.2;" xml:space="preserve">
<style type="text/css">
	.st0{display:none;}
	.st1{display:inline;fill:#E1B600;}
	.st2{fill:#333333;}
</style>
<g id="Capa_2_1_" class="st0">
	<rect x="-50.6" y="-102.1" class="st1" width="1032" height="477"/>
</g>
<g id="Capa_1_1_">
	<g>
		<path class="st2" d="M76.4,80.4c-0.5,0-0.8,0.3-1.1,0.4c-0.2,0.2-0.7,0.5-0.7,0.3s0-0.2,0.2-0.4c0.3-0.2,1.2-0.7,0.8-1.2
			c-0.4-0.5-0.9-0.6-0.9-1.1c0-0.4,0-0.3,0-0.3s-0.1,0.1-0.3,0.1c-0.1,0-0.4-0.3-0.4-0.3s0,0.2-0.2,0.3c-0.2,0.1-0.5,0-0.5,0
			s0.1,0.3,0.1,0.5c-0.1,0.2-0.4,0.3-0.6,0.8c-0.1,0.5,0,0.8,0.7,1.4c-1-0.4-1-0.3-1.3-0.3s-0.7,0.1-0.9,0.3
			c0.2,0.5,0.3,0.5,0.5,0.7c0.3,0.2,0.2,0.3,1,0.3s1.2-0.7,1.3,0.4c0.1,0.4-0.3,0.8,0,0.8c0.2,0.1,0.8,0,0.8-0.7
			c0-0.6-0.2-0.8,0.2-0.8c0.4,0,0.5-0.2,0.7-0.5c0.3-0.3,0.4-0.4,0.6-0.4s0.4,0.1,0.4,0.1S76.9,80.4,76.4,80.4z"/>
		<rect x="80.8" y="78" class="st2" width="0.2" height="1.1"/>
		<rect x="82.1" y="76.1" class="st2" width="0.3" height="1.5"/>
		<path class="st2" d="M73,76.6c0,0.2,0.1,0.7,0.2,0.7s0-0.4,0-0.5S73.1,76,73.1,76h0.1c0,0,0,0,0-0.3c-0.2-0.9,0-0.8,0-0.8
			c0.1,0,0.1-0.1,0.3,0.5c0.1-1.3,0-1.6-0.1-1.7s0-0.4,0.1-0.6c0.1-0.1,0.1-0.7,0-0.6s-0.4,0.3-0.6,0.4s-0.1,0.2,0.1,0.4v0.2
			c0,0-0.2,0-0.4,0c-0.2,0-0.2,1.6-0.2,1.6s0.1-0.1,0.2-0.3c0.2-0.2,0,0.3,0,0.7c0,0.4,0.1,0.5,0.2,0.5C72.9,76,73,76.4,73,76.6z"/>
		<path class="st2" d="M70.3,73.5c-0.2,0-0.4,0-0.4,0s-0.1-0.2,0.1-0.4c0.1-0.2,0.3-0.3,0.1-0.4c-0.2-0.1-0.6-0.3-0.6-0.4
			c-0.1-0.1-0.1,0.5,0,0.6s0.2,0.5,0.1,0.6s-0.3,0.4-0.1,1.7c0.2-0.6,0.2-0.5,0.3-0.5c0.1,0,0.2-0.1,0,0.8c-0.1,0.3,0,0.3,0,0.3h0.1
			c0,0-0.2,0.7-0.1,0.8c0,0.1,0,0.5,0,0.5s0.1-0.4,0.2-0.7c0-0.2,0.1-0.7,0.2-0.7s0.2-0.1,0.2-0.5s-0.2-0.9,0-0.7
			c0.2,0.2,0.2,0.3,0.2,0.3S70.5,73.5,70.3,73.5z"/>
		<path class="st2" d="M84.2,69.3c0,0-0.6,0-0.8,1.3c-0.2,1.3-0.6,0.9-0.5,0.2c0.1-0.7,0.6-1.8,0.3-2.1c-0.2-0.3-0.7,0.2-0.9-0.1
			c0,0.5-0.2,0.5-0.3,0.6c-0.1,0.1-0.5,0.1-0.5,0.3c0,0.2,0.1,0.1,0.1,0.2c0,0.2-0.2,0.1-0.2,0.3s0.2,0.3,0.2,0.5s-0.2,0.2-0.5-0.2
			c-0.2-0.4-0.7-1.1-0.8-0.9c-0.2,0.2,0.1,0.5,0.1,0.6c0.1,0.1,0.4,0.9-0.2,1c-0.2,0.1-0.4,0.4,0.1,0.5c0.4,0.1,0.9,0.1,1.2,0.4
			c0.2,0.3,0.1,0.2,0,0.3c-0.2,0.1-0.5,0.2-0.5,0.4c0,0.1,0.1,0.8-0.1,1.1c-0.2,0.3-0.2,0.4-0.4,0.5c0.1,0.1,0.2,0.3,0.5,0.2
			c0.1-0.4,0.5-0.9,0.7-0.9c0,0,0.2-0.1,0.2-0.4s0.1-0.6,0.4-0.6c0.2,0,0.4,0.6,0.6,0.6s0.4,0.3,0.2,0.4c-0.2,0.2-0.6,0.4-0.4,0.6
			s0.4,0.2,0.8-0.1c0.4-0.3,0.1-0.6,0.1-1.2s0.2-1.9,0.3-2.2c0.2,0,0.3-0.2,0.3-0.3c0-0.1-0.1-0.3-0.1-0.6
			C84.2,69.3,84.2,69.3,84.2,69.3z"/>
		<path class="st2" d="M84.4,59.1c0.1-0.1,0.1-0.7,0-0.7c-0.1,0.1-0.4,0.3-0.7,0.4c-0.2,0.1-0.1,0.2,0.1,0.4
			c0.1,0.2,0.1,0.4,0.1,0.4s-0.2,0-0.4,0s-0.2,1.7-0.2,1.7s0.1-0.1,0.2-0.3c0.2-0.2,0,0.3,0,0.7c0,0.4,0.1,0.5,0.2,0.5
			s0.2,0.5,0.2,0.7s0.1,0.7,0.2,0.7s0-0.4,0-0.6c0-0.1-0.1-0.8-0.1-0.8h0.1c0,0,0,0,0-0.3c-0.2-0.9,0-0.8,0-0.8
			c0.1,0,0.1-0.1,0.3,0.5c0.1-1.4,0-1.7-0.1-1.8C84.3,59.6,84.3,59.3,84.4,59.1z"/>
		<path class="st2" d="M81.2,59.7c-0.2,0-0.4,0-0.4,0s-0.1-0.2,0.1-0.4c0.1-0.2,0.3-0.3,0.1-0.4c-0.2-0.1-0.6-0.3-0.7-0.4
			s-0.1,0.5,0,0.7c0.1,0.1,0.2,0.5,0.1,0.6s-0.3,0.5-0.1,1.8c0.2-0.6,0.2-0.5,0.3-0.5c0.1,0,0.2-0.1,0,0.8c-0.1,0.3,0,0.3,0,0.3h0.1
			c0,0-0.2,0.7-0.1,0.8c0,0.1,0,0.6,0,0.6c0.1,0,0.1-0.5,0.2-0.7c0-0.2,0.1-0.7,0.2-0.7s0.2-0.1,0.2-0.5s-0.2-0.9,0-0.7
			c0.2,0.2,0.2,0.3,0.2,0.3S81.4,59.7,81.2,59.7z"/>
		<path class="st2" d="M68,62.3c0,0-0.6,0-0.8,1.3c-0.2,1.3-0.6,0.9-0.5,0.2c0.1-0.7,0.6-1.8,0.3-2.1c-0.2-0.3-0.7,0.2-0.9-0.1
			c0,0.5-0.2,0.5-0.3,0.6s-0.5,0.1-0.5,0.3c0,0.2,0.1,0.1,0.1,0.2c0,0.2-0.2,0.1-0.2,0.3c0,0.1,0.2,0.3,0.2,0.5s-0.2,0.2-0.5-0.2
			c-0.2-0.4-0.7-1.1-0.8-0.9c-0.2,0.2,0.1,0.5,0.1,0.6s0.4,0.9-0.2,1c-0.2,0.1-0.4,0.4,0.1,0.5c0.4,0.1,0.9,0.1,1.2,0.4
			c0.2,0.3,0.1,0.2,0,0.3c-0.2,0.1-0.5,0.2-0.5,0.4s0.1,0.8-0.1,1.1c-0.2,0.3-0.2,0.4-0.4,0.5c0.1,0.1,0.2,0.3,0.5,0.2
			c0.1-0.4,0.5-0.9,0.7-0.9c0,0,0.2-0.1,0.2-0.4s0.1-0.6,0.4-0.6c0.2,0,0.4,0.6,0.6,0.6s0.4,0.3,0.2,0.4c-0.2,0.2-0.6,0.4-0.4,0.6
			s0.4,0.2,0.8-0.1c0.4-0.3,0.1-0.6,0.1-1.2s0.2-1.9,0.3-2.2c0.2,0,0.3-0.2,0.3-0.3c0-0.1-0.1-0.3-0.1-0.6
			C67.9,62.3,68,62.3,68,62.3z"/>
		<path class="st2" d="M73.4,55.5c0,0-0.6,0-0.8,1.3c-0.2,1.3-0.6,0.9-0.5,0.2c0.1-0.7,0.6-1.8,0.3-2.1c-0.2-0.3-0.7,0.2-0.9-0.1
			c0,0.5-0.2,0.5-0.3,0.6s-0.5,0.1-0.5,0.3c0,0.2,0.1,0.1,0.1,0.2s-0.2,0.1-0.2,0.3c0,0.1,0.2,0.3,0.2,0.5s-0.2,0.2-0.5-0.2
			s-0.7-1.1-0.8-0.9c-0.2,0.2,0.1,0.5,0.1,0.6s0.4,0.9-0.2,1c-0.2,0.1-0.4,0.4,0.1,0.5c0.4,0.1,0.9,0.1,1.2,0.4
			c0.2,0.3,0.1,0.2,0,0.3s-0.5,0.2-0.5,0.4c0,0.1,0.1,0.8-0.1,1.1c-0.2,0.3-0.2,0.4-0.4,0.5c0.1,0.1,0.2,0.3,0.5,0.2
			c0.1-0.4,0.5-0.9,0.7-0.9c0,0,0.2-0.1,0.2-0.4s0.1-0.6,0.4-0.6c0.2,0,0.4,0.6,0.6,0.6s0.4,0.3,0.2,0.4c-0.2,0.2-0.6,0.4-0.4,0.6
			s0.4,0.2,0.8-0.1c0.4-0.3,0.1-0.6,0.1-1.2s0.2-1.9,0.3-2.2c0.2,0,0.3-0.2,0.3-0.3c0-0.1-0.1-0.3-0.1-0.6
			C73.4,55.6,73.4,55.5,73.4,55.5z"/>
		<circle class="st2" cx="53" cy="5" r="1"/>
		<path class="st2" d="M40.3,9.4c0.1,0,0.2,0,0.4,0c-0.2-1.1-0.3-2.1-0.5-3.5C41,7,41.9,8,42.6,8.9c0.1,0,0.2-0.1,0.3-0.1
			c0.3-1.3,0.6-2.6,0.9-3.9c0.4,1.1,0.8,2.3,1.1,3.5c0.2-0.1,0.4-0.1,0.6-0.2c0.2,0,0.4-0.1,0.6-0.1c-0.6-1.4-1.2-3.1-1.9-5
			c-0.1,0-0.2,0.1-0.3,0.1s-0.2,0-0.3,0c-0.3,1.4-0.6,2.8-0.9,4C41.8,6.1,41,5.1,40.1,4c-0.1,0-0.2,0.1-0.3,0.1s-0.2,0-0.3,0
			c0.2,2,0.3,3.8,0.4,5.4C40,9.4,40.1,9.4,40.3,9.4z"/>
		<path class="st2" d="M37.3,10.4c0.1,0,0.2,0,0.3-0.1c0-1.9,0.2-3.8,0.3-5.8c-0.1,0.1-0.2,0.1-0.3,0.1s-0.2,0.1-0.3,0.1
			c0,1.4,0,2.7-0.1,4.1c-0.9-1.1-1.8-2.1-2.5-3.2c-0.2,0.1-0.4,0.2-0.6,0.3C33.9,6,33.7,6,33.4,6.1c1.3,1.4,2.5,2.9,3.7,4.4
			C37.1,10.5,37.2,10.4,37.3,10.4z"/>
		<path class="st2" d="M30.5,13.5c0.1,0,0.2-0.1,0.3-0.1L29.2,10l1.1,0.4c1.2,0.4,2.4,0.9,3.6,1.4l0.6-0.3l-2.3-4.8
			c-0.1,0.1-0.2,0.1-0.3,0.2c-0.1,0-0.2,0.1-0.3,0.1l1.6,3.3c-1.5-0.6-3.1-1.2-4.6-1.8l-0.7,0.3l2.3,4.8
			C30.3,13.6,30.4,13.6,30.5,13.5z"/>
		<path class="st2" d="M22.6,19.5c0.5-0.5,0.9-1,1.3-1.6l-1.4-1.6c-0.1,0.1-0.3,0.3-0.4,0.4c-0.1,0.1-0.3,0.2-0.5,0.4l1.2,1.4
			c-0.1,0.2-0.2,0.5-0.5,0.7c-0.9,0.8-1.9,0.6-2.8-0.4s-1.2-2.3-0.2-3.1c0.5-0.4,1-0.6,1.7-0.4l0.1-0.1c-0.2-0.2-0.3-0.5-0.4-0.7
			C20,14.6,19.5,15,19,15.4c-1.3,1.2-1.7,2.9-0.4,4.3C19.8,21,21.4,20.6,22.6,19.5z"/>
		<path class="st2" d="M8.7,43c0-0.1,0-0.3,0.1-0.4c0-0.1,0.1-0.2,0.1-0.4c-0.2-0.2-0.5-0.4-0.7-0.7l-0.9-1C8,40.3,8.7,40.1,9.5,40
			c0-0.2,0.1-0.4,0.1-0.7c0.1-0.2,0.1-0.4,0.2-0.6c-1.1,0.2-2.1,0.5-3.1,0.8l-0.2,0.1c-0.3-0.4-0.7-0.8-1-1.2l-0.8-1
			c0,0.1,0,0.3-0.1,0.4c0,0.1-0.1,0.2-0.1,0.4c0.5,0.6,1,1.1,1.5,1.6c-0.7,0.2-1.4,0.3-2.1,0.5c0,0.2-0.1,0.5-0.1,0.7
			c-0.1,0.2-0.1,0.4-0.2,0.7l3.1-0.9C7.4,41.5,8.1,42.2,8.7,43z"/>
		<path class="st2" d="M8.5,43.6c-0.1,0-0.2,0-0.3,0S8,43.5,7.9,43.5c0,0.5-0.1,1-0.2,1.8L5.8,45l0.1-0.8C6,43.9,6,43.5,6.1,43.3
			c-0.1,0-0.2,0-0.3,0s-0.2-0.1-0.3-0.1c0,0.3,0,0.6-0.1,1L5.3,45l-1.6-0.3c0.1-0.8,0.3-1.3,0.4-1.8c-0.1,0-0.2,0-0.3,0
			s-0.2-0.1-0.3-0.1L3,45.7l5.2,0.8L8.5,43.6z"/>
		<path class="st2" d="M9.8,66.8c-0.2-0.6-0.6-1.3-1-1.8l-2,0.7C6.9,65.9,7,66.1,7,66.2c0.1,0.2,0.1,0.4,0.1,0.6l1.7-0.6
			c0.2,0.1,0.4,0.4,0.5,0.7c0.4,1.1-0.2,2-1.4,2.5c-1.2,0.4-2.5,0.2-3-1c-0.2-0.6-0.1-1.2,0.3-1.7v-0.1c-0.3,0.1-0.5,0.1-0.8,0
			c-0.1,0.7-0.1,1.3,0.2,1.9c0.6,1.7,2,2.7,3.8,2.1C10,70.1,10.3,68.4,9.8,66.8z"/>
		<path class="st2" d="M12.4,73.5c-0.1-0.2-0.1-0.4-0.2-0.5l-4.8,2.3c0.1,0.2,0.2,0.3,0.3,0.5s0.1,0.4,0.2,0.5l4.8-2.3
			C12.6,73.8,12.5,73.6,12.4,73.5z"/>
		<path class="st2" d="M13.1,75c-0.1,0.1-0.2,0.1-0.3,0.2c-0.1,0.1-0.2,0.1-0.3,0.1c0.3,0.4,0.6,0.8,1,1.5l-1.7,1l-0.4-0.7
			c-0.2-0.3-0.3-0.6-0.4-0.9c-0.1,0.1-0.2,0.1-0.3,0.2c-0.1,0.1-0.2,0.1-0.3,0.1c0.2,0.2,0.4,0.5,0.5,0.8l0.4,0.7l-1.4,0.8
			c-0.4-0.7-0.6-1.2-0.8-1.6c-0.1,0.1-0.2,0.1-0.3,0.2s-0.2,0.1-0.3,0.1l1.5,2.6l4.6-2.6L13.1,75z"/>
		<path class="st2" d="M20.4,90.1c1.2-1.4-0.8-2.6,0.1-3.5c0.4-0.4,0.9-0.3,1.2,0c0.4,0.4,0.5,0.9,0.2,1.4l0.1,0.1
			c0.3-0.2,0.5-0.4,0.8-0.6c-0.1-0.4-0.4-0.8-0.7-1.1c-0.9-0.8-2-0.8-2.7-0.1c-1.2,1.3,0.7,2.8,0,3.5c-0.3,0.3-0.7,0.4-1.1,0
			c-0.3-0.3-0.4-0.7-0.2-1.1L18,88.6c-0.2,0.1-0.5,0.3-0.7,0.4c0,0.2,0.2,0.7,0.7,1.1C18.9,90.9,19.8,90.8,20.4,90.1z"/>
		<path class="st2" d="M25.2,89c-1.6,1.1-3.3,2-4.9,3c0.1,0.1,0.2,0.1,0.3,0.2c0.1,0.1,0.2,0.2,0.3,0.2c1.1-0.8,2.3-1.5,3.5-2.2
			c-0.4,1.3-0.7,2.6-1.2,3.9c0.2,0.1,0.4,0.2,0.6,0.4c0.2,0.1,0.4,0.3,0.5,0.4c0.5-1.8,1-3.7,1.5-5.5c-0.1-0.1-0.2-0.1-0.3-0.2
			C25.3,89.2,25.2,89.1,25.2,89z"/>
		<path class="st2" d="M37.4,95.9L36,99.4l-0.5-1.1c-0.5-1.2-0.9-2.4-1.3-3.7l-0.6-0.3l-2,4.9c0.1,0,0.2,0.1,0.3,0.1
			c0.1,0,0.2,0.1,0.3,0.1l1.4-3.4c0.5,1.6,1.2,3.1,1.7,4.6l0.7,0.3l2-4.9c-0.1,0-0.2-0.1-0.3-0.1C37.5,96,37.4,95.9,37.4,95.9z"/>
		<path class="st2" d="M48.6,98.4l-0.6,3.7l-0.7-1c-0.7-1.1-1.4-2.1-2.1-3.3l-0.6-0.1l-0.8,5.3c0.1,0,0.2,0,0.3,0s0.2,0,0.3,0.1
			l0.6-3.6c0.9,1.4,1.8,2.8,2.7,4.1l0.8,0.1l0.8-5.3c-0.1,0-0.2,0-0.3,0C48.8,98.5,48.7,98.5,48.6,98.4z"/>
		<path class="st2" d="M51.3,98.5c-0.2,0-0.4,0-0.6-0.1l-0.3,5.3c0.2,0,0.4,0,0.6,0c0.2,0,0.4,0,0.6,0.1l0.3-5.3
			C51.7,98.5,51.5,98.6,51.3,98.5z"/>
		<path class="st2" d="M64.1,97.3c0,0.1,0.1,0.2,0.1,0.3s0,0.2,0.1,0.3c0.4-0.2,0.9-0.4,1.7-0.6l0.5,1.9l-0.8,0.2
			c-0.3,0.1-0.6,0.2-0.9,0.2c0,0.1,0.1,0.2,0.1,0.3c0,0.1,0,0.2,0.1,0.3c0.3-0.1,0.6-0.2,0.9-0.3l0.8-0.2l0.5,1.6
			c-0.8,0.2-1.3,0.3-1.8,0.4c0,0.1,0.1,0.2,0.1,0.3c0,0.1,0,0.2,0.1,0.3l2.8-0.8l-1.5-5.1L64.1,97.3z"/>
		<path class="st2" d="M70.1,95.2c-0.2,0.1-0.4,0.1-0.6,0.2l1,2.4l-0.8,0.3c-0.3,0.1-0.6,0.2-0.9,0.3c0.1,0.1,0.1,0.2,0.2,0.3
			c0,0.1,0.1,0.2,0.1,0.3c0.3-0.2,0.6-0.3,0.8-0.4l0.8-0.3l0.6,1.6c-0.8,0.3-1.2,0.4-1.7,0.6c0.1,0.1,0.1,0.2,0.2,0.3
			c0,0.1,0.1,0.2,0.1,0.3l2.7-1.1l-2-4.9C70.5,95.1,70.3,95.2,70.1,95.2z"/>
		<path class="st2" d="M75,94.1c-0.3-0.5,0-0.9,0.4-1.2c0.5-0.3,1-0.2,1.4,0.2l0.1-0.1c-0.1-0.3-0.2-0.6-0.3-1
			c-0.4,0-0.9,0.1-1.2,0.3c-1,0.6-1.4,1.6-0.9,2.5c0.9,1.5,2.8,0.2,3.4,1.1c0.2,0.4,0.2,0.8-0.4,1.1c-0.4,0.2-0.8,0.1-1.1-0.1
			L76.3,97c0.1,0.3,0.1,0.5,0.2,0.8c0.2,0.1,0.8,0,1.2-0.3c1-0.6,1.2-1.5,0.7-2.3C77.4,93.7,75.6,95.2,75,94.1z"/>
		<path class="st2" d="M79.1,90.2c-0.1,0.1-0.2,0.1-0.3,0.2c0.5,1.9,0.9,3.7,1.3,5.6c0.1-0.1,0.2-0.2,0.3-0.2
			c0.1-0.1,0.2-0.1,0.3-0.2c-0.4-1.3-0.7-2.6-1-4c1.1,0.8,2.3,1.5,3.3,2.4c0.2-0.1,0.4-0.3,0.5-0.4c0.2-0.1,0.4-0.2,0.6-0.4
			c-1.6-1-3.2-2.1-4.7-3.2C79.2,90.1,79.2,90.2,79.1,90.2z"/>
		<path class="st2" d="M85,85.2c-0.1,0.1-0.2,0.1-0.2,0.2l2.5,2.8l-1.2-0.1c-1.3-0.1-2.5-0.2-3.9-0.4l-0.5,0.4l3.6,4
			c0.1-0.1,0.1-0.2,0.2-0.2c0.1-0.1,0.2-0.1,0.2-0.2L83.3,89c1.6,0.2,3.3,0.3,4.9,0.5l0.6-0.5l-3.5-3.9C85.2,85.1,85.1,85.1,85,85.2
			z"/>
		<path class="st2" d="M86.6,83.4c-0.1,0.1-0.3,0.3-0.4,0.4l3.9,3.6c0.1-0.2,0.2-0.3,0.4-0.5c0.1-0.1,0.3-0.3,0.4-0.4L87,83
			C86.9,83.1,86.8,83.3,86.6,83.4z"/>
		<path class="st2" d="M93.8,81.8c-0.2,0.4-0.4,0.8-0.8,1.2l-3.8-2.9c-0.1,0.2-0.2,0.3-0.3,0.5c-0.1,0.2-0.3,0.3-0.4,0.4l3.8,2.9
			c-0.3,0.4-0.6,0.7-0.9,1c0.1,0.1,0.2,0.1,0.3,0.2c0.1,0.1,0.2,0.1,0.2,0.2l2.4-3.2C94.2,82,94.1,82,94,81.9
			C93.9,82,93.9,81.9,93.8,81.8z"/>
		<path class="st2" d="M93,74.4c-0.1,0.1-0.1,0.2-0.2,0.3l3.2,1.9l-1.2,0.3c-1.2,0.3-2.5,0.5-3.8,0.8l-0.3,0.6l4.6,2.7
			c0-0.1,0.1-0.2,0.1-0.3c0.1-0.1,0.1-0.2,0.2-0.3l-3.1-1.9c1.6-0.3,3.2-0.7,4.8-1l0.4-0.7l-4.5-2.7C93.1,74.2,93,74.3,93,74.4z"/>
		<path class="st2" d="M93.6,73.1c0.1,0,0.2,0.1,0.3,0.1c0.1,0,0.2,0.1,0.3,0.2c0.1-0.5,0.3-1,0.6-1.7l1.8,0.8l-0.3,0.7
			c-0.1,0.3-0.3,0.6-0.5,0.8c0.1,0,0.2,0.1,0.3,0.1c0.1,0,0.2,0.1,0.3,0.2c0.1-0.3,0.2-0.6,0.3-0.9l0.3-0.7l1.5,0.7
			c-0.3,0.7-0.6,1.2-0.8,1.6c0.1,0,0.2,0.1,0.3,0.1c0.1,0,0.2,0.1,0.3,0.2l1.2-2.7l-4.8-2.2L93.6,73.1z"/>
		<path class="st2" d="M95.2,69.4c0.1,0,0.2,0,0.3,0.1c0.1,0,0.2,0.1,0.3,0.1c0.1-0.5,0.3-1.1,0.5-1.7l4.5,1.5
			c0-0.2,0.1-0.4,0.2-0.6s0.1-0.4,0.2-0.5l-5-1.7L95.2,69.4z"/>
		<path class="st2" d="M97.8,58.6c0,0.1-0.1,0.2-0.1,0.3c1.7,0.9,3.3,2,4.9,3c0-0.1,0-0.2,0-0.4c0-0.1,0-0.2,0.1-0.4
			c-1.2-0.6-2.4-1.3-3.6-2c1.3-0.3,2.7-0.6,4-0.8c0-0.2,0-0.5,0.1-0.7c0-0.2,0.1-0.5,0.1-0.7c-1.9,0.4-3.7,0.9-5.6,1.2
			C97.8,58.4,97.8,58.5,97.8,58.6z"/>
		<path class="st2" d="M98.1,51.9c0,0.2,0.1,0.4,0.1,0.6s0,0.4,0,0.6l5.3-0.3c0-0.2-0.1-0.4-0.1-0.6s0-0.4,0-0.6L98.1,51.9z"/>
		<path class="st2" d="M97.9,48.2c0,0.1,0.1,0.2,0.1,0.3c0,0.1,0,0.2,0,0.3c1.9,0.6,3.6,1.2,5.4,1.9c0-0.1,0-0.2,0-0.4
			c0-0.1,0-0.2,0-0.4c-1.3-0.4-2.6-0.8-3.9-1.3c1.3-0.5,2.5-1.1,3.8-1.6c0-0.2-0.1-0.5-0.1-0.7s0-0.5,0-0.7
			C101.4,46.6,99.7,47.4,97.9,48.2z"/>
		<path class="st2" d="M91.2,28.8c0.1-0.1,0.2-0.2,0.3-0.2c0.1-0.1,0.2-0.1,0.3-0.2c-0.3-0.4-0.7-0.8-1.1-1.4l1.6-1.1l0.5,0.7
			c0.2,0.3,0.4,0.6,0.5,0.8c0.1-0.1,0.2-0.2,0.3-0.2c0.1-0.1,0.2-0.1,0.3-0.2c-0.2-0.2-0.4-0.5-0.6-0.7l-0.5-0.7l1.4-1
			c0.5,0.6,0.7,1.1,0.9,1.5c0.1-0.1,0.2-0.2,0.3-0.2c0.1-0.1,0.2-0.1,0.3-0.2L94,23.3l-4.3,3L91.2,28.8z"/>
		<path class="st2" d="M81.3,17.7c0.1,0.1,0.1,0.2,0.2,0.2l2.5-2.8v1.2c0,1.3,0,2.5,0,3.9l0.5,0.4l3.6-4c-0.1-0.1-0.2-0.1-0.2-0.2
			c-0.1-0.1-0.2-0.1-0.2-0.2l-2.4,2.7c0-1.7,0-3.3-0.1-5l-0.6-0.5l-3.5,4C81.2,17.5,81.3,17.6,81.3,17.7z"/>
		<path class="st2" d="M72.1,11.9c0.1,0.1,0.2,0.1,0.4,0.2c0.1,0.1,0.2,0.1,0.3,0.2c0.2-0.1,0.5-0.4,0.8-0.5l1.1-0.7
			c0,0.7,0,1.5,0,2.2c0.2,0.1,0.4,0.2,0.6,0.3c0.2,0.1,0.4,0.2,0.6,0.3c0-1.1,0-2.1-0.1-3.2v-0.2c0.5-0.2,0.9-0.5,1.4-0.7l1.1-0.6
			c-0.1,0-0.2-0.1-0.4-0.2c-0.1-0.1-0.2-0.1-0.3-0.2c-0.7,0.4-1.3,0.8-1.9,1.1c0-0.7,0-1.4,0-2.1c-0.2-0.1-0.4-0.2-0.6-0.3
			c-0.2-0.1-0.4-0.2-0.6-0.3l0.1,3.3C73.8,11,73,11.4,72.1,11.9z"/>
		<path class="st2" d="M71.6,11.3c0-0.1,0.1-0.2,0.2-0.3c-0.5-0.1-1-0.3-1.7-0.6l0.7-1.8l0.7,0.3c0.3,0.1,0.6,0.3,0.9,0.4
			c0-0.1,0-0.2,0.1-0.3c0-0.1,0.1-0.2,0.2-0.3c-0.3-0.1-0.6-0.2-0.9-0.3L71,8.1l0.6-1.5c0.7,0.3,1.2,0.5,1.6,0.8
			c0-0.1,0-0.2,0.1-0.3c0-0.1,0.1-0.2,0.2-0.3l-2.7-1.1l-2,4.9l2.7,1.1C71.5,11.5,71.6,11.4,71.6,11.3z"/>
		<path class="st2" d="M67.8,9.7c0-0.1,0.1-0.2,0.1-0.3c-0.5-0.1-1.1-0.2-1.7-0.3l1.1-4.6c-0.2,0-0.4-0.1-0.6-0.1s-0.4-0.1-0.6-0.2
			l-1.2,5.1l2.8,0.7C67.8,9.9,67.8,9.8,67.8,9.7z"/>
		<path class="st2" d="M52.9,0C23.7,0,0,23.8,0,53.1s23.7,53.1,52.9,53.1s52.9-23.8,52.9-53.1S82.1,0,52.9,0z M52.9,105.1
			c-28.6,0-51.8-23.3-51.8-52s23.2-52,51.8-52s51.8,23.3,51.8,52S81.5,105.1,52.9,105.1z"/>
		<path class="st2" d="M60,8.3c0.2-0.5,0.5-1,0.8-1.5l1.8,0.3c0.1,0.5,0.2,1.1,0.3,1.7c0.2,0,0.4,0,0.7,0.1C63.8,8.9,64,9,64.3,9
			l-1.5-5.7c-0.1,0-0.2,0-0.3,0c-0.1,0-0.2,0-0.3-0.1l-3,5c0.1,0,0.3,0,0.4,0S59.8,8.2,60,8.3z M62,4.6l0.4,1.9L61,6.3L62,4.6z"/>
		<path class="st2" d="M76.7,14.3c0.1,0.1,0.2,0.2,0.3,0.2c0.4-0.3,0.9-0.6,1.4-1l1.4,1.1c-0.1,0.5-0.3,1.1-0.5,1.6
			c0.2,0.1,0.4,0.2,0.6,0.4c0.2,0.1,0.3,0.3,0.5,0.4l1.5-5.6c-0.1,0-0.2-0.1-0.2-0.2s-0.1-0.1-0.2-0.2l-5,3
			C76.5,14.1,76.6,14.2,76.7,14.3z M80.5,12.3L80,14.2l-1.2-0.9L80.5,12.3z"/>
		<path class="st2" d="M87.1,23.3c1.1,1.2,2.7,1.4,4,0.2c0.9-0.9,1.3-2.1,0.3-3.4l-1.8-2l-3.9,3.5L87.1,23.3z M90,19.3l0.5,0.6
			c0.7,0.8,0.8,1.7-0.3,2.7c-1.3,1.2-2.3,1-3,0.2l-0.5-0.5L90,19.3z"/>
		<path class="st2" d="M92,30.2c0.1,0.2,0.2,0.3,0.3,0.5l2.2-1.2l0,0c-0.2,0.3-0.4,0.7-0.5,0.9L93.1,32c0.1,0.2,0.3,0.4,0.4,0.6
			c0.1,0.2,0.2,0.4,0.3,0.6l0.3-0.5c0.4-0.8,0.8-1.5,1.2-2.3c0.5,0.5,1.2,0.7,1.8,0.4c0.5-0.3,0.6-0.6,0.6-1.1
			c0-0.4-0.3-0.9-0.5-1.2l-0.8-1.4l-4.6,2.7C91.8,29.9,91.9,30,92,30.2z M96.5,28.3c0.2,0.4,0.6,0.9,0.1,1.3
			c-0.1,0.1-0.2,0.2-0.3,0.2c-0.7,0.4-1.2,0.2-1.6-0.5L96.5,28.3z"/>
		<path class="st2" d="M95.1,36.6c0.1,0.2,0.1,0.4,0.2,0.6l2.2-0.8c0.5,1.3,1.1,2.2,2.4,1.7c0.8-0.3,1-1,0.7-2l-0.6-1.8L95,36
			C95,36.2,95.1,36.4,95.1,36.6z M99.9,35.5l0.2,0.5c0.1,0.4-0.2,0.8-0.7,1c-0.4,0.2-0.9,0.1-1.2-0.3c-0.1-0.1-0.2-0.3-0.2-0.5
			L99.9,35.5z"/>
		<path class="st2" d="M96.5,40.8c0,0.2,0.1,0.4,0.1,0.6l2.3-0.5c0.3,1.4,0.8,2.3,2.2,2c0.9-0.2,1.1-0.9,0.9-1.9l-0.4-1.9l-5.2,1.2
			C96.4,40.4,96.5,40.6,96.5,40.8z M101.4,40.3l0.1,0.5c0.1,0.4-0.2,0.8-0.8,0.9c-0.5,0.1-0.9,0-1.2-0.4c-0.1-0.2-0.1-0.3-0.2-0.5
			L101.4,40.3z"/>
		<path class="st2" d="M97.5,61.3c0,0.1-0.1,0.2-0.1,0.3c0.5,0.3,0.9,0.6,1.4,0.9l-0.4,1.8c-0.6,0.1-1.1,0.1-1.7,0.1
			c0,0.2-0.1,0.4-0.1,0.7c-0.1,0.2-0.1,0.4-0.2,0.6l5.7-0.8c0-0.1,0-0.2,0-0.3c0-0.1,0.1-0.2,0.1-0.3l-4.7-3.5
			C97.6,61.1,97.6,61.2,97.5,61.3z M99.3,62.9l1.6,1.1L99,64.2L99.3,62.9z"/>
		<path class="st2" d="M62.5,97.6c-0.2,0-0.4,0-0.6,0.1l0.4,2.5h-0.1c-0.2-0.3-0.5-0.6-0.6-0.8L60.4,98c-0.2,0.1-0.4,0.1-0.7,0.2
			c-0.2,0-0.5,0.1-0.7,0.1l0.4,0.4c0.6,0.6,1.2,1.3,1.7,1.9c-0.7,0.3-1.1,0.8-0.9,1.6c0.1,0.5,0.4,0.8,0.9,1c0.4,0.1,0.9,0,1.3-0.1
			l1.6-0.3l-0.9-5.3C62.8,97.5,62.7,97.6,62.5,97.6z M61.5,102.2c-0.1-0.2-0.1-0.3-0.1-0.4c-0.1-0.8,0.2-1.2,1-1.3l0.4,2.1
			C62.3,102.6,61.7,102.8,61.5,102.2z"/>
		<path class="st2" d="M56,98.5c-1.6,0.1-2.8,1.2-2.7,2.9c0.1,1.3,0.8,2.4,2.5,2.4l2.6-0.1l-0.3-5.3L56,98.5z M56.5,103.3
			c-1.1,0.1-1.8-0.5-1.9-1.9c-0.1-1.8,0.7-2.4,1.8-2.5h0.7l0.2,4.4H56.5z"/>
		<path class="st2" d="M42.9,97.5c-0.3,0.5-0.6,0.9-0.9,1.4l-1.8-0.4c-0.1-0.6-0.1-1.1-0.1-1.7c-0.2,0-0.4-0.1-0.7-0.1
			c-0.2-0.1-0.4-0.1-0.6-0.2l0.8,5.8c0.1,0,0.2,0,0.3,0.1c0.1,0,0.2,0.1,0.3,0.1l3.4-4.7c-0.1,0-0.2,0-0.4-0.1
			C43.2,97.6,43,97.5,42.9,97.5z M40.6,100.9L40.4,99l1.4,0.3L40.6,100.9z"/>
		<path class="st2" d="M30.3,92.6c-1.4-0.8-3-0.6-3.9,0.9c-0.7,1.1-0.7,2.4,0.7,3.3l2.3,1.4l2.7-4.5L30.3,92.6z M28.7,97.2L28,96.8
			c-0.9-0.6-1.2-1.4-0.5-2.7c0.9-1.6,1.9-1.6,2.8-1l0.6,0.3L28.7,97.2z"/>
		<path class="st2" d="M17,80.9c-1-1.3-2.6-1.6-4-0.6c-1,0.8-1.5,2-0.5,3.4l1.6,2.1l4.2-3.3L17,80.9z M13.8,84.6L13.3,84
			c-0.7-0.9-0.6-1.8,0.5-2.7c1.4-1.1,2.4-0.8,3,0l0.4,0.5L13.8,84.6z"/>
		<path class="st2" d="M8.6,63c0-0.2,0-0.4-0.1-0.6l-2.4,0.4v-0.1c0.3-0.2,0.6-0.5,0.8-0.6l1.4-1.2c-0.1-0.2-0.1-0.5-0.2-0.7
			C8.1,60,8,59.7,8,59.5l-0.4,0.4c-0.6,0.6-1.2,1.2-1.9,1.7c-0.3-0.7-0.8-1.1-1.6-1c-0.5,0.1-0.8,0.4-1,0.9c-0.1,0.4,0,0.9,0.1,1.3
			l0.3,1.6l5.2-0.9C8.7,63.4,8.6,63.2,8.6,63z M3.7,63.3c-0.1-0.5-0.2-1,0.4-1.3c0.2-0.1,0.3-0.1,0.4-0.1c0.8-0.1,1.2,0.2,1.3,1
			L3.7,63.3z"/>
		<path class="st2" d="M7.9,59.2c0-0.1,0-0.2,0-0.4c0-0.1,0-0.2,0-0.4c-0.5-0.1-1-0.3-1.6-0.5l-0.1-1.8c0.5-0.2,1-0.4,1.6-0.6
			c0-0.2-0.1-0.4-0.1-0.7c0-0.2,0-0.4,0-0.7l-5.3,2.4c0,0.1,0,0.2,0,0.3c0,0.1,0,0.2,0,0.3L7.9,59.2z M5.7,56.4l0.1,1.4L4,57.2
			L5.7,56.4z"/>
		<path class="st2" d="M7.6,50.9c0-0.2,0.1-0.4,0.1-0.6l-2.5-0.2V50c0.3-0.2,0.7-0.3,0.9-0.4l1.7-0.8c0-0.2,0-0.5,0-0.7
			s0.1-0.5,0.1-0.7l-0.5,0.3c-0.8,0.4-1.5,0.8-2.3,1.2c-0.1-0.7-0.5-1.3-1.3-1.3c-0.5,0-0.9,0.2-1.2,0.6c-0.2,0.3-0.2,0.9-0.2,1.2
			l-0.1,1.7l5.3,0.4C7.6,51.3,7.6,51.1,7.6,50.9z M4.9,50.1L2.8,50c0-0.5,0-1.1,0.7-1.1c0.2,0,0.3,0,0.4,0C4.6,48.9,5,49.3,4.9,50.1
			z"/>
		<path class="st2" d="M11.8,33.8c0.1-0.1,0.1-0.2,0.2-0.3c-0.4-0.4-0.7-0.8-1.2-1.2l0.8-1.6c0.6,0,1.1,0.1,1.7,0.2
			c0.1-0.2,0.2-0.4,0.3-0.6c0.1-0.2,0.2-0.4,0.3-0.6l-5.8-0.5c0,0.1-0.1,0.2-0.1,0.3s-0.1,0.2-0.2,0.3l3.8,4.4
			C11.7,34,11.8,33.9,11.8,33.8z M9.2,30.4l1.9,0.2l-0.6,1.3L9.2,30.4z"/>
		<path class="st2" d="M14.8,28.4c0.1-0.2,0.3-0.3,0.4-0.4l-2-1.5l0,0c0.3,0,0.8,0.1,1,0.1l1.9,0.2c0.1-0.2,0.2-0.4,0.4-0.6
			c0.1-0.2,0.3-0.4,0.5-0.5h-0.6c-0.9-0.1-1.7-0.1-2.6-0.2c0.3-0.7,0.2-1.3-0.4-1.8c-0.4-0.4-0.9-0.4-1.3-0.2
			c-0.3,0.2-0.7,0.6-0.9,0.9l-1,1.3l4.2,3.2C14.6,28.8,14.7,28.6,14.8,28.4z M11.2,25c0.3-0.4,0.6-0.9,1.2-0.6
			c0.1,0.1,0.2,0.1,0.3,0.2c0.6,0.5,0.7,1,0.2,1.6L11.2,25z"/>
		<path class="st2" d="M17,25.2c0.1-0.1,0.2-0.2,0.3-0.3c-0.3-0.5-0.5-0.9-0.8-1.5l1.2-1.3c0.5,0.2,1,0.4,1.6,0.7
			c0.1-0.2,0.3-0.4,0.4-0.5c0.1-0.2,0.3-0.3,0.5-0.5l-5.4-2c-0.1,0.1-0.1,0.2-0.2,0.2c-0.1,0.1-0.1,0.1-0.2,0.2l2.5,5.3
			C16.8,25.4,16.9,25.3,17,25.2z M15.4,21.2l1.8,0.7L16.3,23L15.4,21.2z"/>
		<path class="st2" d="M27,16c1.6-1.1,1.8-2.8,0.9-4.1c-0.7-1-2.1-1.9-3.9-0.6c-1.6,1.1-1.8,2.8-0.9,4.1C24.1,16.8,25.6,17,27,16z
			 M24.2,11.7c1-0.7,2,0,2.6,0.8c0.7,1.1,1,2.3,0,3c-1,0.7-1.9,0.1-2.5-0.8C23.3,13.4,23.3,12.3,24.2,11.7z"/>
		<path class="st2" d="M97,53.1C97,28.7,77.3,8.9,53,8.9S9,28.7,9,53.1s19.7,44.2,44,44.2C77.2,97.3,97,77.5,97,53.1z M52.9,96.2
			c-23.7,0-43-19.3-43-43.1S29.1,10,52.9,10c23.7,0,43,19.3,43,43.1S76.6,96.2,52.9,96.2z"/>
		<path class="st2" d="M57.3,23.8c1.9-0.5,3.3-1.3,4-2.3v-0.1l0.4-0.2c0.2-0.1,0.3-0.4,0.1-0.7l-0.2-0.3c0,0,0,0,0-0.1l0.1-0.8
			c1.1-1.5,2.8-2.6,4.3-3.7l-0.2-0.4c0,0-0.8,0.3-1.3,0.4c-0.3,0.1-0.6,0.1-0.9,0.1c-0.1-0.4-0.2-0.8-0.6-1
			c-0.9-0.6-2.4-0.2-2.1,1.1L61,16c0,0,0.3-0.1,0.5,0c0.1,0,0.2,0,0.3,0c0.3,0.2-0.3,1.3-1,1.3c-0.9-0.1-1.5-0.7-1.8-1.5
			c0.4-0.3,0.6-0.7,0.6-1.2c0-0.8-0.6-1.4-1.4-1.4s-1.4,0.6-1.4,1.4c0,0.4,0.2,0.8,0.5,1c0,0,0,0.1-0.1,0.2c-0.2,0.5-0.7,1-1.3,1
			c-1.5,0-1.5-2.3,0-2.2c0.2,0,0.6,0.2,0.6,0.2l-0.2-0.5c0,0,0-0.1-0.1-0.3c-0.2-0.8-0.8-1.4-1.7-1.4c0,0-0.4-1.4-1-2.2
			c-0.5,0.5-1,2.2-1,2.2c-0.9,0-1.5,0.6-1.7,1.4c-0.1,0.2-0.1,0.3-0.1,0.3l-0.1,0.5c0,0,0.4-0.2,0.6-0.2c1.5-0.1,1.5,2.3,0,2.2
			c-0.6,0-1-0.5-1.3-1c0-0.1-0.1-0.1-0.1-0.2c0.3-0.3,0.5-0.6,0.5-1c0-0.8-0.6-1.4-1.4-1.4c-0.8,0-1.4,0.6-1.4,1.4
			c0,0.5,0.3,0.9,0.6,1.2c-0.1,0.8-0.8,1.5-1.7,1.5c-0.7,0-1.3-1-1-1.3c0.1,0,0.2,0,0.3,0s0.4,0.1,0.4,0.1l0.1-0.3
			c0.3-1.3-1.2-1.6-2.1-1.1c-0.3,0.2-0.5,0.6-0.6,1c-0.3,0-0.6,0-0.9-0.1c-0.5-0.1-1.3-0.4-1.3-0.4L41,15.6c1.5,1.1,3.2,2.2,4.3,3.7
			l0.1,0.7l-0.1,0.1l-0.2,0.4c-0.1,0.2,0,0.5,0.2,0.7l0.5,0.3v0.1c0.7,1,2.2,1.8,4,2.2L37.1,36.6l16.5,16.6L70,36.6L57.3,23.8z
			 M41.5,40l-3.4-3.4l3.4-3.4V40z M48.3,46.9L45,43.6V29.7l3.3-3.3V46.9z M60.5,20.2c-0.2,0.1-0.3,0.5-0.1,0.7
			c-0.9-0.4-1.8-0.7-2.9-0.9l0.4-0.2c0.2-0.1,0.3-0.4,0.2-0.7L58,18.9c1.1,0.2,2.1,0.6,2.9,1L60.5,20.2z M45.8,19.2L45.8,19.2
			c-0.9-1.3-2.3-2.3-3.4-3.2c0.3,0.1,0.6,0.2,1,0.2s0.4,0,0.6,0c0-0.1,0-0.2,0-0.2s0.1-0.7,0.3-0.8c0.4-0.3,1.4-0.3,1.4,0.4h-0.1
			c-0.1,0-0.2,0-0.3,0c-1.1,0.2-0.2,2.3,1.1,2.2c1-0.1,1.7-0.7,2.1-1.5c0.1-0.3,0.2-0.7,0.2-0.7c-0.4-0.1-0.7-0.5-0.7-0.9
			c0-0.5,0.4-0.9,0.9-0.9s0.9,0.4,0.9,0.9c0,0.3-0.2,0.6-0.4,0.8l-0.1,0.1c0,0,0.1,0.2,0.1,0.3c0.3,0.7,0.9,1.5,1.8,1.5
			c2.1,0.1,2.1-3.1,0.1-3.2c0.1-0.4,0.5-1,1.4-1h0.2c0,0,0.4-1.4,0.7-1.9c0.4,0.7,0.7,1.9,0.7,1.9h0.2c0.9,0,1.2,0.6,1.4,1
			c-2,0.1-2.1,3.2,0.1,3.2c0.8,0,1.5-0.8,1.8-1.5c0-0.1,0.1-0.3,0.1-0.3l-0.1-0.1c-0.3-0.2-0.4-0.5-0.4-0.8c0-0.5,0.4-0.9,0.9-0.9
			s0.9,0.4,0.9,0.9c0,0.4-0.3,0.8-0.7,0.9c0,0,0.1,0.5,0.2,0.7c0.4,0.9,1.1,1.5,2.1,1.5c1.3,0.1,2.2-2,1.1-2.2c-0.1,0-0.2,0-0.3,0
			h-0.1c0-0.7,1-0.6,1.4-0.4c0.3,0.2,0.3,0.8,0.4,0.8v0.2c0,0,0.1,0,0.2,0c0,0,0.2,0,0.4,0c0.2,0,0.5,0,0.8-0.1
			c-1.2,0.9-2.4,1.8-3.2,3v0.1v0.4c-2-1-4.7-1.6-7.7-1.6s-5.7,0.6-7.7,1.6L45.8,19.2z M54.1,18.6L54.1,18.6c0.9-0.1,1.8,0,2.7,0.1
			h-0.1c-0.2,0.1-0.3,0.4-0.2,0.7l0.2,0.4c-0.9-0.2-1.9-0.3-2.9-0.3l0.3-0.3C54.3,19,54.3,18.7,54.1,18.6z M50.5,18.8L50.5,18.8
			c0.7-0.2,1.6-0.3,2.4-0.3l-0.2,0.2c-0.2,0.2-0.1,0.5,0.1,0.7l0.3,0.2c-0.9,0-1.8,0.1-2.6,0.3l0.2-0.4
			C50.8,19.2,50.7,18.9,50.5,18.8z M46.1,20c0.9-0.5,2-0.8,3.2-1.1l-0.1,0.2c-0.1,0.2-0.1,0.5,0.2,0.7l0.3,0.2
			c-1.1,0.3-2.2,0.6-3.1,1l0.1-0.1c0.1-0.2,0-0.5-0.2-0.7L46.1,20z M50.2,23.4c-1.7-0.4-3-1-3.8-1.8c0.1-0.1,0.3-0.1,0.4-0.2
			c1,0.7,2.3,1.2,3.9,1.5L50.2,23.4z M55.3,50.4l-1.8,1.8l-1.8-1.8V22.9l1.8-1.8l1.8,1.8V50.4z M53.6,20.1l-2.4,2.4
			c-1.5-0.2-2.8-0.7-3.8-1.3C49.1,20.5,51.3,20,53.6,20.1c2.4,0,4.5,0.4,6.2,1.1c-1,0.6-2.3,1.1-3.9,1.3L53.6,20.1z M56.4,22.9
			c1.6-0.3,3-0.8,4-1.5c0.1,0.1,0.3,0.1,0.4,0.2c-0.7,0.8-2.1,1.5-3.8,1.9L56.4,22.9z M62.1,43.6l-3.3,3.3V26.4l3.3,3.3V43.6z
			 M65.6,33.2l3.4,3.4L65.6,40V33.2z"/>
		<rect x="72.8" y="64.3" class="st2" width="0.2" height="1.1"/>
		<rect x="70.2" y="64.3" class="st2" width="0.2" height="1.1"/>
		<rect x="71.4" y="62.4" class="st2" width="0.3" height="1.5"/>
		<rect x="67.1" y="57.3" class="st2" width="0.2" height="1.1"/>
		<rect x="64.5" y="57.3" class="st2" width="0.2" height="1.1"/>
		<path class="st2" d="M87.6,47.2h-0.5c-1.5-0.1-4-0.5-4,1.8c1.1-0.3,1.5,0.8,0.2,0.8c-0.6,0-0.7-0.9-0.7-1.3
			c0.5-0.5,0.7-1.5-0.3-1.5c-0.2,0-0.5,0.2-0.8,0.4c-0.1-0.4-0.3-0.6-0.7-0.8c0-0.6-0.1-1.2-0.6-1.5c-0.5,0.3-0.9,0.7-1,1.3
			c-0.6,0-1.1,0.3-1.1,1v0.2h0.2c1.9,0,0.1,2.8-0.6-0.1c1.2-0.6-0.3-2.3-1-1.3c-0.4,0.5-0.2,1,0.2,1.3c-0.1,1.7-2.3,1.3-2.3,0.2
			c0-1.5,0.8-0.2,1.1,0.3l0.2-0.3c0.5-0.8,0.7-3.1-0.9-2.4c0-0.5-0.3-1.6-0.9-1.8c-0.6,0.4-0.8,1.1-0.8,1.7c-0.8-0.3-1.3,0.3-1.2,1
			v0.3c0.1,0.7,0.2,1.2,0.4,1.8l0.2-0.6c0.2-0.7,0.8-1.2,0.9,0c0,0.4-1.6,1.9-2.3-0.3c1.1-0.6-0.4-2.4-1.2-1.1
			C70,46.5,70,46.7,70,46.9c-0.2-0.4-0.6-0.7-1-0.7c-0.1-0.5-0.5-1.2-1-1.3c-0.5,0.3-0.6,1.1-0.5,1.6L67,46.8
			c-0.1,0.2-0.2,0.4-0.2,0.6c-0.1-0.3-0.3-0.5-0.7-0.5c-1,0-1.1,1.3-0.3,1.6c0,0.4-0.1,0.7-0.3,1c-0.4,0.9-2.1-0.9-0.8-0.8
			c0.1,0,0.2,0.1,0.2,0.2c0.2,0.2,0.6,0.3,0.4-0.2c0-0.1-0.1-0.1-0.1-0.2l-0.1-0.1L65,48.2c-0.6-1.5-2.6-1.2-3.9-1l0,0l0,0l-0.2,0.3
			c1.3,0.8,2.5,2.1,2.4,3.8h-0.1c-0.3,0.1-0.3,0.5,0,0.6c0,0-0.1,0-0.1,0.1l0,0.3c-0.2,0.2-0.2,0.5,0,0.7l0.4,0.4
			c0.1,0.1,0.2,0.1,0.2,0.1l-0.4,0.1h-0.4c0,0,0,11.7,0,18.9c0,3.3,0.3,4.5,2.2,6.6c2,2.3,5.1,4,5.9,4.4c0.7,0.3,2.4,1.1,3.3,1.1
			c2,0,6.1-2.8,7.5-4.1c1.3-1.1,2.4-2.6,3.1-3.8l0,0c0.2-0.3,0.3-0.7,0.4-1.1c0.1-0.2,0.1-0.5,0.2-0.7l0,0V53.7h-0.3l-0.3-0.1
			c0.1,0,0.2-0.1,0.3-0.1l0.4-0.4c0.2-0.2,0.2-0.5,0-0.7L85.2,52l-0.1-0.1c0.2-0.1,0.3-0.5,0-0.6C84.5,49.6,86.6,47.9,87.6,47.2z
			 M81.3,47.9c0.2,0.1,0.4,0.2,0.5,0.4c0,0.3-0.5,0.7-0.8,0.7c-0.4,0-1.4-1.1,0.1-1.2l0,0h0.1L81.3,47.9z M77.2,46.3
			c0.3-0.4,1.3,0.5,0.3,0.8C77.2,47,76.9,46.7,77.2,46.3z M70.7,46.5c0.4-0.7,1.3,0.3,0.4,0.7C70.9,47,70.5,46.8,70.7,46.5z
			 M70.2,47.5h0.2v-0.2c0-0.1,0-0.2-0.1-0.3c0.1,0.2,0.2,0.3,0.4,0.4c0,1.6-0.8,1.5-1.2,1.1C69.1,48.2,68.9,47.5,70.2,47.5z
			 M67,48.1c0.5-0.3,1.3-0.6,1.3,0.3c0,0.9-1.3,0.8-1.4-0.1C66.9,48.3,66.9,48.2,67,48.1z M63.8,75.4c-0.2-0.9-0.3-1.8-0.3-2.9V68
			h0.3V75.4L63.8,75.4z M65,78c-0.2-0.3-0.4-0.6-0.6-0.9v-9.2H65V78z M66.2,79.4c-0.2-0.2-0.4-0.4-0.6-0.6V68h0.6V79.4z M67.5,80.6
			c-0.2-0.2-0.4-0.3-0.6-0.5V68h0.6V80.6z M68.7,81.4c-0.2-0.1-0.3-0.2-0.5-0.4V68h0.5v0.1C68.7,68,68.7,81.4,68.7,81.4z M68.7,67.7
			h-5.2v-6.8h5.2v-0.2l0,0v-6.4h5.5v6.6h-5.5V67.7z M73.3,51.5l0.4,0.4l0,0c-1.3,0-2.7,0.1-4.1,0.3l0.3-0.3c0.2-0.2,0.2-0.5,0-0.7
			l-0.4-0.4c-0.1-0.1-0.2-0.1-0.3-0.1c1.5-0.2,3.1-0.3,4.6-0.4c-0.1,0-0.2,0.1-0.2,0.1l-0.4,0.4C73.1,51,73.1,51.3,73.3,51.5z
			 M74,52.6c1.8,0,4,0,5.5,0.3c1.2,0.2,2.6,0.5,3.9,0.8H65.6C68.4,53,71.2,52.6,74,52.6z M79,51.9l0.3,0.3c-1.4-0.2-3.4-0.2-5-0.2
			l0,0l0.4-0.4c0.2-0.2,0.2-0.5,0-0.7l-0.4-0.4c-0.1-0.1-0.2-0.1-0.3-0.1c0.2,0,0.3,0,0.5,0c1.9,0,3.6,0.1,5.1,0.3
			c-0.1,0-0.2,0.1-0.3,0.1L79,51.2C78.8,51.4,78.8,51.7,79,51.9z M82.5,60.9l2.4-5.9v11.9L82.5,60.9z M84.8,67.3v0.3h-0.3v-1.1
			L84.8,67.3z M83.9,65.1v2.6h-0.6v-4.2L83.9,65.1z M79.7,67.2V54.6l2.5,6.3L79.7,67.2z M81.5,63.2v4.5h-0.6v-2.9L81.5,63.2z
			 M80.3,66.3v1.4h-0.6L80.3,66.3z M79.8,54.3h0.5v1.2L79.8,54.3z M80.9,57v-2.7h0.6v4.3L80.9,57z M82.1,60.1v-5.8h0.5v5.6l-0.3,0.8
			L82.1,60.1z M82.1,61.7l0.2-0.5l0.3,0.8v5.7h-0.5V61.7L82.1,61.7z M83.3,58.3v-4h0.6v2.5L83.3,58.3z M84.5,55.2v-1h0.3v0.2
			L84.5,55.2z M84.4,51.9L84,52.3c-0.2,0.2-0.2,0.5,0,0.7l0.3,0.3c-1.3-0.5-2.9-0.8-4.3-1c0,0,0,0,0.1-0.1l0.4-0.4
			c0.2-0.2,0.2-0.5,0-0.7l-0.4-0.4c-0.1-0.1-0.1-0.1-0.2-0.1c1.8,0.3,3.3,0.7,4.7,1.1C84.5,51.8,84.4,51.9,84.4,51.9z M76.9,71.5
			c-0.2,0-0.4,0.2-0.4,0.2v2.5h-1.7v-0.7h0.4v-4h0.7v1h0.3v-2.1h1.3v2.1h0.4v-1h0.6v4H79v0.7h-1.7v-2.5
			C77.3,71.7,77.2,71.5,76.9,71.5z M75.4,67.7V54.3H76v13.4H75.4L75.4,67.7z M76.7,67.7V54.3h0.6v13.4H76.7L76.7,67.7z M77.9,67.7
			V54.3h0.6v13.4H77.9L77.9,67.7z M74.8,54.3v13.4h-0.4V54.3H74.8z M68.5,51.9l0.4,0.4c0,0,0.1,0,0.1,0.1c-1.6,0.2-3.2,0.6-4.7,1
			l0.4-0.4c0.2-0.2,0.2-0.5,0-0.7l-0.4-0.4c-0.1-0.1-0.2-0.1-0.3-0.1c1.5-0.5,3.2-0.8,5-1.1c-0.1,0-0.1,0.1-0.1,0.1l-0.4,0.4
			C68.3,51.4,68.3,51.7,68.5,51.9z M64.3,59.7v-4H65v1h0.3v-2.1h1.3v2.1H67v-1h0.6v4H68v0.7h-1.7v-2.5c0,0-0.1-0.2-0.3-0.2
			c-0.2,0-0.4,0.2-0.4,0.2v2.5h-1.7v-0.7H64.3z M71.6,74.9l2.5-6.4v6.4c0,1-0.6,2.1-1.3,3.2L71.6,74.9z M72.7,78.2
			c-0.1,0.1-0.2,0.3-0.3,0.4v-1.2L72.7,78.2z M69.5,67.3v-0.7H70v-4h0.7v1H71v-2.1h1.3v2.1h0.4v-1h0.6v4h0.4v0.7H72v-2.5
			c0,0-0.1-0.2-0.3-0.2c-0.2,0-0.4,0.2-0.4,0.2v2.5H69.5z M70.6,68v4.5L70,70.9c0-0.5,0-2.6,0-2.9H70.6L70.6,68z M74,68v0.4l-0.4,1
			c0-0.4,0-1.2,0-1.4H74L74,68L74,68z M73,68v2.9l-0.6,1.5c0-0.7,0-4,0-4.4H73L73,68z M71.2,68h0.6v6l-0.3,0.8l-0.3-0.7
			C71.2,74.1,71.2,68,71.2,68z M71.8,75.9v3.5c-0.2,0.2-0.4,0.4-0.6,0.6v-4.1l0.3-0.7L71.8,75.9z M69.4,68v1.3L68.9,68v-0.1L69.4,68
			L69.4,68z M68.8,68.5l2.6,6.5l-2.6,6.3V68.5z M70.6,77.4v3.1c-0.2,0.2-0.4,0.3-0.6,0.5v-2.1L70.6,77.4z M68.9,81.6l0.5-1.2v1
			C69.2,81.5,69.1,81.6,68.9,81.6L68.9,81.6z M74.2,84c-0.7,0-2.2-0.6-3-1c-0.3-0.2-1.1-0.6-2.1-1.3c2.1-1.2,4.6-3.8,5.1-6.2
			c0.4,1.7,1.9,3.7,3.4,5.1c0.1,0.1,0.2,0.2,0.3,0.2c0.4,0.4,0.8,0.7,1.2,0.9C77.4,82.9,75.4,84,74.2,84z M79.5,81.5l-0.3,0.2
			c-0.3-0.2-0.7-0.5-1.1-0.8c0.1,0,0.1-0.1,0.2-0.1c0.4-0.3,0.1-0.6,0.1-1.2s0.2-1.9,0.3-2.2c0.2,0,0.3-0.2,0.3-0.3
			c0-0.1-0.1-0.3-0.1-0.6c0-0.3,0.1-0.4,0.1-0.4s-0.6,0-0.8,1.3c-0.2,1.3-0.6,0.9-0.5,0.2c0.1-0.7,0.6-1.8,0.3-2.1
			c-0.2-0.3-0.7,0.2-0.9-0.1c0,0.5-0.2,0.5-0.3,0.6c-0.1,0.1-0.5,0.1-0.5,0.3c0,0.2,0.1,0.1,0.1,0.2s-0.2,0.1-0.2,0.3
			c0,0.1,0.2,0.3,0.2,0.5s-0.2,0.2-0.5-0.2c-0.2-0.4-0.7-1.1-0.8-0.9c-0.2,0.2,0.1,0.5,0.1,0.6s0.3,0.8-0.1,1c-0.6-0.9-1-1.9-1-2.7
			h5.2L79.5,81.5L79.5,81.5z M79.6,67.7h-0.4V54.3h0.4V67.7z M83.9,77.2c-0.4,0.5-0.8,1.1-1.3,1.7v-0.3c0,0-0.1-0.2-0.3-0.2
			c-0.2,0-0.4,0.2-0.4,0.2v1.1c-0.2,0.2-0.3,0.3-0.5,0.5c-0.3,0.2-0.6,0.5-1.1,0.9h-0.1v-0.7h0.4v-4h0.7v1h0.3v-2.1h1.3v2h0.4v-1
			h0.6V77.2L83.9,77.2z M84.8,74.9h-5.3v-0.3v-0.2v0.2v-6.7h5.3V74.9z M84.6,51.1c-2.7-0.9-5.9-1.5-10-1.5c-3.5,0-7.4,0.6-10.5,1.5
			c0-1.5-0.9-2.8-2.1-3.6c1.1-0.2,2.6-0.3,3.1,0.9H65c-2.1-0.2,0.1,3.2,1.1,1.3c0.2-0.5,0.3-1,0.3-1.5c-0.7-0.1-0.8-0.9-0.1-0.9
			c0.5,0,0.4,0.7,0.2,0.9c0.2,1.7,2.2,1.7,2.2,0.3c0-0.9-0.7-1.1-1.3-0.9c0-0.2,0.1-0.3,0.2-0.5l0.6-0.3c0-0.3,0-1.1,0.2-1.4
			c0.4,0.2,0.6,0.9,0.6,1.3c0.4-0.1,0.9,0,1.1,0.5c-1.5,0.1-1.3,1.2-0.7,1.7c0.7,0.6,1.8,0.4,1.8-1.5c0.9,3.1,3.1,1.2,3.1,0.4
			c-0.1-1-0.8-1.6-1.4-0.7l-0.1-0.6c0-0.2-0.1-0.5-0.1-0.5c0-0.3,0.4-0.7,0.9-0.3l0.3,0.3c0-0.6,0-1.6,0.5-2
			c0.3,0.4,0.5,1.4,0.5,1.9l0.3-0.1c1.3-0.7,1.1,0.8,0.9,1.5c-0.6-0.9-1.4-0.8-1.4,0.5c0,1.5,2.9,2,3.1-0.1c0.9,3.8,3.7-0.2,1.2-0.4
			c0.1-0.4,0.4-0.5,0.8-0.5H80v-0.2c0-0.4,0.3-0.9,0.6-1.1c0.3,0.3,0.2,0.9,0.2,1.3c0.4,0.2,0.7,0.3,0.7,0.7h-0.1
			c-1.6,0.1-1.7,2-0.2,2c1,0,1.8-1.2,0.7-1.8c0.2-0.1,0.5-0.4,0.7-0.4c0.7,0,0.2,0.7,0,0.9v0.1c0,0.7,0.2,1.8,1.1,1.8
			c1.7,0,1.3-1.8,0.2-1.7c0.2-1.2,2.2-1,3.1-0.9C85.7,48.2,84.3,49.7,84.6,51.1z"/>
		<rect x="65.7" y="55.5" class="st2" width="0.3" height="1.5"/>
		<rect x="78.1" y="71.1" class="st2" width="0.2" height="1.1"/>
		<rect x="75.5" y="71.1" class="st2" width="0.2" height="1.1"/>
		<rect x="76.7" y="69.3" class="st2" width="0.3" height="1.5"/>
		<path class="st2" d="M39.1,53.3c0.3-0.5,0.7-0.8,1.2-1c-0.2-0.4-0.4-0.7-0.8-0.8c-0.1,0-0.2,0-0.2,0c0.3-0.7,0.2-1.3,0.1-2
			c0.2,0.1,0.4-0.3,0.1-0.4c0,0-0.1,0-0.2-0.1v-0.1c0-0.3,0-0.6,0-0.6c0-0.2,0.3-0.6,0.4-0.7c0.2-0.3,0.9-0.7,1.2-0.8l-0.2-0.2
			c0,0-0.1,0-0.2-0.1c-0.6-0.3-1.1-0.5-1.6,0l0,0c-0.1-0.1-0.2-0.2-0.3-0.3l0,0c-0.2-0.7-0.6-1.5-1.2-2.1c0-0.3-0.1-1.1-0.1-1.2
			c0.2-0.3,0.6-0.6,0.9-0.7c0.1-0.1,0.4-0.1,0.4-0.1c-0.1-0.5-0.3-0.8-0.9-0.8c-0.3,0-0.6,0.1-0.7,0.2c-0.4-1-0.8-0.7-1.4-0.5
			c0-0.3-0.2-0.5-0.4-0.6v-0.1c-0.4-0.8-1.1-1.4-2-1.6c0.1-0.1,0.1-0.2,0.1-0.4c0-0.3-0.2-0.6-0.5-0.7v-0.4h0.6c0.3,0,0.3-0.4,0-0.4
			h-0.6v-0.7c0-0.3-0.4-0.3-0.4,0v0.7h-0.6c-0.3,0-0.3,0.4,0,0.4h0.6v0.4c-0.3,0.1-0.5,0.4-0.5,0.7c0,0.1,0,0.3,0.1,0.4
			c-0.9,0.2-1.7,0.8-2,1.7c-0.3,0.1-0.5,0.3-0.5,0.6c-0.6-0.3-1-0.6-1.4,0.4c-0.2-0.1-0.4-0.2-0.7-0.2c-0.4,0-0.7,0.2-0.8,0.5
			c0,0.1-0.1,0.3-0.1,0.3c0.5,0.1,1.1,0.4,1.3,0.9c0,0.1,0,0.9-0.1,1.2c-0.6,0.5-1,1.3-1.2,2.1c-0.1,0.1-0.2,0.1-0.2,0.3l0,0
			c-0.5-0.5-1.1-0.3-1.6,0c-0.2,0.1-0.2,0.1-0.2,0.1l-0.2,0.2c0.3,0.2,1,0.6,1.2,0.8c0.1,0.1,0.4,0.5,0.4,0.7c0,0,0,0.3,0,0.6V49
			c-0.1,0-0.1,0-0.1,0c-0.2,0.1-0.1,0.4,0.1,0.4c-0.1,0.7-0.1,1.4,0.1,2.1c-0.1,0-0.2,0-0.3,0c-0.5,0.1-0.6,0.4-0.8,0.8
			c0.5,0.2,0.9,0.5,1.2,1c0.1,0.2,0.4,0.9,0.4,1.1h-5.6v19.2c0,0.9,0,1.9,0.3,2.8c1.1,3.8,4.9,6.5,8.3,8c1.4,0.6,2.3,0.9,2.3,0.9
			l0.4,0.1l0.4-0.1c2.3-0.7,5.1-2.2,6.9-3.7c2.3-2,3.8-4,3.9-7c0-0.6,0-1,0-1V54.3h-4.7C38.8,54.1,39,53.5,39.1,53.3z M23,75.7h-1.4
			l-0.1-0.3c0.1-0.2,0.3-0.4,0.3-0.4s-0.3-0.3-0.3-0.4c-0.1-0.1-0.1-0.2-0.1-0.3c0-0.1,0-0.4,0.7-0.4s0.7,0.2,0.7,0.4
			c0,0.3-0.4,0.7-0.4,0.7l0.5,0.6L23,75.7L23,75.7z M23,67.6h-1.6v-0.1c0-0.1,0.5-0.6,0.5-0.6s-0.3-0.3-0.3-0.4
			c-0.1-0.1-0.1-0.2-0.1-0.3c0-0.1,0-0.4,0.7-0.4s0.7,0.2,0.7,0.4c0,0.3-0.4,0.7-0.4,0.7l0.5,0.6C23,67.5,23,67.6,23,67.6z
			 M23.1,56.9h-1.6v-0.1c0-0.1,0.5-0.6,0.5-0.6s-0.3-0.3-0.3-0.4s-0.1-0.2-0.1-0.3c0-0.1,0-0.4,0.7-0.4s0.7,0.2,0.7,0.4
			c0,0.3-0.4,0.7-0.4,0.7l0.5,0.6L23.1,56.9L23.1,56.9z M35.3,41.6h0.4c0.3,0,0.4,0.2,0.4,0.5C36.1,42.6,35.4,42.4,35.3,41.6
			C35.3,41.6,35.3,41.6,35.3,41.6L35.3,41.6z M35,40.7c0.1,0,0.3,0.1,0.3,0.3c0,0.1-0.1,0.3-0.3,0.3s-0.3-0.1-0.3-0.3
			C34.7,40.9,34.8,40.7,35,40.7z M32.5,38c0.2,0,0.3,0.1,0.3,0.3s-0.1,0.3-0.3,0.3s-0.3-0.1-0.3-0.3C32.3,38.1,32.4,38,32.5,38z
			 M32.6,39.1c1,0,1.8,0.6,2.2,1.3c-0.2,0.1-0.4,0.3-0.4,0.5c-0.2-0.4-0.5-0.6-1-0.7c0-0.4-0.2-0.8-0.5-1
			C32.8,39.2,32.7,39.1,32.6,39.1c-0.4,0.2-0.6,0.6-0.6,1.1c-0.6,0-0.9,0.3-1,0.7c0-0.2-0.2-0.4-0.4-0.5
			C30.8,39.6,31.6,39.1,32.6,39.1z M34.5,41.4c-0.1,0.3-0.3,0.6-0.7,0.6c-0.5,0-0.6-0.3-0.6-0.4c0-0.1,0.1-0.3,0.2-0.4
			C33.7,41.2,34.1,41.3,34.5,41.4L34.5,41.4z M31.9,41.7c0,0.1,0,0.4-0.6,0.4c-0.4,0-0.6-0.3-0.7-0.6l0,0l0.2-0.1
			C31.2,41.3,31.9,41.2,31.9,41.7z M30.1,40.7c0.1,0,0.3,0.1,0.3,0.3c0,0.1-0.1,0.3-0.3,0.3c-0.1,0-0.3-0.1-0.3-0.3
			C29.9,40.9,30,40.7,30.1,40.7z M29.3,41.6h0.4c0,0,0.1,0,0.1,0.1C29.7,42.3,29,42.5,29,42C29,41.8,29.1,41.6,29.3,41.6z M27,41.8
			c0.1-0.1,0.2-0.2,0.4-0.2s0.5,0.1,0.6,0.3l0.3,0.4c0-0.2,0.3-1.4,0.7-1.1l0,0c-0.4,0.1-0.4,0.5-0.5,0.8c0,0.9,1.3,0.9,1.6-0.3h0.1
			c0.2,0.4,0.5,0.7,1,0.7c0.8,0,0.9-0.5,0.9-0.8c0-0.6-0.6-0.8-1.1-0.8c0.2-0.2,0.4-0.3,0.7-0.3c0.1,0,0.3,0,0.3,0
			c0-0.4,0-0.8,0.3-1c0.3,0.2,0.4,0.7,0.3,1c0.4,0,0.8,0,1,0.3c-0.5,0-1.1,0.1-1.1,0.8c0,0.3,0.1,0.8,0.9,0.8c0.5,0,0.8-0.3,1-0.7
			l0,0h0.1c0.1,0.4,0.3,0.7,0.7,0.8c1.2,0.3,1.1-1.1,0.5-1.4l0,0c0.3-0.2,0.5,0.3,0.6,0.5c0,0.1,0.2,0.6,0.2,0.6
			c0.2-0.3,0.4-0.6,0.9-0.6c0.2,0,0.3,0.1,0.4,0.2c-0.2,0.1-0.4,0.2-0.6,0.4c-0.6,0.5-0.6,0.7-0.5,1.3c-1.3-0.4-3.1-0.6-4.4-0.6
			c-2.1,0-3.8,0.4-4.4,0.6c0-0.2,0-0.4,0-0.6C28.2,42.4,27.4,41.9,27,41.8z M27.8,44.5c0.1-0.1,0.3-0.3,0.3-0.3v-0.4
			c1.3-0.4,3.1-0.6,4.4-0.6c1.3,0,2.4,0.2,3.2,0.3c0.6,0.1,1,0.3,1.2,0.3c0,0.2,0,0.4,0,0.4c0.5,0.4,0.9,1.1,1.1,1.8
			c-0.5,0-1,0.7-0.5,1.1c0.1,0.1,0.2,0.2,0.2,0.4l0,0c-0.1,0.4-0.7,0.4-0.7,0v-0.2h-0.3l0,0c-0.1,0.1-0.2,0.2-0.3,0.2
			c-0.3-0.1-0.4-0.3-0.3-0.5c0.1-0.3,0.5-0.4,0.7-0.2c0.1,0.1,0.3,0.3,0.3,0.3c0.1-0.6,0.1-1-0.5-1.4h-0.1c0-0.3,0-0.8-0.3-1.1
			l-0.1-0.1H36c-0.3,0.1-0.6,0.6-0.7,0.9h-0.1c-0.7,0.1-0.8,0.5-1,1.1c0,0,0.2-0.2,0.4-0.2c0.2-0.1,0.6,0.1,0.6,0.4
			c0,0.2-0.2,0.4-0.5,0.3c-0.2,0-0.2-0.2-0.2-0.3l0,0L34,46.8h-0.2l0,0c0,0.1-0.1,0.3-0.3,0.3c-0.3,0-0.4-0.2-0.4-0.4
			c0-0.3,0.4-0.5,0.6-0.3c0.1,0.1,0.3,0.3,0.3,0.3c-0.1-0.6-0.1-1-0.8-1.3h-0.1c0-0.3-0.2-0.8-0.5-1h-0.1h-0.1
			c-0.3,0.2-0.5,0.7-0.5,1h-0.1c-0.7,0.2-0.7,0.6-0.8,1.3c0,0,0.2-0.2,0.3-0.3c0.2-0.1,0.6,0,0.6,0.3c0,0.2-0.1,0.4-0.4,0.4
			c-0.2,0-0.3-0.1-0.3-0.3l0,0H31h-0.2l0,0c0,0.2-0.1,0.3-0.2,0.3c-0.3,0.1-0.5-0.1-0.5-0.3c-0.1-0.3,0.3-0.5,0.6-0.4
			c0.2,0,0.4,0.2,0.4,0.2c-0.2-0.6-0.3-1-1-1.1H30c-0.1-0.3-0.3-0.8-0.7-0.9h-0.1l-0.1,0.1c-0.3,0.2-0.4,0.7-0.3,1.1h-0.1
			c-0.6,0.3-0.6,0.7-0.5,1.4c0,0,0.1-0.2,0.3-0.3c0.2-0.2,0.6-0.1,0.7,0.2c0,0.2,0,0.4-0.3,0.5c-0.2,0-0.3-0.1-0.3-0.2l0,0l-0.5-0.1
			v0.2c0,0.4-0.6,0.5-0.7,0l0,0c0-0.1,0.1-0.3,0.2-0.4c0.5-0.4,0-1.1-0.5-1.1C27.2,45.5,27.5,44.9,27.8,44.5z M25.7,47.3
			c-0.2-0.2-0.5-0.4-0.7-0.5h-0.1c0.5-0.2,0.9-0.4,1.3,0.1h0.3c0,0,0.1-0.2,0.2-0.3c0.4-0.4,0.8,0.1,0.6,0.3
			c-0.1,0.1-0.2,0.3-0.3,0.4c0,0.1-0.1,0.2-0.1,0.2l0,0c0,0.8,1.2,1,1.4,0.2c0.1,0.1,0.3,0.1,0.5,0.1c0.6-0.1,0.7-0.6,0.7-0.9
			c-0.1-0.5-0.5-0.7-0.9-0.6c0.1-0.3,0.4-0.3,0.7-0.4v-0.2c0-0.3,0-0.6,0.1-0.8c0.2,0.2,0.3,0.4,0.4,0.7v0.2c0.3,0,0.5,0,0.8,0.2
			c-0.4,0.1-0.8,0.3-0.7,0.8c0.1,0.4,0.3,0.8,0.9,0.7c0.2,0,0.3-0.1,0.4-0.2c0.1,0.1,0.3,0.2,0.5,0.2c0.6,0,0.8-0.4,0.8-0.8
			c0-0.5-0.4-0.7-0.8-0.7c0.2-0.3,0.4-0.3,0.7-0.3v-0.2c0-0.3,0.1-0.6,0.2-0.7c0.2,0.2,0.2,0.5,0.2,0.7v0.2c0.3,0,0.5,0.1,0.7,0.3
			c-0.4,0-0.8,0.2-0.8,0.7c0,0.4,0.2,0.8,0.8,0.8c0.2,0,0.3-0.1,0.5-0.2c0.1,0.2,0.3,0.3,0.5,0.3c0.6,0.1,0.9-0.3,0.9-0.7
			c0.1-0.5-0.2-0.8-0.7-0.8c0.2-0.2,0.5-0.2,0.8-0.2v-0.2c0-0.3,0.2-0.5,0.4-0.7c0.1,0.2,0.2,0.5,0.1,0.8V46
			c0.3,0.1,0.5,0.2,0.7,0.4c-0.4-0.1-0.8,0-0.9,0.6c-0.1,0.4,0.1,0.8,0.7,0.9c0.2,0,0.3,0,0.5-0.1c0.3,0.7,1.4,0.6,1.4-0.2l0,0
			c0,0,0-0.1-0.1-0.2c0-0.1-0.1-0.3-0.3-0.4c-0.2-0.2,0.2-0.7,0.6-0.3l0.2,0.3h0.3c0.4-0.5,0.8-0.4,1.3-0.1h-0.1
			c-0.2,0.1-0.5,0.3-0.7,0.5c-0.3,0.4-0.5,0.8-0.5,0.9c0,0.2,0,0.4,0,0.5c-1.1-0.3-3.5-0.9-6.4-0.9s-5.3,0.6-6.4,0.9
			c0-0.2,0-0.4,0-0.6C26.2,48.1,26.1,47.7,25.7,47.3z M37.2,52.3c0,0.3-0.1,0.5-0.4,0.4c-0.4,0-0.9-0.6-0.9-1
			c0.3-0.1,0.5-0.4,0.5-0.7c0-0.4-0.3-0.8-0.8-0.8s-0.8,0.3-0.8,0.8c0,0.2,0.1,0.4,0.2,0.6c0,0,0,0.1-0.1,0.2
			c-0.2,0.3-0.6,0.7-1,0.7c-0.3,0-0.8-0.3-0.8-0.6c0-0.6,0.9-0.7,1.3-0.5l0.3,0.1c-0.2-1-0.5-1.3-1.5-1.4c0-0.2,0-0.5-0.1-0.7
			c-0.1-0.3-0.3-0.5-0.6-0.6c0,0-0.1-0.1-0.2-0.1c-0.1,0-0.2,0.1-0.2,0.1c-0.3,0.1-0.5,0.4-0.6,0.6s-0.1,0.4-0.1,0.7
			c-0.9,0.1-1.3,0.4-1.5,1.4l0.3-0.1c0.4-0.1,1.3-0.1,1.3,0.5c0,0.3-0.4,0.6-0.8,0.6c-0.4,0-0.8-0.4-1-0.7c0-0.1-0.1-0.2-0.1-0.2
			c0.1-0.1,0.2-0.3,0.2-0.6c0-0.4-0.3-0.8-0.8-0.8c-0.4,0-0.8,0.3-0.8,0.8c0,0.3,0.2,0.6,0.5,0.7c0,0.5-0.5,1-0.9,1
			c-0.3,0-0.3-0.2-0.4-0.4c-0.1-0.6,0.6-0.6,1-0.6l0.2-0.4c-0.8-1-1.4-0.7-1.8,0.4c-0.1-0.1-0.3-0.2-0.5-0.3
			c-0.2-0.4-0.4-1.3-0.3-1.7c0-0.2,0.1-0.4,0.1-0.6c2-0.6,4.4-0.9,6.4-0.9c1.9,0,3.6,0.3,4.9,0.5c0.7,0.1,1.2,0.3,1.6,0.4
			c0,0.2,0,0.4,0.1,0.6c0.1,0.4,0,1.2-0.2,1.7c-0.2,0.1-0.4,0.2-0.5,0.3c-0.4-1.1-1-1.4-1.8-0.4l-0.2,0.3
			C36.6,51.6,37.3,51.7,37.2,52.3z M35.7,51.4c-0.2,0-0.4-0.2-0.4-0.4c0-0.2,0.2-0.4,0.4-0.4s0.4,0.2,0.4,0.4
			C36.1,51.2,35.9,51.4,35.7,51.4z M29.8,51c0,0.2-0.2,0.4-0.4,0.4S29,51.2,29,51c0-0.2,0.2-0.4,0.4-0.4
			C29.7,50.6,29.8,50.8,29.8,51z M25.3,52.1c0.1-0.1,0.2-0.2,0.4-0.3c0.6-0.1,1,0.4,1.3,0.7c0.1-0.4,0.2-0.8,0.4-1.1
			c0.2-0.4,0.4-0.4,0.7-0.1c-0.3,0.1-0.7,0.4-0.7,1c0.1,0.5,0.2,0.8,0.8,0.8c0.7-0.1,1.2-0.7,1.3-1.3h0.1c0.2,0.6,0.8,1.1,1.4,1.1
			c1.4,0,1.7-2-0.2-1.9h-0.1c0.2-0.3,0.5-0.4,0.8-0.5c0.2,0,0.4,0,0.4,0c0-0.3,0-0.6,0.1-0.9c0.1-0.2,0.4-0.5,0.4-0.5
			c0.1,0,0.3,0.3,0.4,0.5c0.1,0.2,0.1,0.6,0.1,0.9c0,0,0.3,0,0.4,0c0.3,0,0.6,0.1,0.8,0.5H34c-2-0.1-1.6,1.9-0.2,1.9
			c0.6,0,1.2-0.6,1.4-1.1h0.1c0.1,0.6,0.6,1.3,1.3,1.3c0.5,0,0.7-0.3,0.8-0.8c0.1-0.6-0.3-0.8-0.6-1c0.3-0.3,0.5-0.3,0.7,0.1
			c0.2,0.3,0.3,0.7,0.4,1.1c0.3-0.4,0.8-0.9,1.3-0.7c0.2,0,0.3,0.2,0.4,0.3c-0.9,0.5-1.1,1.2-1.4,2c-0.3-0.1-0.9-0.2-1.7-0.3
			c-1.1-0.2-2.5-0.4-4-0.4h-0.2h-0.2c-1.5,0-2.9,0.2-4,0.4c-0.8,0.1-1.4,0.3-1.7,0.3C26.4,53.2,26.2,52.6,25.3,52.1z M26,56.8
			c0-0.1,0.5-0.6,0.5-0.6s-0.3-0.3-0.3-0.4s-0.1-0.2-0.1-0.3c0-0.1,0-0.4,0.7-0.4s0.7,0.2,0.7,0.4c0,0.3-0.4,0.7-0.4,0.7l0.5,0.6
			v0.1L26,56.8C26,56.9,25.9,56.8,26,56.8z M25.7,79.9H24v-0.1c0-0.1,0.5-0.6,0.5-0.6s-0.3-0.3-0.3-0.4c-0.1-0.1-0.1-0.2-0.1-0.3
			c0-0.1,0-0.4,0.7-0.4c0.7,0,0.7,0.2,0.7,0.4c0,0.3-0.4,0.7-0.4,0.7l0.5,0.6v0.1H25.7z M26.3,78c-1-1-1.7-1.8-2-2.7l4.2,4.2
			C27.8,79.2,27,78.6,26.3,78z M29.4,79.6l-5.3-5.3v-0.7l5.3,5.3V79.6L29.4,79.6z M29.4,78l-5.3-5.3V72l5.3,5.3V78z M29.4,76.4
			l-5.3-5.3v-0.7l5.3,5.3V76.4z M29.4,73.3l-2.9-2.9h-0.1c0,0,0-0.2,0-0.4c0-0.1,0.1-0.4,0.2-0.4c0.1-0.1,0.2-0.2,0.5-0.2
			s0.3,0.4,0.3,0.5c0,0.2-0.1,0.5-0.1,0.5h-0.1l2.1,2.1L29.4,73.3L29.4,73.3z M29.4,70.4h-0.6l0.5,0.6v0.8c0,0,0,0-1.3-1.3h0.3
			c0,0,0-0.1,0-0.3c0-0.3,0.1-0.5,0.2-0.8c0.1-0.2,0.3-0.2,0.3-0.2c0-0.4-0.1-0.6-0.2-0.7c-0.1-0.2-0.3-0.5-1.5-0.5
			c-1.1,0.1-1,0-1.3-0.1s-0.4-0.4-0.4-0.5s-0.1-0.1-0.1-0.1s-0.1,0.1-0.2,0.3c-0.1,0.2,0,0.2,0,0.2s0,0-0.2-0.2
			c-0.1-0.2-0.2-0.2-0.2-0.2s-0.1,0.1-0.1,0.2c0,0.2-0.1,0.4,0,0.6c0.1,0.3,0,0.5,0,0.5c0,0.1,0,0.1,0,0.1c0.1,0,0.2,0,0.5,0.1
			c0.3,0,0.3,0.4,0.4,0.7c0,0.3-0.2,0.9-0.2,0.9h0.3l3.7,3.7v0.7l-4.5-4.5H24c0-5.1,0-13,0-13h5.3v12.7L29.4,70.4L29.4,70.4
			L29.4,70.4z M31.7,83.5h-1.6v-0.1c0-0.1,0.5-0.6,0.5-0.6s-0.3-0.3-0.3-0.4s-0.1-0.2-0.1-0.3c0-0.1,0-0.4,0.7-0.4s0.7,0.2,0.7,0.4
			c0,0.3-0.4,0.7-0.4,0.7l0.5,0.6L31.7,83.5L31.7,83.5z M31.7,67.6h-1.6v-0.1c0-0.1,0.5-0.6,0.5-0.6s-0.3-0.3-0.3-0.4
			s-0.1-0.2-0.1-0.3c0-0.1,0-0.4,0.7-0.4s0.7,0.2,0.7,0.4c0,0.3-0.4,0.7-0.4,0.7l0.5,0.6L31.7,67.6L31.7,67.6z M31.7,56.9h-1.6v-0.1
			c0-0.1,0.5-0.6,0.5-0.6s-0.3-0.3-0.3-0.4s-0.1-0.2-0.1-0.3c0-0.1,0-0.4,0.7-0.4s0.7,0.2,0.7,0.4c0,0.3-0.4,0.7-0.4,0.7l0.5,0.6
			L31.7,56.9L31.7,56.9z M32.2,54.3h-4.7c0.4-0.1,0.8-0.2,1-0.2c1.3-0.2,3-0.4,4-0.4c1.1,0,2.7,0.2,4,0.4c0.4,0.1,0.7,0.1,1,0.2
			h-5.1H32.2L32.2,54.3z M42.5,76.2c-0.4,1.3-1.1,2.4-2,3.5h-7.9v-5.1h10.2C42.7,75.1,42.6,75.7,42.5,76.2z M42.7,69.6H32.5v-5.2
			h10.2V69.6L42.7,69.6z M42.7,55v5.2H32.5V55H42.7z"/>
	</g>
	<g>
		<g>
			<g>
				<path class="st2" d="M310,38.3c-1.5,1-3.4,1.5-5.2,1.5c-1.6,0-3.2-0.2-4.6-0.9c-0.5-0.3-0.6-0.5-0.6-1.4c0-1.7,0.1-3.1,0.2-3.6
					c0-0.2,0.1-0.7,0.4-0.7s0.4,0.2,0.4,0.5c0,0.4,0,0.8,0.1,1.2c0.5,2.4,2.7,3.4,4.9,3.4c3.2,0,4.7-2.3,4.7-4.4
					c0-2.3-0.9-3.6-3.9-6l-1.5-1.3c-3.6-3-4.5-5.1-4.5-7.5c0-3.7,2.8-6.2,7.2-6.2c1.3,0,2.3,0.1,3.2,0.3c0.6,0.1,0.9,0.2,1.2,0.2
					c0.3,0,0.5,0.1,0.5,0.4c0,0.2-0.1,1.3-0.1,3.6c0,0.2,0,0.9-0.4,0.9c-0.3,0-0.4-0.3-0.4-0.6c0-0.4-0.2-1.3-0.4-1.7
					c-0.2-0.3-1.1-1.7-4.1-1.7c-2.3,0-4.1,1.4-4.1,3.8c0,1.9,0.9,3,4.1,5.6l1,0.7c4,3.2,5,5.3,5,8.1C313,34,312.4,36.6,310,38.3z"/>
			</g>
			<g>
				<path class="st2" d="M172.7,24.4c1.2,1.4,5.5,6.1,9.9,10.9c4,4.3,9.5,9.9,9.9,10.3c2,2,2.5,2.4,2.8,2.4s0.3-0.2,0.3-2.7
					l0.1-22.2c0-2.3,0.1-3.1,1.4-3.4c0.5-0.1,0.7-0.1,0.9-0.1c0.3,0,0.4-0.1,0.4-0.3s-0.3-0.3-0.7-0.3c-1.6,0-2.8,0.1-3.2,0.1
					s-2.2-0.1-3.9-0.1c-0.5,0-0.8,0-0.8,0.3c0,0.2,0,0.3,0.3,0.3s1.2,0,1.9,0.2c1.2,0.3,1.4,1.1,1.5,3.6l0.4,19.2
					c-1.2-1.3-5.3-5.9-9.1-9.9c-5.8-6.2-11.5-12.3-12-13c-0.4-0.4-1-1.2-1.3-1.2s-0.4,0.4-0.4,1.9v21.7c0,3.4-0.2,4.5-1.1,4.8
					c-0.6,0.2-1.2,0.2-1.6,0.2c-0.2,0-0.3,0.1-0.3,0.2c0,0.3,0.2,0.3,0.6,0.3c1.7,0,3.3-0.1,3.6-0.1s1.9,0.1,4,0.1
					c0.5,0,0.7-0.1,0.7-0.3s-0.1-0.2-0.3-0.2c-0.3,0-1.2,0-1.9-0.2c-1-0.3-1.4-1.3-1.5-4.4L172.7,24.4z"/>
			</g>
			<g>
				<path class="st2" d="M211.4,30c0-5.9,0-7,0.1-8.2c0.1-1.3,0.4-2,1.4-2.2c0.5-0.1,0.7-0.1,0.9-0.1s0.3-0.1,0.3-0.2
					c0-0.2-0.2-0.3-0.6-0.3c-1.1,0-3.5,0.1-3.7,0.1S207.2,19,206,19c-0.4,0-0.6,0.1-0.6,0.3s0.2,0.2,0.3,0.2c0.3,0,0.8,0,1.2,0.2
					c0.8,0.2,1.2,0.8,1.3,2.1c0.1,1.2,0.1,2.3,0.1,8.2v6.7c0,3.6,0,6.6-0.2,8.2c-0.2,1.1-0.3,1.9-1.1,2.1c-0.3,0.1-0.8,0.2-1.1,0.2
					c-0.2,0-0.3,0.1-0.3,0.2c0,0.2,0.2,0.3,0.6,0.3c1.1,0,3.5-0.1,3.7-0.1s2.6,0.1,4.7,0.1c0.4,0,0.6-0.1,0.6-0.3
					c0-0.1-0.1-0.2-0.3-0.2c-0.3,0-1.2-0.1-1.7-0.2c-1.1-0.2-1.4-1-1.5-2.1c-0.2-1.6-0.2-4.6-0.2-8.2L211.4,30L211.4,30L211.4,30z"
					/>
			</g>
			<g>
				<path class="st2" d="M226,23.7c-0.6-1.5-1-2.7-1-3.1c0-0.3,0.1-0.6,0.5-0.8c0.3-0.2,1-0.2,1.4-0.2c0.3,0,0.4-0.1,0.4-0.3
					s-0.3-0.3-1-0.3c-1.4,0-3.1,0.1-3.5,0.1c-0.5,0-2.6-0.1-4.4-0.1c-0.6,0-1,0-1,0.3c0,0.2,0.1,0.3,0.3,0.3s0.9,0,1.4,0.2
					c1.3,0.4,1.9,0.8,2.7,2.9l9.3,23.2c0.7,1.8,0.9,2.3,1.4,2.3c0.4,0,0.5-0.6,1.6-2.9c0.9-1.9,2.6-5.9,4.9-11.5
					c1.9-4.7,3.8-9.2,4.2-10.3c1-2.6,1.6-3.2,2.1-3.6c0.7-0.5,1.6-0.5,1.8-0.5c0.3,0,0.5-0.1,0.5-0.3s-0.2-0.3-0.6-0.3
					c-1.1,0-2.7,0.1-3,0.1c-0.5,0-2.2-0.1-3.7-0.1c-0.6,0-0.8,0.1-0.8,0.3s0.2,0.2,0.4,0.2c0.4,0,1,0,1.4,0.2s0.5,0.6,0.5,0.9
					c0,0.3-0.2,0.9-0.3,1.4c-0.8,2.7-5.9,15.9-8.1,21L226,23.7z"/>
			</g>
			<g>
				<path class="st2" d="M253.4,36.7c0,3.6,0,6.6-0.2,8.2c-0.2,1.1-0.3,1.9-1.1,2.1c-0.3,0.1-0.8,0.2-1.1,0.2
					c-0.2,0-0.3,0.1-0.3,0.2c0,0.2,0.2,0.3,0.6,0.3c1.1,0,3.5-0.1,3.7-0.1c1.1,0,3.6,0.2,9.4,0.2c1.5,0,1.8,0,2-1
					c0.2-0.8,0.5-3.4,0.5-3.7s0-0.6-0.2-0.6s-0.3,0.2-0.3,0.6c-0.3,1.6-0.7,2.3-1.7,2.7s-2.6,0.4-3.6,0.4c-3.7,0-4.3-0.5-4.4-3.1
					c0-0.8,0-5.2,0-6.5v-3.3c0-0.2,0.1-0.3,0.3-0.3c0.6,0,4.4,0.1,5.4,0.2c1.5,0.2,1.8,0.8,2,1.3s0.2,0.9,0.2,1.2
					c0,0.2,0.1,0.3,0.3,0.3c0.3,0,0.3-0.4,0.3-0.7s0.1-1.7,0.1-2.4c0.1-1.2,0.3-1.9,0.3-2.1c0-0.2-0.1-0.3-0.2-0.3
					c-0.2,0-0.3,0.2-0.6,0.5c-0.3,0.4-0.9,0.5-1.8,0.5c-0.9,0.1-5.5,0.1-6,0.1c-0.2,0-0.2-0.1-0.2-0.4V20.9c0-0.3,0.1-0.4,0.2-0.4
					c0.4,0,4.5,0,5.2,0.1c2,0.2,2.4,0.7,2.7,1.3c0.2,0.5,0.2,1.1,0.2,1.4c0,0.3,0.1,0.5,0.3,0.5c0.2,0,0.2-0.2,0.3-0.4
					c0.1-0.5,0.1-2.1,0.2-2.5c0.1-1.1,0.3-1.5,0.3-1.8c0-0.2,0-0.3-0.1-0.3c-0.2,0-0.3,0.2-0.5,0.2c-0.3,0.1-0.9,0.2-1.6,0.2
					c-0.9,0-8.4,0-8.7,0c-0.2,0-2.6-0.1-4.3-0.1c-0.4,0-0.6,0.1-0.6,0.3s0.1,0.2,0.3,0.2c0.3,0,1,0,1.3,0.1c1.3,0.3,1.6,0.9,1.6,2.2
					c0.1,1.2,0.1,2.3,0.1,8.2L253.4,36.7L253.4,36.7L253.4,36.7L253.4,36.7z"/>
			</g>
			<g>
				<path class="st2" d="M323.5,30c0-5.9,0-7,0.1-8.2c0.1-1.3,0.4-2,1.4-2.2c0.5-0.1,0.7-0.1,0.9-0.1c0.1,0,0.3-0.1,0.3-0.2
					c0-0.2-0.2-0.3-0.6-0.3c-1.1,0-3.5,0.1-3.7,0.1s-2.6-0.1-3.8-0.1c-0.4,0-0.6,0.1-0.6,0.3s0.2,0.2,0.3,0.2c0.3,0,0.8,0,1.2,0.2
					c0.8,0.2,1.2,0.8,1.3,2.1c0.1,1.2,0.1,2.3,0.1,8.2v6.7c0,3.6,0,6.6-0.2,8.2c-0.2,1.1-0.3,1.9-1.1,2.1c-0.3,0.1-0.8,0.2-1.1,0.2
					c-0.2,0-0.3,0.1-0.3,0.2c0,0.2,0.2,0.3,0.6,0.3c1.1,0,3.5-0.1,3.7-0.1s2.6,0.1,4.7,0.1c0.4,0,0.6-0.1,0.6-0.3
					c0-0.1-0.1-0.2-0.3-0.2c-0.3,0-1.2-0.1-1.7-0.2c-1.1-0.2-1.4-1-1.5-2.1c-0.2-1.6-0.2-4.6-0.2-8.2L323.5,30L323.5,30L323.5,30z"
					/>
			</g>
			<g>
				<path class="st2" d="M141.3,16c-0.7-1.9-1.3-3.4-1.3-4.1c0-0.3,0.1-0.7,0.6-1c0.4-0.2,1.3-0.2,1.9-0.2c0.3,0,0.5-0.1,0.5-0.3
					c0-0.2-0.4-0.3-1.3-0.3c-1.9,0-4.1,0.1-4.6,0.1c-0.6,0-3.4-0.1-5.7-0.1c-0.8,0-1.3,0-1.3,0.3c0,0.2,0.1,0.3,0.4,0.3
					s1.1,0,1.9,0.2c1.7,0.5,2.4,1,3.5,3.8l12,30c0.9,2.3,1.2,3,1.8,3c0.5,0,0.7-0.8,2.1-3.7c1.1-2.4,3.3-7.7,6.3-14.8
					c2.5-6,4.9-11.9,5.5-13.3c1.3-3.3,2.1-4.2,2.7-4.6c0.9-0.6,2-0.6,2.4-0.6s0.6-0.1,0.6-0.3c0-0.2-0.3-0.3-0.8-0.3
					c-1.4,0-3.5,0.1-3.8,0.1c-0.6,0-2.8-0.1-4.8-0.1c-0.8,0-1.1,0.1-1.1,0.4c0,0.2,0.2,0.3,0.5,0.3c0.5,0,1.3,0,1.9,0.2
					c0.5,0.2,0.6,0.7,0.6,1.1s-0.2,1.1-0.4,1.9c-1.1,3.5-7.6,20.6-10.5,27.2L141.3,16z"/>
			</g>
			<path class="st2" d="M386.1,47.4c0-0.2-0.2-0.2-0.4-0.2c-0.4,0-1,0-1.6-0.2c-0.8-0.2-2.1-0.8-4.1-4.2
				c-3.5-5.8-12.8-21.4-13.6-22.8c-0.7-1.2-0.9-1.4-1.1-1.4s-0.3,0.2-0.5,1.5L361,43.5c-0.3,1.9-0.7,3.3-2.4,3.6
				c-0.3,0-0.8,0.1-1.1,0.1c-0.2,0-0.3,0.1-0.3,0.2c0,0.2,0.3,0.3,0.8,0.3c1.8,0,3.8-0.1,4.3-0.1c0.4,0,2.1,0.1,3,0.1
				c0.3,0,0.6-0.1,0.5-0.3c0-0.2-0.2-0.2-0.4-0.2H365c-0.6,0-1.5-0.3-1.7-1.1c-0.1-0.7-0.1-1.6,0-2.5l0.9-6.7c0-0.2,0.1-0.3,0.3-0.3
				h8.1c0.2,0,0.3,0.1,0.4,0.2l5.5,9.3c0.4,0.6,0.2,0.9,0,1c-0.1,0-0.2,0.1-0.2,0.3s0.5,0.2,1.2,0.3c2.6,0.1,5.4,0.1,6,0.1
				C385.8,47.7,386.1,47.6,386.1,47.4z M371.8,35.1h-7.2c-0.1,0-0.2-0.1-0.2-0.3l1.2-10.2c0.1-0.6,0.3-0.6,0.6,0l5.7,10.2
				C372,35,372,35.1,371.8,35.1z"/>
			<path class="st2" d="M345.2,20.7l4.8,0.1c3.6,0.1,4.5,0.9,4.7,2.1v0.4c0,0.5,0.1,0.6,0.3,0.6c0.2,0,0.3-0.2,0.3-0.5
				c0-0.4,0.1-3,0.1-4.2c0-0.2,0-0.5-0.2-0.5c-0.3,0-1.3,0.4-3.7,0.4h-14.2c-0.5,0-1.9-0.1-3-0.2c-1-0.1-1.4-0.5-1.7-0.5
				c-0.2,0-0.3,0.5-0.4,0.7c-0.1,0.3-0.8,3.6-0.8,3.9c0,0.2,0.1,0.3,0.2,0.3c0.2,0,0.3-0.1,0.4-0.4c0.1-0.3,0.2-0.5,0.6-1.2
				c0.6-0.9,1.5-1.2,3.9-1.2l5.6-0.1v16c0,3.6,0,6.6-0.2,8.2c-0.2,1.1-0.3,1.9-1.1,2.1c-0.3,0.1-0.8,0.2-1.1,0.2
				c-0.2,0-0.3,0.1-0.3,0.2c0,0.2,0.2,0.3,0.6,0.3c1.1,0,3.5-0.1,3.7-0.1s2.6,0.1,4.7,0.1c0.4,0,0.6-0.1,0.6-0.3
				c0-0.1-0.1-0.2-0.3-0.2c-0.3,0-1.2-0.1-1.7-0.2c-1.1-0.2-1.4-1-1.5-2.1c-0.2-1.6-0.2-4.6-0.2-8.2L345.2,20.7L345.2,20.7z"/>
			<path class="st2" d="M395.2,20.7l4.8,0.1c3.6,0.1,4.5,0.9,4.7,2.1v0.4c0,0.5,0.1,0.6,0.3,0.6c0.2,0,0.3-0.2,0.3-0.5
				c0-0.4,0.1-3,0.1-4.2c0-0.2,0-0.5-0.2-0.5c-0.3,0-1.3,0.4-3.7,0.4h-14.2c-0.5,0-1.9-0.1-3-0.2c-1-0.1-1.4-0.5-1.7-0.5
				c-0.1,0-0.3,0.5-0.4,0.7c-0.1,0.3-0.8,3.6-0.8,3.9c0,0.2,0.1,0.3,0.2,0.3s0.3-0.1,0.4-0.4c0.1-0.3,0.2-0.5,0.6-1.2
				c0.6-0.9,1.5-1.2,3.9-1.2l5.6-0.1v16c0,3.6,0,6.6-0.2,8.2c-0.2,1.1-0.3,1.9-1.1,2.1c-0.3,0.1-0.8,0.2-1.1,0.2
				c-0.2,0-0.3,0.1-0.3,0.2c0,0.2,0.2,0.3,0.6,0.3c1.1,0,3.5-0.1,3.7-0.1s2.6,0.1,4.7,0.1c0.4,0,0.6-0.1,0.6-0.3
				c0-0.1-0.1-0.2-0.3-0.2c-0.3,0-1.2-0.1-1.7-0.2c-1.1-0.2-1.4-1-1.5-2.1c-0.2-1.6-0.2-4.6-0.2-8.2L395.2,20.7L395.2,20.7z"/>
			<path class="st2" d="M309.7,45.2c-0.9,0.3-1.6,1-2.6,1.3c-3.6,0.7-7.8,1.5-10-2c-2.2-3.6-4.6-8.2-8.9-9.6
				c3.4-3.1,4.6-5.9,4.6-8.7c0-2.6-1.7-4.5-2.6-5.2c-2-1.4-4.5-1.7-6.9-1.7c-1.2,0-4.1,0.1-4.5,0.1c-0.2,0-2.6-0.1-4.3-0.1
				c-0.4,0-0.6,0.1-0.6,0.3s0.2,0.2,0.3,0.2c0.3,0,1,0,1.3,0.1c1.3,0.3,1.6,0.9,1.6,2.2c0.1,1.2,0.1,2.3,0.1,8.2V37
				c0,3.6,0,6.6-0.2,8.2c-0.2,1.1-0.3,1.9-1.1,2.1c-0.3,0.1-0.8,0.2-1.1,0.2c-0.2,0-0.3,0.1-0.3,0.2c0,0.2,0.2,0.3,0.6,0.3
				c1.1,0,3.5-0.1,3.6-0.1c0.2,0,2.6,0.1,4.7,0.1c0.4,0,0.6-0.1,0.6-0.3c0-0.1-0.1-0.2-0.3-0.2c-0.3,0-1.2-0.1-1.7-0.2
				c-1.1-0.2-1.4-1-1.5-2.1c-0.2-1.6-0.2-4.6-0.2-8.2v-0.9c0-0.2,0.1-0.3,0.3-0.3l4.7,0.1c3.8,2.5,5.7,6.6,8.6,10
				c3.5,3.7,9.1,3.9,13.4,2.1C308,47.1,309.8,46.5,309.7,45.2z M287.3,33.9c-0.9,0.6-1.9,0.7-2.8,0.7c-1.7,0-3.4-0.3-4-0.6
				c-0.2-0.1-0.3-0.3-0.3-0.5V21.2c0-0.2,0.1-0.4,0.3-0.5c0.4-0.1,1.4-0.2,2.5-0.2c4.1,0,6.6,2.8,6.6,7.6
				C289.6,31,288.6,33,287.3,33.9z"/>
		</g>
		<g>
			<path class="st2" d="M160.5,69.1c-5.5-4.6-13.9-4.3-18.4-4.3c-2.8,0-5.7,0.1-6.2,0.1c-0.2,0-3.1-0.1-5.2-0.1
				c-0.5,0-0.7,0.1-0.7,0.3c0,0.1,0.2,0.2,0.4,0.2c0.4,0,1.2,0,1.6,0.1c1.5,0.3,1.9,0.9,2,2.1s0.1,2.3,0.1,8.1v6.7
				c0,3.6,0,6.6-0.2,8.2c-0.2,1.1-0.4,1.9-1.3,2.1c-0.4,0.1-1,0.1-1.4,0.1c-0.3,0-0.4,0.1-0.4,0.2c0,0.2,0.2,0.3,0.7,0.3
				c1.4,0,4.3-0.1,4.5-0.1c0.5,0,6.3,0.4,10.2,0.4c7.8,0,11.9-2.6,13.9-4.3c2.6-2.2,5-5.9,5-10.6C164.9,74.2,162.8,71,160.5,69.1z
				 M158.7,88.8c-2.7,2.2-8.2,3.5-12.5,3.5c-5.4,0-7.2-0.8-7.8-1.5c-0.4-0.4-0.5-1.9-0.5-2.9c0-0.7-0.1-4.2-0.1-8.2V75
				c0-2.9,0-6.7,0-8c0-0.4,0.1-0.6,0.6-0.8c0.4-0.1,2.1-0.3,3-0.3c5.5,0,12.3,0.5,16.6,4.2c1.9,1.6,4.4,4.7,4.4,9.5
				C162.3,83.3,161.1,86.9,158.7,88.8z"/>
			<g>
				<path class="st2" d="M145.2,81.5c0,2.3,0,4.2-0.1,5.3c-0.1,0.7-0.2,1.2-0.7,1.3c-0.2,0-0.5,0.1-0.7,0.1c-0.1,0-0.2,0.1-0.2,0.1
					c0,0.1,0.1,0.2,0.4,0.2c0.7,0,2.3-0.1,2.4-0.1c0.7,0,2.3,0.1,6,0.1c0.9,0,1.1,0,1.3-0.6c0.1-0.5,0.3-2.2,0.3-2.4
					c0-0.2,0-0.4-0.1-0.4s-0.2,0.1-0.2,0.4c-0.2,1-0.5,1.5-1.1,1.7c-0.6,0.3-1.7,0.3-2.3,0.3c-2.4,0-2.7-0.3-2.8-2
					c0-0.5,0-3.3,0-4.1v-2.1c0-0.1,0-0.2,0.2-0.2c0.4,0,2.8,0.1,3.5,0.1c0.9,0.1,1.2,0.5,1.3,0.8s0.1,0.6,0.1,0.8
					c0,0.1,0,0.2,0.2,0.2s0.2-0.3,0.2-0.5s0-1.1,0.1-1.6c0.1-0.8,0.2-1.2,0.2-1.4c0-0.1,0-0.2-0.1-0.2s-0.2,0.1-0.4,0.3
					c-0.2,0.2-0.6,0.3-1.1,0.3c-0.6,0-3.5,0-3.9,0c-0.1,0-0.1-0.1-0.1-0.2V71c0-0.2,0-0.2,0.1-0.2c0.3,0,2.9,0,3.3,0.1
					c1.3,0.1,1.6,0.4,1.7,0.8c0.1,0.3,0.1,0.7,0.1,0.9c0,0.2,0,0.3,0.2,0.3c0.1,0,0.1-0.1,0.2-0.3c0-0.3,0.1-1.4,0.1-1.6
					c0.1-0.7,0.2-1,0.2-1.1s0-0.2-0.1-0.2s-0.2,0.1-0.3,0.1c-0.2,0-0.6,0.1-1,0.1c-0.6,0-5.4,0-5.6,0c-0.1,0-1.6-0.1-2.7-0.1
					c-0.3,0-0.4,0-0.4,0.2c0,0.1,0.1,0.1,0.2,0.1c0.2,0,0.6,0,0.8,0.1c0.8,0.2,1,0.6,1,1.4s0,1.5,0,5.2L145.2,81.5L145.2,81.5
					L145.2,81.5z"/>
			</g>
		</g>
		<g>
			<g>
				<path class="st2" d="M293.2,61.8c0.2,0,0.3-0.1,0.3-0.2s-0.3-0.3-0.7-0.5c-1.6-1-4.3-2.9-4.6-3.2c-0.3-0.3-0.4-0.6-0.6-0.6
					c-0.1,0-0.3,0.1-0.6,0.2c-0.5,0.2-1.5,0.5-2.3,0.7c-0.3,0.1-0.4,0.1-0.4,0.3c0,0.2,0.3,0.3,1.1,0.6
					C286.1,59.4,292.5,61.8,293.2,61.8z"/>
				<path class="st2" d="M285.7,82.4c0,3.6,0,6.6-0.2,8.2c-0.2,1.1-0.3,1.9-1.1,2.1c-0.3,0.1-0.8,0.2-1.1,0.2
					c-0.2,0-0.3,0.1-0.3,0.2c0,0.2,0.2,0.3,0.6,0.3c1.1,0,3.5-0.1,3.7-0.1c1.1,0,3.6,0.2,9.4,0.2c1.5,0,1.8,0,2-1
					c0.2-0.8,0.5-3.4,0.5-3.7c0-0.3,0-0.6-0.2-0.6s-0.3,0.2-0.3,0.6c-0.3,1.6-0.7,2.3-1.7,2.7c-1,0.4-2.6,0.4-3.6,0.4
					c-3.7,0-4.3-0.5-4.4-3.1c0-0.8,0-5.2,0-6.5V79c0-0.2,0.1-0.3,0.3-0.3c0.6,0,4.4,0.1,5.4,0.2c1.5,0.2,1.8,0.8,2,1.3
					c0.1,0.5,0.1,0.9,0.1,1.3c0,0.2,0.1,0.3,0.3,0.3c0.3,0,0.3-0.4,0.3-0.7c0-0.3,0.1-1.7,0.2-2.4c0.1-1.2,0.3-1.9,0.3-2.1
					s-0.1-0.3-0.2-0.3c-0.2,0-0.3,0.2-0.6,0.5c-0.3,0.4-0.9,0.5-1.8,0.5c-0.9,0.1-5.5,0.1-6,0.1c-0.2,0-0.2-0.1-0.2-0.4V66.6
					c0-0.3,0.1-0.4,0.2-0.4c0.4,0,4.5,0,5.2,0.1c2,0.2,2.4,0.7,2.7,1.3c0.2,0.5,0.2,1.1,0.2,1.4s0.1,0.5,0.3,0.5
					c0.2,0,0.2-0.2,0.3-0.4c0.1-0.5,0.2-2.1,0.2-2.5c0.1-1.1,0.3-1.5,0.3-1.8c0-0.2,0-0.3-0.2-0.3s-0.3,0.2-0.5,0.2
					c-0.3,0.1-0.9,0.2-1.6,0.2c-0.9,0-8.4,0-8.7,0c-0.2,0-2.6-0.1-4.3-0.1c-0.4,0-0.6,0.1-0.6,0.3c0,0.2,0.2,0.2,0.3,0.2
					c0.3,0,1,0,1.3,0.1c1.2,0.3,1.5,0.9,1.6,2.2c0.1,1.2,0.1,2.3,0.1,8.2L285.7,82.4L285.7,82.4L285.7,82.4L285.7,82.4z"/>
			</g>
			<g>
				<path class="st2" d="M209.2,61.5c-0.7-1.9-1.3-3.4-1.3-4.1c0-0.3,0.1-0.7,0.6-1c0.4-0.2,1.3-0.2,1.9-0.2c0.3,0,0.5-0.1,0.5-0.3
					c0-0.2-0.4-0.3-1.3-0.3c-1.9,0-4.1,0.1-4.6,0.1c-0.6,0-3.4-0.1-5.7-0.1c-0.8,0-1.3,0.1-1.3,0.3c0,0.2,0.1,0.3,0.4,0.3
					s1.1,0,1.9,0.2c1.7,0.5,2.4,1,3.5,3.8l12,30c0.9,2.3,1.2,3,1.8,3c0.5,0,0.7-0.8,2.1-3.7c1.1-2.4,3.3-7.7,6.3-14.8
					c2.5-6,4.9-11.9,5.5-13.3c1.3-3.3,2.1-4.2,2.7-4.6c0.9-0.6,2-0.6,2.3-0.6c0.4,0,0.6-0.1,0.6-0.3c0-0.2-0.3-0.3-0.8-0.3
					c-1.4,0-3.5,0.1-3.8,0.1c-0.6,0-2.8-0.1-4.8-0.1c-0.8,0-1.1,0.1-1.1,0.4c0,0.2,0.2,0.3,0.5,0.3c0.5,0,1.3,0,1.9,0.2
					c0.5,0.2,0.6,0.7,0.6,1.1s-0.2,1.1-0.4,1.9c-1.1,3.5-7.6,20.6-10.5,27.2L209.2,61.5z"/>
			</g>
			<path class="st2" d="M415.7,93.1c0-0.2-0.2-0.2-0.4-0.2c-0.4,0-1,0-1.6-0.2c-0.8-0.2-2.1-0.8-4.1-4.2
				c-3.5-5.8-12.8-21.4-13.6-22.8c-0.7-1.2-0.9-1.4-1.1-1.4s-0.3,0.2-0.5,1.5l-3.6,23.5c-0.3,1.9-0.7,3.3-2.4,3.6
				c-0.3,0-0.8,0.1-1.1,0.1c-0.2,0-0.3,0.1-0.3,0.2c0,0.2,0.3,0.3,0.8,0.3c1.8,0,3.8-0.1,4.3-0.1c0.4,0,2.1,0.1,3,0.1
				c0.3,0,0.6-0.1,0.5-0.3c0-0.1-0.2-0.2-0.4-0.2h-0.4c-0.6,0-1.5-0.3-1.7-1.1c-0.1-0.7-0.1-1.6,0-2.5l0.9-6.7
				c0-0.2,0.1-0.3,0.3-0.3h8.1c0.2,0,0.3,0.1,0.4,0.2l5.5,9.3c0.4,0.6,0.2,0.9,0,1c-0.1,0-0.2,0.1-0.2,0.3c0,0.2,0.5,0.2,1.2,0.3
				c2.6,0.1,5.4,0.1,6,0.1C415.4,93.4,415.8,93.4,415.7,93.1z M401.4,80.9h-7.2c-0.1,0-0.2-0.1-0.2-0.3l1.2-10.2
				c0.1-0.6,0.3-0.6,0.6,0l5.7,10.2C401.6,80.8,401.6,80.9,401.4,80.9z"/>
			<path class="st2" d="M254.6,92.7c-0.4,0-0.9,0-1.5-0.2c-0.8-0.2-1.9-0.8-3.3-4.2c-2.3-5.8-8.3-21.4-8.8-22.8
				c-0.5-1.2-0.6-1.4-0.8-1.4s-0.4,0.2-0.8,1.5l-8.6,23.5c-0.7,1.9-1.4,3.3-3.2,3.6c-0.3,0-0.8,0.1-1.1,0.1c-0.2,0-0.3,0.1-0.3,0.2
				c0,0.2,0.2,0.3,0.7,0.3c1.8,0,3.9-0.1,4.3-0.1c0.4,0,2,0.1,3,0.1c0.3,0,0.6-0.1,0.6-0.3c0-0.1-0.1-0.2-0.4-0.2H234
				c-0.6,0-1.4-0.3-1.4-1.1c0-0.7,0.2-1.6,0.5-2.5l2.3-6.7c0.1-0.2,0.2-0.3,0.4-0.3h8.1c0.2,0,0.3,0.1,0.3,0.2l3.5,9.3
				c0.2,0.6,0,0.9-0.2,1c-0.2,0-0.3,0.1-0.3,0.3c0,0.2,0.4,0.2,1.1,0.3c2.6,0.1,5.4,0.1,5.9,0.1c0.4,0,0.8-0.1,0.8-0.3
				C255,92.8,254.8,92.7,254.6,92.7z M243.3,80.7H236c-0.1,0-0.2-0.1-0.1-0.3l3.3-10.2c0.2-0.6,0.4-0.6,0.6,0l3.6,10.2
				C243.5,80.6,243.5,80.7,243.3,80.7z"/>
			<path class="st2" d="M265.5,75.7c0-5.9,0-7,0.1-8.2c0.1-1.3,0.4-2,1.5-2.2c0.5-0.1,1-0.1,1.2-0.1s0.3-0.1,0.3-0.2
				c0-0.2-0.2-0.3-0.6-0.3c-1.1,0-3.9,0.1-4.1,0.1s-2.6-0.1-4.3-0.1c-0.4,0-0.6,0.1-0.6,0.3c0,0.2,0.1,0.2,0.3,0.2
				c0.3,0,1,0,1.3,0.1c1.3,0.3,1.6,0.9,1.6,2.2c0.1,1.2,0.1,2.3,0.1,8.2v6.7c0,3.6,0,6.6-0.2,8.2c-0.1,1.1-0.3,1.9-1.1,2.1
				c-0.3,0.1-0.8,0.2-1.1,0.2c-0.2,0-0.3,0.1-0.3,0.2c0,0.2,0.2,0.3,0.6,0.3c1.1,0,3.4-0.1,3.7-0.1c2.2,0,4.7,0.2,10.1,0.2
				c2,0,2.1-0.2,2.4-1c0.3-1.1,0.6-3.4,0.6-3.8s0-0.6-0.2-0.6s-0.3,0.2-0.3,0.5c-0.1,0.7-0.5,1.7-1,2.3c-0.9,1.1-2.6,1.1-4.6,1.1
				c-3,0-3.9-0.3-4.5-0.9c-0.7-0.7-0.8-3.1-0.8-8.7L265.5,75.7L265.5,75.7L265.5,75.7L265.5,75.7z"/>
			<path class="st2" d="M310.8,70.1c1.2,1.4,5.5,6.1,9.9,10.9c4,4.3,9.5,9.9,9.9,10.3c2,2,2.5,2.4,2.8,2.4s0.3-0.2,0.3-2.7l0.1-22.2
				c0-2.3,0.2-3.1,1.4-3.4c0.5-0.1,0.7-0.1,0.9-0.1c0.3,0,0.4-0.1,0.4-0.3c0-0.2-0.3-0.3-0.7-0.3c-1.6,0-2.8,0.1-3.2,0.1
				s-2.2-0.1-3.9-0.1c-0.5,0-0.8,0-0.8,0.3c0,0.1,0,0.3,0.3,0.3s1.2,0,1.9,0.2c1.2,0.3,1.4,1.1,1.5,3.6l0.4,19.2
				c-1.2-1.3-5.3-5.9-9.1-9.9c-5.8-6.3-11.5-12.3-12-13c-0.4-0.4-1-1.2-1.3-1.2s-0.4,0.4-0.4,1.9v21.7c0,3.4-0.2,4.5-1.1,4.8
				c-0.6,0.2-1.3,0.2-1.6,0.2c-0.2,0-0.3,0.1-0.3,0.2c0,0.3,0.2,0.3,0.6,0.3c1.7,0,3.3-0.1,3.6-0.1c0.3,0,1.9,0.1,4,0.1
				c0.5,0,0.7-0.1,0.7-0.3c0-0.2-0.1-0.2-0.3-0.2c-0.3,0-1.2,0-1.9-0.2c-1-0.3-1.4-1.3-1.5-4.4L310.8,70.1z"/>
			<path class="st2" d="M359.2,93.9c2.4,0,5.3-0.3,6.8-0.9c0.7-0.3,0.8-0.4,1-1.1c0.4-1.3,0.8-4.6,0.8-4.8c0-0.3-0.1-0.6-0.3-0.6
				c-0.2,0-0.3,0.2-0.4,0.6c-0.1,0.7-0.6,2.3-1.4,3.2c-1.5,1.6-3.8,1.9-6.6,1.9c-8.1,0-13.7-6.6-13.7-13.9c0-3.9,0.6-7.2,3.4-9.9
				c1.3-1.3,3.7-2.8,8.7-2.8c3.3,0,6.2,1,7.6,2.2c1,0.8,1.6,2.4,1.6,3.9c0,0.5,0,0.8,0.3,0.8c0.2,0,0.3-0.2,0.3-0.8
				c0-0.6,0-2.7,0.1-3.9c0.1-1.4,0.2-1.8,0.2-2.1c0-0.2-0.1-0.4-0.5-0.4c-1.2-0.1-2.4-0.3-3.9-0.6c-1.9-0.3-4-0.5-5.5-0.5
				c-5.8,0-9.3,1.8-11.6,4.1c-3.4,3.4-4.2,7.8-4.2,10.3c0,3.6,0.9,7.9,4.6,11.2C349.7,92.5,353.5,93.9,359.2,93.9z"/>
			<path class="st2" d="M380.3,75.7c0-5.9,0-7,0.1-8.2c0.1-1.3,0.4-2,1.4-2.2c0.5-0.1,0.7-0.1,0.9-0.1c0.2,0,0.3-0.1,0.3-0.2
				c0-0.2-0.2-0.3-0.6-0.3c-1.1,0-3.5,0.1-3.7,0.1s-2.6-0.1-3.8-0.1c-0.4,0-0.6,0.1-0.6,0.3c0,0.2,0.2,0.2,0.3,0.2
				c0.3,0,0.8,0,1.2,0.2c0.8,0.2,1.2,0.8,1.3,2.1c0.1,1.2,0.1,2.3,0.1,8.2v6.7c0,3.6,0,6.6-0.2,8.2c-0.2,1.1-0.3,1.9-1.1,2.1
				c-0.3,0.1-0.8,0.2-1.1,0.2c-0.2,0-0.3,0.1-0.3,0.2c0,0.2,0.2,0.3,0.6,0.3c1.1,0,3.5-0.1,3.7-0.1s2.6,0.1,4.7,0.1
				c0.4,0,0.6-0.1,0.6-0.3c0-0.1-0.1-0.2-0.3-0.2c-0.3,0-1.2-0.1-1.7-0.2c-1.1-0.2-1.4-1-1.5-2.1c-0.2-1.6-0.2-4.6-0.2-8.2
				L380.3,75.7L380.3,75.7z"/>
		</g>
		<g>
			<g>
				<g>
					<path class="st2" d="M198.9,74.5c-1.8-0.2-4.3,0.4-6.4,0.2c0-0.2-0.1-0.3-0.1-0.5l-0.4-1.9c-0.4-2.3-1.1-4.5-2.1-6.7
						c-1.4-2.1-3.6-4.2-6.3-4c-3.3,0.5-6.2,3.8-7.4,6.8c-2.3,5.9-3.9,11.4-3.4,17.9c0.6,2.8,2.3,6.2,5.5,6.9c0,0,1.6,0.3,1.9,0.3
						l-0.5,8.2l0.5,0.8c2.8,0.5,6-0.6,8-2.4c0-0.5,0-1.3-0.5-1.7c-2.1-1.4-4.2,0.9-6,1.3c0.1-2.2,0.3-3.9,0.7-6c1.3,0,2.3,0,3.4-0.3
						c3.2-0.9,3.8-2.3,5.4-4.4c1.4-3.6,1.6-7.9,1.5-11.8c2.3-0.4,4.5-0.4,6.4-1.6C199.3,75.1,199,74.8,198.9,74.5z M188.8,88.1
						c-1.9,2.7-4.8,3.7-7.9,3.3c-2.1-0.1-4.2-0.6-5.3-2.7c-2.5-6.7,0.5-13.6,2.4-19.7c0.9-2.3,2.7-4.7,5.5-5
						c2.1-0.1,3.8,1.6,4.8,3.3c0.9,2.2,1.2,2.8,1.6,5.7c0,0,0.3,1.4,0.4,1.6c0,0.1,0,0.2,0.1,0.3c-2,0.2-4,0.2-5.5-1.1
						c-0.2,0.1-0.7,0.6-0.7,0.9c1.1,2.2,3.9,2.5,6.5,2.3C190.7,80.9,190,84.7,188.8,88.1z"/>
					<path class="st2" d="M184,69c0.2,1.1-0.4,2.2-1.3,2.6c-0.8,0.4-1.7-0.4-1.8-1.1c-0.2-1.2,0.8-2,1.8-2.5
						C183.3,68,184,68.4,184,69z"/>
				</g>
			</g>
			<g>
				<g>
					<polygon class="st2" points="192.4,54 187,58.1 188,59.5 193.8,55.9 					"/>
					<polygon class="st2" points="172.6,54 171.2,55.9 177,59.5 178,58.1 					"/>
				</g>
				<polygon class="st2" points="181.6,58 181.3,51.1 183.7,51.1 183.4,58 				"/>
			</g>
		</g>
	</g>
</g>
</svg>
